<?xml version="1.0" standalone="no"?>
<!DOCTYPE svg PUBLIC "-//W3C//DTD SVG 1.1//EN" "http://www.w3.org/Graphics/SVG/1.1/DTD/svg11.dtd" >
<svg>
<font id="SMOL-QuantumScript" horiz-adv-x="27" >
<font-face units-per-em="100" ascent="80" descent="-20" />
<glyph unicode=" " horiz-adv-x="27" d="" />
<glyph unicode="!" horiz-adv-x="92" d="M46 78 L57.5 78 L57.5 66.5 L46 66.5 C46 70.33333 46 74.16667 46 78 zM57.5 78 L69 78 L69 66.5 L57.5 66.5 C57.5 70.33333 57.5 74.16667 57.5 78 zM69 78 L80.5 78 L80.5 66.5 L69 66.5 C69 70.33333 69 74.16667 69 78 zM80.5 78 L92 78 L92 66.5 L80.5 66.5 C80.5 70.33333 80.5 74.16667 80.5 78 zM11.5 78 L23 78 L23 66.5 L11.5 66.5 C11.5 70.33333 11.5 74.16667 11.5 78 zM23 78 L34.5 78 L34.5 66.5 L23 66.5 C23 70.33333 23 74.16667 23 78 zM34.5 78 L46 78 L46 66.5 L34.5 66.5 C34.5 70.33333 34.5 74.16667 34.5 78 zM0 78 L11.5 78 L11.5 66.5 L0 66.5 C0 70.33333 0 74.16667 0 78 z" />
<glyph unicode="&#x22;" horiz-adv-x="92" d="M46 78 L57.5 78 L57.5 66.5 L46 66.5 C46 70.33333 46 74.16667 46 78 zM57.5 78 L69 78 L69 66.5 L57.5 66.5 C57.5 70.33333 57.5 74.16667 57.5 78 zM69 78 L80.5 78 L80.5 66.5 L69 66.5 C69 70.33333 69 74.16667 69 78 zM80.5 78 L92 78 L92 66.5 L80.5 66.5 C80.5 70.33333 80.5 74.16667 80.5 78 zM11.5 78 L23 78 L23 66.5 L11.5 66.5 C11.5 70.33333 11.5 74.16667 11.5 78 zM23 78 L34.5 78 L34.5 66.5 L23 66.5 C23 70.33333 23 74.16667 23 78 zM34.5 78 L46 78 L46 66.5 L34.5 66.5 C34.5 70.33333 34.5 74.16667 34.5 78 zM0 78 L11.5 78 L11.5 66.5 L0 66.5 C0 70.33333 0 74.16667 0 78 z" />
<glyph unicode="#" horiz-adv-x="92" d="M46 78 L57.5 78 L57.5 66.5 L46 66.5 C46 70.33333 46 74.16667 46 78 zM57.5 78 L69 78 L69 66.5 L57.5 66.5 C57.5 70.33333 57.5 74.16667 57.5 78 zM69 78 L80.5 78 L80.5 66.5 L69 66.5 C69 70.33333 69 74.16667 69 78 zM80.5 78 L92 78 L92 66.5 L80.5 66.5 C80.5 70.33333 80.5 74.16667 80.5 78 zM11.5 78 L23 78 L23 66.5 L11.5 66.5 C11.5 70.33333 11.5 74.16667 11.5 78 zM23 78 L34.5 78 L34.5 66.5 L23 66.5 C23 70.33333 23 74.16667 23 78 zM34.5 78 L46 78 L46 66.5 L34.5 66.5 C34.5 70.33333 34.5 74.16667 34.5 78 zM0 78 L11.5 78 L11.5 66.5 L0 66.5 C0 70.33333 0 74.16667 0 78 z" />
<glyph unicode="$" horiz-adv-x="92" d="M46 78 L57.5 78 L57.5 66.5 L46 66.5 C46 70.33333 46 74.16667 46 78 zM57.5 78 L69 78 L69 66.5 L57.5 66.5 C57.5 70.33333 57.5 74.16667 57.5 78 zM69 78 L80.5 78 L80.5 66.5 L69 66.5 C69 70.33333 69 74.16667 69 78 zM80.5 78 L92 78 L92 66.5 L80.5 66.5 C80.5 70.33333 80.5 74.16667 80.5 78 zM11.5 78 L23 78 L23 66.5 L11.5 66.5 C11.5 70.33333 11.5 74.16667 11.5 78 zM23 78 L34.5 78 L34.5 66.5 L23 66.5 C23 70.33333 23 74.16667 23 78 zM34.5 78 L46 78 L46 66.5 L34.5 66.5 C34.5 70.33333 34.5 74.16667 34.5 78 zM0 78 L11.5 78 L11.5 66.5 L0 66.5 C0 70.33333 0 74.16667 0 78 z" />
<glyph unicode="%" horiz-adv-x="92" d="M46 78 L57.5 78 L57.5 66.5 L46 66.5 C46 70.33333 46 74.16667 46 78 zM57.5 78 L69 78 L69 66.5 L57.5 66.5 C57.5 70.33333 57.5 74.16667 57.5 78 zM69 78 L80.5 78 L80.5 66.5 L69 66.5 C69 70.33333 69 74.16667 69 78 zM80.5 78 L92 78 L92 66.5 L80.5 66.5 C80.5 70.33333 80.5 74.16667 80.5 78 zM11.5 78 L23 78 L23 66.5 L11.5 66.5 C11.5 70.33333 11.5 74.16667 11.5 78 zM23 78 L34.5 78 L34.5 66.5 L23 66.5 C23 70.33333 23 74.16667 23 78 zM34.5 78 L46 78 L46 66.5 L34.5 66.5 C34.5 70.33333 34.5 74.16667 34.5 78 zM0 78 L11.5 78 L11.5 66.5 L0 66.5 C0 70.33333 0 74.16667 0 78 z" />
<glyph unicode="&#x26;" horiz-adv-x="92" d="M46 78 L57.5 78 L57.5 66.5 L46 66.5 C46 70.33333 46 74.16667 46 78 zM57.5 78 L69 78 L69 66.5 L57.5 66.5 C57.5 70.33333 57.5 74.16667 57.5 78 zM69 78 L80.5 78 L80.5 66.5 L69 66.5 C69 70.33333 69 74.16667 69 78 zM80.5 78 L92 78 L92 66.5 L80.5 66.5 C80.5 70.33333 80.5 74.16667 80.5 78 zM11.5 78 L23 78 L23 66.5 L11.5 66.5 C11.5 70.33333 11.5 74.16667 11.5 78 zM23 78 L34.5 78 L34.5 66.5 L23 66.5 C23 70.33333 23 74.16667 23 78 zM34.5 78 L46 78 L46 66.5 L34.5 66.5 C34.5 70.33333 34.5 74.16667 34.5 78 zM0 78 L11.5 78 L11.5 66.5 L0 66.5 C0 70.33333 0 74.16667 0 78 z" />
<glyph unicode="'" horiz-adv-x="92" d="M46 55 L57.5 55 L57.5 43.5 L46 43.5 C46 47.33333 46 51.16667 46 55 zM34.5 55 L46 55 L46 43.5 L34.5 43.5 C34.5 47.33333 34.5 51.16667 34.5 55 zM23 55 L34.5 55 L34.5 43.5 L23 43.5 C23 47.33333 23 51.16667 23 55 zM11.5 55 L23 55 L23 43.5 L11.5 43.5 C11.5 47.33333 11.5 51.16667 11.5 55 zM0 55 L11.5 55 L11.5 43.5 L0 43.5 C0 47.33333 0 51.16667 0 55 zM57.5 55 L69 55 L69 43.5 L57.5 43.5 C57.5 47.33333 57.5 51.16667 57.5 55 zM69 55 L80.5 55 L80.5 43.5 L69 43.5 C69 47.33333 69 51.16667 69 55 zM80.5 55 L92 55 L92 43.5 L80.5 43.5 C80.5 47.33333 80.5 51.16667 80.5 55 zM46 66.5 L57.5 66.5 L57.5 55 L46 55 C46 58.83333 46 62.66667 46 66.5 zM57.5 66.5 L69 66.5 L69 55 L57.5 55 C57.5 58.83333 57.5 62.66667 57.5 66.5 zM69 66.5 L80.5 66.5 L80.5 55 L69 55 C69 58.83333 69 62.66667 69 66.5 zM80.5 66.5 L91.99999 66.5 L91.99999 55 L80.5 55 C80.5 58.83333 80.5 62.66667 80.5 66.5 zM11.5 66.5 L23 66.5 L23 55 L11.5 55 C11.5 58.83333 11.5 62.66667 11.5 66.5 zM23 66.5 L34.5 66.5 L34.5 55 L23 55 C23 58.83333 23 62.66667 23 66.5 zM34.5 66.5 L46 66.5 L46 55 L34.5 55 C34.5 58.83333 34.5 62.66667 34.5 66.5 zM0 66.5 L11.5 66.5 L11.5 55 L0 55 C0 58.83333 0 62.66667 0 66.5 zM46 78 L57.5 78 L57.5 66.5 L46 66.5 C46 70.33333 46 74.16667 46 78 zM57.5 78 L68.99999 78 L68.99999 66.5 L57.5 66.5 C57.5 70.33333 57.5 74.16667 57.5 78 zM68.99999 78 L80.49999 78 L80.49999 66.5 L68.99999 66.5 C68.99999 70.33333 68.99999 74.16667 68.99999 78 zM80.49999 78 L91.99999 78 L91.99999 66.5 L80.49999 66.5 C80.49999 70.33333 80.49999 74.16667 80.49999 78 zM11.5 78 L23 78 L23 66.5 L11.5 66.5 C11.5 70.33333 11.5 74.16667 11.5 78 zM23 78 L34.5 78 L34.5 66.5 L23 66.5 C23 70.33333 23 74.16667 23 78 zM34.5 78 L46 78 L46 66.5 L34.5 66.5 C34.5 70.33333 34.5 74.16667 34.5 78 zM0 78 L11.5 78 L11.5 66.5 L0 66.5 C0 70.33333 0 74.16667 0 78 z" />
<glyph unicode="(" horiz-adv-x="92" d="M46 78 L57.5 78 L57.5 66.5 L46 66.5 C46 70.33333 46 74.16667 46 78 zM57.5 78 L69 78 L69 66.5 L57.5 66.5 C57.5 70.33333 57.5 74.16667 57.5 78 zM69 78 L80.5 78 L80.5 66.5 L69 66.5 C69 70.33333 69 74.16667 69 78 zM80.5 78 L92 78 L92 66.5 L80.5 66.5 C80.5 70.33333 80.5 74.16667 80.5 78 zM11.5 78 L23 78 L23 66.5 L11.5 66.5 C11.5 70.33333 11.5 74.16667 11.5 78 zM23 78 L34.5 78 L34.5 66.5 L23 66.5 C23 70.33333 23 74.16667 23 78 zM34.5 78 L46 78 L46 66.5 L34.5 66.5 C34.5 70.33333 34.5 74.16667 34.5 78 zM0 78 L11.5 78 L11.5 66.5 L0 66.5 C0 70.33333 0 74.16667 0 78 z" />
<glyph unicode=")" horiz-adv-x="92" d="M46 78 L57.5 78 L57.5 66.5 L46 66.5 C46 70.33333 46 74.16667 46 78 zM57.5 78 L69 78 L69 66.5 L57.5 66.5 C57.5 70.33333 57.5 74.16667 57.5 78 zM69 78 L80.5 78 L80.5 66.5 L69 66.5 C69 70.33333 69 74.16667 69 78 zM80.5 78 L92 78 L92 66.5 L80.5 66.5 C80.5 70.33333 80.5 74.16667 80.5 78 zM11.5 78 L23 78 L23 66.5 L11.5 66.5 C11.5 70.33333 11.5 74.16667 11.5 78 zM23 78 L34.5 78 L34.5 66.5 L23 66.5 C23 70.33333 23 74.16667 23 78 zM34.5 78 L46 78 L46 66.5 L34.5 66.5 C34.5 70.33333 34.5 74.16667 34.5 78 zM0 78 L11.5 78 L11.5 66.5 L0 66.5 C0 70.33333 0 74.16667 0 78 z" />
<glyph unicode="*" horiz-adv-x="92" d="M46 78 L57.5 78 L57.5 66.5 L46 66.5 C46 70.33333 46 74.16667 46 78 zM57.5 78 L69 78 L69 66.5 L57.5 66.5 C57.5 70.33333 57.5 74.16667 57.5 78 zM69 78 L80.5 78 L80.5 66.5 L69 66.5 C69 70.33333 69 74.16667 69 78 zM80.5 78 L92 78 L92 66.5 L80.5 66.5 C80.5 70.33333 80.5 74.16667 80.5 78 zM11.5 78 L23 78 L23 66.5 L11.5 66.5 C11.5 70.33333 11.5 74.16667 11.5 78 zM23 78 L34.5 78 L34.5 66.5 L23 66.5 C23 70.33333 23 74.16667 23 78 zM34.5 78 L46 78 L46 66.5 L34.5 66.5 C34.5 70.33333 34.5 74.16667 34.5 78 zM0 78 L11.5 78 L11.5 66.5 L0 66.5 C0 70.33333 0 74.16667 0 78 z" />
<glyph unicode="+" horiz-adv-x="92" d="M46 78 L57.5 78 L57.5 66.5 L46 66.5 C46 70.33333 46 74.16667 46 78 zM57.5 78 L69 78 L69 66.5 L57.5 66.5 C57.5 70.33333 57.5 74.16667 57.5 78 zM69 78 L80.5 78 L80.5 66.5 L69 66.5 C69 70.33333 69 74.16667 69 78 zM80.5 78 L92 78 L92 66.5 L80.5 66.5 C80.5 70.33333 80.5 74.16667 80.5 78 zM11.5 78 L23 78 L23 66.5 L11.5 66.5 C11.5 70.33333 11.5 74.16667 11.5 78 zM23 78 L34.5 78 L34.5 66.5 L23 66.5 C23 70.33333 23 74.16667 23 78 zM34.5 78 L46 78 L46 66.5 L34.5 66.5 C34.5 70.33333 34.5 74.16667 34.5 78 zM0 78 L11.5 78 L11.5 66.5 L0 66.5 C0 70.33333 0 74.16667 0 78 z" />
<glyph unicode="," horiz-adv-x="92" d="M46 78 L57.5 78 L57.5 66.5 L46 66.5 C46 70.33333 46 74.16667 46 78 zM57.5 78 L69 78 L69 66.5 L57.5 66.5 C57.5 70.33333 57.5 74.16667 57.5 78 zM69 78 L80.5 78 L80.5 66.5 L69 66.5 C69 70.33333 69 74.16667 69 78 zM80.5 78 L92 78 L92 66.5 L80.5 66.5 C80.5 70.33333 80.5 74.16667 80.5 78 zM11.5 78 L23 78 L23 66.5 L11.5 66.5 C11.5 70.33333 11.5 74.16667 11.5 78 zM23 78 L34.5 78 L34.5 66.5 L23 66.5 C23 70.33333 23 74.16667 23 78 zM34.5 78 L46 78 L46 66.5 L34.5 66.5 C34.5 70.33333 34.5 74.16667 34.5 78 zM0 78 L11.5 78 L11.5 66.5 L0 66.5 C0 70.33333 0 74.16667 0 78 z" />
<glyph unicode="-" horiz-adv-x="92" d="M46 78 L57.5 78 L57.5 66.5 L46 66.5 C46 70.33333 46 74.16667 46 78 zM57.5 78 L69 78 L69 66.5 L57.5 66.5 C57.5 70.33333 57.5 74.16667 57.5 78 zM69 78 L80.5 78 L80.5 66.5 L69 66.5 C69 70.33333 69 74.16667 69 78 zM80.5 78 L92 78 L92 66.5 L80.5 66.5 C80.5 70.33333 80.5 74.16667 80.5 78 zM11.5 78 L23 78 L23 66.5 L11.5 66.5 C11.5 70.33333 11.5 74.16667 11.5 78 zM23 78 L34.5 78 L34.5 66.5 L23 66.5 C23 70.33333 23 74.16667 23 78 zM34.5 78 L46 78 L46 66.5 L34.5 66.5 C34.5 70.33333 34.5 74.16667 34.5 78 zM0 78 L11.5 78 L11.5 66.5 L0 66.5 C0 70.33333 0 74.16667 0 78 z" />
<glyph unicode="." horiz-adv-x="92" d="M46 78 L57.5 78 L57.5 66.5 L46 66.5 C46 70.33333 46 74.16667 46 78 zM57.5 78 L69 78 L69 66.5 L57.5 66.5 C57.5 70.33333 57.5 74.16667 57.5 78 zM69 78 L80.5 78 L80.5 66.5 L69 66.5 C69 70.33333 69 74.16667 69 78 zM80.5 78 L92 78 L92 66.5 L80.5 66.5 C80.5 70.33333 80.5 74.16667 80.5 78 zM11.5 78 L23 78 L23 66.5 L11.5 66.5 C11.5 70.33333 11.5 74.16667 11.5 78 zM23 78 L34.5 78 L34.5 66.5 L23 66.5 C23 70.33333 23 74.16667 23 78 zM34.5 78 L46 78 L46 66.5 L34.5 66.5 C34.5 70.33333 34.5 74.16667 34.5 78 zM0 78 L11.5 78 L11.5 66.5 L0 66.5 C0 70.33333 0 74.16667 0 78 z" />
<glyph unicode="/" horiz-adv-x="92" d="M46 78 L57.5 78 L57.5 66.5 L46 66.5 C46 70.33333 46 74.16667 46 78 zM57.5 78 L69 78 L69 66.5 L57.5 66.5 C57.5 70.33333 57.5 74.16667 57.5 78 zM69 78 L80.5 78 L80.5 66.5 L69 66.5 C69 70.33333 69 74.16667 69 78 zM80.5 78 L92 78 L92 66.5 L80.5 66.5 C80.5 70.33333 80.5 74.16667 80.5 78 zM11.5 78 L23 78 L23 66.5 L11.5 66.5 C11.5 70.33333 11.5 74.16667 11.5 78 zM23 78 L34.5 78 L34.5 66.5 L23 66.5 C23 70.33333 23 74.16667 23 78 zM34.5 78 L46 78 L46 66.5 L34.5 66.5 C34.5 70.33333 34.5 74.16667 34.5 78 zM0 78 L11.5 78 L11.5 66.5 L0 66.5 C0 70.33333 0 74.16667 0 78 z" />
<glyph unicode="0" horiz-adv-x="92" d="M46 78 L57.5 78 L57.5 66.5 L46 66.5 C46 70.33333 46 74.16667 46 78 zM57.5 78 L69 78 L69 66.5 L57.5 66.5 C57.5 70.33333 57.5 74.16667 57.5 78 zM69 78 L80.5 78 L80.5 66.5 L69 66.5 C69 70.33333 69 74.16667 69 78 zM80.5 78 L92 78 L92 66.5 L80.5 66.5 C80.5 70.33333 80.5 74.16667 80.5 78 zM11.5 78 L23 78 L23 66.5 L11.5 66.5 C11.5 70.33333 11.5 74.16667 11.5 78 zM23 78 L34.5 78 L34.5 66.5 L23 66.5 C23 70.33333 23 74.16667 23 78 zM34.5 78 L46 78 L46 66.5 L34.5 66.5 C34.5 70.33333 34.5 74.16667 34.5 78 zM0 78 L11.5 78 L11.5 66.5 L0 66.5 C0 70.33333 0 74.16667 0 78 z" />
<glyph unicode="1" horiz-adv-x="92" d="M46 78 L57.5 78 L57.5 66.5 L46 66.5 C46 70.33333 46 74.16667 46 78 zM57.5 78 L69 78 L69 66.5 L57.5 66.5 C57.5 70.33333 57.5 74.16667 57.5 78 zM69 78 L80.5 78 L80.5 66.5 L69 66.5 C69 70.33333 69 74.16667 69 78 zM80.5 78 L92 78 L92 66.5 L80.5 66.5 C80.5 70.33333 80.5 74.16667 80.5 78 zM11.5 78 L23 78 L23 66.5 L11.5 66.5 C11.5 70.33333 11.5 74.16667 11.5 78 zM23 78 L34.5 78 L34.5 66.5 L23 66.5 C23 70.33333 23 74.16667 23 78 zM34.5 78 L46 78 L46 66.5 L34.5 66.5 C34.5 70.33333 34.5 74.16667 34.5 78 zM0 78 L11.5 78 L11.5 66.5 L0 66.5 C0 70.33333 0 74.16667 0 78 z" />
<glyph unicode="2" horiz-adv-x="92" d="M46 78 L57.5 78 L57.5 66.5 L46 66.5 C46 70.33333 46 74.16667 46 78 zM57.5 78 L69 78 L69 66.5 L57.5 66.5 C57.5 70.33333 57.5 74.16667 57.5 78 zM69 78 L80.5 78 L80.5 66.5 L69 66.5 C69 70.33333 69 74.16667 69 78 zM80.5 78 L92 78 L92 66.5 L80.5 66.5 C80.5 70.33333 80.5 74.16667 80.5 78 zM11.5 78 L23 78 L23 66.5 L11.5 66.5 C11.5 70.33333 11.5 74.16667 11.5 78 zM23 78 L34.5 78 L34.5 66.5 L23 66.5 C23 70.33333 23 74.16667 23 78 zM34.5 78 L46 78 L46 66.5 L34.5 66.5 C34.5 70.33333 34.5 74.16667 34.5 78 zM0 78 L11.5 78 L11.5 66.5 L0 66.5 C0 70.33333 0 74.16667 0 78 z" />
<glyph unicode="3" horiz-adv-x="92" d="M46 78 L57.5 78 L57.5 66.5 L46 66.5 C46 70.33333 46 74.16667 46 78 zM57.5 78 L69 78 L69 66.5 L57.5 66.5 C57.5 70.33333 57.5 74.16667 57.5 78 zM69 78 L80.5 78 L80.5 66.5 L69 66.5 C69 70.33333 69 74.16667 69 78 zM80.5 78 L92 78 L92 66.5 L80.5 66.5 C80.5 70.33333 80.5 74.16667 80.5 78 zM11.5 78 L23 78 L23 66.5 L11.5 66.5 C11.5 70.33333 11.5 74.16667 11.5 78 zM23 78 L34.5 78 L34.5 66.5 L23 66.5 C23 70.33333 23 74.16667 23 78 zM34.5 78 L46 78 L46 66.5 L34.5 66.5 C34.5 70.33333 34.5 74.16667 34.5 78 zM0 78 L11.5 78 L11.5 66.5 L0 66.5 C0 70.33333 0 74.16667 0 78 z" />
<glyph unicode="4" horiz-adv-x="92" d="M46 78 L57.5 78 L57.5 66.5 L46 66.5 C46 70.33333 46 74.16667 46 78 zM57.5 78 L69 78 L69 66.5 L57.5 66.5 C57.5 70.33333 57.5 74.16667 57.5 78 zM69 78 L80.5 78 L80.5 66.5 L69 66.5 C69 70.33333 69 74.16667 69 78 zM80.5 78 L92 78 L92 66.5 L80.5 66.5 C80.5 70.33333 80.5 74.16667 80.5 78 zM11.5 78 L23 78 L23 66.5 L11.5 66.5 C11.5 70.33333 11.5 74.16667 11.5 78 zM23 78 L34.5 78 L34.5 66.5 L23 66.5 C23 70.33333 23 74.16667 23 78 zM34.5 78 L46 78 L46 66.5 L34.5 66.5 C34.5 70.33333 34.5 74.16667 34.5 78 zM0 78 L11.5 78 L11.5 66.5 L0 66.5 C0 70.33333 0 74.16667 0 78 z" />
<glyph unicode="5" horiz-adv-x="92" d="M46 78 L57.5 78 L57.5 66.5 L46 66.5 C46 70.33333 46 74.16667 46 78 zM57.5 78 L69 78 L69 66.5 L57.5 66.5 C57.5 70.33333 57.5 74.16667 57.5 78 zM69 78 L80.5 78 L80.5 66.5 L69 66.5 C69 70.33333 69 74.16667 69 78 zM80.5 78 L92 78 L92 66.5 L80.5 66.5 C80.5 70.33333 80.5 74.16667 80.5 78 zM11.5 78 L23 78 L23 66.5 L11.5 66.5 C11.5 70.33333 11.5 74.16667 11.5 78 zM23 78 L34.5 78 L34.5 66.5 L23 66.5 C23 70.33333 23 74.16667 23 78 zM34.5 78 L46 78 L46 66.5 L34.5 66.5 C34.5 70.33333 34.5 74.16667 34.5 78 zM0 78 L11.5 78 L11.5 66.5 L0 66.5 C0 70.33333 0 74.16667 0 78 z" />
<glyph unicode="6" horiz-adv-x="92" d="M46 78 L57.5 78 L57.5 66.5 L46 66.5 C46 70.33333 46 74.16667 46 78 zM57.5 78 L69 78 L69 66.5 L57.5 66.5 C57.5 70.33333 57.5 74.16667 57.5 78 zM69 78 L80.5 78 L80.5 66.5 L69 66.5 C69 70.33333 69 74.16667 69 78 zM80.5 78 L92 78 L92 66.5 L80.5 66.5 C80.5 70.33333 80.5 74.16667 80.5 78 zM11.5 78 L23 78 L23 66.5 L11.5 66.5 C11.5 70.33333 11.5 74.16667 11.5 78 zM23 78 L34.5 78 L34.5 66.5 L23 66.5 C23 70.33333 23 74.16667 23 78 zM34.5 78 L46 78 L46 66.5 L34.5 66.5 C34.5 70.33333 34.5 74.16667 34.5 78 zM0 78 L11.5 78 L11.5 66.5 L0 66.5 C0 70.33333 0 74.16667 0 78 z" />
<glyph unicode="7" horiz-adv-x="92" d="M46 78 L57.5 78 L57.5 66.5 L46 66.5 C46 70.33333 46 74.16667 46 78 zM57.5 78 L69 78 L69 66.5 L57.5 66.5 C57.5 70.33333 57.5 74.16667 57.5 78 zM69 78 L80.5 78 L80.5 66.5 L69 66.5 C69 70.33333 69 74.16667 69 78 zM80.5 78 L92 78 L92 66.5 L80.5 66.5 C80.5 70.33333 80.5 74.16667 80.5 78 zM11.5 78 L23 78 L23 66.5 L11.5 66.5 C11.5 70.33333 11.5 74.16667 11.5 78 zM23 78 L34.5 78 L34.5 66.5 L23 66.5 C23 70.33333 23 74.16667 23 78 zM34.5 78 L46 78 L46 66.5 L34.5 66.5 C34.5 70.33333 34.5 74.16667 34.5 78 zM0 78 L11.5 78 L11.5 66.5 L0 66.5 C0 70.33333 0 74.16667 0 78 z" />
<glyph unicode="8" horiz-adv-x="92" d="M46 78 L57.5 78 L57.5 66.5 L46 66.5 C46 70.33333 46 74.16667 46 78 zM57.5 78 L69 78 L69 66.5 L57.5 66.5 C57.5 70.33333 57.5 74.16667 57.5 78 zM69 78 L80.5 78 L80.5 66.5 L69 66.5 C69 70.33333 69 74.16667 69 78 zM80.5 78 L92 78 L92 66.5 L80.5 66.5 C80.5 70.33333 80.5 74.16667 80.5 78 zM11.5 78 L23 78 L23 66.5 L11.5 66.5 C11.5 70.33333 11.5 74.16667 11.5 78 zM23 78 L34.5 78 L34.5 66.5 L23 66.5 C23 70.33333 23 74.16667 23 78 zM34.5 78 L46 78 L46 66.5 L34.5 66.5 C34.5 70.33333 34.5 74.16667 34.5 78 zM0 78 L11.5 78 L11.5 66.5 L0 66.5 C0 70.33333 0 74.16667 0 78 z" />
<glyph unicode="9" horiz-adv-x="92" d="M46 78 L57.5 78 L57.5 66.5 L46 66.5 C46 70.33333 46 74.16667 46 78 zM57.5 78 L69 78 L69 66.5 L57.5 66.5 C57.5 70.33333 57.5 74.16667 57.5 78 zM69 78 L80.5 78 L80.5 66.5 L69 66.5 C69 70.33333 69 74.16667 69 78 zM80.5 78 L92 78 L92 66.5 L80.5 66.5 C80.5 70.33333 80.5 74.16667 80.5 78 zM11.5 78 L23 78 L23 66.5 L11.5 66.5 C11.5 70.33333 11.5 74.16667 11.5 78 zM23 78 L34.5 78 L34.5 66.5 L23 66.5 C23 70.33333 23 74.16667 23 78 zM34.5 78 L46 78 L46 66.5 L34.5 66.5 C34.5 70.33333 34.5 74.16667 34.5 78 zM0 78 L11.5 78 L11.5 66.5 L0 66.5 C0 70.33333 0 74.16667 0 78 z" />
<glyph unicode=":" horiz-adv-x="92" d="M46 78 L57.5 78 L57.5 66.5 L46 66.5 C46 70.33333 46 74.16667 46 78 zM57.5 78 L69 78 L69 66.5 L57.5 66.5 C57.5 70.33333 57.5 74.16667 57.5 78 zM69 78 L80.5 78 L80.5 66.5 L69 66.5 C69 70.33333 69 74.16667 69 78 zM80.5 78 L92 78 L92 66.5 L80.5 66.5 C80.5 70.33333 80.5 74.16667 80.5 78 zM11.5 78 L23 78 L23 66.5 L11.5 66.5 C11.5 70.33333 11.5 74.16667 11.5 78 zM23 78 L34.5 78 L34.5 66.5 L23 66.5 C23 70.33333 23 74.16667 23 78 zM34.5 78 L46 78 L46 66.5 L34.5 66.5 C34.5 70.33333 34.5 74.16667 34.5 78 zM0 78 L11.5 78 L11.5 66.5 L0 66.5 C0 70.33333 0 74.16667 0 78 z" />
<glyph unicode=";" horiz-adv-x="92" d="M46 78 L57.5 78 L57.5 66.5 L46 66.5 C46 70.33333 46 74.16667 46 78 zM57.5 78 L69 78 L69 66.5 L57.5 66.5 C57.5 70.33333 57.5 74.16667 57.5 78 zM69 78 L80.5 78 L80.5 66.5 L69 66.5 C69 70.33333 69 74.16667 69 78 zM80.5 78 L92 78 L92 66.5 L80.5 66.5 C80.5 70.33333 80.5 74.16667 80.5 78 zM11.5 78 L23 78 L23 66.5 L11.5 66.5 C11.5 70.33333 11.5 74.16667 11.5 78 zM23 78 L34.5 78 L34.5 66.5 L23 66.5 C23 70.33333 23 74.16667 23 78 zM34.5 78 L46 78 L46 66.5 L34.5 66.5 C34.5 70.33333 34.5 74.16667 34.5 78 zM0 78 L11.5 78 L11.5 66.5 L0 66.5 C0 70.33333 0 74.16667 0 78 z" />
<glyph unicode="&#x3c;" horiz-adv-x="92" d="M46 77.99786 L57.5 77.99786 L57.5 66.49786 L46 66.49786 C46 70.3312 46 74.16453 46 77.99786 zM57.5 77.99786 L69 77.99786 L69 66.49786 L57.5 66.49786 C57.5 70.3312 57.5 74.16453 57.5 77.99786 zM69 77.99786 L80.5 77.99786 L80.5 66.49786 L69 66.49786 C69 70.3312 69 74.16453 69 77.99786 zM80.5 77.99786 L92 77.99786 L92 66.49786 L80.5 66.49786 C80.5 70.3312 80.5 74.16453 80.5 77.99786 zM11.5 77.99786 L23 77.99786 L23 66.49786 L11.5 66.49786 C11.5 70.3312 11.5 74.16453 11.5 77.99786 zM23 77.99786 L34.5 77.99786 L34.5 66.49786 L23 66.49786 C23 70.3312 23 74.16453 23 77.99786 zM34.5 77.99786 L46 77.99786 L46 66.49786 L34.5 66.49786 C34.5 70.3312 34.5 74.16453 34.5 77.99786 zM0 77.99786 L11.5 77.99786 L11.5 66.49786 L0 66.49786 C0 70.3312 0 74.16453 0 77.99786 z" />
<glyph unicode="=" horiz-adv-x="92" d="M46 78 L57.5 78 L57.5 66.5 L46 66.5 C46 70.33333 46 74.16667 46 78 zM57.5 78 L69 78 L69 66.5 L57.5 66.5 C57.5 70.33333 57.5 74.16667 57.5 78 zM69 78 L80.5 78 L80.5 66.5 L69 66.5 C69 70.33333 69 74.16667 69 78 zM80.5 78 L92 78 L92 66.5 L80.5 66.5 C80.5 70.33333 80.5 74.16667 80.5 78 zM11.5 78 L23 78 L23 66.5 L11.5 66.5 C11.5 70.33333 11.5 74.16667 11.5 78 zM23 78 L34.5 78 L34.5 66.5 L23 66.5 C23 70.33333 23 74.16667 23 78 zM34.5 78 L46 78 L46 66.5 L34.5 66.5 C34.5 70.33333 34.5 74.16667 34.5 78 zM0 78 L11.5 78 L11.5 66.5 L0 66.5 C0 70.33333 0 74.16667 0 78 z" />
<glyph unicode="&#x3e;" horiz-adv-x="92" d="M46 78 L57.5 78 L57.5 66.5 L46 66.5 C46 70.33333 46 74.16667 46 78 zM57.5 78 L69 78 L69 66.5 L57.5 66.5 C57.5 70.33333 57.5 74.16667 57.5 78 zM69 78 L80.5 78 L80.5 66.5 L69 66.5 C69 70.33333 69 74.16667 69 78 zM80.5 78 L92 78 L92 66.5 L80.5 66.5 C80.5 70.33333 80.5 74.16667 80.5 78 zM11.5 78 L23 78 L23 66.5 L11.5 66.5 C11.5 70.33333 11.5 74.16667 11.5 78 zM23 78 L34.5 78 L34.5 66.5 L23 66.5 C23 70.33333 23 74.16667 23 78 zM34.5 78 L46 78 L46 66.5 L34.5 66.5 C34.5 70.33333 34.5 74.16667 34.5 78 zM0 78 L11.5 78 L11.5 66.5 L0 66.5 C0 70.33333 0 74.16667 0 78 z" />
<glyph unicode="?" horiz-adv-x="92" d="M46 78 L57.5 78 L57.5 66.5 L46 66.5 C46 70.33333 46 74.16667 46 78 zM57.5 78 L69 78 L69 66.5 L57.5 66.5 C57.5 70.33333 57.5 74.16667 57.5 78 zM69 78 L80.5 78 L80.5 66.5 L69 66.5 C69 70.33333 69 74.16667 69 78 zM80.5 78 L92 78 L92 66.5 L80.5 66.5 C80.5 70.33333 80.5 74.16667 80.5 78 zM11.5 78 L23 78 L23 66.5 L11.5 66.5 C11.5 70.33333 11.5 74.16667 11.5 78 zM23 78 L34.5 78 L34.5 66.5 L23 66.5 C23 70.33333 23 74.16667 23 78 zM34.5 78 L46 78 L46 66.5 L34.5 66.5 C34.5 70.33333 34.5 74.16667 34.5 78 zM0 78 L11.5 78 L11.5 66.5 L0 66.5 C0 70.33333 0 74.16667 0 78 z" />
<glyph unicode="@" horiz-adv-x="92" d="M46 78 L57.5 78 L57.5 66.5 L46 66.5 C46 70.33333 46 74.16667 46 78 zM57.5 78 L69 78 L69 66.5 L57.5 66.5 C57.5 70.33333 57.5 74.16667 57.5 78 zM69 78 L80.5 78 L80.5 66.5 L69 66.5 C69 70.33333 69 74.16667 69 78 zM80.5 78 L92 78 L92 66.5 L80.5 66.5 C80.5 70.33333 80.5 74.16667 80.5 78 zM11.5 78 L23 78 L23 66.5 L11.5 66.5 C11.5 70.33333 11.5 74.16667 11.5 78 zM23 78 L34.5 78 L34.5 66.5 L23 66.5 C23 70.33333 23 74.16667 23 78 zM34.5 78 L46 78 L46 66.5 L34.5 66.5 C34.5 70.33333 34.5 74.16667 34.5 78 zM0 78 L11.5 78 L11.5 66.5 L0 66.5 C0 70.33333 0 74.16667 0 78 z" />
<glyph unicode="A" horiz-adv-x="92" d="M46 78 L57.5 78 L57.5 66.5 L46 66.5 C46 70.33333 46 74.16667 46 78 zM57.5 78 L69 78 L69 66.5 L57.5 66.5 C57.5 70.33333 57.5 74.16667 57.5 78 zM69 78 L80.5 78 L80.5 66.5 L69 66.5 C69 70.33333 69 74.16667 69 78 zM80.5 78 L92 78 L92 66.5 L80.5 66.5 C80.5 70.33333 80.5 74.16667 80.5 78 zM11.5 78 L23 78 L23 66.5 L11.5 66.5 C11.5 70.33333 11.5 74.16667 11.5 78 zM23 78 L34.5 78 L34.5 66.5 L23 66.5 C23 70.33333 23 74.16667 23 78 zM34.5 78 L46 78 L46 66.5 L34.5 66.5 C34.5 70.33333 34.5 74.16667 34.5 78 zM0 78 L11.5 78 L11.5 66.5 L0 66.5 C0 70.33333 0 74.16667 0 78 z" />
<glyph unicode="B" horiz-adv-x="92" d="M46 78 L57.5 78 L57.5 66.5 L46 66.5 C46 70.33333 46 74.16667 46 78 zM57.5 78 L69 78 L69 66.5 L57.5 66.5 C57.5 70.33333 57.5 74.16667 57.5 78 zM69 78 L80.5 78 L80.5 66.5 L69 66.5 C69 70.33333 69 74.16667 69 78 zM80.5 78 L92 78 L92 66.5 L80.5 66.5 C80.5 70.33333 80.5 74.16667 80.5 78 zM11.5 78 L23 78 L23 66.5 L11.5 66.5 C11.5 70.33333 11.5 74.16667 11.5 78 zM23 78 L34.5 78 L34.5 66.5 L23 66.5 C23 70.33333 23 74.16667 23 78 zM34.5 78 L46 78 L46 66.5 L34.5 66.5 C34.5 70.33333 34.5 74.16667 34.5 78 zM0 78 L11.5 78 L11.5 66.5 L0 66.5 C0 70.33333 0 74.16667 0 78 z" />
<glyph unicode="C" horiz-adv-x="92" d="M46 78 L57.5 78 L57.5 66.5 L46 66.5 C46 70.33333 46 74.16667 46 78 zM57.5 78 L69 78 L69 66.5 L57.5 66.5 C57.5 70.33333 57.5 74.16667 57.5 78 zM69 78 L80.5 78 L80.5 66.5 L69 66.5 C69 70.33333 69 74.16667 69 78 zM80.5 78 L92 78 L92 66.5 L80.5 66.5 C80.5 70.33333 80.5 74.16667 80.5 78 zM11.5 78 L23 78 L23 66.5 L11.5 66.5 C11.5 70.33333 11.5 74.16667 11.5 78 zM23 78 L34.5 78 L34.5 66.5 L23 66.5 C23 70.33333 23 74.16667 23 78 zM34.5 78 L46 78 L46 66.5 L34.5 66.5 C34.5 70.33333 34.5 74.16667 34.5 78 zM0 78 L11.5 78 L11.5 66.5 L0 66.5 C0 70.33333 0 74.16667 0 78 z" />
<glyph unicode="D" horiz-adv-x="92" d="M46 78 L57.5 78 L57.5 66.5 L46 66.5 C46 70.33333 46 74.16667 46 78 zM57.5 78 L69 78 L69 66.5 L57.5 66.5 C57.5 70.33333 57.5 74.16667 57.5 78 zM69 78 L80.5 78 L80.5 66.5 L69 66.5 C69 70.33333 69 74.16667 69 78 zM80.5 78 L92 78 L92 66.5 L80.5 66.5 C80.5 70.33333 80.5 74.16667 80.5 78 zM11.5 78 L23 78 L23 66.5 L11.5 66.5 C11.5 70.33333 11.5 74.16667 11.5 78 zM23 78 L34.5 78 L34.5 66.5 L23 66.5 C23 70.33333 23 74.16667 23 78 zM34.5 78 L46 78 L46 66.5 L34.5 66.5 C34.5 70.33333 34.5 74.16667 34.5 78 zM0 78 L11.5 78 L11.5 66.5 L0 66.5 C0 70.33333 0 74.16667 0 78 z" />
<glyph unicode="E" horiz-adv-x="92" d="M46 78 L57.5 78 L57.5 66.5 L46 66.5 C46 70.33333 46 74.16667 46 78 zM57.5 78 L69 78 L69 66.5 L57.5 66.5 C57.5 70.33333 57.5 74.16667 57.5 78 zM69 78 L80.5 78 L80.5 66.5 L69 66.5 C69 70.33333 69 74.16667 69 78 zM80.5 78 L92 78 L92 66.5 L80.5 66.5 C80.5 70.33333 80.5 74.16667 80.5 78 zM11.5 78 L23 78 L23 66.5 L11.5 66.5 C11.5 70.33333 11.5 74.16667 11.5 78 zM23 78 L34.5 78 L34.5 66.5 L23 66.5 C23 70.33333 23 74.16667 23 78 zM34.5 78 L46 78 L46 66.5 L34.5 66.5 C34.5 70.33333 34.5 74.16667 34.5 78 zM0 78 L11.5 78 L11.5 66.5 L0 66.5 C0 70.33333 0 74.16667 0 78 z" />
<glyph unicode="F" horiz-adv-x="92" d="M46 78 L57.5 78 L57.5 66.5 L46 66.5 C46 70.33333 46 74.16667 46 78 zM57.5 78 L69 78 L69 66.5 L57.5 66.5 C57.5 70.33333 57.5 74.16667 57.5 78 zM69 78 L80.5 78 L80.5 66.5 L69 66.5 C69 70.33333 69 74.16667 69 78 zM80.5 78 L92 78 L92 66.5 L80.5 66.5 C80.5 70.33333 80.5 74.16667 80.5 78 zM11.5 78 L23 78 L23 66.5 L11.5 66.5 C11.5 70.33333 11.5 74.16667 11.5 78 zM23 78 L34.5 78 L34.5 66.5 L23 66.5 C23 70.33333 23 74.16667 23 78 zM34.5 78 L46 78 L46 66.5 L34.5 66.5 C34.5 70.33333 34.5 74.16667 34.5 78 zM0 78 L11.5 78 L11.5 66.5 L0 66.5 C0 70.33333 0 74.16667 0 78 z" />
<glyph unicode="G" horiz-adv-x="92" d="M46 78 L57.5 78 L57.5 66.5 L46 66.5 C46 70.33333 46 74.16667 46 78 zM57.5 78 L69 78 L69 66.5 L57.5 66.5 C57.5 70.33333 57.5 74.16667 57.5 78 zM69 78 L80.5 78 L80.5 66.5 L69 66.5 C69 70.33333 69 74.16667 69 78 zM80.5 78 L92 78 L92 66.5 L80.5 66.5 C80.5 70.33333 80.5 74.16667 80.5 78 zM11.5 78 L23 78 L23 66.5 L11.5 66.5 C11.5 70.33333 11.5 74.16667 11.5 78 zM23 78 L34.5 78 L34.5 66.5 L23 66.5 C23 70.33333 23 74.16667 23 78 zM34.5 78 L46 78 L46 66.5 L34.5 66.5 C34.5 70.33333 34.5 74.16667 34.5 78 zM0 78 L11.5 78 L11.5 66.5 L0 66.5 C0 70.33333 0 74.16667 0 78 z" />
<glyph unicode="H" horiz-adv-x="92" d="M46 78 L57.5 78 L57.5 66.5 L46 66.5 C46 70.33333 46 74.16667 46 78 zM57.5 78 L69 78 L69 66.5 L57.5 66.5 C57.5 70.33333 57.5 74.16667 57.5 78 zM69 78 L80.5 78 L80.5 66.5 L69 66.5 C69 70.33333 69 74.16667 69 78 zM80.5 78 L92 78 L92 66.5 L80.5 66.5 C80.5 70.33333 80.5 74.16667 80.5 78 zM11.5 78 L23 78 L23 66.5 L11.5 66.5 C11.5 70.33333 11.5 74.16667 11.5 78 zM23 78 L34.5 78 L34.5 66.5 L23 66.5 C23 70.33333 23 74.16667 23 78 zM34.5 78 L46 78 L46 66.5 L34.5 66.5 C34.5 70.33333 34.5 74.16667 34.5 78 zM0 78 L11.5 78 L11.5 66.5 L0 66.5 C0 70.33333 0 74.16667 0 78 z" />
<glyph unicode="I" horiz-adv-x="92" d="M46 78 L57.5 78 L57.5 66.5 L46 66.5 C46 70.33333 46 74.16667 46 78 zM57.5 78 L69 78 L69 66.5 L57.5 66.5 C57.5 70.33333 57.5 74.16667 57.5 78 zM69 78 L80.5 78 L80.5 66.5 L69 66.5 C69 70.33333 69 74.16667 69 78 zM80.5 78 L92 78 L92 66.5 L80.5 66.5 C80.5 70.33333 80.5 74.16667 80.5 78 zM11.5 78 L23 78 L23 66.5 L11.5 66.5 C11.5 70.33333 11.5 74.16667 11.5 78 zM23 78 L34.5 78 L34.5 66.5 L23 66.5 C23 70.33333 23 74.16667 23 78 zM34.5 78 L46 78 L46 66.5 L34.5 66.5 C34.5 70.33333 34.5 74.16667 34.5 78 zM0 78 L11.5 78 L11.5 66.5 L0 66.5 C0 70.33333 0 74.16667 0 78 z" />
<glyph unicode="J" horiz-adv-x="92" d="M46 78 L57.5 78 L57.5 66.5 L46 66.5 C46 70.33333 46 74.16667 46 78 zM57.5 78 L69 78 L69 66.5 L57.5 66.5 C57.5 70.33333 57.5 74.16667 57.5 78 zM69 78 L80.5 78 L80.5 66.5 L69 66.5 C69 70.33333 69 74.16667 69 78 zM80.5 78 L92 78 L92 66.5 L80.5 66.5 C80.5 70.33333 80.5 74.16667 80.5 78 zM11.5 78 L23 78 L23 66.5 L11.5 66.5 C11.5 70.33333 11.5 74.16667 11.5 78 zM23 78 L34.5 78 L34.5 66.5 L23 66.5 C23 70.33333 23 74.16667 23 78 zM34.5 78 L46 78 L46 66.5 L34.5 66.5 C34.5 70.33333 34.5 74.16667 34.5 78 zM0 78 L11.5 78 L11.5 66.5 L0 66.5 C0 70.33333 0 74.16667 0 78 z" />
<glyph unicode="K" horiz-adv-x="92" d="M46 78 L57.5 78 L57.5 66.5 L46 66.5 C46 70.33333 46 74.16667 46 78 zM57.5 78 L69 78 L69 66.5 L57.5 66.5 C57.5 70.33333 57.5 74.16667 57.5 78 zM69 78 L80.5 78 L80.5 66.5 L69 66.5 C69 70.33333 69 74.16667 69 78 zM80.5 78 L92 78 L92 66.5 L80.5 66.5 C80.5 70.33333 80.5 74.16667 80.5 78 zM11.5 78 L23 78 L23 66.5 L11.5 66.5 C11.5 70.33333 11.5 74.16667 11.5 78 zM23 78 L34.5 78 L34.5 66.5 L23 66.5 C23 70.33333 23 74.16667 23 78 zM34.5 78 L46 78 L46 66.5 L34.5 66.5 C34.5 70.33333 34.5 74.16667 34.5 78 zM0 78 L11.5 78 L11.5 66.5 L0 66.5 C0 70.33333 0 74.16667 0 78 z" />
<glyph unicode="L" horiz-adv-x="92" d="M46 78 L57.5 78 L57.5 66.5 L46 66.5 C46 70.33333 46 74.16667 46 78 zM57.5 78 L69 78 L69 66.5 L57.5 66.5 C57.5 70.33333 57.5 74.16667 57.5 78 zM69 78 L80.5 78 L80.5 66.5 L69 66.5 C69 70.33333 69 74.16667 69 78 zM80.5 78 L92 78 L92 66.5 L80.5 66.5 C80.5 70.33333 80.5 74.16667 80.5 78 zM11.5 78 L23 78 L23 66.5 L11.5 66.5 C11.5 70.33333 11.5 74.16667 11.5 78 zM23 78 L34.5 78 L34.5 66.5 L23 66.5 C23 70.33333 23 74.16667 23 78 zM34.5 78 L46 78 L46 66.5 L34.5 66.5 C34.5 70.33333 34.5 74.16667 34.5 78 zM0 78 L11.5 78 L11.5 66.5 L0 66.5 C0 70.33333 0 74.16667 0 78 z" />
<glyph unicode="M" horiz-adv-x="92" d="M46 78 L57.5 78 L57.5 66.5 L46 66.5 C46 70.33333 46 74.16667 46 78 zM57.5 78 L69 78 L69 66.5 L57.5 66.5 C57.5 70.33333 57.5 74.16667 57.5 78 zM69 78 L80.5 78 L80.5 66.5 L69 66.5 C69 70.33333 69 74.16667 69 78 zM80.5 78 L92 78 L92 66.5 L80.5 66.5 C80.5 70.33333 80.5 74.16667 80.5 78 zM11.5 78 L23 78 L23 66.5 L11.5 66.5 C11.5 70.33333 11.5 74.16667 11.5 78 zM23 78 L34.5 78 L34.5 66.5 L23 66.5 C23 70.33333 23 74.16667 23 78 zM34.5 78 L46 78 L46 66.5 L34.5 66.5 C34.5 70.33333 34.5 74.16667 34.5 78 zM0 78 L11.5 78 L11.5 66.5 L0 66.5 C0 70.33333 0 74.16667 0 78 z" />
<glyph unicode="N" horiz-adv-x="92" d="M46 78 L57.5 78 L57.5 66.5 L46 66.5 C46 70.33333 46 74.16667 46 78 zM57.5 78 L69 78 L69 66.5 L57.5 66.5 C57.5 70.33333 57.5 74.16667 57.5 78 zM69 78 L80.5 78 L80.5 66.5 L69 66.5 C69 70.33333 69 74.16667 69 78 zM80.5 78 L92 78 L92 66.5 L80.5 66.5 C80.5 70.33333 80.5 74.16667 80.5 78 zM11.5 78 L23 78 L23 66.5 L11.5 66.5 C11.5 70.33333 11.5 74.16667 11.5 78 zM23 78 L34.5 78 L34.5 66.5 L23 66.5 C23 70.33333 23 74.16667 23 78 zM34.5 78 L46 78 L46 66.5 L34.5 66.5 C34.5 70.33333 34.5 74.16667 34.5 78 zM0 78 L11.5 78 L11.5 66.5 L0 66.5 C0 70.33333 0 74.16667 0 78 z" />
<glyph unicode="O" horiz-adv-x="92" d="M46 78 L57.5 78 L57.5 66.5 L46 66.5 C46 70.33333 46 74.16667 46 78 zM57.5 78 L69 78 L69 66.5 L57.5 66.5 C57.5 70.33333 57.5 74.16667 57.5 78 zM69 78 L80.5 78 L80.5 66.5 L69 66.5 C69 70.33333 69 74.16667 69 78 zM80.5 78 L92 78 L92 66.5 L80.5 66.5 C80.5 70.33333 80.5 74.16667 80.5 78 zM11.5 78 L23 78 L23 66.5 L11.5 66.5 C11.5 70.33333 11.5 74.16667 11.5 78 zM23 78 L34.5 78 L34.5 66.5 L23 66.5 C23 70.33333 23 74.16667 23 78 zM34.5 78 L46 78 L46 66.5 L34.5 66.5 C34.5 70.33333 34.5 74.16667 34.5 78 zM0 78 L11.5 78 L11.5 66.5 L0 66.5 C0 70.33333 0 74.16667 0 78 z" />
<glyph unicode="P" horiz-adv-x="92" d="M46 78 L57.5 78 L57.5 66.5 L46 66.5 C46 70.33333 46 74.16667 46 78 zM57.5 78 L69 78 L69 66.5 L57.5 66.5 C57.5 70.33333 57.5 74.16667 57.5 78 zM69 78 L80.5 78 L80.5 66.5 L69 66.5 C69 70.33333 69 74.16667 69 78 zM80.5 78 L92 78 L92 66.5 L80.5 66.5 C80.5 70.33333 80.5 74.16667 80.5 78 zM11.5 78 L23 78 L23 66.5 L11.5 66.5 C11.5 70.33333 11.5 74.16667 11.5 78 zM23 78 L34.5 78 L34.5 66.5 L23 66.5 C23 70.33333 23 74.16667 23 78 zM34.5 78 L46 78 L46 66.5 L34.5 66.5 C34.5 70.33333 34.5 74.16667 34.5 78 zM0 78 L11.5 78 L11.5 66.5 L0 66.5 C0 70.33333 0 74.16667 0 78 z" />
<glyph unicode="Q" horiz-adv-x="92" d="M46 78 L57.5 78 L57.5 66.5 L46 66.5 C46 70.33333 46 74.16667 46 78 zM57.5 78 L69 78 L69 66.5 L57.5 66.5 C57.5 70.33333 57.5 74.16667 57.5 78 zM69 78 L80.5 78 L80.5 66.5 L69 66.5 C69 70.33333 69 74.16667 69 78 zM80.5 78 L92 78 L92 66.5 L80.5 66.5 C80.5 70.33333 80.5 74.16667 80.5 78 zM11.5 78 L23 78 L23 66.5 L11.5 66.5 C11.5 70.33333 11.5 74.16667 11.5 78 zM23 78 L34.5 78 L34.5 66.5 L23 66.5 C23 70.33333 23 74.16667 23 78 zM34.5 78 L46 78 L46 66.5 L34.5 66.5 C34.5 70.33333 34.5 74.16667 34.5 78 zM0 78 L11.5 78 L11.5 66.5 L0 66.5 C0 70.33333 0 74.16667 0 78 z" />
<glyph unicode="R" horiz-adv-x="92" d="M46 78 L57.5 78 L57.5 66.5 L46 66.5 C46 70.33333 46 74.16667 46 78 zM57.5 78 L69 78 L69 66.5 L57.5 66.5 C57.5 70.33333 57.5 74.16667 57.5 78 zM69 78 L80.5 78 L80.5 66.5 L69 66.5 C69 70.33333 69 74.16667 69 78 zM80.5 78 L92 78 L92 66.5 L80.5 66.5 C80.5 70.33333 80.5 74.16667 80.5 78 zM11.5 78 L23 78 L23 66.5 L11.5 66.5 C11.5 70.33333 11.5 74.16667 11.5 78 zM23 78 L34.5 78 L34.5 66.5 L23 66.5 C23 70.33333 23 74.16667 23 78 zM34.5 78 L46 78 L46 66.5 L34.5 66.5 C34.5 70.33333 34.5 74.16667 34.5 78 zM0 78 L11.5 78 L11.5 66.5 L0 66.5 C0 70.33333 0 74.16667 0 78 z" />
<glyph unicode="S" horiz-adv-x="92" d="M46 78 L57.5 78 L57.5 66.5 L46 66.5 C46 70.33333 46 74.16667 46 78 zM57.5 78 L69 78 L69 66.5 L57.5 66.5 C57.5 70.33333 57.5 74.16667 57.5 78 zM69 78 L80.5 78 L80.5 66.5 L69 66.5 C69 70.33333 69 74.16667 69 78 zM80.5 78 L92 78 L92 66.5 L80.5 66.5 C80.5 70.33333 80.5 74.16667 80.5 78 zM11.5 78 L23 78 L23 66.5 L11.5 66.5 C11.5 70.33333 11.5 74.16667 11.5 78 zM23 78 L34.5 78 L34.5 66.5 L23 66.5 C23 70.33333 23 74.16667 23 78 zM34.5 78 L46 78 L46 66.5 L34.5 66.5 C34.5 70.33333 34.5 74.16667 34.5 78 zM0 78 L11.5 78 L11.5 66.5 L0 66.5 C0 70.33333 0 74.16667 0 78 z" />
<glyph unicode="T" horiz-adv-x="92" d="M46 78 L57.5 78 L57.5 66.5 L46 66.5 C46 70.33333 46 74.16667 46 78 zM57.5 78 L69 78 L69 66.5 L57.5 66.5 C57.5 70.33333 57.5 74.16667 57.5 78 zM69 78 L80.5 78 L80.5 66.5 L69 66.5 C69 70.33333 69 74.16667 69 78 zM80.5 78 L92 78 L92 66.5 L80.5 66.5 C80.5 70.33333 80.5 74.16667 80.5 78 zM11.5 78 L23 78 L23 66.5 L11.5 66.5 C11.5 70.33333 11.5 74.16667 11.5 78 zM23 78 L34.5 78 L34.5 66.5 L23 66.5 C23 70.33333 23 74.16667 23 78 zM34.5 78 L46 78 L46 66.5 L34.5 66.5 C34.5 70.33333 34.5 74.16667 34.5 78 zM0 78 L11.5 78 L11.5 66.5 L0 66.5 C0 70.33333 0 74.16667 0 78 z" />
<glyph unicode="U" horiz-adv-x="92" d="M46 78 L57.5 78 L57.5 66.5 L46 66.5 C46 70.33333 46 74.16667 46 78 zM57.5 78 L69 78 L69 66.5 L57.5 66.5 C57.5 70.33333 57.5 74.16667 57.5 78 zM69 78 L80.5 78 L80.5 66.5 L69 66.5 C69 70.33333 69 74.16667 69 78 zM80.5 78 L92 78 L92 66.5 L80.5 66.5 C80.5 70.33333 80.5 74.16667 80.5 78 zM11.5 78 L23 78 L23 66.5 L11.5 66.5 C11.5 70.33333 11.5 74.16667 11.5 78 zM23 78 L34.5 78 L34.5 66.5 L23 66.5 C23 70.33333 23 74.16667 23 78 zM34.5 78 L46 78 L46 66.5 L34.5 66.5 C34.5 70.33333 34.5 74.16667 34.5 78 zM0 78 L11.5 78 L11.5 66.5 L0 66.5 C0 70.33333 0 74.16667 0 78 z" />
<glyph unicode="V" horiz-adv-x="92" d="M46 78 L57.5 78 L57.5 66.5 L46 66.5 C46 70.33333 46 74.16667 46 78 zM57.5 78 L69 78 L69 66.5 L57.5 66.5 C57.5 70.33333 57.5 74.16667 57.5 78 zM69 78 L80.5 78 L80.5 66.5 L69 66.5 C69 70.33333 69 74.16667 69 78 zM80.5 78 L92 78 L92 66.5 L80.5 66.5 C80.5 70.33333 80.5 74.16667 80.5 78 zM11.5 78 L23 78 L23 66.5 L11.5 66.5 C11.5 70.33333 11.5 74.16667 11.5 78 zM23 78 L34.5 78 L34.5 66.5 L23 66.5 C23 70.33333 23 74.16667 23 78 zM34.5 78 L46 78 L46 66.5 L34.5 66.5 C34.5 70.33333 34.5 74.16667 34.5 78 zM0 78 L11.5 78 L11.5 66.5 L0 66.5 C0 70.33333 0 74.16667 0 78 z" />
<glyph unicode="W" horiz-adv-x="92" d="M46 78 L57.5 78 L57.5 66.5 L46 66.5 C46 70.33333 46 74.16667 46 78 zM57.5 78 L69 78 L69 66.5 L57.5 66.5 C57.5 70.33333 57.5 74.16667 57.5 78 zM69 78 L80.5 78 L80.5 66.5 L69 66.5 C69 70.33333 69 74.16667 69 78 zM80.5 78 L92 78 L92 66.5 L80.5 66.5 C80.5 70.33333 80.5 74.16667 80.5 78 zM11.5 78 L23 78 L23 66.5 L11.5 66.5 C11.5 70.33333 11.5 74.16667 11.5 78 zM23 78 L34.5 78 L34.5 66.5 L23 66.5 C23 70.33333 23 74.16667 23 78 zM34.5 78 L46 78 L46 66.5 L34.5 66.5 C34.5 70.33333 34.5 74.16667 34.5 78 zM0 78 L11.5 78 L11.5 66.5 L0 66.5 C0 70.33333 0 74.16667 0 78 z" />
<glyph unicode="X" horiz-adv-x="92" d="M46 78 L57.5 78 L57.5 66.5 L46 66.5 C46 70.33333 46 74.16667 46 78 zM57.5 78 L69 78 L69 66.5 L57.5 66.5 C57.5 70.33333 57.5 74.16667 57.5 78 zM69 78 L80.5 78 L80.5 66.5 L69 66.5 C69 70.33333 69 74.16667 69 78 zM80.5 78 L92 78 L92 66.5 L80.5 66.5 C80.5 70.33333 80.5 74.16667 80.5 78 zM11.5 78 L23 78 L23 66.5 L11.5 66.5 C11.5 70.33333 11.5 74.16667 11.5 78 zM23 78 L34.5 78 L34.5 66.5 L23 66.5 C23 70.33333 23 74.16667 23 78 zM34.5 78 L46 78 L46 66.5 L34.5 66.5 C34.5 70.33333 34.5 74.16667 34.5 78 zM0 78 L11.5 78 L11.5 66.5 L0 66.5 C0 70.33333 0 74.16667 0 78 z" />
<glyph unicode="Y" horiz-adv-x="92" d="M46 78 L57.5 78 L57.5 66.5 L46 66.5 C46 70.33333 46 74.16667 46 78 zM57.5 78 L69 78 L69 66.5 L57.5 66.5 C57.5 70.33333 57.5 74.16667 57.5 78 zM69 78 L80.5 78 L80.5 66.5 L69 66.5 C69 70.33333 69 74.16667 69 78 zM80.5 78 L92 78 L92 66.5 L80.5 66.5 C80.5 70.33333 80.5 74.16667 80.5 78 zM11.5 78 L23 78 L23 66.5 L11.5 66.5 C11.5 70.33333 11.5 74.16667 11.5 78 zM23 78 L34.5 78 L34.5 66.5 L23 66.5 C23 70.33333 23 74.16667 23 78 zM34.5 78 L46 78 L46 66.5 L34.5 66.5 C34.5 70.33333 34.5 74.16667 34.5 78 zM0 78 L11.5 78 L11.5 66.5 L0 66.5 C0 70.33333 0 74.16667 0 78 z" />
<glyph unicode="Z" horiz-adv-x="92" d="M46 78 L57.5 78 L57.5 66.5 L46 66.5 C46 70.33333 46 74.16667 46 78 zM57.5 78 L69 78 L69 66.5 L57.5 66.5 C57.5 70.33333 57.5 74.16667 57.5 78 zM69 78 L80.5 78 L80.5 66.5 L69 66.5 C69 70.33333 69 74.16667 69 78 zM80.5 78 L92 78 L92 66.5 L80.5 66.5 C80.5 70.33333 80.5 74.16667 80.5 78 zM11.5 78 L23 78 L23 66.5 L11.5 66.5 C11.5 70.33333 11.5 74.16667 11.5 78 zM23 78 L34.5 78 L34.5 66.5 L23 66.5 C23 70.33333 23 74.16667 23 78 zM34.5 78 L46 78 L46 66.5 L34.5 66.5 C34.5 70.33333 34.5 74.16667 34.5 78 zM0 78 L11.5 78 L11.5 66.5 L0 66.5 C0 70.33333 0 74.16667 0 78 z" />
<glyph unicode="[" horiz-adv-x="92" d="M46 78 L57.5 78 L57.5 66.5 L46 66.5 C46 70.33333 46 74.16667 46 78 zM57.5 78 L69 78 L69 66.5 L57.5 66.5 C57.5 70.33333 57.5 74.16667 57.5 78 zM69 78 L80.5 78 L80.5 66.5 L69 66.5 C69 70.33333 69 74.16667 69 78 zM80.5 78 L92 78 L92 66.5 L80.5 66.5 C80.5 70.33333 80.5 74.16667 80.5 78 zM11.5 78 L23 78 L23 66.5 L11.5 66.5 C11.5 70.33333 11.5 74.16667 11.5 78 zM23 78 L34.5 78 L34.5 66.5 L23 66.5 C23 70.33333 23 74.16667 23 78 zM34.5 78 L46 78 L46 66.5 L34.5 66.5 C34.5 70.33333 34.5 74.16667 34.5 78 zM0 78 L11.5 78 L11.5 66.5 L0 66.5 C0 70.33333 0 74.16667 0 78 z" />
<glyph unicode="\" horiz-adv-x="92" d="M46 78 L57.5 78 L57.5 66.5 L46 66.5 C46 70.33333 46 74.16667 46 78 zM57.5 78 L69 78 L69 66.5 L57.5 66.5 C57.5 70.33333 57.5 74.16667 57.5 78 zM69 78 L80.5 78 L80.5 66.5 L69 66.5 C69 70.33333 69 74.16667 69 78 zM80.5 78 L92 78 L92 66.5 L80.5 66.5 C80.5 70.33333 80.5 74.16667 80.5 78 zM11.5 78 L23 78 L23 66.5 L11.5 66.5 C11.5 70.33333 11.5 74.16667 11.5 78 zM23 78 L34.5 78 L34.5 66.5 L23 66.5 C23 70.33333 23 74.16667 23 78 zM34.5 78 L46 78 L46 66.5 L34.5 66.5 C34.5 70.33333 34.5 74.16667 34.5 78 zM0 78 L11.5 78 L11.5 66.5 L0 66.5 C0 70.33333 0 74.16667 0 78 z" />
<glyph unicode="]" horiz-adv-x="92" d="M46 78 L57.5 78 L57.5 66.5 L46 66.5 C46 70.33333 46 74.16667 46 78 zM57.5 78 L69 78 L69 66.5 L57.5 66.5 C57.5 70.33333 57.5 74.16667 57.5 78 zM69 78 L80.5 78 L80.5 66.5 L69 66.5 C69 70.33333 69 74.16667 69 78 zM80.5 78 L92 78 L92 66.5 L80.5 66.5 C80.5 70.33333 80.5 74.16667 80.5 78 zM11.5 78 L23 78 L23 66.5 L11.5 66.5 C11.5 70.33333 11.5 74.16667 11.5 78 zM23 78 L34.5 78 L34.5 66.5 L23 66.5 C23 70.33333 23 74.16667 23 78 zM34.5 78 L46 78 L46 66.5 L34.5 66.5 C34.5 70.33333 34.5 74.16667 34.5 78 zM0 78 L11.5 78 L11.5 66.5 L0 66.5 C0 70.33333 0 74.16667 0 78 z" />
<glyph unicode="^" horiz-adv-x="92" d="M46 78 L57.5 78 L57.5 66.5 L46 66.5 C46 70.33333 46 74.16667 46 78 zM57.5 78 L69 78 L69 66.5 L57.5 66.5 C57.5 70.33333 57.5 74.16667 57.5 78 zM69 78 L80.5 78 L80.5 66.5 L69 66.5 C69 70.33333 69 74.16667 69 78 zM80.5 78 L92 78 L92 66.5 L80.5 66.5 C80.5 70.33333 80.5 74.16667 80.5 78 zM11.5 78 L23 78 L23 66.5 L11.5 66.5 C11.5 70.33333 11.5 74.16667 11.5 78 zM23 78 L34.5 78 L34.5 66.5 L23 66.5 C23 70.33333 23 74.16667 23 78 zM34.5 78 L46 78 L46 66.5 L34.5 66.5 C34.5 70.33333 34.5 74.16667 34.5 78 zM0 78 L11.5 78 L11.5 66.5 L0 66.5 C0 70.33333 0 74.16667 0 78 z" />
<glyph unicode="_" horiz-adv-x="92" d="M46 78 L57.5 78 L57.5 66.5 L46 66.5 C46 70.33333 46 74.16667 46 78 zM57.5 78 L69 78 L69 66.5 L57.5 66.5 C57.5 70.33333 57.5 74.16667 57.5 78 zM69 78 L80.5 78 L80.5 66.5 L69 66.5 C69 70.33333 69 74.16667 69 78 zM80.5 78 L92 78 L92 66.5 L80.5 66.5 C80.5 70.33333 80.5 74.16667 80.5 78 zM11.5 78 L23 78 L23 66.5 L11.5 66.5 C11.5 70.33333 11.5 74.16667 11.5 78 zM23 78 L34.5 78 L34.5 66.5 L23 66.5 C23 70.33333 23 74.16667 23 78 zM34.5 78 L46 78 L46 66.5 L34.5 66.5 C34.5 70.33333 34.5 74.16667 34.5 78 zM0 78 L11.5 78 L11.5 66.5 L0 66.5 C0 70.33333 0 74.16667 0 78 z" />
<glyph unicode="`" horiz-adv-x="92" d="M46 78 L57.5 78 L57.5 66.5 L46 66.5 C46 70.33333 46 74.16667 46 78 zM57.5 78 L69 78 L69 66.5 L57.5 66.5 C57.5 70.33333 57.5 74.16667 57.5 78 zM69 78 L80.5 78 L80.5 66.5 L69 66.5 C69 70.33333 69 74.16667 69 78 zM80.5 78 L92 78 L92 66.5 L80.5 66.5 C80.5 70.33333 80.5 74.16667 80.5 78 zM11.5 78 L23 78 L23 66.5 L11.5 66.5 C11.5 70.33333 11.5 74.16667 11.5 78 zM23 78 L34.5 78 L34.5 66.5 L23 66.5 C23 70.33333 23 74.16667 23 78 zM34.5 78 L46 78 L46 66.5 L34.5 66.5 C34.5 70.33333 34.5 74.16667 34.5 78 zM0 78 L11.5 78 L11.5 66.5 L0 66.5 C0 70.33333 0 74.16667 0 78 z" />
<glyph unicode="a" horiz-adv-x="92" d="M46 78 L57.5 78 L57.5 66.5 L46 66.5 C46 70.33333 46 74.16667 46 78 zM57.5 78 L69 78 L69 66.5 L57.5 66.5 C57.5 70.33333 57.5 74.16667 57.5 78 zM69 78 L80.5 78 L80.5 66.5 L69 66.5 C69 70.33333 69 74.16667 69 78 zM80.5 78 L92 78 L92 66.5 L80.5 66.5 C80.5 70.33333 80.5 74.16667 80.5 78 zM11.5 78 L23 78 L23 66.5 L11.5 66.5 C11.5 70.33333 11.5 74.16667 11.5 78 zM23 78 L34.5 78 L34.5 66.5 L23 66.5 C23 70.33333 23 74.16667 23 78 zM34.5 78 L46 78 L46 66.5 L34.5 66.5 C34.5 70.33333 34.5 74.16667 34.5 78 zM0 78 L11.5 78 L11.5 66.5 L0 66.5 C0 70.33333 0 74.16667 0 78 z" />
<glyph unicode="b" horiz-adv-x="92" d="M46 78 L57.5 78 L57.5 66.5 L46 66.5 C46 70.33333 46 74.16667 46 78 zM57.5 78 L69 78 L69 66.5 L57.5 66.5 C57.5 70.33333 57.5 74.16667 57.5 78 zM69 78 L80.5 78 L80.5 66.5 L69 66.5 C69 70.33333 69 74.16667 69 78 zM80.5 78 L92 78 L92 66.5 L80.5 66.5 C80.5 70.33333 80.5 74.16667 80.5 78 zM11.5 78 L23 78 L23 66.5 L11.5 66.5 C11.5 70.33333 11.5 74.16667 11.5 78 zM23 78 L34.5 78 L34.5 66.5 L23 66.5 C23 70.33333 23 74.16667 23 78 zM34.5 78 L46 78 L46 66.5 L34.5 66.5 C34.5 70.33333 34.5 74.16667 34.5 78 zM0 78 L11.5 78 L11.5 66.5 L0 66.5 C0 70.33333 0 74.16667 0 78 z" />
<glyph unicode="c" horiz-adv-x="92" d="M46 78 L57.5 78 L57.5 66.5 L46 66.5 C46 70.33333 46 74.16667 46 78 zM57.5 78 L69 78 L69 66.5 L57.5 66.5 C57.5 70.33333 57.5 74.16667 57.5 78 zM69 78 L80.5 78 L80.5 66.5 L69 66.5 C69 70.33333 69 74.16667 69 78 zM80.5 78 L92 78 L92 66.5 L80.5 66.5 C80.5 70.33333 80.5 74.16667 80.5 78 zM11.5 78 L23 78 L23 66.5 L11.5 66.5 C11.5 70.33333 11.5 74.16667 11.5 78 zM23 78 L34.5 78 L34.5 66.5 L23 66.5 C23 70.33333 23 74.16667 23 78 zM34.5 78 L46 78 L46 66.5 L34.5 66.5 C34.5 70.33333 34.5 74.16667 34.5 78 zM0 78 L11.5 78 L11.5 66.5 L0 66.5 C0 70.33333 0 74.16667 0 78 z" />
<glyph unicode="d" horiz-adv-x="92" d="M46 78 L57.5 78 L57.5 66.5 L46 66.5 C46 70.33333 46 74.16667 46 78 zM57.5 78 L69 78 L69 66.5 L57.5 66.5 C57.5 70.33333 57.5 74.16667 57.5 78 zM69 78 L80.5 78 L80.5 66.5 L69 66.5 C69 70.33333 69 74.16667 69 78 zM80.5 78 L92 78 L92 66.5 L80.5 66.5 C80.5 70.33333 80.5 74.16667 80.5 78 zM11.5 78 L23 78 L23 66.5 L11.5 66.5 C11.5 70.33333 11.5 74.16667 11.5 78 zM23 78 L34.5 78 L34.5 66.5 L23 66.5 C23 70.33333 23 74.16667 23 78 zM34.5 78 L46 78 L46 66.5 L34.5 66.5 C34.5 70.33333 34.5 74.16667 34.5 78 zM0 78 L11.5 78 L11.5 66.5 L0 66.5 C0 70.33333 0 74.16667 0 78 z" />
<glyph unicode="e" horiz-adv-x="92" d="M46 78 L57.5 78 L57.5 66.5 L46 66.5 C46 70.33333 46 74.16667 46 78 zM57.5 78 L69 78 L69 66.5 L57.5 66.5 C57.5 70.33333 57.5 74.16667 57.5 78 zM69 78 L80.5 78 L80.5 66.5 L69 66.5 C69 70.33333 69 74.16667 69 78 zM80.5 78 L92 78 L92 66.5 L80.5 66.5 C80.5 70.33333 80.5 74.16667 80.5 78 zM11.5 78 L23 78 L23 66.5 L11.5 66.5 C11.5 70.33333 11.5 74.16667 11.5 78 zM23 78 L34.5 78 L34.5 66.5 L23 66.5 C23 70.33333 23 74.16667 23 78 zM34.5 78 L46 78 L46 66.5 L34.5 66.5 C34.5 70.33333 34.5 74.16667 34.5 78 zM0 78 L11.5 78 L11.5 66.5 L0 66.5 C0 70.33333 0 74.16667 0 78 z" />
<glyph unicode="f" horiz-adv-x="92" d="M46 78 L57.5 78 L57.5 66.5 L46 66.5 C46 70.33333 46 74.16667 46 78 zM57.5 78 L69 78 L69 66.5 L57.5 66.5 C57.5 70.33333 57.5 74.16667 57.5 78 zM69 78 L80.5 78 L80.5 66.5 L69 66.5 C69 70.33333 69 74.16667 69 78 zM80.5 78 L92 78 L92 66.5 L80.5 66.5 C80.5 70.33333 80.5 74.16667 80.5 78 zM11.5 78 L23 78 L23 66.5 L11.5 66.5 C11.5 70.33333 11.5 74.16667 11.5 78 zM23 78 L34.5 78 L34.5 66.5 L23 66.5 C23 70.33333 23 74.16667 23 78 zM34.5 78 L46 78 L46 66.5 L34.5 66.5 C34.5 70.33333 34.5 74.16667 34.5 78 zM0 78 L11.5 78 L11.5 66.5 L0 66.5 C0 70.33333 0 74.16667 0 78 z" />
<glyph unicode="g" horiz-adv-x="92" d="M46 78 L57.5 78 L57.5 66.5 L46 66.5 C46 70.33333 46 74.16667 46 78 zM57.5 78 L69 78 L69 66.5 L57.5 66.5 C57.5 70.33333 57.5 74.16667 57.5 78 zM69 78 L80.5 78 L80.5 66.5 L69 66.5 C69 70.33333 69 74.16667 69 78 zM80.5 78 L92 78 L92 66.5 L80.5 66.5 C80.5 70.33333 80.5 74.16667 80.5 78 zM11.5 78 L23 78 L23 66.5 L11.5 66.5 C11.5 70.33333 11.5 74.16667 11.5 78 zM23 78 L34.5 78 L34.5 66.5 L23 66.5 C23 70.33333 23 74.16667 23 78 zM34.5 78 L46 78 L46 66.5 L34.5 66.5 C34.5 70.33333 34.5 74.16667 34.5 78 zM0 78 L11.5 78 L11.5 66.5 L0 66.5 C0 70.33333 0 74.16667 0 78 z" />
<glyph unicode="h" horiz-adv-x="92" d="M46 78 L57.5 78 L57.5 66.5 L46 66.5 C46 70.33333 46 74.16667 46 78 zM57.5 78 L69 78 L69 66.5 L57.5 66.5 C57.5 70.33333 57.5 74.16667 57.5 78 zM69 78 L80.5 78 L80.5 66.5 L69 66.5 C69 70.33333 69 74.16667 69 78 zM80.5 78 L92 78 L92 66.5 L80.5 66.5 C80.5 70.33333 80.5 74.16667 80.5 78 zM11.5 78 L23 78 L23 66.5 L11.5 66.5 C11.5 70.33333 11.5 74.16667 11.5 78 zM23 78 L34.5 78 L34.5 66.5 L23 66.5 C23 70.33333 23 74.16667 23 78 zM34.5 78 L46 78 L46 66.5 L34.5 66.5 C34.5 70.33333 34.5 74.16667 34.5 78 zM0 78 L11.5 78 L11.5 66.5 L0 66.5 C0 70.33333 0 74.16667 0 78 z" />
<glyph unicode="i" horiz-adv-x="92" d="M46 78 L57.5 78 L57.5 66.5 L46 66.5 C46 70.33333 46 74.16667 46 78 zM57.5 78 L69 78 L69 66.5 L57.5 66.5 C57.5 70.33333 57.5 74.16667 57.5 78 zM69 78 L80.5 78 L80.5 66.5 L69 66.5 C69 70.33333 69 74.16667 69 78 zM80.5 78 L92 78 L92 66.5 L80.5 66.5 C80.5 70.33333 80.5 74.16667 80.5 78 zM11.5 78 L23 78 L23 66.5 L11.5 66.5 C11.5 70.33333 11.5 74.16667 11.5 78 zM23 78 L34.5 78 L34.5 66.5 L23 66.5 C23 70.33333 23 74.16667 23 78 zM34.5 78 L46 78 L46 66.5 L34.5 66.5 C34.5 70.33333 34.5 74.16667 34.5 78 zM0 78 L11.5 78 L11.5 66.5 L0 66.5 C0 70.33333 0 74.16667 0 78 z" />
<glyph unicode="j" horiz-adv-x="92" d="M46 78 L57.5 78 L57.5 66.5 L46 66.5 C46 70.33333 46 74.16667 46 78 zM57.5 78 L69 78 L69 66.5 L57.5 66.5 C57.5 70.33333 57.5 74.16667 57.5 78 zM69 78 L80.5 78 L80.5 66.5 L69 66.5 C69 70.33333 69 74.16667 69 78 zM80.5 78 L92 78 L92 66.5 L80.5 66.5 C80.5 70.33333 80.5 74.16667 80.5 78 zM11.5 78 L23 78 L23 66.5 L11.5 66.5 C11.5 70.33333 11.5 74.16667 11.5 78 zM23 78 L34.5 78 L34.5 66.5 L23 66.5 C23 70.33333 23 74.16667 23 78 zM34.5 78 L46 78 L46 66.5 L34.5 66.5 C34.5 70.33333 34.5 74.16667 34.5 78 zM0 78 L11.5 78 L11.5 66.5 L0 66.5 C0 70.33333 0 74.16667 0 78 z" />
<glyph unicode="k" horiz-adv-x="92" d="M46 78 L57.5 78 L57.5 66.5 L46 66.5 C46 70.33333 46 74.16667 46 78 zM57.5 78 L69 78 L69 66.5 L57.5 66.5 C57.5 70.33333 57.5 74.16667 57.5 78 zM69 78 L80.5 78 L80.5 66.5 L69 66.5 C69 70.33333 69 74.16667 69 78 zM80.5 78 L92 78 L92 66.5 L80.5 66.5 C80.5 70.33333 80.5 74.16667 80.5 78 zM11.5 78 L23 78 L23 66.5 L11.5 66.5 C11.5 70.33333 11.5 74.16667 11.5 78 zM23 78 L34.5 78 L34.5 66.5 L23 66.5 C23 70.33333 23 74.16667 23 78 zM34.5 78 L46 78 L46 66.5 L34.5 66.5 C34.5 70.33333 34.5 74.16667 34.5 78 zM0 78 L11.5 78 L11.5 66.5 L0 66.5 C0 70.33333 0 74.16667 0 78 z" />
<glyph unicode="l" horiz-adv-x="92" d="M46 78 L57.5 78 L57.5 66.5 L46 66.5 C46 70.33333 46 74.16667 46 78 zM57.5 78 L69 78 L69 66.5 L57.5 66.5 C57.5 70.33333 57.5 74.16667 57.5 78 zM69 78 L80.5 78 L80.5 66.5 L69 66.5 C69 70.33333 69 74.16667 69 78 zM80.5 78 L92 78 L92 66.5 L80.5 66.5 C80.5 70.33333 80.5 74.16667 80.5 78 zM11.5 78 L23 78 L23 66.5 L11.5 66.5 C11.5 70.33333 11.5 74.16667 11.5 78 zM23 78 L34.5 78 L34.5 66.5 L23 66.5 C23 70.33333 23 74.16667 23 78 zM34.5 78 L46 78 L46 66.5 L34.5 66.5 C34.5 70.33333 34.5 74.16667 34.5 78 zM0 78 L11.5 78 L11.5 66.5 L0 66.5 C0 70.33333 0 74.16667 0 78 z" />
<glyph unicode="m" horiz-adv-x="92" d="M46 78 L57.5 78 L57.5 66.5 L46 66.5 C46 70.33333 46 74.16667 46 78 zM57.5 78 L69 78 L69 66.5 L57.5 66.5 C57.5 70.33333 57.5 74.16667 57.5 78 zM69 78 L80.5 78 L80.5 66.5 L69 66.5 C69 70.33333 69 74.16667 69 78 zM80.5 78 L92 78 L92 66.5 L80.5 66.5 C80.5 70.33333 80.5 74.16667 80.5 78 zM11.5 78 L23 78 L23 66.5 L11.5 66.5 C11.5 70.33333 11.5 74.16667 11.5 78 zM23 78 L34.5 78 L34.5 66.5 L23 66.5 C23 70.33333 23 74.16667 23 78 zM34.5 78 L46 78 L46 66.5 L34.5 66.5 C34.5 70.33333 34.5 74.16667 34.5 78 zM0 78 L11.5 78 L11.5 66.5 L0 66.5 C0 70.33333 0 74.16667 0 78 z" />
<glyph unicode="n" horiz-adv-x="92" d="M46 78 L57.5 78 L57.5 66.5 L46 66.5 C46 70.33333 46 74.16667 46 78 zM57.5 78 L69 78 L69 66.5 L57.5 66.5 C57.5 70.33333 57.5 74.16667 57.5 78 zM69 78 L80.5 78 L80.5 66.5 L69 66.5 C69 70.33333 69 74.16667 69 78 zM80.5 78 L92 78 L92 66.5 L80.5 66.5 C80.5 70.33333 80.5 74.16667 80.5 78 zM11.5 78 L23 78 L23 66.5 L11.5 66.5 C11.5 70.33333 11.5 74.16667 11.5 78 zM23 78 L34.5 78 L34.5 66.5 L23 66.5 C23 70.33333 23 74.16667 23 78 zM34.5 78 L46 78 L46 66.5 L34.5 66.5 C34.5 70.33333 34.5 74.16667 34.5 78 zM0 78 L11.5 78 L11.5 66.5 L0 66.5 C0 70.33333 0 74.16667 0 78 z" />
<glyph unicode="o" horiz-adv-x="92" d="M46 78 L57.5 78 L57.5 66.5 L46 66.5 C46 70.33333 46 74.16667 46 78 zM57.5 78 L69 78 L69 66.5 L57.5 66.5 C57.5 70.33333 57.5 74.16667 57.5 78 zM69 78 L80.5 78 L80.5 66.5 L69 66.5 C69 70.33333 69 74.16667 69 78 zM80.5 78 L92 78 L92 66.5 L80.5 66.5 C80.5 70.33333 80.5 74.16667 80.5 78 zM11.5 78 L23 78 L23 66.5 L11.5 66.5 C11.5 70.33333 11.5 74.16667 11.5 78 zM23 78 L34.5 78 L34.5 66.5 L23 66.5 C23 70.33333 23 74.16667 23 78 zM34.5 78 L46 78 L46 66.5 L34.5 66.5 C34.5 70.33333 34.5 74.16667 34.5 78 zM0 78 L11.5 78 L11.5 66.5 L0 66.5 C0 70.33333 0 74.16667 0 78 z" />
<glyph unicode="p" horiz-adv-x="92" d="M46 78 L57.5 78 L57.5 66.5 L46 66.5 C46 70.33333 46 74.16667 46 78 zM57.5 78 L69 78 L69 66.5 L57.5 66.5 C57.5 70.33333 57.5 74.16667 57.5 78 zM69 78 L80.5 78 L80.5 66.5 L69 66.5 C69 70.33333 69 74.16667 69 78 zM80.5 78 L92 78 L92 66.5 L80.5 66.5 C80.5 70.33333 80.5 74.16667 80.5 78 zM11.5 78 L23 78 L23 66.5 L11.5 66.5 C11.5 70.33333 11.5 74.16667 11.5 78 zM23 78 L34.5 78 L34.5 66.5 L23 66.5 C23 70.33333 23 74.16667 23 78 zM34.5 78 L46 78 L46 66.5 L34.5 66.5 C34.5 70.33333 34.5 74.16667 34.5 78 zM0 78 L11.5 78 L11.5 66.5 L0 66.5 C0 70.33333 0 74.16667 0 78 z" />
<glyph unicode="q" horiz-adv-x="92" d="M46 78 L57.5 78 L57.5 66.5 L46 66.5 C46 70.33333 46 74.16667 46 78 zM57.5 78 L69 78 L69 66.5 L57.5 66.5 C57.5 70.33333 57.5 74.16667 57.5 78 zM69 78 L80.5 78 L80.5 66.5 L69 66.5 C69 70.33333 69 74.16667 69 78 zM80.5 78 L92 78 L92 66.5 L80.5 66.5 C80.5 70.33333 80.5 74.16667 80.5 78 zM11.5 78 L23 78 L23 66.5 L11.5 66.5 C11.5 70.33333 11.5 74.16667 11.5 78 zM23 78 L34.5 78 L34.5 66.5 L23 66.5 C23 70.33333 23 74.16667 23 78 zM34.5 78 L46 78 L46 66.5 L34.5 66.5 C34.5 70.33333 34.5 74.16667 34.5 78 zM0 78 L11.5 78 L11.5 66.5 L0 66.5 C0 70.33333 0 74.16667 0 78 z" />
<glyph unicode="r" horiz-adv-x="92" d="M46 78 L57.5 78 L57.5 66.5 L46 66.5 C46 70.33333 46 74.16667 46 78 zM57.5 78 L69 78 L69 66.5 L57.5 66.5 C57.5 70.33333 57.5 74.16667 57.5 78 zM69 78 L80.5 78 L80.5 66.5 L69 66.5 C69 70.33333 69 74.16667 69 78 zM80.5 78 L92 78 L92 66.5 L80.5 66.5 C80.5 70.33333 80.5 74.16667 80.5 78 zM11.5 78 L23 78 L23 66.5 L11.5 66.5 C11.5 70.33333 11.5 74.16667 11.5 78 zM23 78 L34.5 78 L34.5 66.5 L23 66.5 C23 70.33333 23 74.16667 23 78 zM34.5 78 L46 78 L46 66.5 L34.5 66.5 C34.5 70.33333 34.5 74.16667 34.5 78 zM0 78 L11.5 78 L11.5 66.5 L0 66.5 C0 70.33333 0 74.16667 0 78 z" />
<glyph unicode="s" horiz-adv-x="92" d="M46 78 L57.5 78 L57.5 66.5 L46 66.5 C46 70.33333 46 74.16667 46 78 zM57.5 78 L69 78 L69 66.5 L57.5 66.5 C57.5 70.33333 57.5 74.16667 57.5 78 zM69 78 L80.5 78 L80.5 66.5 L69 66.5 C69 70.33333 69 74.16667 69 78 zM80.5 78 L92 78 L92 66.5 L80.5 66.5 C80.5 70.33333 80.5 74.16667 80.5 78 zM11.5 78 L23 78 L23 66.5 L11.5 66.5 C11.5 70.33333 11.5 74.16667 11.5 78 zM23 78 L34.5 78 L34.5 66.5 L23 66.5 C23 70.33333 23 74.16667 23 78 zM34.5 78 L46 78 L46 66.5 L34.5 66.5 C34.5 70.33333 34.5 74.16667 34.5 78 zM0 78 L11.5 78 L11.5 66.5 L0 66.5 C0 70.33333 0 74.16667 0 78 z" />
<glyph unicode="t" horiz-adv-x="92" d="M46 78 L57.5 78 L57.5 66.5 L46 66.5 C46 70.33333 46 74.16667 46 78 zM57.5 78 L69 78 L69 66.5 L57.5 66.5 C57.5 70.33333 57.5 74.16667 57.5 78 zM69 78 L80.5 78 L80.5 66.5 L69 66.5 C69 70.33333 69 74.16667 69 78 zM80.5 78 L92 78 L92 66.5 L80.5 66.5 C80.5 70.33333 80.5 74.16667 80.5 78 zM11.5 78 L23 78 L23 66.5 L11.5 66.5 C11.5 70.33333 11.5 74.16667 11.5 78 zM23 78 L34.5 78 L34.5 66.5 L23 66.5 C23 70.33333 23 74.16667 23 78 zM34.5 78 L46 78 L46 66.5 L34.5 66.5 C34.5 70.33333 34.5 74.16667 34.5 78 zM0 78 L11.5 78 L11.5 66.5 L0 66.5 C0 70.33333 0 74.16667 0 78 z" />
<glyph unicode="u" horiz-adv-x="92" d="M46 78 L57.5 78 L57.5 66.5 L46 66.5 C46 70.33333 46 74.16667 46 78 zM57.5 78 L69 78 L69 66.5 L57.5 66.5 C57.5 70.33333 57.5 74.16667 57.5 78 zM69 78 L80.5 78 L80.5 66.5 L69 66.5 C69 70.33333 69 74.16667 69 78 zM80.5 78 L92 78 L92 66.5 L80.5 66.5 C80.5 70.33333 80.5 74.16667 80.5 78 zM11.5 78 L23 78 L23 66.5 L11.5 66.5 C11.5 70.33333 11.5 74.16667 11.5 78 zM23 78 L34.5 78 L34.5 66.5 L23 66.5 C23 70.33333 23 74.16667 23 78 zM34.5 78 L46 78 L46 66.5 L34.5 66.5 C34.5 70.33333 34.5 74.16667 34.5 78 zM0 78 L11.5 78 L11.5 66.5 L0 66.5 C0 70.33333 0 74.16667 0 78 z" />
<glyph unicode="v" horiz-adv-x="92" d="M46 78 L57.5 78 L57.5 66.5 L46 66.5 C46 70.33333 46 74.16667 46 78 zM57.5 78 L69 78 L69 66.5 L57.5 66.5 C57.5 70.33333 57.5 74.16667 57.5 78 zM69 78 L80.5 78 L80.5 66.5 L69 66.5 C69 70.33333 69 74.16667 69 78 zM80.5 78 L92 78 L92 66.5 L80.5 66.5 C80.5 70.33333 80.5 74.16667 80.5 78 zM11.5 78 L23 78 L23 66.5 L11.5 66.5 C11.5 70.33333 11.5 74.16667 11.5 78 zM23 78 L34.5 78 L34.5 66.5 L23 66.5 C23 70.33333 23 74.16667 23 78 zM34.5 78 L46 78 L46 66.5 L34.5 66.5 C34.5 70.33333 34.5 74.16667 34.5 78 zM0 78 L11.5 78 L11.5 66.5 L0 66.5 C0 70.33333 0 74.16667 0 78 z" />
<glyph unicode="w" horiz-adv-x="92" d="M46 78 L57.5 78 L57.5 66.5 L46 66.5 C46 70.33333 46 74.16667 46 78 zM57.5 78 L69 78 L69 66.5 L57.5 66.5 C57.5 70.33333 57.5 74.16667 57.5 78 zM69 78 L80.5 78 L80.5 66.5 L69 66.5 C69 70.33333 69 74.16667 69 78 zM80.5 78 L92 78 L92 66.5 L80.5 66.5 C80.5 70.33333 80.5 74.16667 80.5 78 zM11.5 78 L23 78 L23 66.5 L11.5 66.5 C11.5 70.33333 11.5 74.16667 11.5 78 zM23 78 L34.5 78 L34.5 66.5 L23 66.5 C23 70.33333 23 74.16667 23 78 zM34.5 78 L46 78 L46 66.5 L34.5 66.5 C34.5 70.33333 34.5 74.16667 34.5 78 zM0 78 L11.5 78 L11.5 66.5 L0 66.5 C0 70.33333 0 74.16667 0 78 z" />
<glyph unicode="x" horiz-adv-x="92" d="M46 78 L57.5 78 L57.5 66.5 L46 66.5 C46 70.33333 46 74.16667 46 78 zM57.5 78 L69 78 L69 66.5 L57.5 66.5 C57.5 70.33333 57.5 74.16667 57.5 78 zM69 78 L80.5 78 L80.5 66.5 L69 66.5 C69 70.33333 69 74.16667 69 78 zM80.5 78 L92 78 L92 66.5 L80.5 66.5 C80.5 70.33333 80.5 74.16667 80.5 78 zM11.5 78 L23 78 L23 66.5 L11.5 66.5 C11.5 70.33333 11.5 74.16667 11.5 78 zM23 78 L34.5 78 L34.5 66.5 L23 66.5 C23 70.33333 23 74.16667 23 78 zM34.5 78 L46 78 L46 66.5 L34.5 66.5 C34.5 70.33333 34.5 74.16667 34.5 78 zM0 78 L11.5 78 L11.5 66.5 L0 66.5 C0 70.33333 0 74.16667 0 78 z" />
<glyph unicode="y" horiz-adv-x="92" d="M46 78 L57.5 78 L57.5 66.5 L46 66.5 C46 70.33333 46 74.16667 46 78 zM57.5 78 L69 78 L69 66.5 L57.5 66.5 C57.5 70.33333 57.5 74.16667 57.5 78 zM69 78 L80.5 78 L80.5 66.5 L69 66.5 C69 70.33333 69 74.16667 69 78 zM80.5 78 L92 78 L92 66.5 L80.5 66.5 C80.5 70.33333 80.5 74.16667 80.5 78 zM11.5 78 L23 78 L23 66.5 L11.5 66.5 C11.5 70.33333 11.5 74.16667 11.5 78 zM23 78 L34.5 78 L34.5 66.5 L23 66.5 C23 70.33333 23 74.16667 23 78 zM34.5 78 L46 78 L46 66.5 L34.5 66.5 C34.5 70.33333 34.5 74.16667 34.5 78 zM0 78 L11.5 78 L11.5 66.5 L0 66.5 C0 70.33333 0 74.16667 0 78 z" />
<glyph unicode="z" horiz-adv-x="92" d="M46 78 L57.5 78 L57.5 66.5 L46 66.5 C46 70.33333 46 74.16667 46 78 zM57.5 78 L69 78 L69 66.5 L57.5 66.5 C57.5 70.33333 57.5 74.16667 57.5 78 zM69 78 L80.5 78 L80.5 66.5 L69 66.5 C69 70.33333 69 74.16667 69 78 zM80.5 78 L92 78 L92 66.5 L80.5 66.5 C80.5 70.33333 80.5 74.16667 80.5 78 zM11.5 78 L23 78 L23 66.5 L11.5 66.5 C11.5 70.33333 11.5 74.16667 11.5 78 zM23 78 L34.5 78 L34.5 66.5 L23 66.5 C23 70.33333 23 74.16667 23 78 zM34.5 78 L46 78 L46 66.5 L34.5 66.5 C34.5 70.33333 34.5 74.16667 34.5 78 zM0 78 L11.5 78 L11.5 66.5 L0 66.5 C0 70.33333 0 74.16667 0 78 z" />
<glyph unicode="{" horiz-adv-x="92" d="M46 78 L57.5 78 L57.5 66.5 L46 66.5 C46 70.33333 46 74.16667 46 78 zM57.5 78 L69 78 L69 66.5 L57.5 66.5 C57.5 70.33333 57.5 74.16667 57.5 78 zM69 78 L80.5 78 L80.5 66.5 L69 66.5 C69 70.33333 69 74.16667 69 78 zM80.5 78 L92 78 L92 66.5 L80.5 66.5 C80.5 70.33333 80.5 74.16667 80.5 78 zM11.5 78 L23 78 L23 66.5 L11.5 66.5 C11.5 70.33333 11.5 74.16667 11.5 78 zM23 78 L34.5 78 L34.5 66.5 L23 66.5 C23 70.33333 23 74.16667 23 78 zM34.5 78 L46 78 L46 66.5 L34.5 66.5 C34.5 70.33333 34.5 74.16667 34.5 78 zM0 78 L11.5 78 L11.5 66.5 L0 66.5 C0 70.33333 0 74.16667 0 78 z" />
<glyph unicode="|" horiz-adv-x="92" d="M46 78 L57.5 78 L57.5 66.5 L46 66.5 C46 70.33333 46 74.16667 46 78 zM57.5 78 L69 78 L69 66.5 L57.5 66.5 C57.5 70.33333 57.5 74.16667 57.5 78 zM69 78 L80.5 78 L80.5 66.5 L69 66.5 C69 70.33333 69 74.16667 69 78 zM80.5 78 L92 78 L92 66.5 L80.5 66.5 C80.5 70.33333 80.5 74.16667 80.5 78 zM11.5 78 L23 78 L23 66.5 L11.5 66.5 C11.5 70.33333 11.5 74.16667 11.5 78 zM23 78 L34.5 78 L34.5 66.5 L23 66.5 C23 70.33333 23 74.16667 23 78 zM34.5 78 L46 78 L46 66.5 L34.5 66.5 C34.5 70.33333 34.5 74.16667 34.5 78 zM0 78 L11.5 78 L11.5 66.5 L0 66.5 C0 70.33333 0 74.16667 0 78 z" />
<glyph unicode="}" horiz-adv-x="92" d="M46 78 L57.5 78 L57.5 66.5 L46 66.5 C46 70.33333 46 74.16667 46 78 zM57.5 78 L69 78 L69 66.5 L57.5 66.5 C57.5 70.33333 57.5 74.16667 57.5 78 zM69 78 L80.5 78 L80.5 66.5 L69 66.5 C69 70.33333 69 74.16667 69 78 zM80.5 78 L92 78 L92 66.5 L80.5 66.5 C80.5 70.33333 80.5 74.16667 80.5 78 zM11.5 78 L23 78 L23 66.5 L11.5 66.5 C11.5 70.33333 11.5 74.16667 11.5 78 zM23 78 L34.5 78 L34.5 66.5 L23 66.5 C23 70.33333 23 74.16667 23 78 zM34.5 78 L46 78 L46 66.5 L34.5 66.5 C34.5 70.33333 34.5 74.16667 34.5 78 zM0 78 L11.5 78 L11.5 66.5 L0 66.5 C0 70.33333 0 74.16667 0 78 z" />
<glyph unicode="~" horiz-adv-x="92" d="M46 78 L57.5 78 L57.5 66.5 L46 66.5 C46 70.33333 46 74.16667 46 78 zM57.5 78 L69 78 L69 66.5 L57.5 66.5 C57.5 70.33333 57.5 74.16667 57.5 78 zM69 78 L80.5 78 L80.5 66.5 L69 66.5 C69 70.33333 69 74.16667 69 78 zM80.5 78 L92 78 L92 66.5 L80.5 66.5 C80.5 70.33333 80.5 74.16667 80.5 78 zM11.5 78 L23 78 L23 66.5 L11.5 66.5 C11.5 70.33333 11.5 74.16667 11.5 78 zM23 78 L34.5 78 L34.5 66.5 L23 66.5 C23 70.33333 23 74.16667 23 78 zM34.5 78 L46 78 L46 66.5 L34.5 66.5 C34.5 70.33333 34.5 74.16667 34.5 78 zM0 78 L11.5 78 L11.5 66.5 L0 66.5 C0 70.33333 0 74.16667 0 78 z" />
<glyph unicode="" horiz-adv-x="92" d="M46 78 L57.5 78 L57.5 66.5 L46 66.5 C46 70.33334 46 74.16667 46 78 zM57.5 78 L69 78 L69 66.5 L57.5 66.5 C57.5 70.33334 57.5 74.16667 57.5 78 zM69 78 L80.5 78 L80.5 66.5 L69 66.5 C69 70.33334 69 74.16667 69 78 zM80.5 78 L92 78 L92 66.5 L80.5 66.5 C80.5 70.33334 80.5 74.16667 80.5 78 zM11.5 78 L23 78 L23 66.5 L11.5 66.5 C11.5 70.33334 11.5 74.16667 11.5 78 zM23 78 L34.5 78 L34.5 66.5 L23 66.5 C23 70.33334 23 74.16667 23 78 zM34.5 78 L46 78 L46 66.5 L34.5 66.5 C34.5 70.33334 34.5 74.16667 34.5 78 zM0 78 L11.5 78 L11.5 66.5 L0 66.5 C0 70.33334 0 74.16667 0 78 zM46 66.5 L57.5 66.5 L57.5 55 L46 55 C46 58.83334 46 62.66667 46 66.5 zM57.5 66.5 L69 66.5 L69 55 L57.5 55 C57.5 58.83334 57.5 62.66667 57.5 66.5 zM69 66.5 L80.5 66.5 L80.5 55 L69 55 C69 58.83334 69 62.66667 69 66.5 zM80.5 66.5 L92 66.5 L92 55 L80.5 55 C80.5 58.83334 80.5 62.66667 80.5 66.5 zM11.5 66.5 L23 66.5 L23 55 L11.5 55 C11.5 58.83334 11.5 62.66667 11.5 66.5 zM23 66.5 L34.5 66.5 L34.5 55 L23 55 C23 58.83334 23 62.66667 23 66.5 zM34.5 66.5 L46 66.5 L46 55 L34.5 55 C34.5 58.83334 34.5 62.66667 34.5 66.5 zM0 66.5 L11.5 66.5 L11.5 55 L0 55 C0 58.83334 0 62.66667 0 66.5 z" />
<glyph unicode="" horiz-adv-x="92" d="M46 66.5 L57.5 66.5 L57.5 55 L46 55 C46 58.83333 46 62.66666 46 66.5 zM57.5 66.5 L69.00001 66.5 L69.00001 55 L57.5 55 C57.5 58.83333 57.5 62.66666 57.5 66.5 zM69.00001 66.5 L80.50001 66.5 L80.50001 55 L69.00001 55 C69.00001 58.83333 69.00001 62.66666 69.00001 66.5 zM80.50001 66.5 L92 66.5 L92 55 L80.50001 55 C80.50001 58.83333 80.50001 62.66666 80.50001 66.5 zM11.5 66.5 L23 66.5 L23 55 L11.5 55 C11.5 58.83333 11.5 62.66666 11.5 66.5 zM23 66.5 L34.5 66.5 L34.5 55 L23 55 C23 58.83333 23 62.66666 23 66.5 zM34.5 66.5 L46 66.5 L46 55 L34.5 55 C34.5 58.83333 34.5 62.66666 34.5 66.5 zM0 66.5 L11.5 66.5 L11.5 55 L0 55 C0 58.83333 0 62.66666 0 66.5 zM46 78 L57.5 78 L57.5 66.5 L46 66.5 C46 70.33333 46 74.16667 46 78 zM57.5 78 L69 78 L69 66.5 L57.5 66.5 C57.5 70.33333 57.5 74.16667 57.5 78 zM69 78 L80.5 78 L80.5 66.5 L69 66.5 C69 70.33333 69 74.16667 69 78 zM80.5 78 L92 78 L92 66.5 L80.5 66.5 C80.5 70.33333 80.5 74.16667 80.5 78 zM11.5 78 L23 78 L23 66.5 L11.5 66.5 C11.5 70.33333 11.5 74.16667 11.5 78 zM23 78 L34.5 78 L34.5 66.5 L23 66.5 C23 70.33333 23 74.16667 23 78 zM34.5 78 L46 78 L46 66.5 L34.5 66.5 C34.5 70.33333 34.5 74.16667 34.5 78 zM0 78 L11.5 78 L11.5 66.5 L0 66.5 C0 70.33333 0 74.16667 0 78 z" />
<glyph unicode="" horiz-adv-x="92" d="M46 66.5 L57.5 66.5 L57.5 55 L46 55 C46 58.83333 46 62.66666 46 66.5 zM57.5 66.5 L69.00001 66.5 L69.00001 55 L57.5 55 C57.5 58.83333 57.5 62.66666 57.5 66.5 zM69.00001 66.5 L80.50001 66.5 L80.50001 55 L69.00001 55 C69.00001 58.83333 69.00001 62.66666 69.00001 66.5 zM80.50001 66.5 L92 66.5 L92 55 L80.50001 55 C80.50001 58.83333 80.50001 62.66666 80.50001 66.5 zM11.5 66.5 L23 66.5 L23 55 L11.5 55 C11.5 58.83333 11.5 62.66666 11.5 66.5 zM23 66.5 L34.5 66.5 L34.5 55 L23 55 C23 58.83333 23 62.66666 23 66.5 zM34.5 66.5 L46 66.5 L46 55 L34.5 55 C34.5 58.83333 34.5 62.66666 34.5 66.5 zM0 66.5 L11.5 66.5 L11.5 55 L0 55 C0 58.83333 0 62.66666 0 66.5 zM46 78 L57.5 78 L57.5 66.5 L46 66.5 C46 70.33333 46 74.16667 46 78 zM57.5 78 L69 78 L69 66.5 L57.5 66.5 C57.5 70.33333 57.5 74.16667 57.5 78 zM69 78 L80.5 78 L80.5 66.5 L69 66.5 C69 70.33333 69 74.16667 69 78 zM80.5 78 L92 78 L92 66.5 L80.5 66.5 C80.5 70.33333 80.5 74.16667 80.5 78 zM11.5 78 L23 78 L23 66.5 L11.5 66.5 C11.5 70.33333 11.5 74.16667 11.5 78 zM23 78 L34.5 78 L34.5 66.5 L23 66.5 C23 70.33333 23 74.16667 23 78 zM34.5 78 L46 78 L46 66.5 L34.5 66.5 C34.5 70.33333 34.5 74.16667 34.5 78 zM0 78 L11.5 78 L11.5 66.5 L0 66.5 C0 70.33333 0 74.16667 0 78 z" />
<glyph unicode="" horiz-adv-x="92" d="M46 78 L57.5 78 L57.5 66.5 L46 66.5 C46 70.33333 46 74.16667 46 78 zM57.5 78 L69 78 L69 66.5 L57.5 66.5 C57.5 70.33333 57.5 74.16667 57.5 78 zM69 78 L80.5 78 L80.5 66.5 L69 66.5 C69 70.33333 69 74.16667 69 78 zM80.5 78 L92 78 L92 66.5 L80.5 66.5 C80.5 70.33333 80.5 74.16667 80.5 78 zM11.5 78 L23 78 L23 66.5 L11.5 66.5 C11.5 70.33333 11.5 74.16667 11.5 78 zM23 78 L34.5 78 L34.5 66.5 L23 66.5 C23 70.33333 23 74.16667 23 78 zM34.5 78 L46 78 L46 66.5 L34.5 66.5 C34.5 70.33333 34.5 74.16667 34.5 78 zM0 78 L11.5 78 L11.5 66.5 L0 66.5 C0 70.33333 0 74.16667 0 78 zM46 66.5 L57.5 66.5 L57.5 55 L46 55 C46 58.83333 46 62.66666 46 66.5 zM57.5 66.5 L69 66.5 L69 55 L57.5 55 C57.5 58.83333 57.5 62.66666 57.5 66.5 zM69 66.5 L80.5 66.5 L80.5 55 L69 55 C69 58.83333 69 62.66666 69 66.5 zM80.5 66.5 L92 66.5 L92 55 L80.5 55 C80.5 58.83333 80.5 62.66666 80.5 66.5 zM11.5 66.5 L23 66.5 L23 55 L11.5 55 C11.5 58.83333 11.5 62.66666 11.5 66.5 zM23 66.5 L34.5 66.5 L34.5 55 L23 55 C23 58.83333 23 62.66666 23 66.5 zM34.5 66.5 L46 66.5 L46 55 L34.5 55 C34.5 58.83333 34.5 62.66666 34.5 66.5 zM0 66.5 L11.5 66.5 L11.5 55 L0 55 C0 58.83333 0 62.66666 0 66.5 z" />
<glyph unicode="" horiz-adv-x="92" d="M46 66.5 L57.5 66.5 L57.5 55 L46 55 C46 58.83333 46 62.66666 46 66.5 zM57.5 66.5 L69.00001 66.5 L69.00001 55 L57.5 55 C57.5 58.83333 57.5 62.66666 57.5 66.5 zM69.00001 66.5 L80.50001 66.5 L80.50001 55 L69.00001 55 C69.00001 58.83333 69.00001 62.66666 69.00001 66.5 zM80.50001 66.5 L92 66.5 L92 55 L80.50001 55 C80.50001 58.83333 80.50001 62.66666 80.50001 66.5 zM11.5 66.5 L23 66.5 L23 55 L11.5 55 C11.5 58.83333 11.5 62.66666 11.5 66.5 zM23 66.5 L34.5 66.5 L34.5 55 L23 55 C23 58.83333 23 62.66666 23 66.5 zM34.5 66.5 L46 66.5 L46 55 L34.5 55 C34.5 58.83333 34.5 62.66666 34.5 66.5 zM0 66.5 L11.5 66.5 L11.5 55 L0 55 C0 58.83333 0 62.66666 0 66.5 zM46 78 L57.5 78 L57.5 66.5 L46 66.5 C46 70.33333 46 74.16667 46 78 zM57.5 78 L69 78 L69 66.5 L57.5 66.5 C57.5 70.33333 57.5 74.16667 57.5 78 zM69 78 L80.5 78 L80.5 66.5 L69 66.5 C69 70.33333 69 74.16667 69 78 zM80.5 78 L92 78 L92 66.5 L80.5 66.5 C80.5 70.33333 80.5 74.16667 80.5 78 zM11.5 78 L23 78 L23 66.5 L11.5 66.5 C11.5 70.33333 11.5 74.16667 11.5 78 zM23 78 L34.5 78 L34.5 66.5 L23 66.5 C23 70.33333 23 74.16667 23 78 zM34.5 78 L46 78 L46 66.5 L34.5 66.5 C34.5 70.33333 34.5 74.16667 34.5 78 zM0 78 L11.5 78 L11.5 66.5 L0 66.5 C0 70.33333 0 74.16667 0 78 z" />
<glyph unicode="" horiz-adv-x="92" d="M46 66.5 L57.5 66.5 L57.5 55 L46 55 C46 58.83333 46 62.66666 46 66.5 zM57.5 66.5 L69.00001 66.5 L69.00001 55 L57.5 55 C57.5 58.83333 57.5 62.66666 57.5 66.5 zM69.00001 66.5 L80.50001 66.5 L80.50001 55 L69.00001 55 C69.00001 58.83333 69.00001 62.66666 69.00001 66.5 zM80.50001 66.5 L92 66.5 L92 55 L80.50001 55 C80.50001 58.83333 80.50001 62.66666 80.50001 66.5 zM11.5 66.5 L23 66.5 L23 55 L11.5 55 C11.5 58.83333 11.5 62.66666 11.5 66.5 zM23 66.5 L34.5 66.5 L34.5 55 L23 55 C23 58.83333 23 62.66666 23 66.5 zM34.5 66.5 L46 66.5 L46 55 L34.5 55 C34.5 58.83333 34.5 62.66666 34.5 66.5 zM0 66.5 L11.5 66.5 L11.5 55 L0 55 C0 58.83333 0 62.66666 0 66.5 zM46 78 L57.5 78 L57.5 66.5 L46 66.5 C46 70.33333 46 74.16667 46 78 zM57.5 78 L69 78 L69 66.5 L57.5 66.5 C57.5 70.33333 57.5 74.16667 57.5 78 zM69 78 L80.5 78 L80.5 66.5 L69 66.5 C69 70.33333 69 74.16667 69 78 zM80.5 78 L92 78 L92 66.5 L80.5 66.5 C80.5 70.33333 80.5 74.16667 80.5 78 zM11.5 78 L23 78 L23 66.5 L11.5 66.5 C11.5 70.33333 11.5 74.16667 11.5 78 zM23 78 L34.5 78 L34.5 66.5 L23 66.5 C23 70.33333 23 74.16667 23 78 zM34.5 78 L46 78 L46 66.5 L34.5 66.5 C34.5 70.33333 34.5 74.16667 34.5 78 zM0 78 L11.5 78 L11.5 66.5 L0 66.5 C0 70.33333 0 74.16667 0 78 z" />
<glyph unicode="" horiz-adv-x="92" d="M46 78 L57.5 78 L57.5 66.5 L46 66.5 C46 70.33333 46 74.16667 46 78 zM57.5 78 L69 78 L69 66.5 L57.5 66.5 C57.5 70.33333 57.5 74.16667 57.5 78 zM69 78 L80.5 78 L80.5 66.5 L69 66.5 C69 70.33333 69 74.16667 69 78 zM80.5 78 L92 78 L92 66.5 L80.5 66.5 C80.5 70.33333 80.5 74.16667 80.5 78 zM11.5 78 L23 78 L23 66.5 L11.5 66.5 C11.5 70.33333 11.5 74.16667 11.5 78 zM23 78 L34.5 78 L34.5 66.5 L23 66.5 C23 70.33333 23 74.16667 23 78 zM34.5 78 L46 78 L46 66.5 L34.5 66.5 C34.5 70.33333 34.5 74.16667 34.5 78 zM0 78 L11.5 78 L11.5 66.5 L0 66.5 C0 70.33333 0 74.16667 0 78 zM46 66.5 L57.5 66.5 L57.5 55 L46 55 C46 58.83333 46 62.66666 46 66.5 zM57.5 66.5 L69 66.5 L69 55 L57.5 55 C57.5 58.83333 57.5 62.66666 57.5 66.5 zM69 66.5 L80.5 66.5 L80.5 55 L69 55 C69 58.83333 69 62.66666 69 66.5 zM80.5 66.5 L92 66.5 L92 55 L80.5 55 C80.5 58.83333 80.5 62.66666 80.5 66.5 zM11.5 66.5 L23 66.5 L23 55 L11.5 55 C11.5 58.83333 11.5 62.66666 11.5 66.5 zM23 66.5 L34.5 66.5 L34.5 55 L23 55 C23 58.83333 23 62.66666 23 66.5 zM34.5 66.5 L46 66.5 L46 55 L34.5 55 C34.5 58.83333 34.5 62.66666 34.5 66.5 zM0 66.5 L11.5 66.5 L11.5 55 L0 55 C0 58.83333 0 62.66666 0 66.5 z" />
<glyph unicode="" horiz-adv-x="92" d="M46 78 L57.5 78 L57.5 66.5 L46 66.5 C46 70.33333 46 74.16667 46 78 zM57.5 78 L69 78 L69 66.5 L57.5 66.5 C57.5 70.33333 57.5 74.16667 57.5 78 zM69 78 L80.49999 78 L80.49999 66.5 L69 66.5 C69 70.33333 69 74.16667 69 78 zM80.49999 78 L91.99999 78 L91.99999 66.5 L80.49999 66.5 C80.49999 70.33333 80.49999 74.16667 80.49999 78 zM11.5 78 L23 78 L23 66.5 L11.5 66.5 C11.5 70.33333 11.5 74.16667 11.5 78 zM23 78 L34.5 78 L34.5 66.5 L23 66.5 C23 70.33333 23 74.16667 23 78 zM34.5 78 L46 78 L46 66.5 L34.5 66.5 C34.5 70.33333 34.5 74.16667 34.5 78 zM0 78 L11.5 78 L11.5 66.5 L0 66.5 C0 70.33333 0 74.16667 0 78 zM46 66.5 L57.5 66.5 L57.5 55 L46 55 C46 58.83333 46 62.66667 46 66.5 zM57.5 66.5 L69 66.5 L69 55 L57.5 55 C57.5 58.83333 57.5 62.66667 57.5 66.5 zM69 66.5 L80.5 66.5 L80.5 55 L69 55 C69 58.83333 69 62.66667 69 66.5 zM80.5 66.5 L92 66.5 L92 55 L80.5 55 C80.5 58.83333 80.5 62.66667 80.5 66.5 zM11.5 66.5 L23 66.5 L23 55 L11.5 55 C11.5 58.83333 11.5 62.66667 11.5 66.5 zM23 66.5 L34.5 66.5 L34.5 55 L23 55 C23 58.83333 23 62.66667 23 66.5 zM34.5 66.5 L46 66.5 L46 55 L34.5 55 C34.5 58.83333 34.5 62.66667 34.5 66.5 zM0 66.5 L11.5 66.5 L11.5 55 L0 55 C0 58.83333 0 62.66667 0 66.5 z" />
<glyph unicode="" horiz-adv-x="92" d="M46 78 L57.5 78 L57.5 66.5 L46 66.5 C46 70.33334 46 74.16667 46 78 zM57.5 78 L68.99999 78 L68.99999 66.5 L57.5 66.5 C57.5 70.33334 57.5 74.16667 57.5 78 zM68.99999 78 L80.49999 78 L80.49999 66.5 L68.99999 66.5 C68.99999 70.33334 68.99999 74.16667 68.99999 78 zM80.49999 78 L91.99999 78 L91.99999 66.5 L80.49999 66.5 C80.49999 70.33334 80.49999 74.16667 80.49999 78 zM11.5 78 L23 78 L23 66.5 L11.5 66.5 C11.5 70.33334 11.5 74.16667 11.5 78 zM23 78 L34.5 78 L34.5 66.5 L23 66.5 C23 70.33334 23 74.16667 23 78 zM34.5 78 L46 78 L46 66.5 L34.5 66.5 C34.5 70.33334 34.5 74.16667 34.5 78 zM0 78 L11.5 78 L11.5 66.5 L0 66.5 C0 70.33334 0 74.16667 0 78 zM46 66.5 L57.5 66.5 L57.5 55 L46 55 C46 58.83334 46 62.66667 46 66.5 zM57.5 66.5 L69 66.5 L69 55 L57.5 55 C57.5 58.83334 57.5 62.66667 57.5 66.5 zM69 66.5 L80.5 66.5 L80.5 55 L69 55 C69 58.83334 69 62.66667 69 66.5 zM80.5 66.5 L92 66.5 L92 55 L80.5 55 C80.5 58.83334 80.5 62.66667 80.5 66.5 zM11.5 66.5 L23 66.5 L23 55 L11.5 55 C11.5 58.83334 11.5 62.66667 11.5 66.5 zM23 66.5 L34.5 66.5 L34.5 55 L23 55 C23 58.83334 23 62.66667 23 66.5 zM34.5 66.5 L46 66.5 L46 55 L34.5 55 C34.5 58.83334 34.5 62.66667 34.5 66.5 zM0 66.5 L11.5 66.5 L11.5 55 L0 55 C0 58.83334 0 62.66667 0 66.5 z" />
<glyph unicode="" horiz-adv-x="92" d="M46 78 L57.5 78 L57.5 66.5 L46 66.5 C46 70.33333 46 74.16667 46 78 zM57.5 78 L68.99999 78 L68.99999 66.5 L57.5 66.5 C57.5 70.33333 57.5 74.16667 57.5 78 zM68.99999 78 L80.49999 78 L80.49999 66.5 L68.99999 66.5 C68.99999 70.33333 68.99999 74.16667 68.99999 78 zM80.49999 78 L91.99999 78 L91.99999 66.5 L80.49999 66.5 C80.49999 70.33333 80.49999 74.16667 80.49999 78 zM11.5 78 L23 78 L23 66.5 L11.5 66.5 C11.5 70.33333 11.5 74.16667 11.5 78 zM23 78 L34.5 78 L34.5 66.5 L23 66.5 C23 70.33333 23 74.16667 23 78 zM34.5 78 L46 78 L46 66.5 L34.5 66.5 C34.5 70.33333 34.5 74.16667 34.5 78 zM0 78 L11.5 78 L11.5 66.5 L0 66.5 C0 70.33333 0 74.16667 0 78 zM46 66.5 L57.5 66.5 L57.5 55 L46 55 C46 58.83333 46 62.66667 46 66.5 zM57.5 66.5 L69 66.5 L69 55 L57.5 55 C57.5 58.83333 57.5 62.66667 57.5 66.5 zM69 66.5 L80.5 66.5 L80.5 55 L69 55 C69 58.83333 69 62.66667 69 66.5 zM80.5 66.5 L92 66.5 L92 55 L80.5 55 C80.5 58.83333 80.5 62.66667 80.5 66.5 zM11.5 66.5 L23 66.5 L23 55 L11.5 55 C11.5 58.83333 11.5 62.66667 11.5 66.5 zM23 66.5 L34.5 66.5 L34.5 55 L23 55 C23 58.83333 23 62.66667 23 66.5 zM34.5 66.5 L46 66.5 L46 55 L34.5 55 C34.5 58.83333 34.5 62.66667 34.5 66.5 zM0 66.5 L11.5 66.5 L11.5 55 L0 55 C0 58.83333 0 62.66667 0 66.5 z" />
<glyph unicode="" horiz-adv-x="92" d="M46 66.5 L57.5 66.5 L57.5 55 L46 55 C46 58.83333 46 62.66666 46 66.5 zM57.5 66.5 L69.00001 66.5 L69.00001 55 L57.5 55 C57.5 58.83333 57.5 62.66666 57.5 66.5 zM69.00001 66.5 L80.50001 66.5 L80.50001 55 L69.00001 55 C69.00001 58.83333 69.00001 62.66666 69.00001 66.5 zM80.50001 66.5 L92 66.5 L92 55 L80.50001 55 C80.50001 58.83333 80.50001 62.66666 80.50001 66.5 zM11.5 66.5 L23 66.5 L23 55 L11.5 55 C11.5 58.83333 11.5 62.66666 11.5 66.5 zM23 66.5 L34.5 66.5 L34.5 55 L23 55 C23 58.83333 23 62.66666 23 66.5 zM34.5 66.5 L46 66.5 L46 55 L34.5 55 C34.5 58.83333 34.5 62.66666 34.5 66.5 zM0 66.5 L11.5 66.5 L11.5 55 L0 55 C0 58.83333 0 62.66666 0 66.5 zM46 78 L57.5 78 L57.5 66.5 L46 66.5 C46 70.33333 46 74.16667 46 78 zM57.5 78 L69 78 L69 66.5 L57.5 66.5 C57.5 70.33333 57.5 74.16667 57.5 78 zM69 78 L80.5 78 L80.5 66.5 L69 66.5 C69 70.33333 69 74.16667 69 78 zM80.5 78 L92 78 L92 66.5 L80.5 66.5 C80.5 70.33333 80.5 74.16667 80.5 78 zM11.5 78 L23 78 L23 66.5 L11.5 66.5 C11.5 70.33333 11.5 74.16667 11.5 78 zM23 78 L34.5 78 L34.5 66.5 L23 66.5 C23 70.33333 23 74.16667 23 78 zM34.5 78 L46 78 L46 66.5 L34.5 66.5 C34.5 70.33333 34.5 74.16667 34.5 78 zM0 78 L11.5 78 L11.5 66.5 L0 66.5 C0 70.33333 0 74.16667 0 78 z" />
<glyph unicode="" horiz-adv-x="92" d="M46 78 L57.5 78 L57.5 66.5 L46 66.5 C46 70.33333 46 74.16667 46 78 zM57.5 78 L69 78 L69 66.5 L57.5 66.5 C57.5 70.33333 57.5 74.16667 57.5 78 zM69 78 L80.5 78 L80.5 66.5 L69 66.5 C69 70.33333 69 74.16667 69 78 zM80.5 78 L92 78 L92 66.5 L80.5 66.5 C80.5 70.33333 80.5 74.16667 80.5 78 zM11.5 78 L23 78 L23 66.5 L11.5 66.5 C11.5 70.33333 11.5 74.16667 11.5 78 zM23 78 L34.5 78 L34.5 66.5 L23 66.5 C23 70.33333 23 74.16667 23 78 zM34.5 78 L46 78 L46 66.5 L34.5 66.5 C34.5 70.33333 34.5 74.16667 34.5 78 zM0 78 L11.5 78 L11.5 66.5 L0 66.5 C0 70.33333 0 74.16667 0 78 zM46 66.5 L57.50001 66.5 L57.50001 55 L46 55 C46 58.83333 46 62.66666 46 66.5 zM57.50001 66.5 L69 66.5 L69 55 L57.50001 55 C57.50001 58.83333 57.50001 62.66666 57.50001 66.5 zM69 66.5 L80.5 66.5 L80.5 55 L69 55 C69 58.83333 69 62.66666 69 66.5 zM80.5 66.5 L92 66.5 L92 55 L80.5 55 C80.5 58.83333 80.5 62.66666 80.5 66.5 zM11.5 66.5 L23 66.5 L23 55 L11.5 55 C11.5 58.83333 11.5 62.66666 11.5 66.5 zM23 66.5 L34.5 66.5 L34.5 55 L23 55 C23 58.83333 23 62.66666 23 66.5 zM34.5 66.5 L46 66.5 L46 55 L34.5 55 C34.5 58.83333 34.5 62.66666 34.5 66.5 zM0 66.5 L11.5 66.5 L11.5 55 L0 55 C0 58.83333 0 62.66666 0 66.5 z" />
<glyph unicode="" horiz-adv-x="92" d="M46 78 L57.5 78 L57.5 66.5 L46 66.5 C46 70.33333 46 74.16667 46 78 zM57.5 78 L69 78 L69 66.5 L57.5 66.5 C57.5 70.33333 57.5 74.16667 57.5 78 zM69 78 L80.5 78 L80.5 66.5 L69 66.5 C69 70.33333 69 74.16667 69 78 zM80.5 78 L92 78 L92 66.5 L80.5 66.5 C80.5 70.33333 80.5 74.16667 80.5 78 zM11.5 78 L23 78 L23 66.5 L11.5 66.5 C11.5 70.33333 11.5 74.16667 11.5 78 zM23 78 L34.5 78 L34.5 66.5 L23 66.5 C23 70.33333 23 74.16667 23 78 zM34.5 78 L46 78 L46 66.5 L34.5 66.5 C34.5 70.33333 34.5 74.16667 34.5 78 zM0 78 L11.5 78 L11.5 66.5 L0 66.5 C0 70.33333 0 74.16667 0 78 zM46.00001 66.5 L57.50001 66.5 L57.50001 55 L46.00001 55 C46.00001 58.83333 46.00001 62.66666 46.00001 66.5 zM57.50001 66.5 L69 66.5 L69 55 L57.50001 55 C57.50001 58.83333 57.50001 62.66666 57.50001 66.5 zM69 66.5 L80.5 66.5 L80.5 55 L69 55 C69 58.83333 69 62.66666 69 66.5 zM80.5 66.5 L92 66.5 L92 55 L80.5 55 C80.5 58.83333 80.5 62.66666 80.5 66.5 zM11.5 66.5 L23.00001 66.5 L23.00001 55 L11.5 55 C11.5 58.83333 11.5 62.66666 11.5 66.5 zM23.00001 66.5 L34.50001 66.5 L34.50001 55 L23.00001 55 C23.00001 58.83333 23.00001 62.66666 23.00001 66.5 zM34.50001 66.5 L46.00001 66.5 L46.00001 55 L34.50001 55 C34.50001 58.83333 34.50001 62.66666 34.50001 66.5 zM0 66.5 L11.5 66.5 L11.5 55 L0 55 C0 58.83333 0 62.66666 0 66.5 z" />
<glyph unicode="" horiz-adv-x="92" d="M46 78 L57.5 78 L57.5 66.5 L46 66.5 C46 70.33333 46 74.16667 46 78 zM57.5 78 L68.99999 78 L68.99999 66.5 L57.5 66.5 C57.5 70.33333 57.5 74.16667 57.5 78 zM68.99999 78 L80.49999 78 L80.49999 66.5 L68.99999 66.5 C68.99999 70.33333 68.99999 74.16667 68.99999 78 zM80.49999 78 L91.99999 78 L91.99999 66.5 L80.49999 66.5 C80.49999 70.33333 80.49999 74.16667 80.49999 78 zM11.5 78 L23 78 L23 66.5 L11.5 66.5 C11.5 70.33333 11.5 74.16667 11.5 78 zM23 78 L34.5 78 L34.5 66.5 L23 66.5 C23 70.33333 23 74.16667 23 78 zM34.5 78 L46 78 L46 66.5 L34.5 66.5 C34.5 70.33333 34.5 74.16667 34.5 78 zM0 78 L11.5 78 L11.5 66.5 L0 66.5 C0 70.33333 0 74.16667 0 78 zM46 66.5 L57.5 66.5 L57.5 55 L46 55 C46 58.83333 46 62.66667 46 66.5 zM57.5 66.5 L69 66.5 L69 55 L57.5 55 C57.5 58.83333 57.5 62.66667 57.5 66.5 zM69 66.5 L80.5 66.5 L80.5 55 L69 55 C69 58.83333 69 62.66667 69 66.5 zM80.5 66.5 L92 66.5 L92 55 L80.5 55 C80.5 58.83333 80.5 62.66667 80.5 66.5 zM11.5 66.5 L23 66.5 L23 55 L11.5 55 C11.5 58.83333 11.5 62.66667 11.5 66.5 zM23 66.5 L34.5 66.5 L34.5 55 L23 55 C23 58.83333 23 62.66667 23 66.5 zM34.5 66.5 L46 66.5 L46 55 L34.5 55 C34.5 58.83333 34.5 62.66667 34.5 66.5 zM0 66.5 L11.5 66.5 L11.5 55 L0 55 C0 58.83333 0 62.66667 0 66.5 z" />
<glyph unicode="" horiz-adv-x="92" d="M46 66.5 L57.5 66.5 L57.5 55 L46 55 C46 58.83333 46 62.66666 46 66.5 zM57.5 66.5 L69.00001 66.5 L69.00001 55 L57.5 55 C57.5 58.83333 57.5 62.66666 57.5 66.5 zM69.00001 66.5 L80.50001 66.5 L80.50001 55 L69.00001 55 C69.00001 58.83333 69.00001 62.66666 69.00001 66.5 zM80.50001 66.5 L92 66.5 L92 55 L80.50001 55 C80.50001 58.83333 80.50001 62.66666 80.50001 66.5 zM11.5 66.5 L23 66.5 L23 55 L11.5 55 C11.5 58.83333 11.5 62.66666 11.5 66.5 zM23 66.5 L34.5 66.5 L34.5 55 L23 55 C23 58.83333 23 62.66666 23 66.5 zM34.5 66.5 L46 66.5 L46 55 L34.5 55 C34.5 58.83333 34.5 62.66666 34.5 66.5 zM0 66.5 L11.5 66.5 L11.5 55 L0 55 C0 58.83333 0 62.66666 0 66.5 zM46 78 L57.5 78 L57.5 66.5 L46 66.5 C46 70.33333 46 74.16667 46 78 zM57.5 78 L69 78 L69 66.5 L57.5 66.5 C57.5 70.33333 57.5 74.16667 57.5 78 zM69 78 L80.5 78 L80.5 66.5 L69 66.5 C69 70.33333 69 74.16667 69 78 zM80.5 78 L92 78 L92 66.5 L80.5 66.5 C80.5 70.33333 80.5 74.16667 80.5 78 zM11.5 78 L23 78 L23 66.5 L11.5 66.5 C11.5 70.33333 11.5 74.16667 11.5 78 zM23 78 L34.5 78 L34.5 66.5 L23 66.5 C23 70.33333 23 74.16667 23 78 zM34.5 78 L46 78 L46 66.5 L34.5 66.5 C34.5 70.33333 34.5 74.16667 34.5 78 zM0 78 L11.5 78 L11.5 66.5 L0 66.5 C0 70.33333 0 74.16667 0 78 z" />
<glyph unicode="" horiz-adv-x="92" d="M46 78 L57.5 78 L57.5 66.5 L46 66.5 C46 70.33333 46 74.16667 46 78 zM57.5 78 L68.99999 78 L68.99999 66.5 L57.5 66.5 C57.5 70.33333 57.5 74.16667 57.5 78 zM68.99999 78 L80.49999 78 L80.49999 66.5 L68.99999 66.5 C68.99999 70.33333 68.99999 74.16667 68.99999 78 zM80.49999 78 L91.99999 78 L91.99999 66.5 L80.49999 66.5 C80.49999 70.33333 80.49999 74.16667 80.49999 78 zM11.5 78 L23 78 L23 66.5 L11.5 66.5 C11.5 70.33333 11.5 74.16667 11.5 78 zM23 78 L34.5 78 L34.5 66.5 L23 66.5 C23 70.33333 23 74.16667 23 78 zM34.5 78 L46 78 L46 66.5 L34.5 66.5 C34.5 70.33333 34.5 74.16667 34.5 78 zM0 78 L11.5 78 L11.5 66.5 L0 66.5 C0 70.33333 0 74.16667 0 78 zM46 66.5 L57.5 66.5 L57.5 55 L46 55 C46 58.83333 46 62.66667 46 66.5 zM57.5 66.5 L69 66.5 L69 55 L57.5 55 C57.5 58.83333 57.5 62.66667 57.5 66.5 zM69 66.5 L80.5 66.5 L80.5 55 L69 55 C69 58.83333 69 62.66667 69 66.5 zM80.5 66.5 L92 66.5 L92 55 L80.5 55 C80.5 58.83333 80.5 62.66667 80.5 66.5 zM11.5 66.5 L23 66.5 L23 55 L11.5 55 C11.5 58.83333 11.5 62.66667 11.5 66.5 zM23 66.5 L34.5 66.5 L34.5 55 L23 55 C23 58.83333 23 62.66667 23 66.5 zM34.5 66.5 L46 66.5 L46 55 L34.5 55 C34.5 58.83333 34.5 62.66667 34.5 66.5 zM0 66.5 L11.5 66.5 L11.5 55 L0 55 C0 58.83333 0 62.66667 0 66.5 z" />
<glyph unicode="" horiz-adv-x="92" d="M46 66.5 L57.5 66.5 L57.5 55 L46 55 C46 58.83333 46 62.66666 46 66.5 zM57.5 66.5 L69.00001 66.5 L69.00001 55 L57.5 55 C57.5 58.83333 57.5 62.66666 57.5 66.5 zM69.00001 66.5 L80.50001 66.5 L80.50001 55 L69.00001 55 C69.00001 58.83333 69.00001 62.66666 69.00001 66.5 zM80.50001 66.5 L92 66.5 L92 55 L80.50001 55 C80.50001 58.83333 80.50001 62.66666 80.50001 66.5 zM11.5 66.5 L23 66.5 L23 55 L11.5 55 C11.5 58.83333 11.5 62.66666 11.5 66.5 zM23 66.5 L34.5 66.5 L34.5 55 L23 55 C23 58.83333 23 62.66666 23 66.5 zM34.5 66.5 L46 66.5 L46 55 L34.5 55 C34.5 58.83333 34.5 62.66666 34.5 66.5 zM0 66.5 L11.5 66.5 L11.5 55 L0 55 C0 58.83333 0 62.66666 0 66.5 zM46 78 L57.5 78 L57.5 66.5 L46 66.5 C46 70.33333 46 74.16667 46 78 zM57.5 78 L69 78 L69 66.5 L57.5 66.5 C57.5 70.33333 57.5 74.16667 57.5 78 zM69 78 L80.5 78 L80.5 66.5 L69 66.5 C69 70.33333 69 74.16667 69 78 zM80.5 78 L92 78 L92 66.5 L80.5 66.5 C80.5 70.33333 80.5 74.16667 80.5 78 zM11.5 78 L23 78 L23 66.5 L11.5 66.5 C11.5 70.33333 11.5 74.16667 11.5 78 zM23 78 L34.5 78 L34.5 66.5 L23 66.5 C23 70.33333 23 74.16667 23 78 zM34.5 78 L46 78 L46 66.5 L34.5 66.5 C34.5 70.33333 34.5 74.16667 34.5 78 zM0 78 L11.5 78 L11.5 66.5 L0 66.5 C0 70.33333 0 74.16667 0 78 z" />
<glyph unicode="" horiz-adv-x="92" d="M46 78 L57.5 78 L57.5 66.5 L46 66.5 C46 70.33333 46 74.16667 46 78 zM57.5 78 L69 78 L69 66.5 L57.5 66.5 C57.5 70.33333 57.5 74.16667 57.5 78 zM69 78 L80.5 78 L80.5 66.5 L69 66.5 C69 70.33333 69 74.16667 69 78 zM80.5 78 L92 78 L92 66.5 L80.5 66.5 C80.5 70.33333 80.5 74.16667 80.5 78 zM11.5 78 L23 78 L23 66.5 L11.5 66.5 C11.5 70.33333 11.5 74.16667 11.5 78 zM23 78 L34.5 78 L34.5 66.5 L23 66.5 C23 70.33333 23 74.16667 23 78 zM34.5 78 L46 78 L46 66.5 L34.5 66.5 C34.5 70.33333 34.5 74.16667 34.5 78 zM0 78 L11.5 78 L11.5 66.5 L0 66.5 C0 70.33333 0 74.16667 0 78 zM46 66.5 L57.5 66.5 L57.5 55 L46 55 C46 58.83333 46 62.66666 46 66.5 zM57.5 66.5 L69 66.5 L69 55 L57.5 55 C57.5 58.83333 57.5 62.66666 57.5 66.5 zM69 66.5 L80.5 66.5 L80.5 55 L69 55 C69 58.83333 69 62.66666 69 66.5 zM80.5 66.5 L92 66.5 L92 55 L80.5 55 C80.5 58.83333 80.5 62.66666 80.5 66.5 zM11.5 66.5 L23 66.5 L23 55 L11.5 55 C11.5 58.83333 11.5 62.66666 11.5 66.5 zM23 66.5 L34.5 66.5 L34.5 55 L23 55 C23 58.83333 23 62.66666 23 66.5 zM34.5 66.5 L46 66.5 L46 55 L34.5 55 C34.5 58.83333 34.5 62.66666 34.5 66.5 zM0 66.5 L11.5 66.5 L11.5 55 L0 55 C0 58.83333 0 62.66666 0 66.5 z" />
<glyph unicode="" horiz-adv-x="92" d="M46 66.5 L57.5 66.5 L57.5 55 L46 55 C46 58.83333 46 62.66666 46 66.5 zM57.5 66.5 L69.00001 66.5 L69.00001 55 L57.5 55 C57.5 58.83333 57.5 62.66666 57.5 66.5 zM69.00001 66.5 L80.50001 66.5 L80.50001 55 L69.00001 55 C69.00001 58.83333 69.00001 62.66666 69.00001 66.5 zM80.50001 66.5 L92 66.5 L92 55 L80.50001 55 C80.50001 58.83333 80.50001 62.66666 80.50001 66.5 zM11.5 66.5 L23 66.5 L23 55 L11.5 55 C11.5 58.83333 11.5 62.66666 11.5 66.5 zM23 66.5 L34.5 66.5 L34.5 55 L23 55 C23 58.83333 23 62.66666 23 66.5 zM34.5 66.5 L46 66.5 L46 55 L34.5 55 C34.5 58.83333 34.5 62.66666 34.5 66.5 zM0 66.5 L11.5 66.5 L11.5 55 L0 55 C0 58.83333 0 62.66666 0 66.5 zM46 78 L57.5 78 L57.5 66.5 L46 66.5 C46 70.33333 46 74.16667 46 78 zM57.5 78 L69 78 L69 66.5 L57.5 66.5 C57.5 70.33333 57.5 74.16667 57.5 78 zM69 78 L80.5 78 L80.5 66.5 L69 66.5 C69 70.33333 69 74.16667 69 78 zM80.5 78 L92 78 L92 66.5 L80.5 66.5 C80.5 70.33333 80.5 74.16667 80.5 78 zM11.5 78 L23 78 L23 66.5 L11.5 66.5 C11.5 70.33333 11.5 74.16667 11.5 78 zM23 78 L34.5 78 L34.5 66.5 L23 66.5 C23 70.33333 23 74.16667 23 78 zM34.5 78 L46 78 L46 66.5 L34.5 66.5 C34.5 70.33333 34.5 74.16667 34.5 78 zM0 78 L11.5 78 L11.5 66.5 L0 66.5 C0 70.33333 0 74.16667 0 78 z" />
<glyph unicode="" horiz-adv-x="92" d="M46 78 L57.5 78 L57.5 66.5 L46 66.5 C46 70.33333 46 74.16667 46 78 zM57.5 78 L69 78 L69 66.5 L57.5 66.5 C57.5 70.33333 57.5 74.16667 57.5 78 zM69 78 L80.5 78 L80.5 66.5 L69 66.5 C69 70.33333 69 74.16667 69 78 zM80.5 78 L92 78 L92 66.5 L80.5 66.5 C80.5 70.33333 80.5 74.16667 80.5 78 zM11.5 78 L23 78 L23 66.5 L11.5 66.5 C11.5 70.33333 11.5 74.16667 11.5 78 zM23 78 L34.5 78 L34.5 66.5 L23 66.5 C23 70.33333 23 74.16667 23 78 zM34.5 78 L46 78 L46 66.5 L34.5 66.5 C34.5 70.33333 34.5 74.16667 34.5 78 zM0 78 L11.5 78 L11.5 66.5 L0 66.5 C0 70.33333 0 74.16667 0 78 zM46 66.5 L57.5 66.5 L57.5 55 L46 55 C46 58.83333 46 62.66666 46 66.5 zM57.5 66.5 L69 66.5 L69 55 L57.5 55 C57.5 58.83333 57.5 62.66666 57.5 66.5 zM69 66.5 L80.5 66.5 L80.5 55 L69 55 C69 58.83333 69 62.66666 69 66.5 zM80.5 66.5 L92 66.5 L92 55 L80.5 55 C80.5 58.83333 80.5 62.66666 80.5 66.5 zM11.5 66.5 L23 66.5 L23 55 L11.5 55 C11.5 58.83333 11.5 62.66666 11.5 66.5 zM23 66.5 L34.5 66.5 L34.5 55 L23 55 C23 58.83333 23 62.66666 23 66.5 zM34.5 66.5 L46 66.5 L46 55 L34.5 55 C34.5 58.83333 34.5 62.66666 34.5 66.5 zM0 66.5 L11.5 66.5 L11.5 55 L0 55 C0 58.83333 0 62.66666 0 66.5 z" />
<glyph unicode="" horiz-adv-x="92" d="M46 78 L57.5 78 L57.5 66.5 L46 66.5 C46 70.33333 46 74.16667 46 78 zM57.5 78 L69 78 L69 66.5 L57.5 66.5 C57.5 70.33333 57.5 74.16667 57.5 78 zM69 78 L80.5 78 L80.5 66.5 L69 66.5 C69 70.33333 69 74.16667 69 78 zM80.5 78 L92 78 L92 66.5 L80.5 66.5 C80.5 70.33333 80.5 74.16667 80.5 78 zM11.5 78 L23 78 L23 66.5 L11.5 66.5 C11.5 70.33333 11.5 74.16667 11.5 78 zM23 78 L34.5 78 L34.5 66.5 L23 66.5 C23 70.33333 23 74.16667 23 78 zM34.5 78 L46 78 L46 66.5 L34.5 66.5 C34.5 70.33333 34.5 74.16667 34.5 78 zM0 78 L11.5 78 L11.5 66.5 L0 66.5 C0 70.33333 0 74.16667 0 78 zM46 66.5 L57.5 66.5 L57.5 55 L46 55 C46 58.83333 46 62.66666 46 66.5 zM57.5 66.5 L69 66.5 L69 55 L57.5 55 C57.5 58.83333 57.5 62.66666 57.5 66.5 zM69 66.5 L80.5 66.5 L80.5 55 L69 55 C69 58.83333 69 62.66666 69 66.5 zM80.5 66.5 L92 66.5 L92 55 L80.5 55 C80.5 58.83333 80.5 62.66666 80.5 66.5 zM11.5 66.5 L23 66.5 L23 55 L11.5 55 C11.5 58.83333 11.5 62.66666 11.5 66.5 zM23 66.5 L34.5 66.5 L34.5 55 L23 55 C23 58.83333 23 62.66666 23 66.5 zM34.5 66.5 L46 66.5 L46 55 L34.5 55 C34.5 58.83333 34.5 62.66666 34.5 66.5 zM0 66.5 L11.5 66.5 L11.5 55 L0 55 C0 58.83333 0 62.66666 0 66.5 z" />
<glyph unicode="" horiz-adv-x="92" d="M46 66.5 L57.5 66.5 L57.5 55 L46 55 C46 58.83333 46 62.66666 46 66.5 zM57.5 66.5 L69.00001 66.5 L69.00001 55 L57.5 55 C57.5 58.83333 57.5 62.66666 57.5 66.5 zM69.00001 66.5 L80.50001 66.5 L80.50001 55 L69.00001 55 C69.00001 58.83333 69.00001 62.66666 69.00001 66.5 zM80.50001 66.5 L92 66.5 L92 55 L80.50001 55 C80.50001 58.83333 80.50001 62.66666 80.50001 66.5 zM11.5 66.5 L23 66.5 L23 55 L11.5 55 C11.5 58.83333 11.5 62.66666 11.5 66.5 zM23 66.5 L34.5 66.5 L34.5 55 L23 55 C23 58.83333 23 62.66666 23 66.5 zM34.5 66.5 L46 66.5 L46 55 L34.5 55 C34.5 58.83333 34.5 62.66666 34.5 66.5 zM0 66.5 L11.5 66.5 L11.5 55 L0 55 C0 58.83333 0 62.66666 0 66.5 zM46 78 L57.5 78 L57.5 66.5 L46 66.5 C46 70.33333 46 74.16667 46 78 zM57.5 78 L69 78 L69 66.5 L57.5 66.5 C57.5 70.33333 57.5 74.16667 57.5 78 zM69 78 L80.5 78 L80.5 66.5 L69 66.5 C69 70.33333 69 74.16667 69 78 zM80.5 78 L92 78 L92 66.5 L80.5 66.5 C80.5 70.33333 80.5 74.16667 80.5 78 zM11.5 78 L23 78 L23 66.5 L11.5 66.5 C11.5 70.33333 11.5 74.16667 11.5 78 zM23 78 L34.5 78 L34.5 66.5 L23 66.5 C23 70.33333 23 74.16667 23 78 zM34.5 78 L46 78 L46 66.5 L34.5 66.5 C34.5 70.33333 34.5 74.16667 34.5 78 zM0 78 L11.5 78 L11.5 66.5 L0 66.5 C0 70.33333 0 74.16667 0 78 z" />
<glyph unicode="" horiz-adv-x="92" d="M46 66.5 L57.5 66.5 L57.5 55 L46 55 C46 58.83333 46 62.66666 46 66.5 zM57.5 66.5 L69.00001 66.5 L69.00001 55 L57.5 55 C57.5 58.83333 57.5 62.66666 57.5 66.5 zM69.00001 66.5 L80.50001 66.5 L80.50001 55 L69.00001 55 C69.00001 58.83333 69.00001 62.66666 69.00001 66.5 zM80.50001 66.5 L92 66.5 L92 55 L80.50001 55 C80.50001 58.83333 80.50001 62.66666 80.50001 66.5 zM11.5 66.5 L23 66.5 L23 55 L11.5 55 C11.5 58.83333 11.5 62.66666 11.5 66.5 zM23 66.5 L34.5 66.5 L34.5 55 L23 55 C23 58.83333 23 62.66666 23 66.5 zM34.5 66.5 L46 66.5 L46 55 L34.5 55 C34.5 58.83333 34.5 62.66666 34.5 66.5 zM0 66.5 L11.5 66.5 L11.5 55 L0 55 C0 58.83333 0 62.66666 0 66.5 zM46 78 L57.5 78 L57.5 66.5 L46 66.5 C46 70.33333 46 74.16667 46 78 zM57.5 78 L69 78 L69 66.5 L57.5 66.5 C57.5 70.33333 57.5 74.16667 57.5 78 zM69 78 L80.5 78 L80.5 66.5 L69 66.5 C69 70.33333 69 74.16667 69 78 zM80.5 78 L92 78 L92 66.5 L80.5 66.5 C80.5 70.33333 80.5 74.16667 80.5 78 zM11.5 78 L23 78 L23 66.5 L11.5 66.5 C11.5 70.33333 11.5 74.16667 11.5 78 zM23 78 L34.5 78 L34.5 66.5 L23 66.5 C23 70.33333 23 74.16667 23 78 zM34.5 78 L46 78 L46 66.5 L34.5 66.5 C34.5 70.33333 34.5 74.16667 34.5 78 zM0 78 L11.5 78 L11.5 66.5 L0 66.5 C0 70.33333 0 74.16667 0 78 z" />
<glyph unicode="" horiz-adv-x="92" d="M46 66.5 L57.5 66.5 L57.5 55 L46 55 C46 58.83333 46 62.66666 46 66.5 zM57.5 66.5 L69.00001 66.5 L69.00001 55 L57.5 55 C57.5 58.83333 57.5 62.66666 57.5 66.5 zM69.00001 66.5 L80.50001 66.5 L80.50001 55 L69.00001 55 C69.00001 58.83333 69.00001 62.66666 69.00001 66.5 zM80.50001 66.5 L92 66.5 L92 55 L80.50001 55 C80.50001 58.83333 80.50001 62.66666 80.50001 66.5 zM11.5 66.5 L23 66.5 L23 55 L11.5 55 C11.5 58.83333 11.5 62.66666 11.5 66.5 zM23 66.5 L34.5 66.5 L34.5 55 L23 55 C23 58.83333 23 62.66666 23 66.5 zM34.5 66.5 L46 66.5 L46 55 L34.5 55 C34.5 58.83333 34.5 62.66666 34.5 66.5 zM0 66.5 L11.5 66.5 L11.5 55 L0 55 C0 58.83333 0 62.66666 0 66.5 zM46 78 L57.5 78 L57.5 66.5 L46 66.5 C46 70.33333 46 74.16667 46 78 zM57.5 78 L69 78 L69 66.5 L57.5 66.5 C57.5 70.33333 57.5 74.16667 57.5 78 zM69 78 L80.5 78 L80.5 66.5 L69 66.5 C69 70.33333 69 74.16667 69 78 zM80.5 78 L92 78 L92 66.5 L80.5 66.5 C80.5 70.33333 80.5 74.16667 80.5 78 zM11.5 78 L23 78 L23 66.5 L11.5 66.5 C11.5 70.33333 11.5 74.16667 11.5 78 zM23 78 L34.5 78 L34.5 66.5 L23 66.5 C23 70.33333 23 74.16667 23 78 zM34.5 78 L46 78 L46 66.5 L34.5 66.5 C34.5 70.33333 34.5 74.16667 34.5 78 zM0 78 L11.5 78 L11.5 66.5 L0 66.5 C0 70.33333 0 74.16667 0 78 z" />
<glyph unicode="" horiz-adv-x="92" d="M46 66.5 L57.5 66.5 L57.5 55 L46 55 C46 58.83333 46 62.66666 46 66.5 zM57.5 66.5 L69.00001 66.5 L69.00001 55 L57.5 55 C57.5 58.83333 57.5 62.66666 57.5 66.5 zM69.00001 66.5 L80.50001 66.5 L80.50001 55 L69.00001 55 C69.00001 58.83333 69.00001 62.66666 69.00001 66.5 zM80.50001 66.5 L92 66.5 L92 55 L80.50001 55 C80.50001 58.83333 80.50001 62.66666 80.50001 66.5 zM11.5 66.5 L23 66.5 L23 55 L11.5 55 C11.5 58.83333 11.5 62.66666 11.5 66.5 zM23 66.5 L34.5 66.5 L34.5 55 L23 55 C23 58.83333 23 62.66666 23 66.5 zM34.5 66.5 L46 66.5 L46 55 L34.5 55 C34.5 58.83333 34.5 62.66666 34.5 66.5 zM0 66.5 L11.5 66.5 L11.5 55 L0 55 C0 58.83333 0 62.66666 0 66.5 zM46 78 L57.5 78 L57.5 66.5 L46 66.5 C46 70.33333 46 74.16667 46 78 zM57.5 78 L69 78 L69 66.5 L57.5 66.5 C57.5 70.33333 57.5 74.16667 57.5 78 zM69 78 L80.5 78 L80.5 66.5 L69 66.5 C69 70.33333 69 74.16667 69 78 zM80.5 78 L92 78 L92 66.5 L80.5 66.5 C80.5 70.33333 80.5 74.16667 80.5 78 zM11.5 78 L23 78 L23 66.5 L11.5 66.5 C11.5 70.33333 11.5 74.16667 11.5 78 zM23 78 L34.5 78 L34.5 66.5 L23 66.5 C23 70.33333 23 74.16667 23 78 zM34.5 78 L46 78 L46 66.5 L34.5 66.5 C34.5 70.33333 34.5 74.16667 34.5 78 zM0 78 L11.5 78 L11.5 66.5 L0 66.5 C0 70.33333 0 74.16667 0 78 z" />
<glyph unicode="" horiz-adv-x="92" d="M46 66.5 L57.5 66.5 L57.5 55 L46 55 C46 58.83333 46 62.66666 46 66.5 zM57.5 66.5 L69.00001 66.5 L69.00001 55 L57.5 55 C57.5 58.83333 57.5 62.66666 57.5 66.5 zM69.00001 66.5 L80.50001 66.5 L80.50001 55 L69.00001 55 C69.00001 58.83333 69.00001 62.66666 69.00001 66.5 zM80.50001 66.5 L92 66.5 L92 55 L80.50001 55 C80.50001 58.83333 80.50001 62.66666 80.50001 66.5 zM11.5 66.5 L23 66.5 L23 55 L11.5 55 C11.5 58.83333 11.5 62.66666 11.5 66.5 zM23 66.5 L34.5 66.5 L34.5 55 L23 55 C23 58.83333 23 62.66666 23 66.5 zM34.5 66.5 L46 66.5 L46 55 L34.5 55 C34.5 58.83333 34.5 62.66666 34.5 66.5 zM0 66.5 L11.5 66.5 L11.5 55 L0 55 C0 58.83333 0 62.66666 0 66.5 zM46 78 L57.5 78 L57.5 66.5 L46 66.5 C46 70.33333 46 74.16667 46 78 zM57.5 78 L69 78 L69 66.5 L57.5 66.5 C57.5 70.33333 57.5 74.16667 57.5 78 zM69 78 L80.5 78 L80.5 66.5 L69 66.5 C69 70.33333 69 74.16667 69 78 zM80.5 78 L92 78 L92 66.5 L80.5 66.5 C80.5 70.33333 80.5 74.16667 80.5 78 zM11.5 78 L23 78 L23 66.5 L11.5 66.5 C11.5 70.33333 11.5 74.16667 11.5 78 zM23 78 L34.5 78 L34.5 66.5 L23 66.5 C23 70.33333 23 74.16667 23 78 zM34.5 78 L46 78 L46 66.5 L34.5 66.5 C34.5 70.33333 34.5 74.16667 34.5 78 zM0 78 L11.5 78 L11.5 66.5 L0 66.5 C0 70.33333 0 74.16667 0 78 z" />
<glyph unicode="" horiz-adv-x="92" d="M46 78 L57.5 78 L57.5 66.5 L46 66.5 C46 70.33334 46 74.16667 46 78 zM57.5 78 L68.99999 78 L68.99999 66.5 L57.5 66.5 C57.5 70.33334 57.5 74.16667 57.5 78 zM68.99999 78 L80.49999 78 L80.49999 66.5 L68.99999 66.5 C68.99999 70.33334 68.99999 74.16667 68.99999 78 zM80.49999 78 L91.99999 78 L91.99999 66.5 L80.49999 66.5 C80.49999 70.33334 80.49999 74.16667 80.49999 78 zM11.5 78 L23 78 L23 66.5 L11.5 66.5 C11.5 70.33334 11.5 74.16667 11.5 78 zM23 78 L34.5 78 L34.5 66.5 L23 66.5 C23 70.33334 23 74.16667 23 78 zM34.5 78 L46 78 L46 66.5 L34.5 66.5 C34.5 70.33334 34.5 74.16667 34.5 78 zM0 78 L11.5 78 L11.5 66.5 L0 66.5 C0 70.33334 0 74.16667 0 78 zM46 66.5 L57.5 66.5 L57.5 55 L46 55 C46 58.83334 46 62.66667 46 66.5 zM57.5 66.5 L69 66.5 L69 55 L57.5 55 C57.5 58.83334 57.5 62.66667 57.5 66.5 zM69 66.5 L80.5 66.5 L80.5 55 L69 55 C69 58.83334 69 62.66667 69 66.5 zM80.5 66.5 L92 66.5 L92 55 L80.5 55 C80.5 58.83334 80.5 62.66667 80.5 66.5 zM11.5 66.5 L23 66.5 L23 55 L11.5 55 C11.5 58.83334 11.5 62.66667 11.5 66.5 zM23 66.5 L34.5 66.5 L34.5 55 L23 55 C23 58.83334 23 62.66667 23 66.5 zM34.5 66.5 L46 66.5 L46 55 L34.5 55 C34.5 58.83334 34.5 62.66667 34.5 66.5 zM0 66.5 L11.5 66.5 L11.5 55 L0 55 C0 58.83334 0 62.66667 0 66.5 z" />
<glyph unicode="" horiz-adv-x="92" d="M46 78 L57.5 78 L57.5 66.5 L46 66.5 C46 70.33333 46 74.16667 46 78 zM57.5 78 L68.99999 78 L68.99999 66.5 L57.5 66.5 C57.5 70.33333 57.5 74.16667 57.5 78 zM68.99999 78 L80.49999 78 L80.49999 66.5 L68.99999 66.5 C68.99999 70.33333 68.99999 74.16667 68.99999 78 zM80.49999 78 L91.99999 78 L91.99999 66.5 L80.49999 66.5 C80.49999 70.33333 80.49999 74.16667 80.49999 78 zM11.5 78 L23 78 L23 66.5 L11.5 66.5 C11.5 70.33333 11.5 74.16667 11.5 78 zM23 78 L34.5 78 L34.5 66.5 L23 66.5 C23 70.33333 23 74.16667 23 78 zM34.5 78 L46 78 L46 66.5 L34.5 66.5 C34.5 70.33333 34.5 74.16667 34.5 78 zM0 78 L11.5 78 L11.5 66.5 L0 66.5 C0 70.33333 0 74.16667 0 78 zM46 66.5 L57.5 66.5 L57.5 55 L46 55 C46 58.83333 46 62.66667 46 66.5 zM57.5 66.5 L69 66.5 L69 55 L57.5 55 C57.5 58.83333 57.5 62.66667 57.5 66.5 zM69 66.5 L80.5 66.5 L80.5 55 L69 55 C69 58.83333 69 62.66667 69 66.5 zM80.5 66.5 L92 66.5 L92 55 L80.5 55 C80.5 58.83333 80.5 62.66667 80.5 66.5 zM11.5 66.5 L23 66.5 L23 55 L11.5 55 C11.5 58.83333 11.5 62.66667 11.5 66.5 zM23 66.5 L34.5 66.5 L34.5 55 L23 55 C23 58.83333 23 62.66667 23 66.5 zM34.5 66.5 L46 66.5 L46 55 L34.5 55 C34.5 58.83333 34.5 62.66667 34.5 66.5 zM0 66.5 L11.5 66.5 L11.5 55 L0 55 C0 58.83333 0 62.66667 0 66.5 z" />
<glyph unicode="" horiz-adv-x="92" d="M46 78 L57.5 78 L57.5 66.5 L46 66.5 C46 70.33333 46 74.16667 46 78 zM57.5 78 L69 78 L69 66.5 L57.5 66.5 C57.5 70.33333 57.5 74.16667 57.5 78 zM69 78 L80.5 78 L80.5 66.5 L69 66.5 C69 70.33333 69 74.16667 69 78 zM80.5 78 L92 78 L92 66.5 L80.5 66.5 C80.5 70.33333 80.5 74.16667 80.5 78 zM11.5 78 L23 78 L23 66.5 L11.5 66.5 C11.5 70.33333 11.5 74.16667 11.5 78 zM23 78 L34.5 78 L34.5 66.5 L23 66.5 C23 70.33333 23 74.16667 23 78 zM34.5 78 L46 78 L46 66.5 L34.5 66.5 C34.5 70.33333 34.5 74.16667 34.5 78 zM0 78 L11.5 78 L11.5 66.5 L0 66.5 C0 70.33333 0 74.16667 0 78 zM46 66.5 L57.5 66.5 L57.5 55 L46 55 C46 58.83333 46 62.66666 46 66.5 zM57.5 66.5 L69 66.5 L69 55 L57.5 55 C57.5 58.83333 57.5 62.66666 57.5 66.5 zM69 66.5 L80.5 66.5 L80.5 55 L69 55 C69 58.83333 69 62.66666 69 66.5 zM80.5 66.5 L92 66.5 L92 55 L80.5 55 C80.5 58.83333 80.5 62.66666 80.5 66.5 zM11.5 66.5 L23 66.5 L23 55 L11.5 55 C11.5 58.83333 11.5 62.66666 11.5 66.5 zM23 66.5 L34.5 66.5 L34.5 55 L23 55 C23 58.83333 23 62.66666 23 66.5 zM34.5 66.5 L46 66.5 L46 55 L34.5 55 C34.5 58.83333 34.5 62.66666 34.5 66.5 zM0 66.5 L11.5 66.5 L11.5 55 L0 55 C0 58.83333 0 62.66666 0 66.5 z" />
<glyph unicode="" horiz-adv-x="92" d="M46 78 L57.5 78 L57.5 66.5 L46 66.5 C46 70.33334 46 74.16667 46 78 zM57.5 78 L68.99999 78 L68.99999 66.5 L57.5 66.5 C57.5 70.33334 57.5 74.16667 57.5 78 zM68.99999 78 L80.49999 78 L80.49999 66.5 L68.99999 66.5 C68.99999 70.33334 68.99999 74.16667 68.99999 78 zM80.49999 78 L91.99999 78 L91.99999 66.5 L80.49999 66.5 C80.49999 70.33334 80.49999 74.16667 80.49999 78 zM11.5 78 L23 78 L23 66.5 L11.5 66.5 C11.5 70.33334 11.5 74.16667 11.5 78 zM23 78 L34.5 78 L34.5 66.5 L23 66.5 C23 70.33334 23 74.16667 23 78 zM34.5 78 L46 78 L46 66.5 L34.5 66.5 C34.5 70.33334 34.5 74.16667 34.5 78 zM0 78 L11.5 78 L11.5 66.5 L0 66.5 C0 70.33334 0 74.16667 0 78 zM46 66.5 L57.5 66.5 L57.5 55 L46 55 C46 58.83334 46 62.66667 46 66.5 zM57.5 66.5 L69 66.5 L69 55 L57.5 55 C57.5 58.83334 57.5 62.66667 57.5 66.5 zM69 66.5 L80.5 66.5 L80.5 55 L69 55 C69 58.83334 69 62.66667 69 66.5 zM80.5 66.5 L92 66.5 L92 55 L80.5 55 C80.5 58.83334 80.5 62.66667 80.5 66.5 zM11.5 66.5 L23 66.5 L23 55 L11.5 55 C11.5 58.83334 11.5 62.66667 11.5 66.5 zM23 66.5 L34.5 66.5 L34.5 55 L23 55 C23 58.83334 23 62.66667 23 66.5 zM34.5 66.5 L46 66.5 L46 55 L34.5 55 C34.5 58.83334 34.5 62.66667 34.5 66.5 zM0 66.5 L11.5 66.5 L11.5 55 L0 55 C0 58.83334 0 62.66667 0 66.5 z" />
<glyph unicode="" horiz-adv-x="92" d="M46 78 L57.5 78 L57.5 66.5 L46 66.5 C46 70.33334 46 74.16667 46 78 zM57.5 78 L68.99999 78 L68.99999 66.5 L57.5 66.5 C57.5 70.33334 57.5 74.16667 57.5 78 zM68.99999 78 L80.49999 78 L80.49999 66.5 L68.99999 66.5 C68.99999 70.33334 68.99999 74.16667 68.99999 78 zM80.49999 78 L91.99999 78 L91.99999 66.5 L80.49999 66.5 C80.49999 70.33334 80.49999 74.16667 80.49999 78 zM11.5 78 L23 78 L23 66.5 L11.5 66.5 C11.5 70.33334 11.5 74.16667 11.5 78 zM23 78 L34.5 78 L34.5 66.5 L23 66.5 C23 70.33334 23 74.16667 23 78 zM34.5 78 L46 78 L46 66.5 L34.5 66.5 C34.5 70.33334 34.5 74.16667 34.5 78 zM0 78 L11.5 78 L11.5 66.5 L0 66.5 C0 70.33334 0 74.16667 0 78 zM46 66.5 L57.5 66.5 L57.5 55 L46 55 C46 58.83334 46 62.66667 46 66.5 zM57.5 66.5 L69 66.5 L69 55 L57.5 55 C57.5 58.83334 57.5 62.66667 57.5 66.5 zM69 66.5 L80.5 66.5 L80.5 55 L69 55 C69 58.83334 69 62.66667 69 66.5 zM80.5 66.5 L92 66.5 L92 55 L80.5 55 C80.5 58.83334 80.5 62.66667 80.5 66.5 zM11.5 66.5 L23 66.5 L23 55 L11.5 55 C11.5 58.83334 11.5 62.66667 11.5 66.5 zM23 66.5 L34.5 66.5 L34.5 55 L23 55 C23 58.83334 23 62.66667 23 66.5 zM34.5 66.5 L46 66.5 L46 55 L34.5 55 C34.5 58.83334 34.5 62.66667 34.5 66.5 zM0 66.5 L11.5 66.5 L11.5 55 L0 55 C0 58.83334 0 62.66667 0 66.5 z" />
<glyph unicode="" horiz-adv-x="92" d="M46 66.5 L57.5 66.5 L57.5 55 L46 55 C46 58.83333 46 62.66666 46 66.5 zM57.5 66.5 L69.00001 66.5 L69.00001 55 L57.5 55 C57.5 58.83333 57.5 62.66666 57.5 66.5 zM69.00001 66.5 L80.50001 66.5 L80.50001 55 L69.00001 55 C69.00001 58.83333 69.00001 62.66666 69.00001 66.5 zM80.50001 66.5 L92 66.5 L92 55 L80.50001 55 C80.50001 58.83333 80.50001 62.66666 80.50001 66.5 zM11.5 66.5 L23 66.5 L23 55 L11.5 55 C11.5 58.83333 11.5 62.66666 11.5 66.5 zM23 66.5 L34.5 66.5 L34.5 55 L23 55 C23 58.83333 23 62.66666 23 66.5 zM34.5 66.5 L46 66.5 L46 55 L34.5 55 C34.5 58.83333 34.5 62.66666 34.5 66.5 zM0 66.5 L11.5 66.5 L11.5 55 L0 55 C0 58.83333 0 62.66666 0 66.5 zM46 78 L57.5 78 L57.5 66.5 L46 66.5 C46 70.33333 46 74.16667 46 78 zM57.5 78 L69 78 L69 66.5 L57.5 66.5 C57.5 70.33333 57.5 74.16667 57.5 78 zM69 78 L80.5 78 L80.5 66.5 L69 66.5 C69 70.33333 69 74.16667 69 78 zM80.5 78 L92 78 L92 66.5 L80.5 66.5 C80.5 70.33333 80.5 74.16667 80.5 78 zM11.5 78 L23 78 L23 66.5 L11.5 66.5 C11.5 70.33333 11.5 74.16667 11.5 78 zM23 78 L34.5 78 L34.5 66.5 L23 66.5 C23 70.33333 23 74.16667 23 78 zM34.5 78 L46 78 L46 66.5 L34.5 66.5 C34.5 70.33333 34.5 74.16667 34.5 78 zM0 78 L11.5 78 L11.5 66.5 L0 66.5 C0 70.33333 0 74.16667 0 78 z" />
<glyph unicode="" horiz-adv-x="92" d="M46 66.5 L57.5 66.5 L57.5 55 L46 55 C46 58.83333 46 62.66666 46 66.5 zM57.5 66.5 L69.00001 66.5 L69.00001 55 L57.5 55 C57.5 58.83333 57.5 62.66666 57.5 66.5 zM69.00001 66.5 L80.50001 66.5 L80.50001 55 L69.00001 55 C69.00001 58.83333 69.00001 62.66666 69.00001 66.5 zM80.50001 66.5 L92 66.5 L92 55 L80.50001 55 C80.50001 58.83333 80.50001 62.66666 80.50001 66.5 zM11.5 66.5 L23 66.5 L23 55 L11.5 55 C11.5 58.83333 11.5 62.66666 11.5 66.5 zM23 66.5 L34.5 66.5 L34.5 55 L23 55 C23 58.83333 23 62.66666 23 66.5 zM34.5 66.5 L46 66.5 L46 55 L34.5 55 C34.5 58.83333 34.5 62.66666 34.5 66.5 zM0 66.5 L11.5 66.5 L11.5 55 L0 55 C0 58.83333 0 62.66666 0 66.5 zM46 78 L57.5 78 L57.5 66.5 L46 66.5 C46 70.33333 46 74.16667 46 78 zM57.5 78 L69 78 L69 66.5 L57.5 66.5 C57.5 70.33333 57.5 74.16667 57.5 78 zM69 78 L80.5 78 L80.5 66.5 L69 66.5 C69 70.33333 69 74.16667 69 78 zM80.5 78 L92 78 L92 66.5 L80.5 66.5 C80.5 70.33333 80.5 74.16667 80.5 78 zM11.5 78 L23 78 L23 66.5 L11.5 66.5 C11.5 70.33333 11.5 74.16667 11.5 78 zM23 78 L34.5 78 L34.5 66.5 L23 66.5 C23 70.33333 23 74.16667 23 78 zM34.5 78 L46 78 L46 66.5 L34.5 66.5 C34.5 70.33333 34.5 74.16667 34.5 78 zM0 78 L11.5 78 L11.5 66.5 L0 66.5 C0 70.33333 0 74.16667 0 78 z" />
<glyph unicode="" horiz-adv-x="92" d="M46 78 L57.5 78 L57.5 66.5 L46 66.5 C46 70.33333 46 74.16667 46 78 zM57.5 78 L68.99999 78 L68.99999 66.5 L57.5 66.5 C57.5 70.33333 57.5 74.16667 57.5 78 zM68.99999 78 L80.49999 78 L80.49999 66.5 L68.99999 66.5 C68.99999 70.33333 68.99999 74.16667 68.99999 78 zM80.49999 78 L91.99999 78 L91.99999 66.5 L80.49999 66.5 C80.49999 70.33333 80.49999 74.16667 80.49999 78 zM11.5 78 L23 78 L23 66.5 L11.5 66.5 C11.5 70.33333 11.5 74.16667 11.5 78 zM23 78 L34.5 78 L34.5 66.5 L23 66.5 C23 70.33333 23 74.16667 23 78 zM34.5 78 L46 78 L46 66.5 L34.5 66.5 C34.5 70.33333 34.5 74.16667 34.5 78 zM0 78 L11.5 78 L11.5 66.5 L0 66.5 C0 70.33333 0 74.16667 0 78 zM46 66.5 L57.5 66.5 L57.5 55 L46 55 C46 58.83333 46 62.66667 46 66.5 zM57.5 66.5 L69 66.5 L69 55 L57.5 55 C57.5 58.83333 57.5 62.66667 57.5 66.5 zM69 66.5 L80.5 66.5 L80.5 55 L69 55 C69 58.83333 69 62.66667 69 66.5 zM80.5 66.5 L92 66.5 L92 55 L80.5 55 C80.5 58.83333 80.5 62.66667 80.5 66.5 zM11.5 66.5 L23 66.5 L23 55 L11.5 55 C11.5 58.83333 11.5 62.66667 11.5 66.5 zM23 66.5 L34.5 66.5 L34.5 55 L23 55 C23 58.83333 23 62.66667 23 66.5 zM34.5 66.5 L46 66.5 L46 55 L34.5 55 C34.5 58.83333 34.5 62.66667 34.5 66.5 zM0 66.5 L11.5 66.5 L11.5 55 L0 55 C0 58.83333 0 62.66667 0 66.5 z" />
<glyph unicode="" horiz-adv-x="92" d="M46 78 L57.5 78 L57.5 66.5 L46 66.5 C46 70.33333 46 74.16667 46 78 zM57.5 78 L69 78 L69 66.5 L57.5 66.5 C57.5 70.33333 57.5 74.16667 57.5 78 zM69 78 L80.5 78 L80.5 66.5 L69 66.5 C69 70.33333 69 74.16667 69 78 zM80.5 78 L92 78 L92 66.5 L80.5 66.5 C80.5 70.33333 80.5 74.16667 80.5 78 zM11.5 78 L23 78 L23 66.5 L11.5 66.5 C11.5 70.33333 11.5 74.16667 11.5 78 zM23 78 L34.5 78 L34.5 66.5 L23 66.5 C23 70.33333 23 74.16667 23 78 zM34.5 78 L46 78 L46 66.5 L34.5 66.5 C34.5 70.33333 34.5 74.16667 34.5 78 zM0 78 L11.5 78 L11.5 66.5 L0 66.5 C0 70.33333 0 74.16667 0 78 zM46 66.5 L57.5 66.5 L57.5 55 L46 55 C46 58.83333 46 62.66666 46 66.5 zM57.5 66.5 L69 66.5 L69 55 L57.5 55 C57.5 58.83333 57.5 62.66666 57.5 66.5 zM69 66.5 L80.5 66.5 L80.5 55 L69 55 C69 58.83333 69 62.66666 69 66.5 zM80.5 66.5 L92 66.5 L92 55 L80.5 55 C80.5 58.83333 80.5 62.66666 80.5 66.5 zM11.5 66.5 L23 66.5 L23 55 L11.5 55 C11.5 58.83333 11.5 62.66666 11.5 66.5 zM23 66.5 L34.5 66.5 L34.5 55 L23 55 C23 58.83333 23 62.66666 23 66.5 zM34.5 66.5 L46 66.5 L46 55 L34.5 55 C34.5 58.83333 34.5 62.66666 34.5 66.5 zM0 66.5 L11.5 66.5 L11.5 55 L0 55 C0 58.83333 0 62.66666 0 66.5 z" />
<glyph unicode="" horiz-adv-x="92" d="M46 66.5 L57.5 66.5 L57.5 55 L46 55 C46 58.83333 46 62.66666 46 66.5 zM57.5 66.5 L69.00001 66.5 L69.00001 55 L57.5 55 C57.5 58.83333 57.5 62.66666 57.5 66.5 zM69.00001 66.5 L80.50001 66.5 L80.50001 55 L69.00001 55 C69.00001 58.83333 69.00001 62.66666 69.00001 66.5 zM80.50001 66.5 L92 66.5 L92 55 L80.50001 55 C80.50001 58.83333 80.50001 62.66666 80.50001 66.5 zM11.5 66.5 L23 66.5 L23 55 L11.5 55 C11.5 58.83333 11.5 62.66666 11.5 66.5 zM23 66.5 L34.5 66.5 L34.5 55 L23 55 C23 58.83333 23 62.66666 23 66.5 zM34.5 66.5 L46 66.5 L46 55 L34.5 55 C34.5 58.83333 34.5 62.66666 34.5 66.5 zM0 66.5 L11.5 66.5 L11.5 55 L0 55 C0 58.83333 0 62.66666 0 66.5 zM46 78 L57.5 78 L57.5 66.5 L46 66.5 C46 70.33333 46 74.16667 46 78 zM57.5 78 L69 78 L69 66.5 L57.5 66.5 C57.5 70.33333 57.5 74.16667 57.5 78 zM69 78 L80.5 78 L80.5 66.5 L69 66.5 C69 70.33333 69 74.16667 69 78 zM80.5 78 L92 78 L92 66.5 L80.5 66.5 C80.5 70.33333 80.5 74.16667 80.5 78 zM11.5 78 L23 78 L23 66.5 L11.5 66.5 C11.5 70.33333 11.5 74.16667 11.5 78 zM23 78 L34.5 78 L34.5 66.5 L23 66.5 C23 70.33333 23 74.16667 23 78 zM34.5 78 L46 78 L46 66.5 L34.5 66.5 C34.5 70.33333 34.5 74.16667 34.5 78 zM0 78 L11.5 78 L11.5 66.5 L0 66.5 C0 70.33333 0 74.16667 0 78 z" />
<glyph unicode="" horiz-adv-x="92" d="M46 66.5 L57.5 66.5 L57.5 55 L46 55 C46 58.83333 46 62.66666 46 66.5 zM57.5 66.5 L69.00001 66.5 L69.00001 55 L57.5 55 C57.5 58.83333 57.5 62.66666 57.5 66.5 zM69.00001 66.5 L80.50001 66.5 L80.50001 55 L69.00001 55 C69.00001 58.83333 69.00001 62.66666 69.00001 66.5 zM80.50001 66.5 L92 66.5 L92 55 L80.50001 55 C80.50001 58.83333 80.50001 62.66666 80.50001 66.5 zM11.5 66.5 L23 66.5 L23 55 L11.5 55 C11.5 58.83333 11.5 62.66666 11.5 66.5 zM23 66.5 L34.5 66.5 L34.5 55 L23 55 C23 58.83333 23 62.66666 23 66.5 zM34.5 66.5 L46 66.5 L46 55 L34.5 55 C34.5 58.83333 34.5 62.66666 34.5 66.5 zM0 66.5 L11.5 66.5 L11.5 55 L0 55 C0 58.83333 0 62.66666 0 66.5 zM46 78 L57.5 78 L57.5 66.5 L46 66.5 C46 70.33333 46 74.16667 46 78 zM57.5 78 L69 78 L69 66.5 L57.5 66.5 C57.5 70.33333 57.5 74.16667 57.5 78 zM69 78 L80.5 78 L80.5 66.5 L69 66.5 C69 70.33333 69 74.16667 69 78 zM80.5 78 L92 78 L92 66.5 L80.5 66.5 C80.5 70.33333 80.5 74.16667 80.5 78 zM11.5 78 L23 78 L23 66.5 L11.5 66.5 C11.5 70.33333 11.5 74.16667 11.5 78 zM23 78 L34.5 78 L34.5 66.5 L23 66.5 C23 70.33333 23 74.16667 23 78 zM34.5 78 L46 78 L46 66.5 L34.5 66.5 C34.5 70.33333 34.5 74.16667 34.5 78 zM0 78 L11.5 78 L11.5 66.5 L0 66.5 C0 70.33333 0 74.16667 0 78 z" />
<glyph unicode="" horiz-adv-x="92" d="M46 66.5 L57.5 66.5 L57.5 55 L46 55 C46 58.83333 46 62.66666 46 66.5 zM57.5 66.5 L69.00001 66.5 L69.00001 55 L57.5 55 C57.5 58.83333 57.5 62.66666 57.5 66.5 zM69.00001 66.5 L80.50001 66.5 L80.50001 55 L69.00001 55 C69.00001 58.83333 69.00001 62.66666 69.00001 66.5 zM80.50001 66.5 L92 66.5 L92 55 L80.50001 55 C80.50001 58.83333 80.50001 62.66666 80.50001 66.5 zM11.5 66.5 L23 66.5 L23 55 L11.5 55 C11.5 58.83333 11.5 62.66666 11.5 66.5 zM23 66.5 L34.5 66.5 L34.5 55 L23 55 C23 58.83333 23 62.66666 23 66.5 zM34.5 66.5 L46 66.5 L46 55 L34.5 55 C34.5 58.83333 34.5 62.66666 34.5 66.5 zM0 66.5 L11.5 66.5 L11.5 55 L0 55 C0 58.83333 0 62.66666 0 66.5 zM46 78 L57.5 78 L57.5 66.5 L46 66.5 C46 70.33333 46 74.16667 46 78 zM57.5 78 L69 78 L69 66.5 L57.5 66.5 C57.5 70.33333 57.5 74.16667 57.5 78 zM69 78 L80.5 78 L80.5 66.5 L69 66.5 C69 70.33333 69 74.16667 69 78 zM80.5 78 L92 78 L92 66.5 L80.5 66.5 C80.5 70.33333 80.5 74.16667 80.5 78 zM11.5 78 L23 78 L23 66.5 L11.5 66.5 C11.5 70.33333 11.5 74.16667 11.5 78 zM23 78 L34.5 78 L34.5 66.5 L23 66.5 C23 70.33333 23 74.16667 23 78 zM34.5 78 L46 78 L46 66.5 L34.5 66.5 C34.5 70.33333 34.5 74.16667 34.5 78 zM0 78 L11.5 78 L11.5 66.5 L0 66.5 C0 70.33333 0 74.16667 0 78 z" />
<glyph unicode="" horiz-adv-x="92" d="M46 66.5 L57.5 66.5 L57.5 55 L46 55 C46 58.83333 46 62.66667 46 66.5 zM57.5 66.5 L69.00001 66.5 L69.00001 55 L57.5 55 C57.5 58.83333 57.5 62.66667 57.5 66.5 zM69.00001 66.5 L80.50001 66.5 L80.50001 55 L69.00001 55 C69.00001 58.83333 69.00001 62.66667 69.00001 66.5 zM80.50001 66.5 L92 66.5 L92 55 L80.50001 55 C80.50001 58.83333 80.50001 62.66667 80.50001 66.5 zM11.5 66.5 L23 66.5 L23 55 L11.5 55 C11.5 58.83333 11.5 62.66667 11.5 66.5 zM23 66.5 L34.5 66.5 L34.5 55 L23 55 C23 58.83333 23 62.66667 23 66.5 zM34.5 66.5 L46 66.5 L46 55 L34.5 55 C34.5 58.83333 34.5 62.66667 34.5 66.5 zM0 66.5 L11.5 66.5 L11.5 55 L0 55 C0 58.83333 0 62.66667 0 66.5 zM46 78 L57.5 78 L57.5 66.5 L46 66.5 C46 70.33333 46 74.16667 46 78 zM57.5 78 L69 78 L69 66.5 L57.5 66.5 C57.5 70.33333 57.5 74.16667 57.5 78 zM69 78 L80.5 78 L80.5 66.5 L69 66.5 C69 70.33333 69 74.16667 69 78 zM80.5 78 L92 78 L92 66.5 L80.5 66.5 C80.5 70.33333 80.5 74.16667 80.5 78 zM11.5 78 L23 78 L23 66.5 L11.5 66.5 C11.5 70.33333 11.5 74.16667 11.5 78 zM23 78 L34.5 78 L34.5 66.5 L23 66.5 C23 70.33333 23 74.16667 23 78 zM34.5 78 L46 78 L46 66.5 L34.5 66.5 C34.5 70.33333 34.5 74.16667 34.5 78 zM0 78 L11.5 78 L11.5 66.5 L0 66.5 C0 70.33333 0 74.16667 0 78 z" />
<glyph unicode="" horiz-adv-x="92" d="M46 66.5 L57.5 66.5 L57.5 55 L46 55 C46 58.83333 46 62.66666 46 66.5 zM57.5 66.5 L69.00001 66.5 L69.00001 55 L57.5 55 C57.5 58.83333 57.5 62.66666 57.5 66.5 zM69.00001 66.5 L80.50001 66.5 L80.50001 55 L69.00001 55 C69.00001 58.83333 69.00001 62.66666 69.00001 66.5 zM80.50001 66.5 L92 66.5 L92 55 L80.50001 55 C80.50001 58.83333 80.50001 62.66666 80.50001 66.5 zM11.5 66.5 L23 66.5 L23 55 L11.5 55 C11.5 58.83333 11.5 62.66666 11.5 66.5 zM23 66.5 L34.5 66.5 L34.5 55 L23 55 C23 58.83333 23 62.66666 23 66.5 zM34.5 66.5 L46 66.5 L46 55 L34.5 55 C34.5 58.83333 34.5 62.66666 34.5 66.5 zM0 66.5 L11.5 66.5 L11.5 55 L0 55 C0 58.83333 0 62.66666 0 66.5 zM46 78 L57.5 78 L57.5 66.5 L46 66.5 C46 70.33333 46 74.16667 46 78 zM57.5 78 L69 78 L69 66.5 L57.5 66.5 C57.5 70.33333 57.5 74.16667 57.5 78 zM69 78 L80.5 78 L80.5 66.5 L69 66.5 C69 70.33333 69 74.16667 69 78 zM80.5 78 L92 78 L92 66.5 L80.5 66.5 C80.5 70.33333 80.5 74.16667 80.5 78 zM11.5 78 L23 78 L23 66.5 L11.5 66.5 C11.5 70.33333 11.5 74.16667 11.5 78 zM23 78 L34.5 78 L34.5 66.5 L23 66.5 C23 70.33333 23 74.16667 23 78 zM34.5 78 L46 78 L46 66.5 L34.5 66.5 C34.5 70.33333 34.5 74.16667 34.5 78 zM0 78 L11.5 78 L11.5 66.5 L0 66.5 C0 70.33333 0 74.16667 0 78 z" />
<glyph unicode="" horiz-adv-x="92" d="M46 78 L57.5 78 L57.5 66.5 L46 66.5 C46 70.33334 46 74.16667 46 78 zM57.5 78 L68.99999 78 L68.99999 66.5 L57.5 66.5 C57.5 70.33334 57.5 74.16667 57.5 78 zM68.99999 78 L80.49999 78 L80.49999 66.5 L68.99999 66.5 C68.99999 70.33334 68.99999 74.16667 68.99999 78 zM80.49999 78 L91.99999 78 L91.99999 66.5 L80.49999 66.5 C80.49999 70.33334 80.49999 74.16667 80.49999 78 zM11.5 78 L23 78 L23 66.5 L11.5 66.5 C11.5 70.33334 11.5 74.16667 11.5 78 zM23 78 L34.5 78 L34.5 66.5 L23 66.5 C23 70.33334 23 74.16667 23 78 zM34.5 78 L46 78 L46 66.5 L34.5 66.5 C34.5 70.33334 34.5 74.16667 34.5 78 zM0 78 L11.5 78 L11.5 66.5 L0 66.5 C0 70.33334 0 74.16667 0 78 zM46 66.5 L57.5 66.5 L57.5 55 L46 55 C46 58.83334 46 62.66667 46 66.5 zM57.5 66.5 L69 66.5 L69 55 L57.5 55 C57.5 58.83334 57.5 62.66667 57.5 66.5 zM69 66.5 L80.5 66.5 L80.5 55 L69 55 C69 58.83334 69 62.66667 69 66.5 zM80.5 66.5 L92 66.5 L92 55 L80.5 55 C80.5 58.83334 80.5 62.66667 80.5 66.5 zM11.5 66.5 L23 66.5 L23 55 L11.5 55 C11.5 58.83334 11.5 62.66667 11.5 66.5 zM23 66.5 L34.5 66.5 L34.5 55 L23 55 C23 58.83334 23 62.66667 23 66.5 zM34.5 66.5 L46 66.5 L46 55 L34.5 55 C34.5 58.83334 34.5 62.66667 34.5 66.5 zM0 66.5 L11.5 66.5 L11.5 55 L0 55 C0 58.83334 0 62.66667 0 66.5 z" />
<glyph unicode="" horiz-adv-x="92" d="M46 66.5 L57.5 66.5 L57.5 55 L46 55 C46 58.83333 46 62.66666 46 66.5 zM57.5 66.5 L69.00001 66.5 L69.00001 55 L57.5 55 C57.5 58.83333 57.5 62.66666 57.5 66.5 zM69.00001 66.5 L80.50001 66.5 L80.50001 55 L69.00001 55 C69.00001 58.83333 69.00001 62.66666 69.00001 66.5 zM80.50001 66.5 L92 66.5 L92 55 L80.50001 55 C80.50001 58.83333 80.50001 62.66666 80.50001 66.5 zM11.5 66.5 L23 66.5 L23 55 L11.5 55 C11.5 58.83333 11.5 62.66666 11.5 66.5 zM23 66.5 L34.5 66.5 L34.5 55 L23 55 C23 58.83333 23 62.66666 23 66.5 zM34.5 66.5 L46 66.5 L46 55 L34.5 55 C34.5 58.83333 34.5 62.66666 34.5 66.5 zM0 66.5 L11.5 66.5 L11.5 55 L0 55 C0 58.83333 0 62.66666 0 66.5 zM46 78 L57.5 78 L57.5 66.5 L46 66.5 C46 70.33333 46 74.16667 46 78 zM57.5 78 L69 78 L69 66.5 L57.5 66.5 C57.5 70.33333 57.5 74.16667 57.5 78 zM69 78 L80.5 78 L80.5 66.5 L69 66.5 C69 70.33333 69 74.16667 69 78 zM80.5 78 L92 78 L92 66.5 L80.5 66.5 C80.5 70.33333 80.5 74.16667 80.5 78 zM11.5 78 L23 78 L23 66.5 L11.5 66.5 C11.5 70.33333 11.5 74.16667 11.5 78 zM23 78 L34.5 78 L34.5 66.5 L23 66.5 C23 70.33333 23 74.16667 23 78 zM34.5 78 L46 78 L46 66.5 L34.5 66.5 C34.5 70.33333 34.5 74.16667 34.5 78 zM0 78 L11.5 78 L11.5 66.5 L0 66.5 C0 70.33333 0 74.16667 0 78 z" />
<glyph unicode="" horiz-adv-x="92" d="M46 78 L57.5 78 L57.5 66.5 L46 66.5 C46 70.33333 46 74.16667 46 78 zM57.5 78 L69 78 L69 66.5 L57.5 66.5 C57.5 70.33333 57.5 74.16667 57.5 78 zM69 78 L80.5 78 L80.5 66.5 L69 66.5 C69 70.33333 69 74.16667 69 78 zM80.5 78 L92 78 L92 66.5 L80.5 66.5 C80.5 70.33333 80.5 74.16667 80.5 78 zM11.5 78 L23 78 L23 66.5 L11.5 66.5 C11.5 70.33333 11.5 74.16667 11.5 78 zM23 78 L34.5 78 L34.5 66.5 L23 66.5 C23 70.33333 23 74.16667 23 78 zM34.5 78 L46 78 L46 66.5 L34.5 66.5 C34.5 70.33333 34.5 74.16667 34.5 78 zM0 78 L11.5 78 L11.5 66.5 L0 66.5 C0 70.33333 0 74.16667 0 78 zM46 66.5 L57.5 66.5 L57.5 55 L46 55 C46 58.83333 46 62.66666 46 66.5 zM57.5 66.5 L69 66.5 L69 55 L57.5 55 C57.5 58.83333 57.5 62.66666 57.5 66.5 zM69 66.5 L80.5 66.5 L80.5 55 L69 55 C69 58.83333 69 62.66666 69 66.5 zM80.5 66.5 L92 66.5 L92 55 L80.5 55 C80.5 58.83333 80.5 62.66666 80.5 66.5 zM11.5 66.5 L23 66.5 L23 55 L11.5 55 C11.5 58.83333 11.5 62.66666 11.5 66.5 zM23 66.5 L34.5 66.5 L34.5 55 L23 55 C23 58.83333 23 62.66666 23 66.5 zM34.5 66.5 L46 66.5 L46 55 L34.5 55 C34.5 58.83333 34.5 62.66666 34.5 66.5 zM0 66.5 L11.5 66.5 L11.5 55 L0 55 C0 58.83333 0 62.66666 0 66.5 z" />
<glyph unicode="" horiz-adv-x="92" d="M46 66.5 L57.5 66.5 L57.5 55 L46 55 C46 58.83333 46 62.66666 46 66.5 zM57.5 66.5 L69.00001 66.5 L69.00001 55 L57.5 55 C57.5 58.83333 57.5 62.66666 57.5 66.5 zM69.00001 66.5 L80.50001 66.5 L80.50001 55 L69.00001 55 C69.00001 58.83333 69.00001 62.66666 69.00001 66.5 zM80.50001 66.5 L92 66.5 L92 55 L80.50001 55 C80.50001 58.83333 80.50001 62.66666 80.50001 66.5 zM11.5 66.5 L23 66.5 L23 55 L11.5 55 C11.5 58.83333 11.5 62.66666 11.5 66.5 zM23 66.5 L34.5 66.5 L34.5 55 L23 55 C23 58.83333 23 62.66666 23 66.5 zM34.5 66.5 L46 66.5 L46 55 L34.5 55 C34.5 58.83333 34.5 62.66666 34.5 66.5 zM0 66.5 L11.5 66.5 L11.5 55 L0 55 C0 58.83333 0 62.66666 0 66.5 zM46 78 L57.5 78 L57.5 66.5 L46 66.5 C46 70.33333 46 74.16667 46 78 zM57.5 78 L69 78 L69 66.5 L57.5 66.5 C57.5 70.33333 57.5 74.16667 57.5 78 zM69 78 L80.5 78 L80.5 66.5 L69 66.5 C69 70.33333 69 74.16667 69 78 zM80.5 78 L92 78 L92 66.5 L80.5 66.5 C80.5 70.33333 80.5 74.16667 80.5 78 zM11.5 78 L23 78 L23 66.5 L11.5 66.5 C11.5 70.33333 11.5 74.16667 11.5 78 zM23 78 L34.5 78 L34.5 66.5 L23 66.5 C23 70.33333 23 74.16667 23 78 zM34.5 78 L46 78 L46 66.5 L34.5 66.5 C34.5 70.33333 34.5 74.16667 34.5 78 zM0 78 L11.5 78 L11.5 66.5 L0 66.5 C0 70.33333 0 74.16667 0 78 z" />
<glyph unicode="" horiz-adv-x="92" d="M46 66.5 L57.5 66.5 L57.5 55 L46 55 C46 58.83333 46 62.66666 46 66.5 zM57.5 66.5 L69.00001 66.5 L69.00001 55 L57.5 55 C57.5 58.83333 57.5 62.66666 57.5 66.5 zM69.00001 66.5 L80.50001 66.5 L80.50001 55 L69.00001 55 C69.00001 58.83333 69.00001 62.66666 69.00001 66.5 zM80.50001 66.5 L92 66.5 L92 55 L80.50001 55 C80.50001 58.83333 80.50001 62.66666 80.50001 66.5 zM11.5 66.5 L23 66.5 L23 55 L11.5 55 C11.5 58.83333 11.5 62.66666 11.5 66.5 zM23 66.5 L34.5 66.5 L34.5 55 L23 55 C23 58.83333 23 62.66666 23 66.5 zM34.5 66.5 L46 66.5 L46 55 L34.5 55 C34.5 58.83333 34.5 62.66666 34.5 66.5 zM0 66.5 L11.5 66.5 L11.5 55 L0 55 C0 58.83333 0 62.66666 0 66.5 zM46 78 L57.5 78 L57.5 66.5 L46 66.5 C46 70.33333 46 74.16667 46 78 zM57.5 78 L69 78 L69 66.5 L57.5 66.5 C57.5 70.33333 57.5 74.16667 57.5 78 zM69 78 L80.5 78 L80.5 66.5 L69 66.5 C69 70.33333 69 74.16667 69 78 zM80.5 78 L92 78 L92 66.5 L80.5 66.5 C80.5 70.33333 80.5 74.16667 80.5 78 zM11.5 78 L23 78 L23 66.5 L11.5 66.5 C11.5 70.33333 11.5 74.16667 11.5 78 zM23 78 L34.5 78 L34.5 66.5 L23 66.5 C23 70.33333 23 74.16667 23 78 zM34.5 78 L46 78 L46 66.5 L34.5 66.5 C34.5 70.33333 34.5 74.16667 34.5 78 zM0 78 L11.5 78 L11.5 66.5 L0 66.5 C0 70.33333 0 74.16667 0 78 z" />
<glyph unicode="" horiz-adv-x="92" d="M46 78 L57.5 78 L57.5 66.5 L46 66.5 C46 70.33333 46 74.16667 46 78 zM57.5 78 L68.99999 78 L68.99999 66.5 L57.5 66.5 C57.5 70.33333 57.5 74.16667 57.5 78 zM68.99999 78 L80.49999 78 L80.49999 66.5 L68.99999 66.5 C68.99999 70.33333 68.99999 74.16667 68.99999 78 zM80.49999 78 L91.99999 78 L91.99999 66.5 L80.49999 66.5 C80.49999 70.33333 80.49999 74.16667 80.49999 78 zM11.5 78 L23 78 L23 66.5 L11.5 66.5 C11.5 70.33333 11.5 74.16667 11.5 78 zM23 78 L34.5 78 L34.5 66.5 L23 66.5 C23 70.33333 23 74.16667 23 78 zM34.5 78 L46 78 L46 66.5 L34.5 66.5 C34.5 70.33333 34.5 74.16667 34.5 78 zM0 78 L11.5 78 L11.5 66.5 L0 66.5 C0 70.33333 0 74.16667 0 78 zM46 66.5 L57.5 66.5 L57.5 55 L46 55 C46 58.83333 46 62.66667 46 66.5 zM57.5 66.5 L69 66.5 L69 55 L57.5 55 C57.5 58.83333 57.5 62.66667 57.5 66.5 zM69 66.5 L80.5 66.5 L80.5 55 L69 55 C69 58.83333 69 62.66667 69 66.5 zM80.5 66.5 L92 66.5 L92 55 L80.5 55 C80.5 58.83333 80.5 62.66667 80.5 66.5 zM11.5 66.5 L23 66.5 L23 55 L11.5 55 C11.5 58.83333 11.5 62.66667 11.5 66.5 zM23 66.5 L34.5 66.5 L34.5 55 L23 55 C23 58.83333 23 62.66667 23 66.5 zM34.5 66.5 L46 66.5 L46 55 L34.5 55 C34.5 58.83333 34.5 62.66667 34.5 66.5 zM0 66.5 L11.5 66.5 L11.5 55 L0 55 C0 58.83333 0 62.66667 0 66.5 z" />
<glyph unicode="" horiz-adv-x="92" d="M46 66.5 L57.5 66.5 L57.5 55 L46 55 C46 58.83333 46 62.66666 46 66.5 zM57.5 66.5 L69.00001 66.5 L69.00001 55 L57.5 55 C57.5 58.83333 57.5 62.66666 57.5 66.5 zM69.00001 66.5 L80.50001 66.5 L80.50001 55 L69.00001 55 C69.00001 58.83333 69.00001 62.66666 69.00001 66.5 zM80.50001 66.5 L92 66.5 L92 55 L80.50001 55 C80.50001 58.83333 80.50001 62.66666 80.50001 66.5 zM11.5 66.5 L23 66.5 L23 55 L11.5 55 C11.5 58.83333 11.5 62.66666 11.5 66.5 zM23 66.5 L34.5 66.5 L34.5 55 L23 55 C23 58.83333 23 62.66666 23 66.5 zM34.5 66.5 L46 66.5 L46 55 L34.5 55 C34.5 58.83333 34.5 62.66666 34.5 66.5 zM0 66.5 L11.5 66.5 L11.5 55 L0 55 C0 58.83333 0 62.66666 0 66.5 zM46 78 L57.5 78 L57.5 66.5 L46 66.5 C46 70.33333 46 74.16667 46 78 zM57.5 78 L69 78 L69 66.5 L57.5 66.5 C57.5 70.33333 57.5 74.16667 57.5 78 zM69 78 L80.5 78 L80.5 66.5 L69 66.5 C69 70.33333 69 74.16667 69 78 zM80.5 78 L92 78 L92 66.5 L80.5 66.5 C80.5 70.33333 80.5 74.16667 80.5 78 zM11.5 78 L23 78 L23 66.5 L11.5 66.5 C11.5 70.33333 11.5 74.16667 11.5 78 zM23 78 L34.5 78 L34.5 66.5 L23 66.5 C23 70.33333 23 74.16667 23 78 zM34.5 78 L46 78 L46 66.5 L34.5 66.5 C34.5 70.33333 34.5 74.16667 34.5 78 zM0 78 L11.5 78 L11.5 66.5 L0 66.5 C0 70.33333 0 74.16667 0 78 z" />
<glyph unicode="" horiz-adv-x="92" d="M46 66.5 L57.5 66.5 L57.5 55 L46 55 C46 58.83333 46 62.66666 46 66.5 zM57.5 66.5 L69.00001 66.5 L69.00001 55 L57.5 55 C57.5 58.83333 57.5 62.66666 57.5 66.5 zM69.00001 66.5 L80.50001 66.5 L80.50001 55 L69.00001 55 C69.00001 58.83333 69.00001 62.66666 69.00001 66.5 zM80.50001 66.5 L92 66.5 L92 55 L80.50001 55 C80.50001 58.83333 80.50001 62.66666 80.50001 66.5 zM11.5 66.5 L23 66.5 L23 55 L11.5 55 C11.5 58.83333 11.5 62.66666 11.5 66.5 zM23 66.5 L34.5 66.5 L34.5 55 L23 55 C23 58.83333 23 62.66666 23 66.5 zM34.5 66.5 L46 66.5 L46 55 L34.5 55 C34.5 58.83333 34.5 62.66666 34.5 66.5 zM0 66.5 L11.5 66.5 L11.5 55 L0 55 C0 58.83333 0 62.66666 0 66.5 zM46 78 L57.5 78 L57.5 66.5 L46 66.5 C46 70.33333 46 74.16667 46 78 zM57.5 78 L69 78 L69 66.5 L57.5 66.5 C57.5 70.33333 57.5 74.16667 57.5 78 zM69 78 L80.5 78 L80.5 66.5 L69 66.5 C69 70.33333 69 74.16667 69 78 zM80.5 78 L92 78 L92 66.5 L80.5 66.5 C80.5 70.33333 80.5 74.16667 80.5 78 zM11.5 78 L23 78 L23 66.5 L11.5 66.5 C11.5 70.33333 11.5 74.16667 11.5 78 zM23 78 L34.5 78 L34.5 66.5 L23 66.5 C23 70.33333 23 74.16667 23 78 zM34.5 78 L46 78 L46 66.5 L34.5 66.5 C34.5 70.33333 34.5 74.16667 34.5 78 zM0 78 L11.5 78 L11.5 66.5 L0 66.5 C0 70.33333 0 74.16667 0 78 z" />
<glyph unicode="" horiz-adv-x="92" d="M46 78 L57.5 78 L57.5 66.5 L46 66.5 C46 70.33333 46 74.16667 46 78 zM57.5 78 L68.99999 78 L68.99999 66.5 L57.5 66.5 C57.5 70.33333 57.5 74.16667 57.5 78 zM68.99999 78 L80.49999 78 L80.49999 66.5 L68.99999 66.5 C68.99999 70.33333 68.99999 74.16667 68.99999 78 zM80.49999 78 L91.99999 78 L91.99999 66.5 L80.49999 66.5 C80.49999 70.33333 80.49999 74.16667 80.49999 78 zM11.5 78 L23 78 L23 66.5 L11.5 66.5 C11.5 70.33333 11.5 74.16667 11.5 78 zM23 78 L34.5 78 L34.5 66.5 L23 66.5 C23 70.33333 23 74.16667 23 78 zM34.5 78 L46 78 L46 66.5 L34.5 66.5 C34.5 70.33333 34.5 74.16667 34.5 78 zM0 78 L11.5 78 L11.5 66.5 L0 66.5 C0 70.33333 0 74.16667 0 78 zM46 66.5 L57.5 66.5 L57.5 55 L46 55 C46 58.83333 46 62.66667 46 66.5 zM57.5 66.5 L69 66.5 L69 55 L57.5 55 C57.5 58.83333 57.5 62.66667 57.5 66.5 zM69 66.5 L80.5 66.5 L80.5 55 L69 55 C69 58.83333 69 62.66667 69 66.5 zM80.5 66.5 L92 66.5 L92 55 L80.5 55 C80.5 58.83333 80.5 62.66667 80.5 66.5 zM11.5 66.5 L23 66.5 L23 55 L11.5 55 C11.5 58.83333 11.5 62.66667 11.5 66.5 zM23 66.5 L34.5 66.5 L34.5 55 L23 55 C23 58.83333 23 62.66667 23 66.5 zM34.5 66.5 L46 66.5 L46 55 L34.5 55 C34.5 58.83333 34.5 62.66667 34.5 66.5 zM0 66.5 L11.5 66.5 L11.5 55 L0 55 C0 58.83333 0 62.66667 0 66.5 z" />
<glyph unicode="" horiz-adv-x="92" d="M46 78 L57.5 78 L57.5 66.5 L46 66.5 C46 70.33333 46 74.16667 46 78 zM57.5 78 L69 78 L69 66.5 L57.5 66.5 C57.5 70.33333 57.5 74.16667 57.5 78 zM69 78 L80.49999 78 L80.49999 66.5 L69 66.5 C69 70.33333 69 74.16667 69 78 zM80.49999 78 L91.99999 78 L91.99999 66.5 L80.49999 66.5 C80.49999 70.33333 80.49999 74.16667 80.49999 78 zM11.5 78 L23 78 L23 66.5 L11.5 66.5 C11.5 70.33333 11.5 74.16667 11.5 78 zM23 78 L34.5 78 L34.5 66.5 L23 66.5 C23 70.33333 23 74.16667 23 78 zM34.5 78 L46 78 L46 66.5 L34.5 66.5 C34.5 70.33333 34.5 74.16667 34.5 78 zM0 78 L11.5 78 L11.5 66.5 L0 66.5 C0 70.33333 0 74.16667 0 78 zM46 66.5 L57.5 66.5 L57.5 55 L46 55 C46 58.83333 46 62.66667 46 66.5 zM57.5 66.5 L69 66.5 L69 55 L57.5 55 C57.5 58.83333 57.5 62.66667 57.5 66.5 zM69 66.5 L80.5 66.5 L80.5 55 L69 55 C69 58.83333 69 62.66667 69 66.5 zM80.5 66.5 L92 66.5 L92 55 L80.5 55 C80.5 58.83333 80.5 62.66667 80.5 66.5 zM11.5 66.5 L23 66.5 L23 55 L11.5 55 C11.5 58.83333 11.5 62.66667 11.5 66.5 zM23 66.5 L34.5 66.5 L34.5 55 L23 55 C23 58.83333 23 62.66667 23 66.5 zM34.5 66.5 L46 66.5 L46 55 L34.5 55 C34.5 58.83333 34.5 62.66667 34.5 66.5 zM0 66.5 L11.5 66.5 L11.5 55 L0 55 C0 58.83333 0 62.66667 0 66.5 z" />
<glyph unicode="" horiz-adv-x="92" d="M46 66.5 L57.5 66.5 L57.5 55 L46 55 C46 58.83333 46 62.66666 46 66.5 zM57.5 66.5 L69.00001 66.5 L69.00001 55 L57.5 55 C57.5 58.83333 57.5 62.66666 57.5 66.5 zM69.00001 66.5 L80.50001 66.5 L80.50001 55 L69.00001 55 C69.00001 58.83333 69.00001 62.66666 69.00001 66.5 zM80.50001 66.5 L92 66.5 L92 55 L80.50001 55 C80.50001 58.83333 80.50001 62.66666 80.50001 66.5 zM11.5 66.5 L23 66.5 L23 55 L11.5 55 C11.5 58.83333 11.5 62.66666 11.5 66.5 zM23 66.5 L34.5 66.5 L34.5 55 L23 55 C23 58.83333 23 62.66666 23 66.5 zM34.5 66.5 L46 66.5 L46 55 L34.5 55 C34.5 58.83333 34.5 62.66666 34.5 66.5 zM0 66.5 L11.5 66.5 L11.5 55 L0 55 C0 58.83333 0 62.66666 0 66.5 zM46 78 L57.5 78 L57.5 66.5 L46 66.5 C46 70.33333 46 74.16667 46 78 zM57.5 78 L69 78 L69 66.5 L57.5 66.5 C57.5 70.33333 57.5 74.16667 57.5 78 zM69 78 L80.5 78 L80.5 66.5 L69 66.5 C69 70.33333 69 74.16667 69 78 zM80.5 78 L92 78 L92 66.5 L80.5 66.5 C80.5 70.33333 80.5 74.16667 80.5 78 zM11.5 78 L23 78 L23 66.5 L11.5 66.5 C11.5 70.33333 11.5 74.16667 11.5 78 zM23 78 L34.5 78 L34.5 66.5 L23 66.5 C23 70.33333 23 74.16667 23 78 zM34.5 78 L46 78 L46 66.5 L34.5 66.5 C34.5 70.33333 34.5 74.16667 34.5 78 zM0 78 L11.5 78 L11.5 66.5 L0 66.5 C0 70.33333 0 74.16667 0 78 z" />
<glyph unicode="" horiz-adv-x="92" d="M46 78 L57.5 78 L57.5 66.5 L46 66.5 C46 70.33333 46 74.16667 46 78 zM57.5 78 L69 78 L69 66.5 L57.5 66.5 C57.5 70.33333 57.5 74.16667 57.5 78 zM69 78 L80.5 78 L80.5 66.5 L69 66.5 C69 70.33333 69 74.16667 69 78 zM80.5 78 L92 78 L92 66.5 L80.5 66.5 C80.5 70.33333 80.5 74.16667 80.5 78 zM11.5 78 L23 78 L23 66.5 L11.5 66.5 C11.5 70.33333 11.5 74.16667 11.5 78 zM23 78 L34.5 78 L34.5 66.5 L23 66.5 C23 70.33333 23 74.16667 23 78 zM34.5 78 L46 78 L46 66.5 L34.5 66.5 C34.5 70.33333 34.5 74.16667 34.5 78 zM0 78 L11.5 78 L11.5 66.5 L0 66.5 C0 70.33333 0 74.16667 0 78 zM46 66.5 L57.5 66.5 L57.5 55 L46 55 C46 58.83333 46 62.66666 46 66.5 zM57.5 66.5 L69 66.5 L69 55 L57.5 55 C57.5 58.83333 57.5 62.66666 57.5 66.5 zM69 66.5 L80.5 66.5 L80.5 55 L69 55 C69 58.83333 69 62.66666 69 66.5 zM80.5 66.5 L92 66.5 L92 55 L80.5 55 C80.5 58.83333 80.5 62.66666 80.5 66.5 zM11.5 66.5 L23 66.5 L23 55 L11.5 55 C11.5 58.83333 11.5 62.66666 11.5 66.5 zM23 66.5 L34.5 66.5 L34.5 55 L23 55 C23 58.83333 23 62.66666 23 66.5 zM34.5 66.5 L46 66.5 L46 55 L34.5 55 C34.5 58.83333 34.5 62.66666 34.5 66.5 zM0 66.5 L11.5 66.5 L11.5 55 L0 55 C0 58.83333 0 62.66666 0 66.5 z" />
<glyph unicode="" horiz-adv-x="92" d="M46 66.5 L57.5 66.5 L57.5 55 L46 55 C46 58.83333 46 62.66666 46 66.5 zM57.5 66.5 L69.00001 66.5 L69.00001 55 L57.5 55 C57.5 58.83333 57.5 62.66666 57.5 66.5 zM69.00001 66.5 L80.50001 66.5 L80.50001 55 L69.00001 55 C69.00001 58.83333 69.00001 62.66666 69.00001 66.5 zM80.50001 66.5 L92 66.5 L92 55 L80.50001 55 C80.50001 58.83333 80.50001 62.66666 80.50001 66.5 zM11.5 66.5 L23 66.5 L23 55 L11.5 55 C11.5 58.83333 11.5 62.66666 11.5 66.5 zM23 66.5 L34.5 66.5 L34.5 55 L23 55 C23 58.83333 23 62.66666 23 66.5 zM34.5 66.5 L46 66.5 L46 55 L34.5 55 C34.5 58.83333 34.5 62.66666 34.5 66.5 zM0 66.5 L11.5 66.5 L11.5 55 L0 55 C0 58.83333 0 62.66666 0 66.5 zM46 78 L57.5 78 L57.5 66.5 L46 66.5 C46 70.33333 46 74.16667 46 78 zM57.5 78 L69 78 L69 66.5 L57.5 66.5 C57.5 70.33333 57.5 74.16667 57.5 78 zM69 78 L80.5 78 L80.5 66.5 L69 66.5 C69 70.33333 69 74.16667 69 78 zM80.5 78 L92 78 L92 66.5 L80.5 66.5 C80.5 70.33333 80.5 74.16667 80.5 78 zM11.5 78 L23 78 L23 66.5 L11.5 66.5 C11.5 70.33333 11.5 74.16667 11.5 78 zM23 78 L34.5 78 L34.5 66.5 L23 66.5 C23 70.33333 23 74.16667 23 78 zM34.5 78 L46 78 L46 66.5 L34.5 66.5 C34.5 70.33333 34.5 74.16667 34.5 78 zM0 78 L11.5 78 L11.5 66.5 L0 66.5 C0 70.33333 0 74.16667 0 78 z" />
<glyph unicode="" horiz-adv-x="92" d="M46 66.5 L57.5 66.5 L57.5 55 L46 55 C46 58.83333 46 62.66666 46 66.5 zM57.5 66.5 L69.00001 66.5 L69.00001 55 L57.5 55 C57.5 58.83333 57.5 62.66666 57.5 66.5 zM69.00001 66.5 L80.50001 66.5 L80.50001 55 L69.00001 55 C69.00001 58.83333 69.00001 62.66666 69.00001 66.5 zM80.50001 66.5 L92 66.5 L92 55 L80.50001 55 C80.50001 58.83333 80.50001 62.66666 80.50001 66.5 zM11.5 66.5 L23 66.5 L23 55 L11.5 55 C11.5 58.83333 11.5 62.66666 11.5 66.5 zM23 66.5 L34.5 66.5 L34.5 55 L23 55 C23 58.83333 23 62.66666 23 66.5 zM34.5 66.5 L46 66.5 L46 55 L34.5 55 C34.5 58.83333 34.5 62.66666 34.5 66.5 zM0 66.5 L11.5 66.5 L11.5 55 L0 55 C0 58.83333 0 62.66666 0 66.5 zM46 78 L57.5 78 L57.5 66.5 L46 66.5 C46 70.33333 46 74.16667 46 78 zM57.5 78 L69 78 L69 66.5 L57.5 66.5 C57.5 70.33333 57.5 74.16667 57.5 78 zM69 78 L80.5 78 L80.5 66.5 L69 66.5 C69 70.33333 69 74.16667 69 78 zM80.5 78 L92 78 L92 66.5 L80.5 66.5 C80.5 70.33333 80.5 74.16667 80.5 78 zM11.5 78 L23 78 L23 66.5 L11.5 66.5 C11.5 70.33333 11.5 74.16667 11.5 78 zM23 78 L34.5 78 L34.5 66.5 L23 66.5 C23 70.33333 23 74.16667 23 78 zM34.5 78 L46 78 L46 66.5 L34.5 66.5 C34.5 70.33333 34.5 74.16667 34.5 78 zM0 78 L11.5 78 L11.5 66.5 L0 66.5 C0 70.33333 0 74.16667 0 78 z" />
<glyph unicode="" horiz-adv-x="92" d="M46 78 L57.5 78 L57.5 66.5 L46 66.5 C46 70.33334 46 74.16667 46 78 zM57.5 78 L68.99999 78 L68.99999 66.5 L57.5 66.5 C57.5 70.33334 57.5 74.16667 57.5 78 zM68.99999 78 L80.49999 78 L80.49999 66.5 L68.99999 66.5 C68.99999 70.33334 68.99999 74.16667 68.99999 78 zM80.49999 78 L91.99999 78 L91.99999 66.5 L80.49999 66.5 C80.49999 70.33334 80.49999 74.16667 80.49999 78 zM11.5 78 L23 78 L23 66.5 L11.5 66.5 C11.5 70.33334 11.5 74.16667 11.5 78 zM23 78 L34.5 78 L34.5 66.5 L23 66.5 C23 70.33334 23 74.16667 23 78 zM34.5 78 L46 78 L46 66.5 L34.5 66.5 C34.5 70.33334 34.5 74.16667 34.5 78 zM0 78 L11.5 78 L11.5 66.5 L0 66.5 C0 70.33334 0 74.16667 0 78 zM46 66.5 L57.5 66.5 L57.5 55 L46 55 C46 58.83334 46 62.66667 46 66.5 zM57.5 66.5 L69 66.5 L69 55 L57.5 55 C57.5 58.83334 57.5 62.66667 57.5 66.5 zM69 66.5 L80.5 66.5 L80.5 55 L69 55 C69 58.83334 69 62.66667 69 66.5 zM80.5 66.5 L92 66.5 L92 55 L80.5 55 C80.5 58.83334 80.5 62.66667 80.5 66.5 zM11.5 66.5 L23 66.5 L23 55 L11.5 55 C11.5 58.83334 11.5 62.66667 11.5 66.5 zM23 66.5 L34.5 66.5 L34.5 55 L23 55 C23 58.83334 23 62.66667 23 66.5 zM34.5 66.5 L46 66.5 L46 55 L34.5 55 C34.5 58.83334 34.5 62.66667 34.5 66.5 zM0 66.5 L11.5 66.5 L11.5 55 L0 55 C0 58.83334 0 62.66667 0 66.5 z" />
<glyph unicode="" horiz-adv-x="92" d="M46 78 L57.5 78 L57.5 66.5 L46 66.5 C46 70.33333 46 74.16667 46 78 zM57.5 78 L68.99999 78 L68.99999 66.5 L57.5 66.5 C57.5 70.33333 57.5 74.16667 57.5 78 zM68.99999 78 L80.49999 78 L80.49999 66.5 L68.99999 66.5 C68.99999 70.33333 68.99999 74.16667 68.99999 78 zM80.49999 78 L91.99999 78 L91.99999 66.5 L80.49999 66.5 C80.49999 70.33333 80.49999 74.16667 80.49999 78 zM11.5 78 L23 78 L23 66.5 L11.5 66.5 C11.5 70.33333 11.5 74.16667 11.5 78 zM23 78 L34.5 78 L34.5 66.5 L23 66.5 C23 70.33333 23 74.16667 23 78 zM34.5 78 L46 78 L46 66.5 L34.5 66.5 C34.5 70.33333 34.5 74.16667 34.5 78 zM0 78 L11.5 78 L11.5 66.5 L0 66.5 C0 70.33333 0 74.16667 0 78 zM46 66.5 L57.5 66.5 L57.5 55 L46 55 C46 58.83333 46 62.66667 46 66.5 zM57.5 66.5 L69 66.5 L69 55 L57.5 55 C57.5 58.83333 57.5 62.66667 57.5 66.5 zM69 66.5 L80.5 66.5 L80.5 55 L69 55 C69 58.83333 69 62.66667 69 66.5 zM80.5 66.5 L92 66.5 L92 55 L80.5 55 C80.5 58.83333 80.5 62.66667 80.5 66.5 zM11.5 66.5 L23 66.5 L23 55 L11.5 55 C11.5 58.83333 11.5 62.66667 11.5 66.5 zM23 66.5 L34.5 66.5 L34.5 55 L23 55 C23 58.83333 23 62.66667 23 66.5 zM34.5 66.5 L46 66.5 L46 55 L34.5 55 C34.5 58.83333 34.5 62.66667 34.5 66.5 zM0 66.5 L11.5 66.5 L11.5 55 L0 55 C0 58.83333 0 62.66667 0 66.5 z" />
<glyph unicode="" horiz-adv-x="92" d="M46 78 L57.5 78 L57.5 66.5 L46 66.5 C46 70.33334 46 74.16667 46 78 zM57.5 78 L68.99999 78 L68.99999 66.5 L57.5 66.5 C57.5 70.33334 57.5 74.16667 57.5 78 zM68.99999 78 L80.49999 78 L80.49999 66.5 L68.99999 66.5 C68.99999 70.33334 68.99999 74.16667 68.99999 78 zM80.49999 78 L91.99999 78 L91.99999 66.5 L80.49999 66.5 C80.49999 70.33334 80.49999 74.16667 80.49999 78 zM11.5 78 L23 78 L23 66.5 L11.5 66.5 C11.5 70.33334 11.5 74.16667 11.5 78 zM23 78 L34.5 78 L34.5 66.5 L23 66.5 C23 70.33334 23 74.16667 23 78 zM34.5 78 L46 78 L46 66.5 L34.5 66.5 C34.5 70.33334 34.5 74.16667 34.5 78 zM0 78 L11.5 78 L11.5 66.5 L0 66.5 C0 70.33334 0 74.16667 0 78 zM46 66.5 L57.5 66.5 L57.5 55 L46 55 C46 58.83334 46 62.66667 46 66.5 zM57.5 66.5 L69 66.5 L69 55 L57.5 55 C57.5 58.83334 57.5 62.66667 57.5 66.5 zM69 66.5 L80.5 66.5 L80.5 55 L69 55 C69 58.83334 69 62.66667 69 66.5 zM80.5 66.5 L92 66.5 L92 55 L80.5 55 C80.5 58.83334 80.5 62.66667 80.5 66.5 zM11.5 66.5 L23 66.5 L23 55 L11.5 55 C11.5 58.83334 11.5 62.66667 11.5 66.5 zM23 66.5 L34.5 66.5 L34.5 55 L23 55 C23 58.83334 23 62.66667 23 66.5 zM34.5 66.5 L46 66.5 L46 55 L34.5 55 C34.5 58.83334 34.5 62.66667 34.5 66.5 zM0 66.5 L11.5 66.5 L11.5 55 L0 55 C0 58.83334 0 62.66667 0 66.5 z" />
<glyph unicode="" horiz-adv-x="92" d="M46 66.5 L57.5 66.5 L57.5 55 L46 55 C46 58.83333 46 62.66666 46 66.5 zM57.5 66.5 L69.00001 66.5 L69.00001 55 L57.5 55 C57.5 58.83333 57.5 62.66666 57.5 66.5 zM69.00001 66.5 L80.50001 66.5 L80.50001 55 L69.00001 55 C69.00001 58.83333 69.00001 62.66666 69.00001 66.5 zM80.50001 66.5 L92 66.5 L92 55 L80.50001 55 C80.50001 58.83333 80.50001 62.66666 80.50001 66.5 zM11.5 66.5 L23 66.5 L23 55 L11.5 55 C11.5 58.83333 11.5 62.66666 11.5 66.5 zM23 66.5 L34.5 66.5 L34.5 55 L23 55 C23 58.83333 23 62.66666 23 66.5 zM34.5 66.5 L46 66.5 L46 55 L34.5 55 C34.5 58.83333 34.5 62.66666 34.5 66.5 zM0 66.5 L11.5 66.5 L11.5 55 L0 55 C0 58.83333 0 62.66666 0 66.5 zM46 78 L57.5 78 L57.5 66.5 L46 66.5 C46 70.33333 46 74.16667 46 78 zM57.5 78 L69 78 L69 66.5 L57.5 66.5 C57.5 70.33333 57.5 74.16667 57.5 78 zM69 78 L80.5 78 L80.5 66.5 L69 66.5 C69 70.33333 69 74.16667 69 78 zM80.5 78 L92 78 L92 66.5 L80.5 66.5 C80.5 70.33333 80.5 74.16667 80.5 78 zM11.5 78 L23 78 L23 66.5 L11.5 66.5 C11.5 70.33333 11.5 74.16667 11.5 78 zM23 78 L34.5 78 L34.5 66.5 L23 66.5 C23 70.33333 23 74.16667 23 78 zM34.5 78 L46 78 L46 66.5 L34.5 66.5 C34.5 70.33333 34.5 74.16667 34.5 78 zM0 78 L11.5 78 L11.5 66.5 L0 66.5 C0 70.33333 0 74.16667 0 78 z" />
<glyph unicode="" horiz-adv-x="92" d="M46 78 L57.5 78 L57.5 66.5 L46 66.5 C46 70.33333 46 74.16667 46 78 zM57.5 78 L69 78 L69 66.5 L57.5 66.5 C57.5 70.33333 57.5 74.16667 57.5 78 zM69 78 L80.5 78 L80.5 66.5 L69 66.5 C69 70.33333 69 74.16667 69 78 zM80.5 78 L92 78 L92 66.5 L80.5 66.5 C80.5 70.33333 80.5 74.16667 80.5 78 zM11.5 78 L23 78 L23 66.5 L11.5 66.5 C11.5 70.33333 11.5 74.16667 11.5 78 zM23 78 L34.5 78 L34.5 66.5 L23 66.5 C23 70.33333 23 74.16667 23 78 zM34.5 78 L46 78 L46 66.5 L34.5 66.5 C34.5 70.33333 34.5 74.16667 34.5 78 zM0 78 L11.5 78 L11.5 66.5 L0 66.5 C0 70.33333 0 74.16667 0 78 zM46 66.5 L57.5 66.5 L57.5 55 L46 55 C46 58.83333 46 62.66666 46 66.5 zM57.5 66.5 L69 66.5 L69 55 L57.5 55 C57.5 58.83333 57.5 62.66666 57.5 66.5 zM69 66.5 L80.5 66.5 L80.5 55 L69 55 C69 58.83333 69 62.66666 69 66.5 zM80.5 66.5 L92 66.5 L92 55 L80.5 55 C80.5 58.83333 80.5 62.66666 80.5 66.5 zM11.5 66.5 L23 66.5 L23 55 L11.5 55 C11.5 58.83333 11.5 62.66666 11.5 66.5 zM23 66.5 L34.5 66.5 L34.5 55 L23 55 C23 58.83333 23 62.66666 23 66.5 zM34.5 66.5 L46 66.5 L46 55 L34.5 55 C34.5 58.83333 34.5 62.66666 34.5 66.5 zM0 66.5 L11.5 66.5 L11.5 55 L0 55 C0 58.83333 0 62.66666 0 66.5 z" />
<glyph unicode="" horiz-adv-x="92" d="M46 55 L57.5 55 L57.5 43.5 L46 43.5 C46 47.33333 46 51.16667 46 55 zM34.5 55 L46 55 L46 43.5 L34.5 43.5 C34.5 47.33333 34.5 51.16667 34.5 55 zM23 55 L34.5 55 L34.5 43.5 L23 43.5 C23 47.33333 23 51.16667 23 55 zM11.5 55 L23 55 L23 43.5 L11.5 43.5 C11.5 47.33333 11.5 51.16667 11.5 55 zM0 55 L11.5 55 L11.5 43.5 L0 43.5 C0 47.33333 0 51.16667 0 55 zM57.5 55 L69 55 L69 43.5 L57.5 43.5 C57.5 47.33333 57.5 51.16667 57.5 55 zM69 55 L80.5 55 L80.5 43.5 L69 43.5 C69 47.33333 69 51.16667 69 55 zM80.5 55 L92 55 L92 43.5 L80.5 43.5 C80.5 47.33333 80.5 51.16667 80.5 55 zM46 66.5 L57.5 66.5 L57.5 55 L46 55 C46 58.83333 46 62.66667 46 66.5 zM57.5 66.5 L69 66.5 L69 55 L57.5 55 C57.5 58.83333 57.5 62.66667 57.5 66.5 zM69 66.5 L80.5 66.5 L80.5 55 L69 55 C69 58.83333 69 62.66667 69 66.5 zM80.5 66.5 L91.99999 66.5 L91.99999 55 L80.5 55 C80.5 58.83333 80.5 62.66667 80.5 66.5 zM11.5 66.5 L23 66.5 L23 55 L11.5 55 C11.5 58.83333 11.5 62.66667 11.5 66.5 zM23 66.5 L34.5 66.5 L34.5 55 L23 55 C23 58.83333 23 62.66667 23 66.5 zM34.5 66.5 L46 66.5 L46 55 L34.5 55 C34.5 58.83333 34.5 62.66667 34.5 66.5 zM0 66.5 L11.5 66.5 L11.5 55 L0 55 C0 58.83333 0 62.66667 0 66.5 zM46 78 L57.5 78 L57.5 66.5 L46 66.5 C46 70.33333 46 74.16667 46 78 zM57.5 78 L68.99999 78 L68.99999 66.5 L57.5 66.5 C57.5 70.33333 57.5 74.16667 57.5 78 zM68.99999 78 L80.49999 78 L80.49999 66.5 L68.99999 66.5 C68.99999 70.33333 68.99999 74.16667 68.99999 78 zM80.49999 78 L91.99999 78 L91.99999 66.5 L80.49999 66.5 C80.49999 70.33333 80.49999 74.16667 80.49999 78 zM11.5 78 L23 78 L23 66.5 L11.5 66.5 C11.5 70.33333 11.5 74.16667 11.5 78 zM23 78 L34.5 78 L34.5 66.5 L23 66.5 C23 70.33333 23 74.16667 23 78 zM34.5 78 L46 78 L46 66.5 L34.5 66.5 C34.5 70.33333 34.5 74.16667 34.5 78 zM0 78 L11.5 78 L11.5 66.5 L0 66.5 C0 70.33333 0 74.16667 0 78 z" />
<glyph unicode="" horiz-adv-x="92" d="M46 55 L57.5 55 L57.5 43.5 L46 43.5 C46 47.33333 46 51.16667 46 55 zM34.5 55 L46 55 L46 43.5 L34.5 43.5 C34.5 47.33333 34.5 51.16667 34.5 55 zM23 55 L34.5 55 L34.5 43.5 L23 43.5 C23 47.33333 23 51.16667 23 55 zM11.5 55 L23 55 L23 43.5 L11.5 43.5 C11.5 47.33333 11.5 51.16667 11.5 55 zM0 55 L11.5 55 L11.5 43.5 L0 43.5 C0 47.33333 0 51.16667 0 55 zM57.5 55 L69 55 L69 43.5 L57.5 43.5 C57.5 47.33333 57.5 51.16667 57.5 55 zM69 55 L80.5 55 L80.5 43.5 L69 43.5 C69 47.33333 69 51.16667 69 55 zM80.5 55 L92 55 L92 43.5 L80.5 43.5 C80.5 47.33333 80.5 51.16667 80.5 55 zM46 66.5 L57.5 66.5 L57.5 55 L46 55 C46 58.83333 46 62.66667 46 66.5 zM57.5 66.5 L69 66.5 L69 55 L57.5 55 C57.5 58.83333 57.5 62.66667 57.5 66.5 zM69 66.5 L80.5 66.5 L80.5 55 L69 55 C69 58.83333 69 62.66667 69 66.5 zM80.5 66.5 L91.99999 66.5 L91.99999 55 L80.5 55 C80.5 58.83333 80.5 62.66667 80.5 66.5 zM11.5 66.5 L23 66.5 L23 55 L11.5 55 C11.5 58.83333 11.5 62.66667 11.5 66.5 zM23 66.5 L34.5 66.5 L34.5 55 L23 55 C23 58.83333 23 62.66667 23 66.5 zM34.5 66.5 L46 66.5 L46 55 L34.5 55 C34.5 58.83333 34.5 62.66667 34.5 66.5 zM0 66.5 L11.5 66.5 L11.5 55 L0 55 C0 58.83333 0 62.66667 0 66.5 zM46 78 L57.5 78 L57.5 66.5 L46 66.5 C46 70.33333 46 74.16667 46 78 zM57.5 78 L68.99999 78 L68.99999 66.5 L57.5 66.5 C57.5 70.33333 57.5 74.16667 57.5 78 zM68.99999 78 L80.49999 78 L80.49999 66.5 L68.99999 66.5 C68.99999 70.33333 68.99999 74.16667 68.99999 78 zM80.49999 78 L91.99999 78 L91.99999 66.5 L80.49999 66.5 C80.49999 70.33333 80.49999 74.16667 80.49999 78 zM11.5 78 L23 78 L23 66.5 L11.5 66.5 C11.5 70.33333 11.5 74.16667 11.5 78 zM23 78 L34.5 78 L34.5 66.5 L23 66.5 C23 70.33333 23 74.16667 23 78 zM34.5 78 L46 78 L46 66.5 L34.5 66.5 C34.5 70.33333 34.5 74.16667 34.5 78 zM0 78 L11.5 78 L11.5 66.5 L0 66.5 C0 70.33333 0 74.16667 0 78 z" />
<glyph unicode="" horiz-adv-x="92" d="M46 78 L57.5 78 L57.5 66.5 L46 66.5 C46 70.33333 46 74.16667 46 78 zM57.5 78 L69 78 L69 66.5 L57.5 66.5 C57.5 70.33333 57.5 74.16667 57.5 78 zM69 78 L80.5 78 L80.5 66.5 L69 66.5 C69 70.33333 69 74.16667 69 78 zM80.5 78 L92 78 L92 66.5 L80.5 66.5 C80.5 70.33333 80.5 74.16667 80.5 78 zM11.5 78 L23 78 L23 66.5 L11.5 66.5 C11.5 70.33333 11.5 74.16667 11.5 78 zM23 78 L34.5 78 L34.5 66.5 L23 66.5 C23 70.33333 23 74.16667 23 78 zM34.5 78 L46 78 L46 66.5 L34.5 66.5 C34.5 70.33333 34.5 74.16667 34.5 78 zM0 78 L11.5 78 L11.5 66.5 L0 66.5 C0 70.33333 0 74.16667 0 78 z" />
<glyph unicode="" horiz-adv-x="92" d="M46 55 L57.5 55 L57.5 43.5 L46 43.5 C46 47.33333 46 51.16667 46 55 zM34.5 55 L46 55 L46 43.5 L34.5 43.5 C34.5 47.33333 34.5 51.16667 34.5 55 zM23 55 L34.5 55 L34.5 43.5 L23 43.5 C23 47.33333 23 51.16667 23 55 zM11.5 55 L23 55 L23 43.5 L11.5 43.5 C11.5 47.33333 11.5 51.16667 11.5 55 zM0 55 L11.5 55 L11.5 43.5 L0 43.5 C0 47.33333 0 51.16667 0 55 zM57.5 55 L69 55 L69 43.5 L57.5 43.5 C57.5 47.33333 57.5 51.16667 57.5 55 zM69 55 L80.5 55 L80.5 43.5 L69 43.5 C69 47.33333 69 51.16667 69 55 zM80.5 55 L92 55 L92 43.5 L80.5 43.5 C80.5 47.33333 80.5 51.16667 80.5 55 zM46 66.5 L57.5 66.5 L57.5 55 L46 55 C46 58.83333 46 62.66667 46 66.5 zM57.5 66.5 L69 66.5 L69 55 L57.5 55 C57.5 58.83333 57.5 62.66667 57.5 66.5 zM69 66.5 L80.5 66.5 L80.5 55 L69 55 C69 58.83333 69 62.66667 69 66.5 zM80.5 66.5 L91.99999 66.5 L91.99999 55 L80.5 55 C80.5 58.83333 80.5 62.66667 80.5 66.5 zM11.5 66.5 L23 66.5 L23 55 L11.5 55 C11.5 58.83333 11.5 62.66667 11.5 66.5 zM23 66.5 L34.5 66.5 L34.5 55 L23 55 C23 58.83333 23 62.66667 23 66.5 zM34.5 66.5 L46 66.5 L46 55 L34.5 55 C34.5 58.83333 34.5 62.66667 34.5 66.5 zM0 66.5 L11.5 66.5 L11.5 55 L0 55 C0 58.83333 0 62.66667 0 66.5 zM46 78 L57.5 78 L57.5 66.5 L46 66.5 C46 70.33333 46 74.16667 46 78 zM57.5 78 L68.99999 78 L68.99999 66.5 L57.5 66.5 C57.5 70.33333 57.5 74.16667 57.5 78 zM68.99999 78 L80.49999 78 L80.49999 66.5 L68.99999 66.5 C68.99999 70.33333 68.99999 74.16667 68.99999 78 zM80.49999 78 L91.99999 78 L91.99999 66.5 L80.49999 66.5 C80.49999 70.33333 80.49999 74.16667 80.49999 78 zM11.5 78 L23 78 L23 66.5 L11.5 66.5 C11.5 70.33333 11.5 74.16667 11.5 78 zM23 78 L34.5 78 L34.5 66.5 L23 66.5 C23 70.33333 23 74.16667 23 78 zM34.5 78 L46 78 L46 66.5 L34.5 66.5 C34.5 70.33333 34.5 74.16667 34.5 78 zM0 78 L11.5 78 L11.5 66.5 L0 66.5 C0 70.33333 0 74.16667 0 78 z" />
<glyph unicode="" horiz-adv-x="92" d="M46 78 L57.5 78 L57.5 66.5 L46 66.5 C46 70.33334 46 74.16667 46 78 zM57.5 78 L69 78 L69 66.5 L57.5 66.5 C57.5 70.33334 57.5 74.16667 57.5 78 zM69 78 L80.5 78 L80.5 66.5 L69 66.5 C69 70.33334 69 74.16667 69 78 zM80.5 78 L92 78 L92 66.5 L80.5 66.5 C80.5 70.33334 80.5 74.16667 80.5 78 zM11.5 78 L23 78 L23 66.5 L11.5 66.5 C11.5 70.33334 11.5 74.16667 11.5 78 zM23 78 L34.5 78 L34.5 66.5 L23 66.5 C23 70.33334 23 74.16667 23 78 zM34.5 78 L46 78 L46 66.5 L34.5 66.5 C34.5 70.33334 34.5 74.16667 34.5 78 zM0 78 L11.5 78 L11.5 66.5 L0 66.5 C0 70.33334 0 74.16667 0 78 zM46 66.5 L57.5 66.5 L57.5 55 L46 55 C46 58.83334 46 62.66667 46 66.5 zM57.5 66.5 L69 66.5 L69 55 L57.5 55 C57.5 58.83334 57.5 62.66667 57.5 66.5 zM69 66.5 L80.5 66.5 L80.5 55 L69 55 C69 58.83334 69 62.66667 69 66.5 zM80.5 66.5 L92 66.5 L92 55 L80.5 55 C80.5 58.83334 80.5 62.66667 80.5 66.5 zM11.5 66.5 L23 66.5 L23 55 L11.5 55 C11.5 58.83334 11.5 62.66667 11.5 66.5 zM23 66.5 L34.5 66.5 L34.5 55 L23 55 C23 58.83334 23 62.66667 23 66.5 zM34.5 66.5 L46 66.5 L46 55 L34.5 55 C34.5 58.83334 34.5 62.66667 34.5 66.5 zM0 66.5 L11.5 66.5 L11.5 55 L0 55 C0 58.83334 0 62.66667 0 66.5 zM46 55 L57.5 55 L57.5 43.5 L46 43.5 C46 47.33334 46 51.16667 46 55 zM57.5 55 L69 55 L69 43.5 L57.5 43.5 C57.5 47.33334 57.5 51.16667 57.5 55 zM69 55 L80.5 55 L80.5 43.5 L69 43.5 C69 47.33334 69 51.16667 69 55 zM80.5 55 L92 55 L92 43.5 L80.5 43.5 C80.5 47.33334 80.5 51.16667 80.5 55 zM11.5 55 L23 55 L23 43.5 L11.5 43.5 C11.5 47.33334 11.5 51.16667 11.5 55 zM23 55 L34.5 55 L34.5 43.5 L23 43.5 C23 47.33334 23 51.16667 23 55 zM34.5 55 L46 55 L46 43.5 L34.5 43.5 C34.5 47.33334 34.5 51.16667 34.5 55 zM0 55 L11.5 55 L11.5 43.5 L0 43.5 C0 47.33334 0 51.16667 0 55 z" />
<glyph unicode="" horiz-adv-x="92" d="M46 78 L57.5 78 L57.5 66.5 L46 66.5 C46 70.33333 46 74.16667 46 78 zM57.5 78 L69 78 L69 66.5 L57.5 66.5 C57.5 70.33333 57.5 74.16667 57.5 78 zM69 78 L80.5 78 L80.5 66.5 L69 66.5 C69 70.33333 69 74.16667 69 78 zM80.5 78 L92 78 L92 66.5 L80.5 66.5 C80.5 70.33333 80.5 74.16667 80.5 78 zM11.5 78 L23 78 L23 66.5 L11.5 66.5 C11.5 70.33333 11.5 74.16667 11.5 78 zM23 78 L34.5 78 L34.5 66.5 L23 66.5 C23 70.33333 23 74.16667 23 78 zM34.5 78 L46 78 L46 66.5 L34.5 66.5 C34.5 70.33333 34.5 74.16667 34.5 78 zM0 78 L11.5 78 L11.5 66.5 L0 66.5 C0 70.33333 0 74.16667 0 78 zM46 66.5 L57.5 66.5 L57.5 55 L46 55 C46 58.83333 46 62.66666 46 66.5 zM57.5 66.5 L69 66.5 L69 55 L57.5 55 C57.5 58.83333 57.5 62.66666 57.5 66.5 zM69 66.5 L80.5 66.5 L80.5 55 L69 55 C69 58.83333 69 62.66666 69 66.5 zM80.5 66.5 L92 66.5 L92 55 L80.5 55 C80.5 58.83333 80.5 62.66666 80.5 66.5 zM11.5 66.5 L23 66.5 L23 55 L11.5 55 C11.5 58.83333 11.5 62.66666 11.5 66.5 zM23 66.5 L34.5 66.5 L34.5 55 L23 55 C23 58.83333 23 62.66666 23 66.5 zM34.5 66.5 L46 66.5 L46 55 L34.5 55 C34.5 58.83333 34.5 62.66666 34.5 66.5 zM0 66.5 L11.5 66.5 L11.5 55 L0 55 C0 58.83333 0 62.66666 0 66.5 zM46 55 L57.5 55 L57.5 43.5 L46 43.5 C46 47.33333 46 51.16666 46 55 zM57.5 55 L69 55 L69 43.5 L57.5 43.5 C57.5 47.33333 57.5 51.16666 57.5 55 zM69 55 L80.5 55 L80.5 43.5 L69 43.5 C69 47.33333 69 51.16666 69 55 zM80.5 55 L92 55 L92 43.5 L80.5 43.5 C80.5 47.33333 80.5 51.16666 80.5 55 zM11.5 55 L23 55 L23 43.5 L11.5 43.5 C11.5 47.33333 11.5 51.16666 11.5 55 zM23 55 L34.5 55 L34.5 43.5 L23 43.5 C23 47.33333 23 51.16666 23 55 zM34.5 55 L46 55 L46 43.5 L34.5 43.5 C34.5 47.33333 34.5 51.16666 34.5 55 zM0 55 L11.5 55 L11.5 43.5 L0 43.5 C0 47.33333 0 51.16666 0 55 z" />
<glyph unicode="" horiz-adv-x="92" d="M46 78 L57.5 78 L57.5 66.5 L46 66.5 C46 70.33333 46 74.16667 46 78 zM57.5 78 L69 78 L69 66.5 L57.5 66.5 C57.5 70.33333 57.5 74.16667 57.5 78 zM69 78 L80.49999 78 L80.49999 66.5 L69 66.5 C69 70.33333 69 74.16667 69 78 zM80.49999 78 L91.99999 78 L91.99999 66.5 L80.49999 66.5 C80.49999 70.33333 80.49999 74.16667 80.49999 78 zM11.5 78 L23 78 L23 66.5 L11.5 66.5 C11.5 70.33333 11.5 74.16667 11.5 78 zM23 78 L34.5 78 L34.5 66.5 L23 66.5 C23 70.33333 23 74.16667 23 78 zM34.5 78 L46 78 L46 66.5 L34.5 66.5 C34.5 70.33333 34.5 74.16667 34.5 78 zM0 78 L11.5 78 L11.5 66.5 L0 66.5 C0 70.33333 0 74.16667 0 78 zM46 66.5 L57.5 66.5 L57.5 55 L46 55 C46 58.83333 46 62.66667 46 66.5 zM57.5 66.5 L69 66.5 L69 55 L57.5 55 C57.5 58.83333 57.5 62.66667 57.5 66.5 zM69 66.5 L80.5 66.5 L80.5 55 L69 55 C69 58.83333 69 62.66667 69 66.5 zM80.5 66.5 L92 66.5 L92 55 L80.5 55 C80.5 58.83333 80.5 62.66667 80.5 66.5 zM11.5 66.5 L23 66.5 L23 55 L11.5 55 C11.5 58.83333 11.5 62.66667 11.5 66.5 zM23 66.5 L34.5 66.5 L34.5 55 L23 55 C23 58.83333 23 62.66667 23 66.5 zM34.5 66.5 L46 66.5 L46 55 L34.5 55 C34.5 58.83333 34.5 62.66667 34.5 66.5 zM0 66.5 L11.5 66.5 L11.5 55 L0 55 C0 58.83333 0 62.66667 0 66.5 zM46 55 L57.5 55 L57.5 43.5 L46 43.5 C46 47.33333 46 51.16667 46 55 zM57.5 55 L69 55 L69 43.5 L57.5 43.5 C57.5 47.33333 57.5 51.16667 57.5 55 zM69 55 L80.49999 55 L80.49999 43.5 L69 43.5 C69 47.33333 69 51.16667 69 55 zM80.49999 55 L91.99999 55 L91.99999 43.5 L80.49999 43.5 C80.49999 47.33333 80.49999 51.16667 80.49999 55 zM11.5 55 L23 55 L23 43.5 L11.5 43.5 C11.5 47.33333 11.5 51.16667 11.5 55 zM23 55 L34.5 55 L34.5 43.5 L23 43.5 C23 47.33333 23 51.16667 23 55 zM34.5 55 L46 55 L46 43.5 L34.5 43.5 C34.5 47.33333 34.5 51.16667 34.5 55 zM0 55 L11.5 55 L11.5 43.5 L0 43.5 C0 47.33333 0 51.16667 0 55 z" />
<glyph unicode="" horiz-adv-x="92" d="M46 78 L57.5 78 L57.5 66.5 L46 66.5 C46 70.33333 46 74.16667 46 78 zM57.5 78 L69 78 L69 66.5 L57.5 66.5 C57.5 70.33333 57.5 74.16667 57.5 78 zM69 78 L80.5 78 L80.5 66.5 L69 66.5 C69 70.33333 69 74.16667 69 78 zM80.5 78 L92 78 L92 66.5 L80.5 66.5 C80.5 70.33333 80.5 74.16667 80.5 78 zM11.5 78 L23 78 L23 66.5 L11.5 66.5 C11.5 70.33333 11.5 74.16667 11.5 78 zM23 78 L34.5 78 L34.5 66.5 L23 66.5 C23 70.33333 23 74.16667 23 78 zM34.5 78 L46 78 L46 66.5 L34.5 66.5 C34.5 70.33333 34.5 74.16667 34.5 78 zM0 78 L11.5 78 L11.5 66.5 L0 66.5 C0 70.33333 0 74.16667 0 78 zM46 66.5 L57.5 66.5 L57.5 55 L46 55 C46 58.83333 46 62.66666 46 66.5 zM57.5 66.5 L69 66.5 L69 55 L57.5 55 C57.5 58.83333 57.5 62.66666 57.5 66.5 zM69 66.5 L80.5 66.5 L80.5 55 L69 55 C69 58.83333 69 62.66666 69 66.5 zM80.5 66.5 L92 66.5 L92 55 L80.5 55 C80.5 58.83333 80.5 62.66666 80.5 66.5 zM11.5 66.5 L23 66.5 L23 55 L11.5 55 C11.5 58.83333 11.5 62.66666 11.5 66.5 zM23 66.5 L34.5 66.5 L34.5 55 L23 55 C23 58.83333 23 62.66666 23 66.5 zM34.5 66.5 L46 66.5 L46 55 L34.5 55 C34.5 58.83333 34.5 62.66666 34.5 66.5 zM0 66.5 L11.5 66.5 L11.5 55 L0 55 C0 58.83333 0 62.66666 0 66.5 zM46.00001 55 L57.50001 55 L57.50001 43.5 L46.00001 43.5 C46.00001 47.33333 46.00001 51.16666 46.00001 55 zM57.50001 55 L69 55 L69 43.5 L57.50001 43.5 C57.50001 47.33333 57.50001 51.16666 57.50001 55 zM69 55 L80.5 55 L80.5 43.5 L69 43.5 C69 47.33333 69 51.16666 69 55 zM80.5 55 L92 55 L92 43.5 L80.5 43.5 C80.5 47.33333 80.5 51.16666 80.5 55 zM11.5 55 L23.00001 55 L23.00001 43.5 L11.5 43.5 C11.5 47.33333 11.5 51.16666 11.5 55 zM23.00001 55 L34.50001 55 L34.50001 43.5 L23.00001 43.5 C23.00001 47.33333 23.00001 51.16666 23.00001 55 zM34.50001 55 L46.00001 55 L46.00001 43.5 L34.50001 43.5 C34.50001 47.33333 34.50001 51.16666 34.50001 55 zM0 55 L11.5 55 L11.5 43.5 L0 43.5 C0 47.33333 0 51.16666 0 55 z" />
<glyph unicode="" horiz-adv-x="92" d="M46 78 L57.5 78 L57.5 66.5 L46 66.5 C46 70.33334 46 74.16667 46 78 zM57.5 78 L68.99999 78 L68.99999 66.5 L57.5 66.5 C57.5 70.33334 57.5 74.16667 57.5 78 zM68.99999 78 L80.49999 78 L80.49999 66.5 L68.99999 66.5 C68.99999 70.33334 68.99999 74.16667 68.99999 78 zM80.49999 78 L91.99999 78 L91.99999 66.5 L80.49999 66.5 C80.49999 70.33334 80.49999 74.16667 80.49999 78 zM11.5 78 L23 78 L23 66.5 L11.5 66.5 C11.5 70.33334 11.5 74.16667 11.5 78 zM23 78 L34.5 78 L34.5 66.5 L23 66.5 C23 70.33334 23 74.16667 23 78 zM34.5 78 L46 78 L46 66.5 L34.5 66.5 C34.5 70.33334 34.5 74.16667 34.5 78 zM0 78 L11.5 78 L11.5 66.5 L0 66.5 C0 70.33334 0 74.16667 0 78 zM46 66.5 L57.5 66.5 L57.5 55 L46 55 C46 58.83334 46 62.66667 46 66.5 zM57.5 66.5 L69 66.5 L69 55 L57.5 55 C57.5 58.83334 57.5 62.66667 57.5 66.5 zM69 66.5 L80.5 66.5 L80.5 55 L69 55 C69 58.83334 69 62.66667 69 66.5 zM80.5 66.5 L92 66.5 L92 55 L80.5 55 C80.5 58.83334 80.5 62.66667 80.5 66.5 zM11.5 66.5 L23 66.5 L23 55 L11.5 55 C11.5 58.83334 11.5 62.66667 11.5 66.5 zM23 66.5 L34.5 66.5 L34.5 55 L23 55 C23 58.83334 23 62.66667 23 66.5 zM34.5 66.5 L46 66.5 L46 55 L34.5 55 C34.5 58.83334 34.5 62.66667 34.5 66.5 zM0 66.5 L11.5 66.5 L11.5 55 L0 55 C0 58.83334 0 62.66667 0 66.5 zM46 55 L57.5 55 L57.5 43.5 L46 43.5 C46 47.33334 46 51.16667 46 55 zM57.5 55 L68.99999 55 L68.99999 43.5 L57.5 43.5 C57.5 47.33334 57.5 51.16667 57.5 55 zM68.99999 55 L80.49999 55 L80.49999 43.5 L68.99999 43.5 C68.99999 47.33334 68.99999 51.16667 68.99999 55 zM80.49999 55 L91.99999 55 L91.99999 43.5 L80.49999 43.5 C80.49999 47.33334 80.49999 51.16667 80.49999 55 zM11.5 55 L23 55 L23 43.5 L11.5 43.5 C11.5 47.33334 11.5 51.16667 11.5 55 zM23 55 L34.5 55 L34.5 43.5 L23 43.5 C23 47.33334 23 51.16667 23 55 zM34.5 55 L46 55 L46 43.5 L34.5 43.5 C34.5 47.33334 34.5 51.16667 34.5 55 zM0 55 L11.5 55 L11.5 43.5 L0 43.5 C0 47.33334 0 51.16667 0 55 z" />
<glyph unicode="" horiz-adv-x="92" d="M46 78 L57.5 78 L57.5 66.5 L46 66.5 C46 70.33334 46 74.16667 46 78 zM57.5 78 L69 78 L69 66.5 L57.5 66.5 C57.5 70.33334 57.5 74.16667 57.5 78 zM69 78 L80.49999 78 L80.49999 66.5 L69 66.5 C69 70.33334 69 74.16667 69 78 zM80.49999 78 L91.99999 78 L91.99999 66.5 L80.49999 66.5 C80.49999 70.33334 80.49999 74.16667 80.49999 78 zM11.5 78 L23 78 L23 66.5 L11.5 66.5 C11.5 70.33334 11.5 74.16667 11.5 78 zM23 78 L34.5 78 L34.5 66.5 L23 66.5 C23 70.33334 23 74.16667 23 78 zM34.5 78 L46 78 L46 66.5 L34.5 66.5 C34.5 70.33334 34.5 74.16667 34.5 78 zM0 78 L11.5 78 L11.5 66.5 L0 66.5 C0 70.33334 0 74.16667 0 78 zM46 66.5 L57.5 66.5 L57.5 55 L46 55 C46 58.83334 46 62.66667 46 66.5 zM57.5 66.5 L69 66.5 L69 55 L57.5 55 C57.5 58.83334 57.5 62.66667 57.5 66.5 zM69 66.5 L80.5 66.5 L80.5 55 L69 55 C69 58.83334 69 62.66667 69 66.5 zM80.5 66.5 L92 66.5 L92 55 L80.5 55 C80.5 58.83334 80.5 62.66667 80.5 66.5 zM11.5 66.5 L23 66.5 L23 55 L11.5 55 C11.5 58.83334 11.5 62.66667 11.5 66.5 zM23 66.5 L34.5 66.5 L34.5 55 L23 55 C23 58.83334 23 62.66667 23 66.5 zM34.5 66.5 L46 66.5 L46 55 L34.5 55 C34.5 58.83334 34.5 62.66667 34.5 66.5 zM0 66.5 L11.5 66.5 L11.5 55 L0 55 C0 58.83334 0 62.66667 0 66.5 zM46 55 L57.5 55 L57.5 43.5 L46 43.5 C46 47.33334 46 51.16667 46 55 zM57.5 55 L69 55 L69 43.5 L57.5 43.5 C57.5 47.33334 57.5 51.16667 57.5 55 zM69 55 L80.49999 55 L80.49999 43.5 L69 43.5 C69 47.33334 69 51.16667 69 55 zM80.49999 55 L91.99999 55 L91.99999 43.5 L80.49999 43.5 C80.49999 47.33334 80.49999 51.16667 80.49999 55 zM11.5 55 L23 55 L23 43.5 L11.5 43.5 C11.5 47.33334 11.5 51.16667 11.5 55 zM23 55 L34.5 55 L34.5 43.5 L23 43.5 C23 47.33334 23 51.16667 23 55 zM34.5 55 L46 55 L46 43.5 L34.5 43.5 C34.5 47.33334 34.5 51.16667 34.5 55 zM0 55 L11.5 55 L11.5 43.5 L0 43.5 C0 47.33334 0 51.16667 0 55 z" />
<glyph unicode="" horiz-adv-x="92" d="M46 66.5 L57.5 66.5 L57.5 55 L46 55 C46 58.83333 46 62.66666 46 66.5 zM57.5 66.5 L69.00001 66.5 L69.00001 55 L57.5 55 C57.5 58.83333 57.5 62.66666 57.5 66.5 zM69.00001 66.5 L80.50001 66.5 L80.50001 55 L69.00001 55 C69.00001 58.83333 69.00001 62.66666 69.00001 66.5 zM80.50001 66.5 L92 66.5 L92 55 L80.50001 55 C80.50001 58.83333 80.50001 62.66666 80.50001 66.5 zM11.5 66.5 L23 66.5 L23 55 L11.5 55 C11.5 58.83333 11.5 62.66666 11.5 66.5 zM23 66.5 L34.5 66.5 L34.5 55 L23 55 C23 58.83333 23 62.66666 23 66.5 zM34.5 66.5 L46 66.5 L46 55 L34.5 55 C34.5 58.83333 34.5 62.66666 34.5 66.5 zM0 66.5 L11.5 66.5 L11.5 55 L0 55 C0 58.83333 0 62.66666 0 66.5 zM46 78 L57.5 78 L57.5 66.5 L46 66.5 C46 70.33333 46 74.16667 46 78 zM57.5 78 L69 78 L69 66.5 L57.5 66.5 C57.5 70.33333 57.5 74.16667 57.5 78 zM69 78 L80.5 78 L80.5 66.5 L69 66.5 C69 70.33333 69 74.16667 69 78 zM80.5 78 L92 78 L92 66.5 L80.5 66.5 C80.5 70.33333 80.5 74.16667 80.5 78 zM11.5 78 L23 78 L23 66.5 L11.5 66.5 C11.5 70.33333 11.5 74.16667 11.5 78 zM23 78 L34.5 78 L34.5 66.5 L23 66.5 C23 70.33333 23 74.16667 23 78 zM34.5 78 L46 78 L46 66.5 L34.5 66.5 C34.5 70.33333 34.5 74.16667 34.5 78 zM0 78 L11.5 78 L11.5 66.5 L0 66.5 C0 70.33333 0 74.16667 0 78 zM46 55 L57.50001 55 L57.50001 43.5 L46 43.5 C46 47.33333 46 51.16666 46 55 zM57.50001 55 L69.00001 55 L69.00001 43.5 L57.50001 43.5 C57.50001 47.33333 57.50001 51.16666 57.50001 55 zM69.00001 55 L80.50001 55 L80.50001 43.5 L69.00001 43.5 C69.00001 47.33333 69.00001 51.16666 69.00001 55 zM80.50001 55 L92 55 L92 43.5 L80.50001 43.5 C80.50001 47.33333 80.50001 51.16666 80.50001 55 zM11.5 55 L23 55 L23 43.5 L11.5 43.5 C11.5 47.33333 11.5 51.16666 11.5 55 zM23 55 L34.5 55 L34.5 43.5 L23 43.5 C23 47.33333 23 51.16666 23 55 zM34.5 55 L46 55 L46 43.5 L34.5 43.5 C34.5 47.33333 34.5 51.16666 34.5 55 zM0 55 L11.5 55 L11.5 43.5 L0 43.5 C0 47.33333 0 51.16666 0 55 z" />
<glyph unicode="" horiz-adv-x="92" d="M46 78 L57.5 78 L57.5 66.5 L46 66.5 C46 70.33333 46 74.16667 46 78 zM57.5 78 L69 78 L69 66.5 L57.5 66.5 C57.5 70.33333 57.5 74.16667 57.5 78 zM69 78 L80.49999 78 L80.49999 66.5 L69 66.5 C69 70.33333 69 74.16667 69 78 zM80.49999 78 L91.99999 78 L91.99999 66.5 L80.49999 66.5 C80.49999 70.33333 80.49999 74.16667 80.49999 78 zM11.5 78 L23 78 L23 66.5 L11.5 66.5 C11.5 70.33333 11.5 74.16667 11.5 78 zM23 78 L34.5 78 L34.5 66.5 L23 66.5 C23 70.33333 23 74.16667 23 78 zM34.5 78 L46 78 L46 66.5 L34.5 66.5 C34.5 70.33333 34.5 74.16667 34.5 78 zM0 78 L11.5 78 L11.5 66.5 L0 66.5 C0 70.33333 0 74.16667 0 78 zM46 66.5 L57.5 66.5 L57.5 55 L46 55 C46 58.83333 46 62.66667 46 66.5 zM57.5 66.5 L69 66.5 L69 55 L57.5 55 C57.5 58.83333 57.5 62.66667 57.5 66.5 zM69 66.5 L80.5 66.5 L80.5 55 L69 55 C69 58.83333 69 62.66667 69 66.5 zM80.5 66.5 L92 66.5 L92 55 L80.5 55 C80.5 58.83333 80.5 62.66667 80.5 66.5 zM11.5 66.5 L23 66.5 L23 55 L11.5 55 C11.5 58.83333 11.5 62.66667 11.5 66.5 zM23 66.5 L34.5 66.5 L34.5 55 L23 55 C23 58.83333 23 62.66667 23 66.5 zM34.5 66.5 L46 66.5 L46 55 L34.5 55 C34.5 58.83333 34.5 62.66667 34.5 66.5 zM0 66.5 L11.5 66.5 L11.5 55 L0 55 C0 58.83333 0 62.66667 0 66.5 zM46 55 L57.5 55 L57.5 43.5 L46 43.5 C46 47.33333 46 51.16667 46 55 zM57.5 55 L69 55 L69 43.5 L57.5 43.5 C57.5 47.33333 57.5 51.16667 57.5 55 zM69 55 L80.49999 55 L80.49999 43.5 L69 43.5 C69 47.33333 69 51.16667 69 55 zM80.49999 55 L91.99999 55 L91.99999 43.5 L80.49999 43.5 C80.49999 47.33333 80.49999 51.16667 80.49999 55 zM11.5 55 L23 55 L23 43.5 L11.5 43.5 C11.5 47.33333 11.5 51.16667 11.5 55 zM23 55 L34.5 55 L34.5 43.5 L23 43.5 C23 47.33333 23 51.16667 23 55 zM34.5 55 L46 55 L46 43.5 L34.5 43.5 C34.5 47.33333 34.5 51.16667 34.5 55 zM0 55 L11.5 55 L11.5 43.5 L0 43.5 C0 47.33333 0 51.16667 0 55 z" />
<glyph unicode="" horiz-adv-x="92" d="M46 66.5 L57.5 66.5 L57.5 55 L46 55 C46 58.83333 46 62.66666 46 66.5 zM57.5 66.5 L69.00001 66.5 L69.00001 55 L57.5 55 C57.5 58.83333 57.5 62.66666 57.5 66.5 zM69.00001 66.5 L80.50001 66.5 L80.50001 55 L69.00001 55 C69.00001 58.83333 69.00001 62.66666 69.00001 66.5 zM80.50001 66.5 L92 66.5 L92 55 L80.50001 55 C80.50001 58.83333 80.50001 62.66666 80.50001 66.5 zM11.5 66.5 L23 66.5 L23 55 L11.5 55 C11.5 58.83333 11.5 62.66666 11.5 66.5 zM23 66.5 L34.5 66.5 L34.5 55 L23 55 C23 58.83333 23 62.66666 23 66.5 zM34.5 66.5 L46 66.5 L46 55 L34.5 55 C34.5 58.83333 34.5 62.66666 34.5 66.5 zM0 66.5 L11.5 66.5 L11.5 55 L0 55 C0 58.83333 0 62.66666 0 66.5 zM46 78 L57.5 78 L57.5 66.5 L46 66.5 C46 70.33333 46 74.16667 46 78 zM57.5 78 L69 78 L69 66.5 L57.5 66.5 C57.5 70.33333 57.5 74.16667 57.5 78 zM69 78 L80.5 78 L80.5 66.5 L69 66.5 C69 70.33333 69 74.16667 69 78 zM80.5 78 L92 78 L92 66.5 L80.5 66.5 C80.5 70.33333 80.5 74.16667 80.5 78 zM11.5 78 L23 78 L23 66.5 L11.5 66.5 C11.5 70.33333 11.5 74.16667 11.5 78 zM23 78 L34.5 78 L34.5 66.5 L23 66.5 C23 70.33333 23 74.16667 23 78 zM34.5 78 L46 78 L46 66.5 L34.5 66.5 C34.5 70.33333 34.5 74.16667 34.5 78 zM0 78 L11.5 78 L11.5 66.5 L0 66.5 C0 70.33333 0 74.16667 0 78 zM46 55 L57.5 55 L57.5 43.5 L46 43.5 C46 47.33333 46 51.16666 46 55 zM57.5 55 L69.00001 55 L69.00001 43.5 L57.5 43.5 C57.5 47.33333 57.5 51.16666 57.5 55 zM69.00001 55 L80.50001 55 L80.50001 43.5 L69.00001 43.5 C69.00001 47.33333 69.00001 51.16666 69.00001 55 zM80.50001 55 L92 55 L92 43.5 L80.50001 43.5 C80.50001 47.33333 80.50001 51.16666 80.50001 55 zM11.5 55 L23 55 L23 43.5 L11.5 43.5 C11.5 47.33333 11.5 51.16666 11.5 55 zM23 55 L34.5 55 L34.5 43.5 L23 43.5 C23 47.33333 23 51.16666 23 55 zM34.5 55 L46 55 L46 43.5 L34.5 43.5 C34.5 47.33333 34.5 51.16666 34.5 55 zM0 55 L11.5 55 L11.5 43.5 L0 43.5 C0 47.33333 0 51.16666 0 55 z" />
<glyph unicode="" horiz-adv-x="92" d="M46 78 L57.5 78 L57.5 66.5 L46 66.5 C46 70.33333 46 74.16667 46 78 zM57.5 78 L69 78 L69 66.5 L57.5 66.5 C57.5 70.33333 57.5 74.16667 57.5 78 zM69 78 L80.5 78 L80.5 66.5 L69 66.5 C69 70.33333 69 74.16667 69 78 zM80.5 78 L92 78 L92 66.5 L80.5 66.5 C80.5 70.33333 80.5 74.16667 80.5 78 zM11.5 78 L23 78 L23 66.5 L11.5 66.5 C11.5 70.33333 11.5 74.16667 11.5 78 zM23 78 L34.5 78 L34.5 66.5 L23 66.5 C23 70.33333 23 74.16667 23 78 zM34.5 78 L46 78 L46 66.5 L34.5 66.5 C34.5 70.33333 34.5 74.16667 34.5 78 zM0 78 L11.5 78 L11.5 66.5 L0 66.5 C0 70.33333 0 74.16667 0 78 zM46 66.5 L57.50001 66.5 L57.50001 55 L46 55 C46 58.83333 46 62.66667 46 66.5 zM57.50001 66.5 L69 66.5 L69 55 L57.50001 55 C57.50001 58.83333 57.50001 62.66667 57.50001 66.5 zM69 66.5 L80.5 66.5 L80.5 55 L69 55 C69 58.83333 69 62.66667 69 66.5 zM80.5 66.5 L92 66.5 L92 55 L80.5 55 C80.5 58.83333 80.5 62.66667 80.5 66.5 zM11.5 66.5 L23 66.5 L23 55 L11.5 55 C11.5 58.83333 11.5 62.66667 11.5 66.5 zM23 66.5 L34.5 66.5 L34.5 55 L23 55 C23 58.83333 23 62.66667 23 66.5 zM34.5 66.5 L46 66.5 L46 55 L34.5 55 C34.5 58.83333 34.5 62.66667 34.5 66.5 zM0 66.5 L11.5 66.5 L11.5 55 L0 55 C0 58.83333 0 62.66667 0 66.5 zM46 55 L57.5 55 L57.5 43.5 L46 43.5 C46 47.33333 46 51.16667 46 55 zM57.5 55 L69 55 L69 43.5 L57.5 43.5 C57.5 47.33333 57.5 51.16667 57.5 55 zM69 55 L80.5 55 L80.5 43.5 L69 43.5 C69 47.33333 69 51.16667 69 55 zM80.5 55 L92 55 L92 43.5 L80.5 43.5 C80.5 47.33333 80.5 51.16667 80.5 55 zM11.5 55 L23 55 L23 43.5 L11.5 43.5 C11.5 47.33333 11.5 51.16667 11.5 55 zM23 55 L34.5 55 L34.5 43.5 L23 43.5 C23 47.33333 23 51.16667 23 55 zM34.5 55 L46 55 L46 43.5 L34.5 43.5 C34.5 47.33333 34.5 51.16667 34.5 55 zM0 55 L11.5 55 L11.5 43.5 L0 43.5 C0 47.33333 0 51.16667 0 55 z" />
<glyph unicode="" horiz-adv-x="92" d="M46 78 L57.5 78 L57.5 66.5 L46 66.5 C46 70.33333 46 74.16667 46 78 zM57.5 78 L69 78 L69 66.5 L57.5 66.5 C57.5 70.33333 57.5 74.16667 57.5 78 zM69 78 L80.5 78 L80.5 66.5 L69 66.5 C69 70.33333 69 74.16667 69 78 zM80.5 78 L92 78 L92 66.5 L80.5 66.5 C80.5 70.33333 80.5 74.16667 80.5 78 zM11.5 78 L23 78 L23 66.5 L11.5 66.5 C11.5 70.33333 11.5 74.16667 11.5 78 zM23 78 L34.5 78 L34.5 66.5 L23 66.5 C23 70.33333 23 74.16667 23 78 zM34.5 78 L46 78 L46 66.5 L34.5 66.5 C34.5 70.33333 34.5 74.16667 34.5 78 zM0 78 L11.5 78 L11.5 66.5 L0 66.5 C0 70.33333 0 74.16667 0 78 zM46 66.5 L57.50001 66.5 L57.50001 55 L46 55 C46 58.83333 46 62.66666 46 66.5 zM57.50001 66.5 L69 66.5 L69 55 L57.50001 55 C57.50001 58.83333 57.50001 62.66666 57.50001 66.5 zM69 66.5 L80.5 66.5 L80.5 55 L69 55 C69 58.83333 69 62.66666 69 66.5 zM80.5 66.5 L92 66.5 L92 55 L80.5 55 C80.5 58.83333 80.5 62.66666 80.5 66.5 zM11.5 66.5 L23 66.5 L23 55 L11.5 55 C11.5 58.83333 11.5 62.66666 11.5 66.5 zM23 66.5 L34.5 66.5 L34.5 55 L23 55 C23 58.83333 23 62.66666 23 66.5 zM34.5 66.5 L46 66.5 L46 55 L34.5 55 C34.5 58.83333 34.5 62.66666 34.5 66.5 zM0 66.5 L11.5 66.5 L11.5 55 L0 55 C0 58.83333 0 62.66666 0 66.5 zM46 55 L57.5 55 L57.5 43.5 L46 43.5 C46 47.33333 46 51.16666 46 55 zM57.5 55 L69 55 L69 43.5 L57.5 43.5 C57.5 47.33333 57.5 51.16666 57.5 55 zM69 55 L80.5 55 L80.5 43.5 L69 43.5 C69 47.33333 69 51.16666 69 55 zM80.5 55 L92 55 L92 43.5 L80.5 43.5 C80.5 47.33333 80.5 51.16666 80.5 55 zM11.5 55 L23 55 L23 43.5 L11.5 43.5 C11.5 47.33333 11.5 51.16666 11.5 55 zM23 55 L34.5 55 L34.5 43.5 L23 43.5 C23 47.33333 23 51.16666 23 55 zM34.5 55 L46 55 L46 43.5 L34.5 43.5 C34.5 47.33333 34.5 51.16666 34.5 55 zM0 55 L11.5 55 L11.5 43.5 L0 43.5 C0 47.33333 0 51.16666 0 55 z" />
<glyph unicode="" horiz-adv-x="92" d="M46 78 L57.5 78 L57.5 66.5 L46 66.5 C46 70.33334 46 74.16667 46 78 zM57.5 78 L68.99999 78 L68.99999 66.5 L57.5 66.5 C57.5 70.33334 57.5 74.16667 57.5 78 zM68.99999 78 L80.49999 78 L80.49999 66.5 L68.99999 66.5 C68.99999 70.33334 68.99999 74.16667 68.99999 78 zM80.49999 78 L91.99999 78 L91.99999 66.5 L80.49999 66.5 C80.49999 70.33334 80.49999 74.16667 80.49999 78 zM11.5 78 L23 78 L23 66.5 L11.5 66.5 C11.5 70.33334 11.5 74.16667 11.5 78 zM23 78 L34.5 78 L34.5 66.5 L23 66.5 C23 70.33334 23 74.16667 23 78 zM34.5 78 L46 78 L46 66.5 L34.5 66.5 C34.5 70.33334 34.5 74.16667 34.5 78 zM0 78 L11.5 78 L11.5 66.5 L0 66.5 C0 70.33334 0 74.16667 0 78 zM46 66.5 L57.5 66.5 L57.5 55 L46 55 C46 58.83334 46 62.66667 46 66.5 zM57.5 66.5 L69 66.5 L69 55 L57.5 55 C57.5 58.83334 57.5 62.66667 57.5 66.5 zM69 66.5 L80.5 66.5 L80.5 55 L69 55 C69 58.83334 69 62.66667 69 66.5 zM80.5 66.5 L92 66.5 L92 55 L80.5 55 C80.5 58.83334 80.5 62.66667 80.5 66.5 zM11.5 66.5 L23 66.5 L23 55 L11.5 55 C11.5 58.83334 11.5 62.66667 11.5 66.5 zM23 66.5 L34.5 66.5 L34.5 55 L23 55 C23 58.83334 23 62.66667 23 66.5 zM34.5 66.5 L46 66.5 L46 55 L34.5 55 C34.5 58.83334 34.5 62.66667 34.5 66.5 zM0 66.5 L11.5 66.5 L11.5 55 L0 55 C0 58.83334 0 62.66667 0 66.5 zM46 55 L57.5 55 L57.5 43.5 L46 43.5 C46 47.33334 46 51.16667 46 55 zM57.5 55 L68.99999 55 L68.99999 43.5 L57.5 43.5 C57.5 47.33334 57.5 51.16667 57.5 55 zM68.99999 55 L80.49999 55 L80.49999 43.5 L68.99999 43.5 C68.99999 47.33334 68.99999 51.16667 68.99999 55 zM80.49999 55 L91.99999 55 L91.99999 43.5 L80.49999 43.5 C80.49999 47.33334 80.49999 51.16667 80.49999 55 zM11.5 55 L23 55 L23 43.5 L11.5 43.5 C11.5 47.33334 11.5 51.16667 11.5 55 zM23 55 L34.5 55 L34.5 43.5 L23 43.5 C23 47.33334 23 51.16667 23 55 zM34.5 55 L46 55 L46 43.5 L34.5 43.5 C34.5 47.33334 34.5 51.16667 34.5 55 zM0 55 L11.5 55 L11.5 43.5 L0 43.5 C0 47.33334 0 51.16667 0 55 z" />
<glyph unicode="" horiz-adv-x="92" d="M46 66.5 L57.5 66.5 L57.5 55 L46 55 C46 58.83334 46 62.66667 46 66.5 zM57.5 66.5 L69 66.5 L69 55 L57.5 55 C57.5 58.83334 57.5 62.66667 57.5 66.5 zM69 66.5 L80.5 66.5 L80.5 55 L69 55 C69 58.83334 69 62.66667 69 66.5 zM80.5 66.5 L91.99999 66.5 L91.99999 55 L80.5 55 C80.5 58.83334 80.5 62.66667 80.5 66.5 zM11.5 66.5 L23 66.5 L23 55 L11.5 55 C11.5 58.83334 11.5 62.66667 11.5 66.5 zM23 66.5 L34.5 66.5 L34.5 55 L23 55 C23 58.83334 23 62.66667 23 66.5 zM34.5 66.5 L46 66.5 L46 55 L34.5 55 C34.5 58.83334 34.5 62.66667 34.5 66.5 zM0 66.5 L11.5 66.5 L11.5 55 L0 55 C0 58.83334 0 62.66667 0 66.5 zM46 78 L57.5 78 L57.5 66.5 L46 66.5 C46 70.33334 46 74.16667 46 78 zM57.5 78 L68.99999 78 L68.99999 66.5 L57.5 66.5 C57.5 70.33334 57.5 74.16667 57.5 78 zM68.99999 78 L80.49999 78 L80.49999 66.5 L68.99999 66.5 C68.99999 70.33334 68.99999 74.16667 68.99999 78 zM80.49999 78 L91.99999 78 L91.99999 66.5 L80.49999 66.5 C80.49999 70.33334 80.49999 74.16667 80.49999 78 zM11.5 78 L23 78 L23 66.5 L11.5 66.5 C11.5 70.33334 11.5 74.16667 11.5 78 zM23 78 L34.5 78 L34.5 66.5 L23 66.5 C23 70.33334 23 74.16667 23 78 zM34.5 78 L46 78 L46 66.5 L34.5 66.5 C34.5 70.33334 34.5 74.16667 34.5 78 zM0 78 L11.5 78 L11.5 66.5 L0 66.5 C0 70.33334 0 74.16667 0 78 zM46 55 L57.5 55 L57.5 43.5 L46 43.5 C46 47.33334 46 51.16667 46 55 zM57.5 55 L69 55 L69 43.5 L57.5 43.5 C57.5 47.33334 57.5 51.16667 57.5 55 zM69 55 L80.5 55 L80.5 43.5 L69 43.5 C69 47.33334 69 51.16667 69 55 zM80.5 55 L92 55 L92 43.5 L80.5 43.5 C80.5 47.33334 80.5 51.16667 80.5 55 zM11.5 55 L23 55 L23 43.5 L11.5 43.5 C11.5 47.33334 11.5 51.16667 11.5 55 zM23 55 L34.5 55 L34.5 43.5 L23 43.5 C23 47.33334 23 51.16667 23 55 zM34.5 55 L46 55 L46 43.5 L34.5 43.5 C34.5 47.33334 34.5 51.16667 34.5 55 zM0 55 L11.5 55 L11.5 43.5 L0 43.5 C0 47.33334 0 51.16667 0 55 z" />
<glyph unicode="" horiz-adv-x="92" d="M46 78 L57.5 78 L57.5 66.5 L46 66.5 C46 70.33333 46 74.16667 46 78 zM57.5 78 L69 78 L69 66.5 L57.5 66.5 C57.5 70.33333 57.5 74.16667 57.5 78 zM69 78 L80.5 78 L80.5 66.5 L69 66.5 C69 70.33333 69 74.16667 69 78 zM80.5 78 L92 78 L92 66.5 L80.5 66.5 C80.5 70.33333 80.5 74.16667 80.5 78 zM11.5 78 L23 78 L23 66.5 L11.5 66.5 C11.5 70.33333 11.5 74.16667 11.5 78 zM23 78 L34.5 78 L34.5 66.5 L23 66.5 C23 70.33333 23 74.16667 23 78 zM34.5 78 L46 78 L46 66.5 L34.5 66.5 C34.5 70.33333 34.5 74.16667 34.5 78 zM0 78 L11.5 78 L11.5 66.5 L0 66.5 C0 70.33333 0 74.16667 0 78 zM46 66.5 L57.50001 66.5 L57.50001 55 L46 55 C46 58.83333 46 62.66666 46 66.5 zM57.50001 66.5 L69 66.5 L69 55 L57.50001 55 C57.50001 58.83333 57.50001 62.66666 57.50001 66.5 zM69 66.5 L80.5 66.5 L80.5 55 L69 55 C69 58.83333 69 62.66666 69 66.5 zM80.5 66.5 L92 66.5 L92 55 L80.5 55 C80.5 58.83333 80.5 62.66666 80.5 66.5 zM11.5 66.5 L23 66.5 L23 55 L11.5 55 C11.5 58.83333 11.5 62.66666 11.5 66.5 zM23 66.5 L34.5 66.5 L34.5 55 L23 55 C23 58.83333 23 62.66666 23 66.5 zM34.5 66.5 L46 66.5 L46 55 L34.5 55 C34.5 58.83333 34.5 62.66666 34.5 66.5 zM0 66.5 L11.5 66.5 L11.5 55 L0 55 C0 58.83333 0 62.66666 0 66.5 zM46 55 L57.5 55 L57.5 43.5 L46 43.5 C46 47.33333 46 51.16666 46 55 zM57.5 55 L69 55 L69 43.5 L57.5 43.5 C57.5 47.33333 57.5 51.16666 57.5 55 zM69 55 L80.5 55 L80.5 43.5 L69 43.5 C69 47.33333 69 51.16666 69 55 zM80.5 55 L92 55 L92 43.5 L80.5 43.5 C80.5 47.33333 80.5 51.16666 80.5 55 zM11.5 55 L23 55 L23 43.5 L11.5 43.5 C11.5 47.33333 11.5 51.16666 11.5 55 zM23 55 L34.5 55 L34.5 43.5 L23 43.5 C23 47.33333 23 51.16666 23 55 zM34.5 55 L46 55 L46 43.5 L34.5 43.5 C34.5 47.33333 34.5 51.16666 34.5 55 zM0 55 L11.5 55 L11.5 43.5 L0 43.5 C0 47.33333 0 51.16666 0 55 z" />
<glyph unicode="" horiz-adv-x="92" d="M46 78 L57.5 78 L57.5 66.5 L46 66.5 C46 70.33333 46 74.16667 46 78 zM57.5 78 L69 78 L69 66.5 L57.5 66.5 C57.5 70.33333 57.5 74.16667 57.5 78 zM69 78 L80.5 78 L80.5 66.5 L69 66.5 C69 70.33333 69 74.16667 69 78 zM80.5 78 L92 78 L92 66.5 L80.5 66.5 C80.5 70.33333 80.5 74.16667 80.5 78 zM11.5 78 L23 78 L23 66.5 L11.5 66.5 C11.5 70.33333 11.5 74.16667 11.5 78 zM23 78 L34.5 78 L34.5 66.5 L23 66.5 C23 70.33333 23 74.16667 23 78 zM34.5 78 L46 78 L46 66.5 L34.5 66.5 C34.5 70.33333 34.5 74.16667 34.5 78 zM0 78 L11.5 78 L11.5 66.5 L0 66.5 C0 70.33333 0 74.16667 0 78 zM46 66.5 L57.5 66.5 L57.5 55 L46 55 C46 58.83333 46 62.66666 46 66.5 zM57.5 66.5 L69 66.5 L69 55 L57.5 55 C57.5 58.83333 57.5 62.66666 57.5 66.5 zM69 66.5 L80.5 66.5 L80.5 55 L69 55 C69 58.83333 69 62.66666 69 66.5 zM80.5 66.5 L92 66.5 L92 55 L80.5 55 C80.5 58.83333 80.5 62.66666 80.5 66.5 zM11.5 66.5 L23 66.5 L23 55 L11.5 55 C11.5 58.83333 11.5 62.66666 11.5 66.5 zM23 66.5 L34.5 66.5 L34.5 55 L23 55 C23 58.83333 23 62.66666 23 66.5 zM34.5 66.5 L46 66.5 L46 55 L34.5 55 C34.5 58.83333 34.5 62.66666 34.5 66.5 zM0 66.5 L11.5 66.5 L11.5 55 L0 55 C0 58.83333 0 62.66666 0 66.5 zM46 55 L57.5 55 L57.5 43.5 L46 43.5 C46 47.33333 46 51.16666 46 55 zM57.5 55 L69 55 L69 43.5 L57.5 43.5 C57.5 47.33333 57.5 51.16666 57.5 55 zM69 55 L80.5 55 L80.5 43.5 L69 43.5 C69 47.33333 69 51.16666 69 55 zM80.5 55 L92 55 L92 43.5 L80.5 43.5 C80.5 47.33333 80.5 51.16666 80.5 55 zM11.5 55 L23 55 L23 43.5 L11.5 43.5 C11.5 47.33333 11.5 51.16666 11.5 55 zM23 55 L34.5 55 L34.5 43.5 L23 43.5 C23 47.33333 23 51.16666 23 55 zM34.5 55 L46 55 L46 43.5 L34.5 43.5 C34.5 47.33333 34.5 51.16666 34.5 55 zM0 55 L11.5 55 L11.5 43.5 L0 43.5 C0 47.33333 0 51.16666 0 55 z" />
<glyph unicode="" horiz-adv-x="92" d="M46 78 L57.5 78 L57.5 66.5 L46 66.5 C46 70.33334 46 74.16667 46 78 zM57.5 78 L69 78 L69 66.5 L57.5 66.5 C57.5 70.33334 57.5 74.16667 57.5 78 zM69 78 L80.5 78 L80.5 66.5 L69 66.5 C69 70.33334 69 74.16667 69 78 zM80.5 78 L92 78 L92 66.5 L80.5 66.5 C80.5 70.33334 80.5 74.16667 80.5 78 zM11.5 78 L23 78 L23 66.5 L11.5 66.5 C11.5 70.33334 11.5 74.16667 11.5 78 zM23 78 L34.5 78 L34.5 66.5 L23 66.5 C23 70.33334 23 74.16667 23 78 zM34.5 78 L46 78 L46 66.5 L34.5 66.5 C34.5 70.33334 34.5 74.16667 34.5 78 zM0 78 L11.5 78 L11.5 66.5 L0 66.5 C0 70.33334 0 74.16667 0 78 zM46 66.5 L57.5 66.5 L57.5 55 L46 55 C46 58.83334 46 62.66667 46 66.5 zM57.5 66.5 L69 66.5 L69 55 L57.5 55 C57.5 58.83334 57.5 62.66667 57.5 66.5 zM69 66.5 L80.5 66.5 L80.5 55 L69 55 C69 58.83334 69 62.66667 69 66.5 zM80.5 66.5 L92 66.5 L92 55 L80.5 55 C80.5 58.83334 80.5 62.66667 80.5 66.5 zM11.5 66.5 L23 66.5 L23 55 L11.5 55 C11.5 58.83334 11.5 62.66667 11.5 66.5 zM23 66.5 L34.5 66.5 L34.5 55 L23 55 C23 58.83334 23 62.66667 23 66.5 zM34.5 66.5 L46 66.5 L46 55 L34.5 55 C34.5 58.83334 34.5 62.66667 34.5 66.5 zM0 66.5 L11.5 66.5 L11.5 55 L0 55 C0 58.83334 0 62.66667 0 66.5 zM46 55 L57.5 55 L57.5 43.5 L46 43.5 C46 47.33334 46 51.16667 46 55 zM57.5 55 L69 55 L69 43.5 L57.5 43.5 C57.5 47.33334 57.5 51.16667 57.5 55 zM69 55 L80.5 55 L80.5 43.5 L69 43.5 C69 47.33334 69 51.16667 69 55 zM80.5 55 L92 55 L92 43.5 L80.5 43.5 C80.5 47.33334 80.5 51.16667 80.5 55 zM11.5 55 L23 55 L23 43.5 L11.5 43.5 C11.5 47.33334 11.5 51.16667 11.5 55 zM23 55 L34.5 55 L34.5 43.5 L23 43.5 C23 47.33334 23 51.16667 23 55 zM34.5 55 L46 55 L46 43.5 L34.5 43.5 C34.5 47.33334 34.5 51.16667 34.5 55 zM0 55 L11.5 55 L11.5 43.5 L0 43.5 C0 47.33334 0 51.16667 0 55 z" />
<glyph unicode="" horiz-adv-x="92" d="M46 78 L57.5 78 L57.5 66.5 L46 66.5 C46 70.33333 46 74.16667 46 78 zM57.5 78 L69 78 L69 66.5 L57.5 66.5 C57.5 70.33333 57.5 74.16667 57.5 78 zM69 78 L80.5 78 L80.5 66.5 L69 66.5 C69 70.33333 69 74.16667 69 78 zM80.5 78 L92 78 L92 66.5 L80.5 66.5 C80.5 70.33333 80.5 74.16667 80.5 78 zM11.5 78 L23 78 L23 66.5 L11.5 66.5 C11.5 70.33333 11.5 74.16667 11.5 78 zM23 78 L34.5 78 L34.5 66.5 L23 66.5 C23 70.33333 23 74.16667 23 78 zM34.5 78 L46 78 L46 66.5 L34.5 66.5 C34.5 70.33333 34.5 74.16667 34.5 78 zM0 78 L11.5 78 L11.5 66.5 L0 66.5 C0 70.33333 0 74.16667 0 78 zM46 66.5 L57.5 66.5 L57.5 55 L46 55 C46 58.83333 46 62.66666 46 66.5 zM57.5 66.5 L69 66.5 L69 55 L57.5 55 C57.5 58.83333 57.5 62.66666 57.5 66.5 zM69 66.5 L80.5 66.5 L80.5 55 L69 55 C69 58.83333 69 62.66666 69 66.5 zM80.5 66.5 L92 66.5 L92 55 L80.5 55 C80.5 58.83333 80.5 62.66666 80.5 66.5 zM11.5 66.5 L23 66.5 L23 55 L11.5 55 C11.5 58.83333 11.5 62.66666 11.5 66.5 zM23 66.5 L34.5 66.5 L34.5 55 L23 55 C23 58.83333 23 62.66666 23 66.5 zM34.5 66.5 L46 66.5 L46 55 L34.5 55 C34.5 58.83333 34.5 62.66666 34.5 66.5 zM0 66.5 L11.5 66.5 L11.5 55 L0 55 C0 58.83333 0 62.66666 0 66.5 zM46 55 L57.5 55 L57.5 43.5 L46 43.5 C46 47.33333 46 51.16666 46 55 zM57.5 55 L68.99999 55 L68.99999 43.5 L57.5 43.5 C57.5 47.33333 57.5 51.16666 57.5 55 zM68.99999 55 L80.49999 55 L80.49999 43.5 L68.99999 43.5 C68.99999 47.33333 68.99999 51.16666 68.99999 55 zM80.49999 55 L92 55 L92 43.5 L80.49999 43.5 C80.49999 47.33333 80.49999 51.16666 80.49999 55 zM11.5 55 L23 55 L23 43.5 L11.5 43.5 C11.5 47.33333 11.5 51.16666 11.5 55 zM23 55 L34.5 55 L34.5 43.5 L23 43.5 C23 47.33333 23 51.16666 23 55 zM34.5 55 L46 55 L46 43.5 L34.5 43.5 C34.5 47.33333 34.5 51.16666 34.5 55 zM0 55 L11.5 55 L11.5 43.5 L0 43.5 C0 47.33333 0 51.16666 0 55 z" />
<glyph unicode="" horiz-adv-x="92" d="M46 66.5 L57.5 66.5 L57.5 55 L46 55 C46 58.83334 46 62.66667 46 66.5 zM57.5 66.5 L69 66.5 L69 55 L57.5 55 C57.5 58.83334 57.5 62.66667 57.5 66.5 zM69 66.5 L80.5 66.5 L80.5 55 L69 55 C69 58.83334 69 62.66667 69 66.5 zM80.5 66.5 L91.99999 66.5 L91.99999 55 L80.5 55 C80.5 58.83334 80.5 62.66667 80.5 66.5 zM11.5 66.5 L23 66.5 L23 55 L11.5 55 C11.5 58.83334 11.5 62.66667 11.5 66.5 zM23 66.5 L34.5 66.5 L34.5 55 L23 55 C23 58.83334 23 62.66667 23 66.5 zM34.5 66.5 L46 66.5 L46 55 L34.5 55 C34.5 58.83334 34.5 62.66667 34.5 66.5 zM0 66.5 L11.5 66.5 L11.5 55 L0 55 C0 58.83334 0 62.66667 0 66.5 zM46 78 L57.5 78 L57.5 66.5 L46 66.5 C46 70.33334 46 74.16667 46 78 zM57.5 78 L68.99999 78 L68.99999 66.5 L57.5 66.5 C57.5 70.33334 57.5 74.16667 57.5 78 zM68.99999 78 L80.49999 78 L80.49999 66.5 L68.99999 66.5 C68.99999 70.33334 68.99999 74.16667 68.99999 78 zM80.49999 78 L91.99999 78 L91.99999 66.5 L80.49999 66.5 C80.49999 70.33334 80.49999 74.16667 80.49999 78 zM11.5 78 L23 78 L23 66.5 L11.5 66.5 C11.5 70.33334 11.5 74.16667 11.5 78 zM23 78 L34.5 78 L34.5 66.5 L23 66.5 C23 70.33334 23 74.16667 23 78 zM34.5 78 L46 78 L46 66.5 L34.5 66.5 C34.5 70.33334 34.5 74.16667 34.5 78 zM0 78 L11.5 78 L11.5 66.5 L0 66.5 C0 70.33334 0 74.16667 0 78 zM46 55 L57.5 55 L57.5 43.5 L46 43.5 C46 47.33334 46 51.16667 46 55 zM57.5 55 L69 55 L69 43.5 L57.5 43.5 C57.5 47.33334 57.5 51.16667 57.5 55 zM69 55 L80.5 55 L80.5 43.5 L69 43.5 C69 47.33334 69 51.16667 69 55 zM80.5 55 L92 55 L92 43.5 L80.5 43.5 C80.5 47.33334 80.5 51.16667 80.5 55 zM11.5 55 L23 55 L23 43.5 L11.5 43.5 C11.5 47.33334 11.5 51.16667 11.5 55 zM23 55 L34.5 55 L34.5 43.5 L23 43.5 C23 47.33334 23 51.16667 23 55 zM34.5 55 L46 55 L46 43.5 L34.5 43.5 C34.5 47.33334 34.5 51.16667 34.5 55 zM0 55 L11.5 55 L11.5 43.5 L0 43.5 C0 47.33334 0 51.16667 0 55 z" />
<glyph unicode="" horiz-adv-x="92" d="M46 77.99996 L57.5 77.99996 L57.5 66.49996 L46 66.49996 C46 70.3333 46 74.16663 46 77.99996 zM57.5 77.99996 L68.99999 77.99996 L68.99999 66.49996 L57.5 66.49996 C57.5 70.3333 57.5 74.16663 57.5 77.99996 zM68.99999 77.99996 L80.49999 77.99996 L80.49999 66.49996 L68.99999 66.49996 C68.99999 70.3333 68.99999 74.16663 68.99999 77.99996 zM80.49999 77.99996 L91.99999 77.99996 L91.99999 66.49996 L80.49999 66.49996 C80.49999 70.3333 80.49999 74.16663 80.49999 77.99996 zM11.5 77.99996 L23 77.99996 L23 66.49996 L11.5 66.49996 C11.5 70.3333 11.5 74.16663 11.5 77.99996 zM23 77.99996 L34.5 77.99996 L34.5 66.49996 L23 66.49996 C23 70.3333 23 74.16663 23 77.99996 zM34.5 77.99996 L46 77.99996 L46 66.49996 L34.5 66.49996 C34.5 70.3333 34.5 74.16663 34.5 77.99996 zM0 77.99996 L11.5 77.99996 L11.5 66.49996 L0 66.49996 C0 70.3333 0 74.16663 0 77.99996 zM46 66.49996 L57.5 66.49996 L57.5 54.99996 L46 54.99996 C46 58.8333 46 62.66663 46 66.49996 zM57.5 66.49996 L69 66.49996 L69 54.99996 L57.5 54.99996 C57.5 58.8333 57.5 62.66663 57.5 66.49996 zM69 66.49996 L80.5 66.49996 L80.5 54.99996 L69 54.99996 C69 58.8333 69 62.66663 69 66.49996 zM80.5 66.49996 L92 66.49996 L92 54.99996 L80.5 54.99996 C80.5 58.8333 80.5 62.66663 80.5 66.49996 zM11.5 66.49996 L23 66.49996 L23 54.99996 L11.5 54.99996 C11.5 58.8333 11.5 62.66663 11.5 66.49996 zM23 66.49996 L34.5 66.49996 L34.5 54.99996 L23 54.99996 C23 58.8333 23 62.66663 23 66.49996 zM34.5 66.49996 L46 66.49996 L46 54.99996 L34.5 54.99996 C34.5 58.8333 34.5 62.66663 34.5 66.49996 zM0 66.49996 L11.5 66.49996 L11.5 54.99996 L0 54.99996 C0 58.8333 0 62.66663 0 66.49996 zM46 54.99996 L57.5 54.99996 L57.5 43.49996 L46 43.49996 C46 47.3333 46 51.16663 46 54.99996 zM57.5 54.99996 L69 54.99996 L69 43.49996 L57.5 43.49996 C57.5 47.3333 57.5 51.16663 57.5 54.99996 zM69 54.99996 L80.5 54.99996 L80.5 43.49996 L69 43.49996 C69 47.3333 69 51.16663 69 54.99996 zM80.5 54.99996 L92 54.99996 L92 43.49996 L80.5 43.49996 C80.5 47.3333 80.5 51.16663 80.5 54.99996 zM11.5 54.99996 L23 54.99996 L23 43.49996 L11.5 43.49996 C11.5 47.3333 11.5 51.16663 11.5 54.99996 zM23 54.99996 L34.5 54.99996 L34.5 43.49996 L23 43.49996 C23 47.3333 23 51.16663 23 54.99996 zM34.5 54.99996 L46 54.99996 L46 43.49996 L34.5 43.49996 C34.5 47.3333 34.5 51.16663 34.5 54.99996 zM0 54.99996 L11.5 54.99996 L11.5 43.49996 L0 43.49996 C0 47.3333 0 51.16663 0 54.99996 z" />
<glyph unicode="" horiz-adv-x="92" d="M46 78 L57.5 78 L57.5 66.5 L46 66.5 C46 70.33333 46 74.16667 46 78 zM57.5 78 L69 78 L69 66.5 L57.5 66.5 C57.5 70.33333 57.5 74.16667 57.5 78 zM69 78 L80.49999 78 L80.49999 66.5 L69 66.5 C69 70.33333 69 74.16667 69 78 zM80.49999 78 L91.99999 78 L91.99999 66.5 L80.49999 66.5 C80.49999 70.33333 80.49999 74.16667 80.49999 78 zM11.5 78 L23 78 L23 66.5 L11.5 66.5 C11.5 70.33333 11.5 74.16667 11.5 78 zM23 78 L34.5 78 L34.5 66.5 L23 66.5 C23 70.33333 23 74.16667 23 78 zM34.5 78 L46 78 L46 66.5 L34.5 66.5 C34.5 70.33333 34.5 74.16667 34.5 78 zM0 78 L11.5 78 L11.5 66.5 L0 66.5 C0 70.33333 0 74.16667 0 78 zM46 66.5 L57.5 66.5 L57.5 55 L46 55 C46 58.83333 46 62.66667 46 66.5 zM57.5 66.5 L69 66.5 L69 55 L57.5 55 C57.5 58.83333 57.5 62.66667 57.5 66.5 zM69 66.5 L80.5 66.5 L80.5 55 L69 55 C69 58.83333 69 62.66667 69 66.5 zM80.5 66.5 L92 66.5 L92 55 L80.5 55 C80.5 58.83333 80.5 62.66667 80.5 66.5 zM11.5 66.5 L23 66.5 L23 55 L11.5 55 C11.5 58.83333 11.5 62.66667 11.5 66.5 zM23 66.5 L34.5 66.5 L34.5 55 L23 55 C23 58.83333 23 62.66667 23 66.5 zM34.5 66.5 L46 66.5 L46 55 L34.5 55 C34.5 58.83333 34.5 62.66667 34.5 66.5 zM0 66.5 L11.5 66.5 L11.5 55 L0 55 C0 58.83333 0 62.66667 0 66.5 zM46 55 L57.5 55 L57.5 43.5 L46 43.5 C46 47.33333 46 51.16667 46 55 zM57.5 55 L69 55 L69 43.5 L57.5 43.5 C57.5 47.33333 57.5 51.16667 57.5 55 zM69 55 L80.49999 55 L80.49999 43.5 L69 43.5 C69 47.33333 69 51.16667 69 55 zM80.49999 55 L91.99999 55 L91.99999 43.5 L80.49999 43.5 C80.49999 47.33333 80.49999 51.16667 80.49999 55 zM11.5 55 L23 55 L23 43.5 L11.5 43.5 C11.5 47.33333 11.5 51.16667 11.5 55 zM23 55 L34.5 55 L34.5 43.5 L23 43.5 C23 47.33333 23 51.16667 23 55 zM34.5 55 L46 55 L46 43.5 L34.5 43.5 C34.5 47.33333 34.5 51.16667 34.5 55 zM0 55 L11.5 55 L11.5 43.5 L0 43.5 C0 47.33333 0 51.16667 0 55 z" />
<glyph unicode="" horiz-adv-x="92" d="M46 78 L57.5 78 L57.5 66.5 L46 66.5 C46 70.33333 46 74.16667 46 78 zM57.5 78 L69 78 L69 66.5 L57.5 66.5 C57.5 70.33333 57.5 74.16667 57.5 78 zM69 78 L80.5 78 L80.5 66.5 L69 66.5 C69 70.33333 69 74.16667 69 78 zM80.5 78 L92 78 L92 66.5 L80.5 66.5 C80.5 70.33333 80.5 74.16667 80.5 78 zM11.5 78 L23 78 L23 66.5 L11.5 66.5 C11.5 70.33333 11.5 74.16667 11.5 78 zM23 78 L34.5 78 L34.5 66.5 L23 66.5 C23 70.33333 23 74.16667 23 78 zM34.5 78 L46 78 L46 66.5 L34.5 66.5 C34.5 70.33333 34.5 74.16667 34.5 78 zM0 78 L11.5 78 L11.5 66.5 L0 66.5 C0 70.33333 0 74.16667 0 78 zM46 66.5 L57.5 66.5 L57.5 55 L46 55 C46 58.83333 46 62.66666 46 66.5 zM57.5 66.5 L69 66.5 L69 55 L57.5 55 C57.5 58.83333 57.5 62.66666 57.5 66.5 zM69 66.5 L80.5 66.5 L80.5 55 L69 55 C69 58.83333 69 62.66666 69 66.5 zM80.5 66.5 L92 66.5 L92 55 L80.5 55 C80.5 58.83333 80.5 62.66666 80.5 66.5 zM11.5 66.5 L23 66.5 L23 55 L11.5 55 C11.5 58.83333 11.5 62.66666 11.5 66.5 zM23 66.5 L34.5 66.5 L34.5 55 L23 55 C23 58.83333 23 62.66666 23 66.5 zM34.5 66.5 L46 66.5 L46 55 L34.5 55 C34.5 58.83333 34.5 62.66666 34.5 66.5 zM0 66.5 L11.5 66.5 L11.5 55 L0 55 C0 58.83333 0 62.66666 0 66.5 zM46 55 L57.5 55 L57.5 43.5 L46 43.5 C46 47.33333 46 51.16666 46 55 zM57.5 55 L69 55 L69 43.5 L57.5 43.5 C57.5 47.33333 57.5 51.16666 57.5 55 zM69 55 L80.5 55 L80.5 43.5 L69 43.5 C69 47.33333 69 51.16666 69 55 zM80.5 55 L92 55 L92 43.5 L80.5 43.5 C80.5 47.33333 80.5 51.16666 80.5 55 zM11.5 55 L23 55 L23 43.5 L11.5 43.5 C11.5 47.33333 11.5 51.16666 11.5 55 zM23 55 L34.5 55 L34.5 43.5 L23 43.5 C23 47.33333 23 51.16666 23 55 zM34.5 55 L46 55 L46 43.5 L34.5 43.5 C34.5 47.33333 34.5 51.16666 34.5 55 zM0 55 L11.5 55 L11.5 43.5 L0 43.5 C0 47.33333 0 51.16666 0 55 z" />
<glyph unicode="" horiz-adv-x="92" d="M46 78 L57.5 78 L57.5 66.5 L46 66.5 C46 70.33333 46 74.16667 46 78 zM57.5 78 L69 78 L69 66.5 L57.5 66.5 C57.5 70.33333 57.5 74.16667 57.5 78 zM69 78 L80.5 78 L80.5 66.5 L69 66.5 C69 70.33333 69 74.16667 69 78 zM80.5 78 L92 78 L92 66.5 L80.5 66.5 C80.5 70.33333 80.5 74.16667 80.5 78 zM11.5 78 L23 78 L23 66.5 L11.5 66.5 C11.5 70.33333 11.5 74.16667 11.5 78 zM23 78 L34.5 78 L34.5 66.5 L23 66.5 C23 70.33333 23 74.16667 23 78 zM34.5 78 L46 78 L46 66.5 L34.5 66.5 C34.5 70.33333 34.5 74.16667 34.5 78 zM0 78 L11.5 78 L11.5 66.5 L0 66.5 C0 70.33333 0 74.16667 0 78 zM46 66.5 L57.5 66.5 L57.5 55 L46 55 C46 58.83333 46 62.66666 46 66.5 zM57.5 66.5 L69 66.5 L69 55 L57.5 55 C57.5 58.83333 57.5 62.66666 57.5 66.5 zM69 66.5 L80.5 66.5 L80.5 55 L69 55 C69 58.83333 69 62.66666 69 66.5 zM80.5 66.5 L92 66.5 L92 55 L80.5 55 C80.5 58.83333 80.5 62.66666 80.5 66.5 zM11.5 66.5 L23 66.5 L23 55 L11.5 55 C11.5 58.83333 11.5 62.66666 11.5 66.5 zM23 66.5 L34.5 66.5 L34.5 55 L23 55 C23 58.83333 23 62.66666 23 66.5 zM34.5 66.5 L46 66.5 L46 55 L34.5 55 C34.5 58.83333 34.5 62.66666 34.5 66.5 zM0 66.5 L11.5 66.5 L11.5 55 L0 55 C0 58.83333 0 62.66666 0 66.5 zM46 55 L57.5 55 L57.5 43.5 L46 43.5 C46 47.33333 46 51.16666 46 55 zM57.5 55 L69 55 L69 43.5 L57.5 43.5 C57.5 47.33333 57.5 51.16666 57.5 55 zM69 55 L80.5 55 L80.5 43.5 L69 43.5 C69 47.33333 69 51.16666 69 55 zM80.5 55 L92 55 L92 43.5 L80.5 43.5 C80.5 47.33333 80.5 51.16666 80.5 55 zM11.5 55 L23 55 L23 43.5 L11.5 43.5 C11.5 47.33333 11.5 51.16666 11.5 55 zM23 55 L34.5 55 L34.5 43.5 L23 43.5 C23 47.33333 23 51.16666 23 55 zM34.5 55 L46 55 L46 43.5 L34.5 43.5 C34.5 47.33333 34.5 51.16666 34.5 55 zM0 55 L11.5 55 L11.5 43.5 L0 43.5 C0 47.33333 0 51.16666 0 55 z" />
<glyph unicode="" horiz-adv-x="92" d="M46 78 L57.5 78 L57.5 66.5 L46 66.5 C46 70.33333 46 74.16667 46 78 zM57.5 78 L69 78 L69 66.5 L57.5 66.5 C57.5 70.33333 57.5 74.16667 57.5 78 zM69 78 L80.5 78 L80.5 66.5 L69 66.5 C69 70.33333 69 74.16667 69 78 zM80.5 78 L92 78 L92 66.5 L80.5 66.5 C80.5 70.33333 80.5 74.16667 80.5 78 zM11.5 78 L23 78 L23 66.5 L11.5 66.5 C11.5 70.33333 11.5 74.16667 11.5 78 zM23 78 L34.5 78 L34.5 66.5 L23 66.5 C23 70.33333 23 74.16667 23 78 zM34.5 78 L46 78 L46 66.5 L34.5 66.5 C34.5 70.33333 34.5 74.16667 34.5 78 zM0 78 L11.5 78 L11.5 66.5 L0 66.5 C0 70.33333 0 74.16667 0 78 zM46 66.5 L57.5 66.5 L57.5 55 L46 55 C46 58.83333 46 62.66666 46 66.5 zM57.5 66.5 L69 66.5 L69 55 L57.5 55 C57.5 58.83333 57.5 62.66666 57.5 66.5 zM69 66.5 L80.5 66.5 L80.5 55 L69 55 C69 58.83333 69 62.66666 69 66.5 zM80.5 66.5 L92 66.5 L92 55 L80.5 55 C80.5 58.83333 80.5 62.66666 80.5 66.5 zM11.5 66.5 L23 66.5 L23 55 L11.5 55 C11.5 58.83333 11.5 62.66666 11.5 66.5 zM23 66.5 L34.5 66.5 L34.5 55 L23 55 C23 58.83333 23 62.66666 23 66.5 zM34.5 66.5 L46 66.5 L46 55 L34.5 55 C34.5 58.83333 34.5 62.66666 34.5 66.5 zM0 66.5 L11.5 66.5 L11.5 55 L0 55 C0 58.83333 0 62.66666 0 66.5 zM46 55 L57.5 55 L57.5 43.5 L46 43.5 C46 47.33333 46 51.16666 46 55 zM57.5 55 L69 55 L69 43.5 L57.5 43.5 C57.5 47.33333 57.5 51.16666 57.5 55 zM69 55 L80.5 55 L80.5 43.5 L69 43.5 C69 47.33333 69 51.16666 69 55 zM80.5 55 L92 55 L92 43.5 L80.5 43.5 C80.5 47.33333 80.5 51.16666 80.5 55 zM11.5 55 L23 55 L23 43.5 L11.5 43.5 C11.5 47.33333 11.5 51.16666 11.5 55 zM23 55 L34.5 55 L34.5 43.5 L23 43.5 C23 47.33333 23 51.16666 23 55 zM34.5 55 L46 55 L46 43.5 L34.5 43.5 C34.5 47.33333 34.5 51.16666 34.5 55 zM0 55 L11.5 55 L11.5 43.5 L0 43.5 C0 47.33333 0 51.16666 0 55 z" />
<glyph unicode="" horiz-adv-x="92" d="M46 55 L57.5 55 L57.5 43.5 L46 43.5 C46 47.33333 46 51.16667 46 55 zM34.5 55 L46 55 L46 43.5 L34.5 43.5 C34.5 47.33333 34.5 51.16667 34.5 55 zM23 55 L34.5 55 L34.5 43.5 L23 43.5 C23 47.33333 23 51.16667 23 55 zM11.5 55 L23 55 L23 43.5 L11.5 43.5 C11.5 47.33333 11.5 51.16667 11.5 55 zM0 55 L11.5 55 L11.5 43.5 L0 43.5 C0 47.33333 0 51.16667 0 55 zM57.5 55 L69 55 L69 43.5 L57.5 43.5 C57.5 47.33333 57.5 51.16667 57.5 55 zM69 55 L80.5 55 L80.5 43.5 L69 43.5 C69 47.33333 69 51.16667 69 55 zM80.5 55 L92 55 L92 43.5 L80.5 43.5 C80.5 47.33333 80.5 51.16667 80.5 55 zM46 66.5 L57.5 66.5 L57.5 55 L46 55 C46 58.83333 46 62.66667 46 66.5 zM57.5 66.5 L69 66.5 L69 55 L57.5 55 C57.5 58.83333 57.5 62.66667 57.5 66.5 zM69 66.5 L80.5 66.5 L80.5 55 L69 55 C69 58.83333 69 62.66667 69 66.5 zM80.5 66.5 L91.99999 66.5 L91.99999 55 L80.5 55 C80.5 58.83333 80.5 62.66667 80.5 66.5 zM11.5 66.5 L23 66.5 L23 55 L11.5 55 C11.5 58.83333 11.5 62.66667 11.5 66.5 zM23 66.5 L34.5 66.5 L34.5 55 L23 55 C23 58.83333 23 62.66667 23 66.5 zM34.5 66.5 L46 66.5 L46 55 L34.5 55 C34.5 58.83333 34.5 62.66667 34.5 66.5 zM0 66.5 L11.5 66.5 L11.5 55 L0 55 C0 58.83333 0 62.66667 0 66.5 zM46 78 L57.5 78 L57.5 66.5 L46 66.5 C46 70.33333 46 74.16667 46 78 zM57.5 78 L68.99999 78 L68.99999 66.5 L57.5 66.5 C57.5 70.33333 57.5 74.16667 57.5 78 zM68.99999 78 L80.49999 78 L80.49999 66.5 L68.99999 66.5 C68.99999 70.33333 68.99999 74.16667 68.99999 78 zM80.49999 78 L91.99999 78 L91.99999 66.5 L80.49999 66.5 C80.49999 70.33333 80.49999 74.16667 80.49999 78 zM11.5 78 L23 78 L23 66.5 L11.5 66.5 C11.5 70.33333 11.5 74.16667 11.5 78 zM23 78 L34.5 78 L34.5 66.5 L23 66.5 C23 70.33333 23 74.16667 23 78 zM34.5 78 L46 78 L46 66.5 L34.5 66.5 C34.5 70.33333 34.5 74.16667 34.5 78 zM0 78 L11.5 78 L11.5 66.5 L0 66.5 C0 70.33333 0 74.16667 0 78 z" />
<glyph unicode="" horiz-adv-x="92" d="M46 55 L57.5 55 L57.5 43.5 L46 43.5 C46 47.33333 46 51.16667 46 55 zM34.5 55 L46 55 L46 43.5 L34.5 43.5 C34.5 47.33333 34.5 51.16667 34.5 55 zM23 55 L34.5 55 L34.5 43.5 L23 43.5 C23 47.33333 23 51.16667 23 55 zM11.5 55 L23 55 L23 43.5 L11.5 43.5 C11.5 47.33333 11.5 51.16667 11.5 55 zM0 55 L11.5 55 L11.5 43.5 L0 43.5 C0 47.33333 0 51.16667 0 55 zM57.5 55 L69 55 L69 43.5 L57.5 43.5 C57.5 47.33333 57.5 51.16667 57.5 55 zM69 55 L80.5 55 L80.5 43.5 L69 43.5 C69 47.33333 69 51.16667 69 55 zM80.5 55 L92 55 L92 43.5 L80.5 43.5 C80.5 47.33333 80.5 51.16667 80.5 55 zM46 66.5 L57.5 66.5 L57.5 55 L46 55 C46 58.83333 46 62.66667 46 66.5 zM57.5 66.5 L69 66.5 L69 55 L57.5 55 C57.5 58.83333 57.5 62.66667 57.5 66.5 zM69 66.5 L80.5 66.5 L80.5 55 L69 55 C69 58.83333 69 62.66667 69 66.5 zM80.5 66.5 L91.99999 66.5 L91.99999 55 L80.5 55 C80.5 58.83333 80.5 62.66667 80.5 66.5 zM11.5 66.5 L23 66.5 L23 55 L11.5 55 C11.5 58.83333 11.5 62.66667 11.5 66.5 zM23 66.5 L34.5 66.5 L34.5 55 L23 55 C23 58.83333 23 62.66667 23 66.5 zM34.5 66.5 L46 66.5 L46 55 L34.5 55 C34.5 58.83333 34.5 62.66667 34.5 66.5 zM0 66.5 L11.5 66.5 L11.5 55 L0 55 C0 58.83333 0 62.66667 0 66.5 zM46 78 L57.5 78 L57.5 66.5 L46 66.5 C46 70.33333 46 74.16667 46 78 zM57.5 78 L68.99999 78 L68.99999 66.5 L57.5 66.5 C57.5 70.33333 57.5 74.16667 57.5 78 zM68.99999 78 L80.49999 78 L80.49999 66.5 L68.99999 66.5 C68.99999 70.33333 68.99999 74.16667 68.99999 78 zM80.49999 78 L91.99999 78 L91.99999 66.5 L80.49999 66.5 C80.49999 70.33333 80.49999 74.16667 80.49999 78 zM11.5 78 L23 78 L23 66.5 L11.5 66.5 C11.5 70.33333 11.5 74.16667 11.5 78 zM23 78 L34.5 78 L34.5 66.5 L23 66.5 C23 70.33333 23 74.16667 23 78 zM34.5 78 L46 78 L46 66.5 L34.5 66.5 C34.5 70.33333 34.5 74.16667 34.5 78 zM0 78 L11.5 78 L11.5 66.5 L0 66.5 C0 70.33333 0 74.16667 0 78 z" />
<glyph unicode="" horiz-adv-x="92" d="M46 78 L57.5 78 L57.5 66.5 L46 66.5 C46 70.33333 46 74.16667 46 78 zM57.5 78 L69 78 L69 66.5 L57.5 66.5 C57.5 70.33333 57.5 74.16667 57.5 78 zM69 78 L80.5 78 L80.5 66.5 L69 66.5 C69 70.33333 69 74.16667 69 78 zM80.5 78 L92 78 L92 66.5 L80.5 66.5 C80.5 70.33333 80.5 74.16667 80.5 78 zM11.5 78 L23 78 L23 66.5 L11.5 66.5 C11.5 70.33333 11.5 74.16667 11.5 78 zM23 78 L34.5 78 L34.5 66.5 L23 66.5 C23 70.33333 23 74.16667 23 78 zM34.5 78 L46 78 L46 66.5 L34.5 66.5 C34.5 70.33333 34.5 74.16667 34.5 78 zM0 78 L11.5 78 L11.5 66.5 L0 66.5 C0 70.33333 0 74.16667 0 78 zM46 66.5 L57.5 66.5 L57.5 55 L46 55 C46 58.83333 46 62.66666 46 66.5 zM57.5 66.5 L69 66.5 L69 55 L57.5 55 C57.5 58.83333 57.5 62.66666 57.5 66.5 zM69 66.5 L80.5 66.5 L80.5 55 L69 55 C69 58.83333 69 62.66666 69 66.5 zM80.5 66.5 L92 66.5 L92 55 L80.5 55 C80.5 58.83333 80.5 62.66666 80.5 66.5 zM11.5 66.5 L23 66.5 L23 55 L11.5 55 C11.5 58.83333 11.5 62.66666 11.5 66.5 zM23 66.5 L34.5 66.5 L34.5 55 L23 55 C23 58.83333 23 62.66666 23 66.5 zM34.5 66.5 L46 66.5 L46 55 L34.5 55 C34.5 58.83333 34.5 62.66666 34.5 66.5 zM0 66.5 L11.5 66.5 L11.5 55 L0 55 C0 58.83333 0 62.66666 0 66.5 zM46 55 L57.5 55 L57.5 43.5 L46 43.5 C46 47.33333 46 51.16666 46 55 zM57.5 55 L69 55 L69 43.5 L57.5 43.5 C57.5 47.33333 57.5 51.16666 57.5 55 zM69 55 L80.5 55 L80.5 43.5 L69 43.5 C69 47.33333 69 51.16666 69 55 zM80.5 55 L92 55 L92 43.5 L80.5 43.5 C80.5 47.33333 80.5 51.16666 80.5 55 zM11.5 55 L23 55 L23 43.5 L11.5 43.5 C11.5 47.33333 11.5 51.16666 11.5 55 zM23 55 L34.5 55 L34.5 43.5 L23 43.5 C23 47.33333 23 51.16666 23 55 zM34.5 55 L46 55 L46 43.5 L34.5 43.5 C34.5 47.33333 34.5 51.16666 34.5 55 zM0 55 L11.5 55 L11.5 43.5 L0 43.5 C0 47.33333 0 51.16666 0 55 z" />
<glyph unicode="" horiz-adv-x="92" d="M46 78 L57.5 78 L57.5 66.5 L46 66.5 C46 70.33333 46 74.16667 46 78 zM57.5 78 L69 78 L69 66.5 L57.5 66.5 C57.5 70.33333 57.5 74.16667 57.5 78 zM69 78 L80.5 78 L80.5 66.5 L69 66.5 C69 70.33333 69 74.16667 69 78 zM80.5 78 L92 78 L92 66.5 L80.5 66.5 C80.5 70.33333 80.5 74.16667 80.5 78 zM11.5 78 L23 78 L23 66.5 L11.5 66.5 C11.5 70.33333 11.5 74.16667 11.5 78 zM23 78 L34.5 78 L34.5 66.5 L23 66.5 C23 70.33333 23 74.16667 23 78 zM34.5 78 L46 78 L46 66.5 L34.5 66.5 C34.5 70.33333 34.5 74.16667 34.5 78 zM0 78 L11.5 78 L11.5 66.5 L0 66.5 C0 70.33333 0 74.16667 0 78 zM46 66.5 L57.5 66.5 L57.5 55 L46 55 C46 58.83333 46 62.66666 46 66.5 zM57.5 66.5 L69 66.5 L69 55 L57.5 55 C57.5 58.83333 57.5 62.66666 57.5 66.5 zM69 66.5 L80.5 66.5 L80.5 55 L69 55 C69 58.83333 69 62.66666 69 66.5 zM80.5 66.5 L92 66.5 L92 55 L80.5 55 C80.5 58.83333 80.5 62.66666 80.5 66.5 zM11.5 66.5 L23 66.5 L23 55 L11.5 55 C11.5 58.83333 11.5 62.66666 11.5 66.5 zM23 66.5 L34.5 66.5 L34.5 55 L23 55 C23 58.83333 23 62.66666 23 66.5 zM34.5 66.5 L46 66.5 L46 55 L34.5 55 C34.5 58.83333 34.5 62.66666 34.5 66.5 zM0 66.5 L11.5 66.5 L11.5 55 L0 55 C0 58.83333 0 62.66666 0 66.5 zM46 55 L57.5 55 L57.5 43.5 L46 43.5 C46 47.33333 46 51.16666 46 55 zM57.5 55 L69 55 L69 43.5 L57.5 43.5 C57.5 47.33333 57.5 51.16666 57.5 55 zM69 55 L80.5 55 L80.5 43.5 L69 43.5 C69 47.33333 69 51.16666 69 55 zM80.5 55 L92 55 L92 43.5 L80.5 43.5 C80.5 47.33333 80.5 51.16666 80.5 55 zM11.5 55 L23 55 L23 43.5 L11.5 43.5 C11.5 47.33333 11.5 51.16666 11.5 55 zM23 55 L34.5 55 L34.5 43.5 L23 43.5 C23 47.33333 23 51.16666 23 55 zM34.5 55 L46 55 L46 43.5 L34.5 43.5 C34.5 47.33333 34.5 51.16666 34.5 55 zM0 55 L11.5 55 L11.5 43.5 L0 43.5 C0 47.33333 0 51.16666 0 55 z" />
<glyph unicode="" horiz-adv-x="92" d="M46 78 L57.5 78 L57.5 66.5 L46 66.5 C46 70.33333 46 74.16667 46 78 zM57.5 78 L69 78 L69 66.5 L57.5 66.5 C57.5 70.33333 57.5 74.16667 57.5 78 zM69 78 L80.5 78 L80.5 66.5 L69 66.5 C69 70.33333 69 74.16667 69 78 zM80.5 78 L92 78 L92 66.5 L80.5 66.5 C80.5 70.33333 80.5 74.16667 80.5 78 zM11.5 78 L23 78 L23 66.5 L11.5 66.5 C11.5 70.33333 11.5 74.16667 11.5 78 zM23 78 L34.5 78 L34.5 66.5 L23 66.5 C23 70.33333 23 74.16667 23 78 zM34.5 78 L46 78 L46 66.5 L34.5 66.5 C34.5 70.33333 34.5 74.16667 34.5 78 zM0 78 L11.5 78 L11.5 66.5 L0 66.5 C0 70.33333 0 74.16667 0 78 zM46 66.5 L57.5 66.5 L57.5 55 L46 55 C46 58.83333 46 62.66666 46 66.5 zM57.5 66.5 L69 66.5 L69 55 L57.5 55 C57.5 58.83333 57.5 62.66666 57.5 66.5 zM69 66.5 L80.5 66.5 L80.5 55 L69 55 C69 58.83333 69 62.66666 69 66.5 zM80.5 66.5 L92 66.5 L92 55 L80.5 55 C80.5 58.83333 80.5 62.66666 80.5 66.5 zM11.5 66.5 L23 66.5 L23 55 L11.5 55 C11.5 58.83333 11.5 62.66666 11.5 66.5 zM23 66.5 L34.5 66.5 L34.5 55 L23 55 C23 58.83333 23 62.66666 23 66.5 zM34.5 66.5 L46 66.5 L46 55 L34.5 55 C34.5 58.83333 34.5 62.66666 34.5 66.5 zM0 66.5 L11.5 66.5 L11.5 55 L0 55 C0 58.83333 0 62.66666 0 66.5 zM46 55 L57.5 55 L57.5 43.5 L46 43.5 C46 47.33333 46 51.16666 46 55 zM57.5 55 L69 55 L69 43.5 L57.5 43.5 C57.5 47.33333 57.5 51.16666 57.5 55 zM69 55 L80.5 55 L80.5 43.5 L69 43.5 C69 47.33333 69 51.16666 69 55 zM80.5 55 L92 55 L92 43.5 L80.5 43.5 C80.5 47.33333 80.5 51.16666 80.5 55 zM11.5 55 L23 55 L23 43.5 L11.5 43.5 C11.5 47.33333 11.5 51.16666 11.5 55 zM23 55 L34.5 55 L34.5 43.5 L23 43.5 C23 47.33333 23 51.16666 23 55 zM34.5 55 L46 55 L46 43.5 L34.5 43.5 C34.5 47.33333 34.5 51.16666 34.5 55 zM0 55 L11.5 55 L11.5 43.5 L0 43.5 C0 47.33333 0 51.16666 0 55 z" />
<glyph unicode="" horiz-adv-x="92" d="M46 78 L57.5 78 L57.5 66.5 L46 66.5 C46 70.33333 46 74.16667 46 78 zM57.5 78 L68.99999 78 L68.99999 66.5 L57.5 66.5 C57.5 70.33333 57.5 74.16667 57.5 78 zM68.99999 78 L80.49999 78 L80.49999 66.5 L68.99999 66.5 C68.99999 70.33333 68.99999 74.16667 68.99999 78 zM80.49999 78 L91.99999 78 L91.99999 66.5 L80.49999 66.5 C80.49999 70.33333 80.49999 74.16667 80.49999 78 zM11.5 78 L23 78 L23 66.5 L11.5 66.5 C11.5 70.33333 11.5 74.16667 11.5 78 zM23 78 L34.5 78 L34.5 66.5 L23 66.5 C23 70.33333 23 74.16667 23 78 zM34.5 78 L46 78 L46 66.5 L34.5 66.5 C34.5 70.33333 34.5 74.16667 34.5 78 zM0 78 L11.5 78 L11.5 66.5 L0 66.5 C0 70.33333 0 74.16667 0 78 zM46 66.5 L57.5 66.5 L57.5 55 L46 55 C46 58.83333 46 62.66667 46 66.5 zM57.5 66.5 L69 66.5 L69 55 L57.5 55 C57.5 58.83333 57.5 62.66667 57.5 66.5 zM69 66.5 L80.5 66.5 L80.5 55 L69 55 C69 58.83333 69 62.66667 69 66.5 zM80.5 66.5 L92 66.5 L92 55 L80.5 55 C80.5 58.83333 80.5 62.66667 80.5 66.5 zM11.5 66.5 L23 66.5 L23 55 L11.5 55 C11.5 58.83333 11.5 62.66667 11.5 66.5 zM23 66.5 L34.5 66.5 L34.5 55 L23 55 C23 58.83333 23 62.66667 23 66.5 zM34.5 66.5 L46 66.5 L46 55 L34.5 55 C34.5 58.83333 34.5 62.66667 34.5 66.5 zM0 66.5 L11.5 66.5 L11.5 55 L0 55 C0 58.83333 0 62.66667 0 66.5 zM46 55 L57.5 55 L57.5 43.5 L46 43.5 C46 47.33333 46 51.16667 46 55 zM57.5 55 L68.99999 55 L68.99999 43.5 L57.5 43.5 C57.5 47.33333 57.5 51.16667 57.5 55 zM68.99999 55 L80.49999 55 L80.49999 43.5 L68.99999 43.5 C68.99999 47.33333 68.99999 51.16667 68.99999 55 zM80.49999 55 L91.99999 55 L91.99999 43.5 L80.49999 43.5 C80.49999 47.33333 80.49999 51.16667 80.49999 55 zM11.5 55 L23 55 L23 43.5 L11.5 43.5 C11.5 47.33333 11.5 51.16667 11.5 55 zM23 55 L34.5 55 L34.5 43.5 L23 43.5 C23 47.33333 23 51.16667 23 55 zM34.5 55 L46 55 L46 43.5 L34.5 43.5 C34.5 47.33333 34.5 51.16667 34.5 55 zM0 55 L11.5 55 L11.5 43.5 L0 43.5 C0 47.33333 0 51.16667 0 55 z" />
</font>
</svg>
