<?xml version="1.0" standalone="no"?>
<!DOCTYPE svg PUBLIC "-//W3C//DTD SVG 1.1//EN" "http://www.w3.org/Graphics/SVG/1.1/DTD/svg11.dtd" >
<!--
2019-3-18: Created with FontForge (http://fontforge.org)
-->
<svg xmlns="http://www.w3.org/2000/svg" xmlns:xlink="http://www.w3.org/1999/xlink" version="1.1">
<metadata>
Created by FontForge 20170730 at Sat Mar 23 19:21:41 2019
 By Jens Hinrichs
Copyright (c) 2019, Jens T. Hinrichs
LeporellionNewMorse by Jens T. Hinrichs is licensed under 
a Creative Commons Attribution-NonCommercial-ShareAlike 4.0 International License.
Based on a work at sciencefiltr.com.
Permissions beyond the scope of this license may be available at github.com/scifiltr. 

</metadata>
<defs>
<font id="LeporellionNewMorse" horiz-adv-x="1000" >
  <font-face 
    font-family="Leporellion New Morse"
    font-weight="400"
    font-stretch="normal"
    units-per-em="1000"
    panose-1="2 0 5 9 0 0 0 0 0 0"
    ascent="800"
    descent="-200"
    x-height="500"
    cap-height="505.5"
    bbox="47.5 -174.5 952.5 747.5"
    underline-thickness="50"
    underline-position="-100"
    unicode-range="U+0021-25CA"
  />
    <missing-glyph />
    <glyph glyph-name="exclam" unicode="!" 
d="M427.5 650.5h145v-145h-145v145zM422.5 653v-150v-2.5h2.5h150h2.5v2.5v150v2.5h-2.5h-150h-2.5v-2.5zM727.5 650.5h145v-295h-145v295zM722.5 653v-300v-2.5h2.5h150h2.5v2.5v300v2.5h-2.5h-150h-2.5v-2.5zM427.5 350.5h145v-145h-145v145zM422.5 353v-150v-2.5h2.5h150
h2.5v2.5v150v2.5h-2.5h-150h-2.5v-2.5zM127.5 200.5h145v-295h-145v295zM122.5 203v-300v-2.5h2.5h150h2.5v2.5v300v2.5h-2.5h-150h-2.5v-2.5zM427.5 50.5h145v-145h-145v145zM422.5 53v-150v-2.5h2.5h150h2.5v2.5v150v2.5h-2.5h-150h-2.5v-2.5zM727.5 650.5h145v-295h-145
v295zM722.5 653v-300v-2.5h2.5h150h2.5v2.5v300v2.5h-2.5h-150h-2.5v-2.5zM427.5 350.5h145v-145h-145v145zM422.5 353v-150v-2.5h2.5h150h2.5v2.5v150v2.5h-2.5h-150h-2.5v-2.5zM127.5 200.5h145v-295h-145v295zM122.5 203v-300v-2.5h2.5h150h2.5v2.5v300v2.5h-2.5h-150
h-2.5v-2.5zM427.5 50.5h145v-145h-145v145zM422.5 53v-150v-2.5h2.5h150h2.5v2.5v150v2.5h-2.5h-150h-2.5v-2.5zM427.5 350.5h145v-145h-145v145zM422.5 353v-150v-2.5h2.5h150h2.5v2.5v150v2.5h-2.5h-150h-2.5v-2.5zM127.5 200.5h145v-295h-145v295zM122.5 203v-300v-2.5
h2.5h150h2.5v2.5v300v2.5h-2.5h-150h-2.5v-2.5zM427.5 50.5h145v-145h-145v145zM422.5 53v-150v-2.5h2.5h150h2.5v2.5v150v2.5h-2.5h-150h-2.5v-2.5zM127.5 200.5h145v-295h-145v295zM122.5 203v-300v-2.5h2.5h150h2.5v2.5v300v2.5h-2.5h-150h-2.5v-2.5zM427.5 50.5h145
v-145h-145v145zM422.5 53v-150v-2.5h2.5h150h2.5v2.5v150v2.5h-2.5h-150h-2.5v-2.5zM427.5 50.5h145v-145h-145v145zM422.5 53v-150v-2.5h2.5h150h2.5v2.5v150v2.5h-2.5h-150h-2.5v-2.5z" />
    <glyph glyph-name="exclamdown" unicode="&#xa1;" 
d="M425 653h150v-150h-150v150zM725 653h150v-300h-150v300zM425 353h150v-150h-150v150zM125 203h150v-300h-150v300zM425 53h150v-150h-150v150z" />
    <glyph glyph-name="logicalnot" unicode="&#xac;" 
d="M125 653h300v-150h-300v150zM575 653h150v-150h-150v150zM275 353h150v-150h-150v150zM575 353h150v-150h-150v150zM275 53h150v-150h-150v150zM575 53h300v-150h-300v150z" />
    <glyph glyph-name="one" unicode="1" 
d="M425 650h150v-300h-150v300zM725 650h150v-300h-150v300zM125 500h150v-150h-150v150zM125 200h150v-300h-150v300zM425 200h150v-300h-150v300z" />
    <glyph glyph-name="two" unicode="2" 
d="M425 653h150v-300h-150v300zM725 653h150v-300h-150v300zM125 353h150v-150h-150v150zM425 203h150v-300h-150v300zM125 53h150v-150h-150v150z" />
    <glyph glyph-name="three" unicode="3" 
d="M425 503h150v-150h-150v150zM725 503h150v-300h-150v300zM125 353h150v-150h-150v150zM425 203h150v-300h-150v300zM125 53h150v-150h-150v150z" />
    <glyph glyph-name="four" unicode="4" 
d="M125 353h150v-150h-150v150zM425 353h150v-150h-150v150zM725 353h150v-300h-150v300zM125 53h150v-150h-150v150zM425 53h150v-150h-150v150z" />
    <glyph glyph-name="five" unicode="5" 
d="M125 503h150v-150h-150v150zM425 503h150v-150h-150v150zM725 503h150v-150h-150v150zM125 203h150v-150h-150v150zM425 203h150v-150h-150v150z" />
    <glyph glyph-name="six" unicode="6" 
d="M425 350h150v-150h-150v150zM725 350h150v-150h-150v150zM125 200h150v-300h-150v300zM425 50h150v-150h-150v150zM725 50h150v-150h-150v150z" />
    <glyph glyph-name="seven" unicode="7" 
d="M425 500h150v-300h-150v300zM725 500h150v-150h-150v150zM125 200h150v-300h-150v300zM725 200h150v-150h-150v150zM425 50h150v-150h-150v150z" />
    <glyph glyph-name="eight" unicode="8" 
d="M425 650h150v-300h-150v300zM725 650h150v-150h-150v150zM725 350h150v-150h-150v150zM125 200h150v-300h-150v300zM425 200h150v-300h-150v300z" />
    <glyph glyph-name="nine" unicode="9" 
d="M125 650h150v-300h-150v300zM425 650h150v-300h-150v300zM725 650h150v-150h-150v150zM125 200h150v-300h-150v300zM425 200h150v-300h-150v300z" />
    <glyph glyph-name="zero" unicode="0" 
d="M425 650h150v-300h-150v300zM725 650h150v-300h-150v300zM125 200h150v-300h-150v300zM425 200h150v-300h-150v300zM725 200h150v-300h-150v300z" />
    <glyph glyph-name="germandbls" unicode="&#xdf;" 
d="M125 650h150v-150h-150v150zM425 650h150v-300h-150v300zM725 650h150v-150h-150v150zM125 350h150v-150h-150v150zM725 350h150v-150h-150v150zM425 200h150v-300h-150v300zM125 50h150v-150h-150v150z" />
    <glyph glyph-name="asciicircum" unicode="^" 
d="M127.5 497.5h145v-295h-145v295zM122.5 500v-300v-2.5h2.5h150h2.5v2.5v300v2.5h-2.5h-150h-2.5v-2.5zM427.5 497.5h145v-295h-145v295zM422.5 500v-300v-2.5h2.5h150h2.5v2.5v300v2.5h-2.5h-150h-2.5v-2.5zM727.5 497.5h145v-295h-145v295zM722.5 500v-300v-2.5h2.5h150
h2.5v2.5v300v2.5h-2.5h-150h-2.5v-2.5zM127.5 47.5h145v-145h-145v145zM122.5 50v-150v-2.5h2.5h150h2.5v2.5v150v2.5h-2.5h-150h-2.5v-2.5zM427.5 47.5h145v-145h-145v145zM422.5 50v-150v-2.5h2.5h150h2.5v2.5v150v2.5h-2.5h-150h-2.5v-2.5zM427.5 497.5h145v-295h-145
v295zM422.5 500v-300v-2.5h2.5h150h2.5v2.5v300v2.5h-2.5h-150h-2.5v-2.5zM727.5 497.5h145v-295h-145v295zM722.5 500v-300v-2.5h2.5h150h2.5v2.5v300v2.5h-2.5h-150h-2.5v-2.5zM127.5 47.5h145v-145h-145v145zM122.5 50v-150v-2.5h2.5h150h2.5v2.5v150v2.5h-2.5h-150h-2.5
v-2.5zM427.5 47.5h145v-145h-145v145zM422.5 50v-150v-2.5h2.5h150h2.5v2.5v150v2.5h-2.5h-150h-2.5v-2.5zM727.5 497.5h145v-295h-145v295zM722.5 500v-300v-2.5h2.5h150h2.5v2.5v300v2.5h-2.5h-150h-2.5v-2.5zM127.5 47.5h145v-145h-145v145zM122.5 50v-150v-2.5h2.5h150
h2.5v2.5v150v2.5h-2.5h-150h-2.5v-2.5zM427.5 47.5h145v-145h-145v145zM422.5 50v-150v-2.5h2.5h150h2.5v2.5v150v2.5h-2.5h-150h-2.5v-2.5zM127.5 47.5h145v-145h-145v145zM122.5 50v-150v-2.5h2.5h150h2.5v2.5v150v2.5h-2.5h-150h-2.5v-2.5zM427.5 47.5h145v-145h-145v145
zM422.5 50v-150v-2.5h2.5h150h2.5v2.5v150v2.5h-2.5h-150h-2.5v-2.5zM427.5 47.5h145v-145h-145v145zM422.5 50v-150v-2.5h2.5h150h2.5v2.5v150v2.5h-2.5h-150h-2.5v-2.5z" />
    <glyph glyph-name="degree" unicode="&#xb0;" 
d="M427.5 647.5h145v-295h-145v295zM422.5 650v-300v-2.5h2.5h150h2.5v2.5v300v2.5h-2.5h-150h-2.5v-2.5zM727.5 647.5h145v-295h-145v295zM722.5 650v-300v-2.5h2.5h150h2.5v2.5v300v2.5h-2.5h-150h-2.5v-2.5zM127.5 197.5h145v-295h-145v295zM122.5 200v-300v-2.5h2.5h150
h2.5v2.5v300v2.5h-2.5h-150h-2.5v-2.5zM427.5 197.5h145v-295h-145v295zM422.5 200v-300v-2.5h2.5h150h2.5v2.5v300v2.5h-2.5h-150h-2.5v-2.5zM727.5 197.5h145v-295h-145v295zM722.5 200v-300v-2.5h2.5h150h2.5v2.5v300v2.5h-2.5h-150h-2.5v-2.5zM727.5 647.5h145v-295
h-145v295zM722.5 650v-300v-2.5h2.5h150h2.5v2.5v300v2.5h-2.5h-150h-2.5v-2.5zM127.5 197.5h145v-295h-145v295zM122.5 200v-300v-2.5h2.5h150h2.5v2.5v300v2.5h-2.5h-150h-2.5v-2.5zM427.5 197.5h145v-295h-145v295zM422.5 200v-300v-2.5h2.5h150h2.5v2.5v300v2.5h-2.5
h-150h-2.5v-2.5zM727.5 197.5h145v-295h-145v295zM722.5 200v-300v-2.5h2.5h150h2.5v2.5v300v2.5h-2.5h-150h-2.5v-2.5zM127.5 197.5h145v-295h-145v295zM122.5 200v-300v-2.5h2.5h150h2.5v2.5v300v2.5h-2.5h-150h-2.5v-2.5zM427.5 197.5h145v-295h-145v295zM422.5 200v-300
v-2.5h2.5h150h2.5v2.5v300v2.5h-2.5h-150h-2.5v-2.5zM727.5 197.5h145v-295h-145v295zM722.5 200v-300v-2.5h2.5h150h2.5v2.5v300v2.5h-2.5h-150h-2.5v-2.5zM427.5 197.5h145v-295h-145v295zM422.5 200v-300v-2.5h2.5h150h2.5v2.5v300v2.5h-2.5h-150h-2.5v-2.5zM727.5 197.5
h145v-295h-145v295zM722.5 200v-300v-2.5h2.5h150h2.5v2.5v300v2.5h-2.5h-150h-2.5v-2.5zM727.5 197.5h145v-295h-145v295zM722.5 200v-300v-2.5h2.5h150h2.5v2.5v300v2.5h-2.5h-150h-2.5v-2.5z" />
    <glyph glyph-name="quotedbl" unicode="&#x22;" 
d="M273 728h150v-150h-150v150zM573 728h150v-150h-150v150zM273 428h150v-300h-150v300zM573 428h150v-300h-150v300zM273 -22h150v-150h-150v150zM573 -22h150v-150h-150v150z" />
    <glyph glyph-name="section" unicode="&#xa7;" 
d="M125 500h150v-150h-150v150zM425 500h150v-150h-150v150zM725 500h150v-150h-150v150zM125 200h150v-300h-150v300zM425 200h150v-300h-150v300zM725 200h150v-150h-150v150z" />
    <glyph glyph-name="paragraph" unicode="&#xb6;" 
d="M277.5 500.5h145v-145h-145v145zM272.5 503v-150v-2.5h2.5h150h2.5v2.5v150v2.5h-2.5h-150h-2.5v-2.5zM427.5 350.5h145v-145h-145v145zM422.5 353v-150v-2.5h2.5h150h2.5v2.5v150v2.5h-2.5h-150h-2.5v-2.5zM577.5 200.5h145v-145h-145v145zM572.5 203v-150v-2.5h2.5h150
h2.5v2.5v150v2.5h-2.5h-150h-2.5v-2.5zM427.5 350.5h145v-145h-145v145zM422.5 353v-150v-2.5h2.5h150h2.5v2.5v150v2.5h-2.5h-150h-2.5v-2.5zM577.5 200.5h145v-145h-145v145zM572.5 203v-150v-2.5h2.5h150h2.5v2.5v150v2.5h-2.5h-150h-2.5v-2.5zM577.5 200.5h145v-145
h-145v145zM572.5 203v-150v-2.5h2.5h150h2.5v2.5v150v2.5h-2.5h-150h-2.5v-2.5z" />
    <glyph glyph-name="numbersign" unicode="#" 
d="M125 745h150v-300h-150v300zM425 745h150v-150h-150v150zM725 745h150v-300h-150v300zM425 445h150v-300h-150v300zM125 295h150v-150h-150v150zM125 -5h150v-150h-150v150zM425 -5h150v-150h-150v150z" />
    <glyph glyph-name="percent" unicode="%" 
d="M275 653h150v-150h-150v150zM575 653h150v-300h-150v300zM275 353h150v-150h-150v150zM575 203h150v-150h-150v150zM275 53h150v-150h-150v150z" />
    <glyph glyph-name="ampersand" unicode="&#x26;" 
d="M125 500h150v-150h-150v150zM425 500h150v-150h-150v150zM725 500h150v-150h-150v150zM125 200h150v-300h-150v300zM425 200h150v-300h-150v300z" />
    <glyph glyph-name="slash" unicode="/" 
d="M125 500h150v-300h-150v300zM425 500h150v-150h-150v150zM725 500h150v-150h-150v150zM425 200h150v-300h-150v300zM125 50h150v-150h-150v150z" />
    <glyph glyph-name="parenleft" unicode="(" 
d="M425 500h150v-150h-150v150zM725 500h150v-300h-150v300zM125 200h150v-300h-150v300zM425 200h150v-300h-150v300zM725 50h150v-150h-150v150z" />
    <glyph glyph-name="parenright" unicode=")" 
d="M425 650h150v-300h-150v300zM725 650h150v-150h-150v150zM125 500h150v-300h-150v300zM725 350h150v-300h-150v300zM425 200h150v-300h-150v300zM125 50h150v-150h-150v150z" />
    <glyph glyph-name="equal" unicode="=" 
d="M500 653h150v-150h-150v150zM800 653h150v-300h-150v300zM500 353h150v-150h-150v150zM50 53h300v-150h-300v150zM500 53h150v-150h-150v150z" />
    <glyph glyph-name="question" unicode="?" 
d="M425 650h150v-300h-150v300zM725 650h150v-150h-150v150zM125 350h150v-150h-150v150zM725 350h150v-150h-150v150zM425 200h150v-300h-150v300zM125 50h150v-150h-150v150z" />
    <glyph glyph-name="bracketleft" unicode="[" 
d="M499 500h150v-150h-150v150zM799 500h150v-300h-150v300zM499 200h150v-300h-150v300zM799 50h150v-150h-150v150zM50 49h300v-150h-300v150z" />
    <glyph glyph-name="bracketright" unicode="]" 
d="M499 650h150v-300h-150v300zM799 650h150v-150h-150v150zM49 350h300v-150h-300v150zM799 350h150v-300h-150v300zM499 200h150v-300h-150v300zM199 50h150v-150h-150v150z" />
    <glyph glyph-name="bar" unicode="|" 
d="M277.5 350.5h145v-145h-145v145zM272.5 353v-150v-2.5h2.5h150h2.5v2.5v150v2.5h-2.5h-150h-2.5v-2.5zM577.5 350.5h145v-145h-145v145zM572.5 353v-150v-2.5h2.5h150h2.5v2.5v150v2.5h-2.5h-150h-2.5v-2.5zM577.5 350.5h145v-145h-145v145zM572.5 353v-150v-2.5h2.5h150
h2.5v2.5v150v2.5h-2.5h-150h-2.5v-2.5z" />
    <glyph glyph-name="backslash" unicode="\" 
d="M127.5 497.5h145v-295h-145v295zM122.5 500v-300v-2.5h2.5h150h2.5v2.5v300v2.5h-2.5h-150h-2.5v-2.5zM427.5 497.5h145v-145h-145v145zM422.5 500v-150v-2.5h2.5h150h2.5v2.5v150v2.5h-2.5h-150h-2.5v-2.5zM727.5 497.5h145v-145h-145v145zM722.5 500v-150v-2.5h2.5h150
h2.5v2.5v150v2.5h-2.5h-150h-2.5v-2.5zM427.5 197.5h145v-295h-145v295zM422.5 200v-300v-2.5h2.5h150h2.5v2.5v300v2.5h-2.5h-150h-2.5v-2.5zM127.5 47.5h145v-145h-145v145zM122.5 50v-150v-2.5h2.5h150h2.5v2.5v150v2.5h-2.5h-150h-2.5v-2.5zM427.5 497.5h145v-145h-145
v145zM422.5 500v-150v-2.5h2.5h150h2.5v2.5v150v2.5h-2.5h-150h-2.5v-2.5zM727.5 497.5h145v-145h-145v145zM722.5 500v-150v-2.5h2.5h150h2.5v2.5v150v2.5h-2.5h-150h-2.5v-2.5zM427.5 197.5h145v-295h-145v295zM422.5 200v-300v-2.5h2.5h150h2.5v2.5v300v2.5h-2.5h-150
h-2.5v-2.5zM127.5 47.5h145v-145h-145v145zM122.5 50v-150v-2.5h2.5h150h2.5v2.5v150v2.5h-2.5h-150h-2.5v-2.5zM727.5 497.5h145v-145h-145v145zM722.5 500v-150v-2.5h2.5h150h2.5v2.5v150v2.5h-2.5h-150h-2.5v-2.5zM427.5 197.5h145v-295h-145v295zM422.5 200v-300v-2.5
h2.5h150h2.5v2.5v300v2.5h-2.5h-150h-2.5v-2.5zM127.5 47.5h145v-145h-145v145zM122.5 50v-150v-2.5h2.5h150h2.5v2.5v150v2.5h-2.5h-150h-2.5v-2.5zM427.5 197.5h145v-295h-145v295zM422.5 200v-300v-2.5h2.5h150h2.5v2.5v300v2.5h-2.5h-150h-2.5v-2.5zM127.5 47.5h145
v-145h-145v145zM122.5 50v-150v-2.5h2.5h150h2.5v2.5v150v2.5h-2.5h-150h-2.5v-2.5zM127.5 47.5h145v-145h-145v145zM122.5 50v-150v-2.5h2.5h150h2.5v2.5v150v2.5h-2.5h-150h-2.5v-2.5z" />
    <glyph glyph-name="braceleft" unicode="{" 
d="M427.5 497.5h145v-145h-145v145zM422.5 500v-150v-2.5h2.5h150h2.5v2.5v150v2.5h-2.5h-150h-2.5v-2.5zM727.5 497.5h145v-295h-145v295zM722.5 500v-300v-2.5h2.5h150h2.5v2.5v300v2.5h-2.5h-150h-2.5v-2.5zM127.5 197.5h145v-295h-145v295zM122.5 200v-300v-2.5h2.5h150
h2.5v2.5v300v2.5h-2.5h-150h-2.5v-2.5zM427.5 197.5h145v-295h-145v295zM422.5 200v-300v-2.5h2.5h150h2.5v2.5v300v2.5h-2.5h-150h-2.5v-2.5zM727.5 47.5h145v-145h-145v145zM722.5 50v-150v-2.5h2.5h150h2.5v2.5v150v2.5h-2.5h-150h-2.5v-2.5zM727.5 497.5h145v-295h-145
v295zM722.5 500v-300v-2.5h2.5h150h2.5v2.5v300v2.5h-2.5h-150h-2.5v-2.5zM127.5 197.5h145v-295h-145v295zM122.5 200v-300v-2.5h2.5h150h2.5v2.5v300v2.5h-2.5h-150h-2.5v-2.5zM427.5 197.5h145v-295h-145v295zM422.5 200v-300v-2.5h2.5h150h2.5v2.5v300v2.5h-2.5h-150
h-2.5v-2.5zM727.5 47.5h145v-145h-145v145zM722.5 50v-150v-2.5h2.5h150h2.5v2.5v150v2.5h-2.5h-150h-2.5v-2.5zM127.5 197.5h145v-295h-145v295zM122.5 200v-300v-2.5h2.5h150h2.5v2.5v300v2.5h-2.5h-150h-2.5v-2.5zM427.5 197.5h145v-295h-145v295zM422.5 200v-300v-2.5
h2.5h150h2.5v2.5v300v2.5h-2.5h-150h-2.5v-2.5zM727.5 47.5h145v-145h-145v145zM722.5 50v-150v-2.5h2.5h150h2.5v2.5v150v2.5h-2.5h-150h-2.5v-2.5zM427.5 197.5h145v-295h-145v295zM422.5 200v-300v-2.5h2.5h150h2.5v2.5v300v2.5h-2.5h-150h-2.5v-2.5zM727.5 47.5h145
v-145h-145v145zM722.5 50v-150v-2.5h2.5h150h2.5v2.5v150v2.5h-2.5h-150h-2.5v-2.5zM727.5 47.5h145v-145h-145v145zM722.5 50v-150v-2.5h2.5h150h2.5v2.5v150v2.5h-2.5h-150h-2.5v-2.5z" />
    <glyph glyph-name="braceright" unicode="}" 
d="M427.5 647.5h145v-295h-145v295zM422.5 650v-300v-2.5h2.5h150h2.5v2.5v300v2.5h-2.5h-150h-2.5v-2.5zM727.5 647.5h145v-145h-145v145zM722.5 650v-150v-2.5h2.5h150h2.5v2.5v150v2.5h-2.5h-150h-2.5v-2.5zM127.5 497.5h145v-295h-145v295zM122.5 500v-300v-2.5h2.5h150
h2.5v2.5v300v2.5h-2.5h-150h-2.5v-2.5zM727.5 347.5h145v-295h-145v295zM722.5 350v-300v-2.5h2.5h150h2.5v2.5v300v2.5h-2.5h-150h-2.5v-2.5zM427.5 197.5h145v-295h-145v295zM422.5 200v-300v-2.5h2.5h150h2.5v2.5v300v2.5h-2.5h-150h-2.5v-2.5zM127.5 47.5h145v-145h-145
v145zM122.5 50v-150v-2.5h2.5h150h2.5v2.5v150v2.5h-2.5h-150h-2.5v-2.5zM727.5 647.5h145v-145h-145v145zM722.5 650v-150v-2.5h2.5h150h2.5v2.5v150v2.5h-2.5h-150h-2.5v-2.5zM127.5 497.5h145v-295h-145v295zM122.5 500v-300v-2.5h2.5h150h2.5v2.5v300v2.5h-2.5h-150
h-2.5v-2.5zM727.5 347.5h145v-295h-145v295zM722.5 350v-300v-2.5h2.5h150h2.5v2.5v300v2.5h-2.5h-150h-2.5v-2.5zM427.5 197.5h145v-295h-145v295zM422.5 200v-300v-2.5h2.5h150h2.5v2.5v300v2.5h-2.5h-150h-2.5v-2.5zM127.5 47.5h145v-145h-145v145zM122.5 50v-150v-2.5
h2.5h150h2.5v2.5v150v2.5h-2.5h-150h-2.5v-2.5zM127.5 497.5h145v-295h-145v295zM122.5 500v-300v-2.5h2.5h150h2.5v2.5v300v2.5h-2.5h-150h-2.5v-2.5zM727.5 347.5h145v-295h-145v295zM722.5 350v-300v-2.5h2.5h150h2.5v2.5v300v2.5h-2.5h-150h-2.5v-2.5zM427.5 197.5h145
v-295h-145v295zM422.5 200v-300v-2.5h2.5h150h2.5v2.5v300v2.5h-2.5h-150h-2.5v-2.5zM127.5 47.5h145v-145h-145v145zM122.5 50v-150v-2.5h2.5h150h2.5v2.5v150v2.5h-2.5h-150h-2.5v-2.5zM727.5 347.5h145v-295h-145v295zM722.5 350v-300v-2.5h2.5h150h2.5v2.5v300v2.5h-2.5
h-150h-2.5v-2.5zM427.5 197.5h145v-295h-145v295zM422.5 200v-300v-2.5h2.5h150h2.5v2.5v300v2.5h-2.5h-150h-2.5v-2.5zM127.5 47.5h145v-145h-145v145zM122.5 50v-150v-2.5h2.5h150h2.5v2.5v150v2.5h-2.5h-150h-2.5v-2.5zM427.5 197.5h145v-295h-145v295zM422.5 200v-300
v-2.5h2.5h150h2.5v2.5v300v2.5h-2.5h-150h-2.5v-2.5zM127.5 47.5h145v-145h-145v145zM122.5 50v-150v-2.5h2.5h150h2.5v2.5v150v2.5h-2.5h-150h-2.5v-2.5zM127.5 47.5h145v-145h-145v145zM122.5 50v-150v-2.5h2.5h150h2.5v2.5v150v2.5h-2.5h-150h-2.5v-2.5z" />
    <glyph glyph-name="questiondown" unicode="&#xbf;" 
d="M427.5 647.5h145v-295h-145v295zM422.5 650v-300v-2.5h2.5h150h2.5v2.5v300v2.5h-2.5h-150h-2.5v-2.5zM727.5 647.5h145v-145h-145v145zM722.5 650v-150v-2.5h2.5h150h2.5v2.5v150v2.5h-2.5h-150h-2.5v-2.5zM127.5 347.5h145v-145h-145v145zM122.5 350v-150v-2.5h2.5h150
h2.5v2.5v150v2.5h-2.5h-150h-2.5v-2.5zM727.5 347.5h145v-145h-145v145zM722.5 350v-150v-2.5h2.5h150h2.5v2.5v150v2.5h-2.5h-150h-2.5v-2.5zM427.5 197.5h145v-295h-145v295zM422.5 200v-300v-2.5h2.5h150h2.5v2.5v300v2.5h-2.5h-150h-2.5v-2.5zM127.5 47.5h145v-145h-145
v145zM122.5 50v-150v-2.5h2.5h150h2.5v2.5v150v2.5h-2.5h-150h-2.5v-2.5zM727.5 647.5h145v-145h-145v145zM722.5 650v-150v-2.5h2.5h150h2.5v2.5v150v2.5h-2.5h-150h-2.5v-2.5zM127.5 347.5h145v-145h-145v145zM122.5 350v-150v-2.5h2.5h150h2.5v2.5v150v2.5h-2.5h-150
h-2.5v-2.5zM727.5 347.5h145v-145h-145v145zM722.5 350v-150v-2.5h2.5h150h2.5v2.5v150v2.5h-2.5h-150h-2.5v-2.5zM427.5 197.5h145v-295h-145v295zM422.5 200v-300v-2.5h2.5h150h2.5v2.5v300v2.5h-2.5h-150h-2.5v-2.5zM127.5 47.5h145v-145h-145v145zM122.5 50v-150v-2.5
h2.5h150h2.5v2.5v150v2.5h-2.5h-150h-2.5v-2.5zM127.5 347.5h145v-145h-145v145zM122.5 350v-150v-2.5h2.5h150h2.5v2.5v150v2.5h-2.5h-150h-2.5v-2.5zM727.5 347.5h145v-145h-145v145zM722.5 350v-150v-2.5h2.5h150h2.5v2.5v150v2.5h-2.5h-150h-2.5v-2.5zM427.5 197.5h145
v-295h-145v295zM422.5 200v-300v-2.5h2.5h150h2.5v2.5v300v2.5h-2.5h-150h-2.5v-2.5zM127.5 47.5h145v-145h-145v145zM122.5 50v-150v-2.5h2.5h150h2.5v2.5v150v2.5h-2.5h-150h-2.5v-2.5zM727.5 347.5h145v-145h-145v145zM722.5 350v-150v-2.5h2.5h150h2.5v2.5v150v2.5h-2.5
h-150h-2.5v-2.5zM427.5 197.5h145v-295h-145v295zM422.5 200v-300v-2.5h2.5h150h2.5v2.5v300v2.5h-2.5h-150h-2.5v-2.5zM127.5 47.5h145v-145h-145v145zM122.5 50v-150v-2.5h2.5h150h2.5v2.5v150v2.5h-2.5h-150h-2.5v-2.5zM427.5 197.5h145v-295h-145v295zM422.5 200v-300
v-2.5h2.5h150h2.5v2.5v300v2.5h-2.5h-150h-2.5v-2.5zM127.5 47.5h145v-145h-145v145zM122.5 50v-150v-2.5h2.5h150h2.5v2.5v150v2.5h-2.5h-150h-2.5v-2.5zM127.5 47.5h145v-145h-145v145zM122.5 50v-150v-2.5h2.5h150h2.5v2.5v150v2.5h-2.5h-150h-2.5v-2.5z" />
    <glyph glyph-name="grave" unicode="`" 
d="M425 353h150v-150h-150v150z" />
    <glyph glyph-name="acute" unicode="&#xb4;" 
d="M425 353h150v-150h-150v150z" />
    <glyph glyph-name="guillemotleft" unicode="&#xab;" 
d="M273 728h150v-150h-150v150zM573 728h150v-150h-150v150zM273 428h150v-300h-150v300zM573 428h150v-300h-150v300zM273 -22h150v-150h-150v150zM573 -22h150v-150h-150v150z" />
    <glyph glyph-name="guillemotright" unicode="&#xbb;" 
d="M275.5 725.5h145v-145h-145v145zM270.5 728v-150v-2.5h2.5h150h2.5v2.5v150v2.5h-2.5h-150h-2.5v-2.5zM575.5 725.5h145v-145h-145v145zM570.5 728v-150v-2.5h2.5h150h2.5v2.5v150v2.5h-2.5h-150h-2.5v-2.5zM275.5 425.5h145v-295h-145v295zM270.5 428v-300v-2.5h2.5h150
h2.5v2.5v300v2.5h-2.5h-150h-2.5v-2.5zM575.5 425.5h145v-295h-145v295zM570.5 428v-300v-2.5h2.5h150h2.5v2.5v300v2.5h-2.5h-150h-2.5v-2.5zM275.5 -24.5h145v-145h-145v145zM270.5 -22v-150v-2.5h2.5h150h2.5v2.5v150v2.5h-2.5h-150h-2.5v-2.5zM575.5 -24.5h145v-145
h-145v145zM570.5 -22v-150v-2.5h2.5h150h2.5v2.5v150v2.5h-2.5h-150h-2.5v-2.5zM575.5 725.5h145v-145h-145v145zM570.5 728v-150v-2.5h2.5h150h2.5v2.5v150v2.5h-2.5h-150h-2.5v-2.5zM275.5 425.5h145v-295h-145v295zM270.5 428v-300v-2.5h2.5h150h2.5v2.5v300v2.5h-2.5
h-150h-2.5v-2.5zM575.5 425.5h145v-295h-145v295zM570.5 428v-300v-2.5h2.5h150h2.5v2.5v300v2.5h-2.5h-150h-2.5v-2.5zM275.5 -24.5h145v-145h-145v145zM270.5 -22v-150v-2.5h2.5h150h2.5v2.5v150v2.5h-2.5h-150h-2.5v-2.5zM575.5 -24.5h145v-145h-145v145zM570.5 -22v-150
v-2.5h2.5h150h2.5v2.5v150v2.5h-2.5h-150h-2.5v-2.5zM275.5 425.5h145v-295h-145v295zM270.5 428v-300v-2.5h2.5h150h2.5v2.5v300v2.5h-2.5h-150h-2.5v-2.5zM575.5 425.5h145v-295h-145v295zM570.5 428v-300v-2.5h2.5h150h2.5v2.5v300v2.5h-2.5h-150h-2.5v-2.5zM275.5 -24.5
h145v-145h-145v145zM270.5 -22v-150v-2.5h2.5h150h2.5v2.5v150v2.5h-2.5h-150h-2.5v-2.5zM575.5 -24.5h145v-145h-145v145zM570.5 -22v-150v-2.5h2.5h150h2.5v2.5v150v2.5h-2.5h-150h-2.5v-2.5zM575.5 425.5h145v-295h-145v295zM570.5 428v-300v-2.5h2.5h150h2.5v2.5v300
v2.5h-2.5h-150h-2.5v-2.5zM275.5 -24.5h145v-145h-145v145zM270.5 -22v-150v-2.5h2.5h150h2.5v2.5v150v2.5h-2.5h-150h-2.5v-2.5zM575.5 -24.5h145v-145h-145v145zM570.5 -22v-150v-2.5h2.5h150h2.5v2.5v150v2.5h-2.5h-150h-2.5v-2.5zM275.5 -24.5h145v-145h-145v145z
M270.5 -22v-150v-2.5h2.5h150h2.5v2.5v150v2.5h-2.5h-150h-2.5v-2.5zM575.5 -24.5h145v-145h-145v145zM570.5 -22v-150v-2.5h2.5h150h2.5v2.5v150v2.5h-2.5h-150h-2.5v-2.5zM575.5 -24.5h145v-145h-145v145zM570.5 -22v-150v-2.5h2.5h150h2.5v2.5v150v2.5h-2.5h-150h-2.5
v-2.5z" />
    <glyph glyph-name="q" unicode="q" 
d="M275 650h150v-300h-150v300zM575 650h150v-150h-150v150zM575 350h150v-300h-150v300zM275 200h150v-300h-150v300z" />
    <glyph glyph-name="w" unicode="w" 
d="M275 500h150v-150h-150v150zM575 500h150v-300h-150v300zM275 200h150v-300h-150v300z" />
    <glyph glyph-name="e" unicode="e" 
d="M425 353h150v-150h-150v150z" />
    <glyph glyph-name="r" unicode="r" 
d="M275 500h150v-150h-150v150zM575 500h150v-150h-150v150zM275 200h150v-300h-150v300z" />
    <glyph glyph-name="t" unicode="t" 
d="M425 500h150v-300h-150v300z" />
    <glyph glyph-name="z" unicode="z" 
d="M275 650h150v-300h-150v300zM575 650h150v-150h-150v150zM575 350h150v-150h-150v150zM275 200h150v-300h-150v300z" />
    <glyph glyph-name="u" unicode="u" 
d="M275 503h150v-150h-150v150zM575 503h150v-300h-150v300zM275 203h150v-150h-150v150z" />
    <glyph glyph-name="i" unicode="i" 
d="M425 503h150v-150h-150v150zM425 203h150v-150h-150v150z" />
    <glyph glyph-name="o" unicode="o" 
d="M275 650h150v-300h-150v300zM575 650h150v-300h-150v300zM275 200h150v-300h-150v300z" />
    <glyph glyph-name="p" unicode="p" 
d="M275 500h150v-150h-150v150zM575 500h150v-300h-150v300zM275 200h150v-300h-150v300zM575 50h150v-150h-150v150z" />
    <glyph glyph-name="udieresis" unicode="&#xfc;" 
d="M275 503h150v-150h-150v150zM575 503h150v-300h-150v300zM275 203h150v-150h-150v150zM575 53h300v-150h-300v150z" />
    <glyph glyph-name="plus" unicode="+" 
d="M125 500h150v-150h-150v150zM425 500h150v-150h-150v150zM725 500h150v-150h-150v150zM125 200h150v-300h-150v300zM425 200h150v-300h-150v300z" />
    <glyph glyph-name="asterisk" unicode="*" 
d="M575 500h150v-150h-150v150zM125 350h300v-150h-300v150zM575 200h300v-150h-300v150zM275 50h150v-150h-150v150z" />
    <glyph glyph-name="W" unicode="W" 
d="M277.5 497.5h145v-145h-145v145zM272.5 500v-150v-2.5h2.5h150h2.5v2.5v150v2.5h-2.5h-150h-2.5v-2.5zM577.5 497.5h145v-295h-145v295zM572.5 500v-300v-2.5h2.5h150h2.5v2.5v300v2.5h-2.5h-150h-2.5v-2.5zM277.5 197.5h145v-295h-145v295zM272.5 200v-300v-2.5h2.5h150
h2.5v2.5v300v2.5h-2.5h-150h-2.5v-2.5zM577.5 497.5h145v-295h-145v295zM572.5 500v-300v-2.5h2.5h150h2.5v2.5v300v2.5h-2.5h-150h-2.5v-2.5zM277.5 197.5h145v-295h-145v295zM272.5 200v-300v-2.5h2.5h150h2.5v2.5v300v2.5h-2.5h-150h-2.5v-2.5zM277.5 197.5h145v-295
h-145v295zM272.5 200v-300v-2.5h2.5h150h2.5v2.5v300v2.5h-2.5h-150h-2.5v-2.5z" />
    <glyph glyph-name="Q" unicode="Q" 
d="M277.5 647.5h145v-295h-145v295zM272.5 650v-300v-2.5h2.5h150h2.5v2.5v300v2.5h-2.5h-150h-2.5v-2.5zM577.5 647.5h145v-145h-145v145zM572.5 650v-150v-2.5h2.5h150h2.5v2.5v150v2.5h-2.5h-150h-2.5v-2.5zM577.5 347.5h145v-295h-145v295zM572.5 350v-300v-2.5h2.5h150
h2.5v2.5v300v2.5h-2.5h-150h-2.5v-2.5zM277.5 197.5h145v-295h-145v295zM272.5 200v-300v-2.5h2.5h150h2.5v2.5v300v2.5h-2.5h-150h-2.5v-2.5zM577.5 647.5h145v-145h-145v145zM572.5 650v-150v-2.5h2.5h150h2.5v2.5v150v2.5h-2.5h-150h-2.5v-2.5zM577.5 347.5h145v-295
h-145v295zM572.5 350v-300v-2.5h2.5h150h2.5v2.5v300v2.5h-2.5h-150h-2.5v-2.5zM277.5 197.5h145v-295h-145v295zM272.5 200v-300v-2.5h2.5h150h2.5v2.5v300v2.5h-2.5h-150h-2.5v-2.5zM577.5 347.5h145v-295h-145v295zM572.5 350v-300v-2.5h2.5h150h2.5v2.5v300v2.5h-2.5
h-150h-2.5v-2.5zM277.5 197.5h145v-295h-145v295zM272.5 200v-300v-2.5h2.5h150h2.5v2.5v300v2.5h-2.5h-150h-2.5v-2.5zM277.5 197.5h145v-295h-145v295zM272.5 200v-300v-2.5h2.5h150h2.5v2.5v300v2.5h-2.5h-150h-2.5v-2.5z" />
    <glyph glyph-name="E" unicode="E" 
d="M427.5 350.5h145v-145h-145v145zM422.5 353v-150v-2.5h2.5h150h2.5v2.5v150v2.5h-2.5h-150h-2.5v-2.5z" />
    <glyph glyph-name="R" unicode="R" 
d="M277.5 497.5h145v-145h-145v145zM272.5 500v-150v-2.5h2.5h150h2.5v2.5v150v2.5h-2.5h-150h-2.5v-2.5zM577.5 497.5h145v-145h-145v145zM572.5 500v-150v-2.5h2.5h150h2.5v2.5v150v2.5h-2.5h-150h-2.5v-2.5zM277.5 197.5h145v-295h-145v295zM272.5 200v-300v-2.5h2.5h150
h2.5v2.5v300v2.5h-2.5h-150h-2.5v-2.5zM577.5 497.5h145v-145h-145v145zM572.5 500v-150v-2.5h2.5h150h2.5v2.5v150v2.5h-2.5h-150h-2.5v-2.5zM277.5 197.5h145v-295h-145v295zM272.5 200v-300v-2.5h2.5h150h2.5v2.5v300v2.5h-2.5h-150h-2.5v-2.5zM277.5 197.5h145v-295
h-145v295zM272.5 200v-300v-2.5h2.5h150h2.5v2.5v300v2.5h-2.5h-150h-2.5v-2.5z" />
    <glyph glyph-name="T" unicode="T" 
d="M427.5 497.5h145v-295h-145v295zM422.5 500v-300v-2.5h2.5h150h2.5v2.5v300v2.5h-2.5h-150h-2.5v-2.5z" />
    <glyph glyph-name="Z" unicode="Z" 
d="M277.5 647.5h145v-295h-145v295zM272.5 650v-300v-2.5h2.5h150h2.5v2.5v300v2.5h-2.5h-150h-2.5v-2.5zM577.5 647.5h145v-145h-145v145zM572.5 650v-150v-2.5h2.5h150h2.5v2.5v150v2.5h-2.5h-150h-2.5v-2.5zM577.5 347.5h145v-145h-145v145zM572.5 350v-150v-2.5h2.5h150
h2.5v2.5v150v2.5h-2.5h-150h-2.5v-2.5zM277.5 197.5h145v-295h-145v295zM272.5 200v-300v-2.5h2.5h150h2.5v2.5v300v2.5h-2.5h-150h-2.5v-2.5zM577.5 647.5h145v-145h-145v145zM572.5 650v-150v-2.5h2.5h150h2.5v2.5v150v2.5h-2.5h-150h-2.5v-2.5zM577.5 347.5h145v-145
h-145v145zM572.5 350v-150v-2.5h2.5h150h2.5v2.5v150v2.5h-2.5h-150h-2.5v-2.5zM277.5 197.5h145v-295h-145v295zM272.5 200v-300v-2.5h2.5h150h2.5v2.5v300v2.5h-2.5h-150h-2.5v-2.5zM577.5 347.5h145v-145h-145v145zM572.5 350v-150v-2.5h2.5h150h2.5v2.5v150v2.5h-2.5
h-150h-2.5v-2.5zM277.5 197.5h145v-295h-145v295zM272.5 200v-300v-2.5h2.5h150h2.5v2.5v300v2.5h-2.5h-150h-2.5v-2.5zM277.5 197.5h145v-295h-145v295zM272.5 200v-300v-2.5h2.5h150h2.5v2.5v300v2.5h-2.5h-150h-2.5v-2.5z" />
    <glyph glyph-name="U" unicode="U" 
d="M277.5 500.5h145v-145h-145v145zM272.5 503v-150v-2.5h2.5h150h2.5v2.5v150v2.5h-2.5h-150h-2.5v-2.5zM577.5 500.5h145v-295h-145v295zM572.5 503v-300v-2.5h2.5h150h2.5v2.5v300v2.5h-2.5h-150h-2.5v-2.5zM277.5 200.5h145v-145h-145v145zM272.5 203v-150v-2.5h2.5h150
h2.5v2.5v150v2.5h-2.5h-150h-2.5v-2.5zM577.5 500.5h145v-295h-145v295zM572.5 503v-300v-2.5h2.5h150h2.5v2.5v300v2.5h-2.5h-150h-2.5v-2.5zM277.5 200.5h145v-145h-145v145zM272.5 203v-150v-2.5h2.5h150h2.5v2.5v150v2.5h-2.5h-150h-2.5v-2.5zM277.5 200.5h145v-145
h-145v145zM272.5 203v-150v-2.5h2.5h150h2.5v2.5v150v2.5h-2.5h-150h-2.5v-2.5z" />
    <glyph glyph-name="I" unicode="I" 
d="M427.5 500.5h145v-145h-145v145zM422.5 503v-150v-2.5h2.5h150h2.5v2.5v150v2.5h-2.5h-150h-2.5v-2.5zM427.5 200.5h145v-145h-145v145zM422.5 203v-150v-2.5h2.5h150h2.5v2.5v150v2.5h-2.5h-150h-2.5v-2.5zM427.5 200.5h145v-145h-145v145zM422.5 203v-150v-2.5h2.5h150
h2.5v2.5v150v2.5h-2.5h-150h-2.5v-2.5z" />
    <glyph glyph-name="O" unicode="O" 
d="M277.5 647.5h145v-295h-145v295zM272.5 650v-300v-2.5h2.5h150h2.5v2.5v300v2.5h-2.5h-150h-2.5v-2.5zM577.5 647.5h145v-295h-145v295zM572.5 650v-300v-2.5h2.5h150h2.5v2.5v300v2.5h-2.5h-150h-2.5v-2.5zM277.5 197.5h145v-295h-145v295zM272.5 200v-300v-2.5h2.5h150
h2.5v2.5v300v2.5h-2.5h-150h-2.5v-2.5zM577.5 647.5h145v-295h-145v295zM572.5 650v-300v-2.5h2.5h150h2.5v2.5v300v2.5h-2.5h-150h-2.5v-2.5zM277.5 197.5h145v-295h-145v295zM272.5 200v-300v-2.5h2.5h150h2.5v2.5v300v2.5h-2.5h-150h-2.5v-2.5zM277.5 197.5h145v-295
h-145v295zM272.5 200v-300v-2.5h2.5h150h2.5v2.5v300v2.5h-2.5h-150h-2.5v-2.5z" />
    <glyph glyph-name="P" unicode="P" 
d="M277.5 497.5h145v-145h-145v145zM272.5 500v-150v-2.5h2.5h150h2.5v2.5v150v2.5h-2.5h-150h-2.5v-2.5zM577.5 497.5h145v-295h-145v295zM572.5 500v-300v-2.5h2.5h150h2.5v2.5v300v2.5h-2.5h-150h-2.5v-2.5zM277.5 197.5h145v-295h-145v295zM272.5 200v-300v-2.5h2.5h150
h2.5v2.5v300v2.5h-2.5h-150h-2.5v-2.5zM577.5 47.5h145v-145h-145v145zM572.5 50v-150v-2.5h2.5h150h2.5v2.5v150v2.5h-2.5h-150h-2.5v-2.5zM577.5 497.5h145v-295h-145v295zM572.5 500v-300v-2.5h2.5h150h2.5v2.5v300v2.5h-2.5h-150h-2.5v-2.5zM277.5 197.5h145v-295h-145
v295zM272.5 200v-300v-2.5h2.5h150h2.5v2.5v300v2.5h-2.5h-150h-2.5v-2.5zM577.5 47.5h145v-145h-145v145zM572.5 50v-150v-2.5h2.5h150h2.5v2.5v150v2.5h-2.5h-150h-2.5v-2.5zM277.5 197.5h145v-295h-145v295zM272.5 200v-300v-2.5h2.5h150h2.5v2.5v300v2.5h-2.5h-150h-2.5
v-2.5zM577.5 47.5h145v-145h-145v145zM572.5 50v-150v-2.5h2.5h150h2.5v2.5v150v2.5h-2.5h-150h-2.5v-2.5zM577.5 47.5h145v-145h-145v145zM572.5 50v-150v-2.5h2.5h150h2.5v2.5v150v2.5h-2.5h-150h-2.5v-2.5z" />
    <glyph glyph-name="Udieresis" unicode="&#xdc;" 
d="M277.5 500.5h145v-145h-145v145zM272.5 503v-150v-2.5h2.5h150h2.5v2.5v150v2.5h-2.5h-150h-2.5v-2.5zM577.5 500.5h145v-295h-145v295zM572.5 503v-300v-2.5h2.5h150h2.5v2.5v300v2.5h-2.5h-150h-2.5v-2.5zM277.5 200.5h145v-145h-145v145zM272.5 203v-150v-2.5h2.5h150
h2.5v2.5v150v2.5h-2.5h-150h-2.5v-2.5zM577.5 50.5h295v-145h-295v145zM572.5 53v-150v-2.5h2.5h300h2.5v2.5v150v2.5h-2.5h-300h-2.5v-2.5zM577.5 500.5h145v-295h-145v295zM572.5 503v-300v-2.5h2.5h150h2.5v2.5v300v2.5h-2.5h-150h-2.5v-2.5zM277.5 200.5h145v-145h-145
v145zM272.5 203v-150v-2.5h2.5h150h2.5v2.5v150v2.5h-2.5h-150h-2.5v-2.5zM577.5 50.5h295v-145h-295v145zM572.5 53v-150v-2.5h2.5h300h2.5v2.5v150v2.5h-2.5h-300h-2.5v-2.5zM277.5 200.5h145v-145h-145v145zM272.5 203v-150v-2.5h2.5h150h2.5v2.5v150v2.5h-2.5h-150h-2.5
v-2.5zM577.5 50.5h295v-145h-295v145zM572.5 53v-150v-2.5h2.5h300h2.5v2.5v150v2.5h-2.5h-300h-2.5v-2.5zM577.5 50.5h295v-145h-295v145zM572.5 53v-150v-2.5h2.5h300h2.5v2.5v150v2.5h-2.5h-300h-2.5v-2.5z" />
    <glyph glyph-name="oslash" unicode="&#xf8;" 
d="M275 650h150v-300h-150v300zM575 650h150v-300h-150v300zM275 200h150v-300h-150v300z" />
    <glyph glyph-name="Oslash" unicode="&#xd8;" 
d="M277.5 647.5h145v-295h-145v295zM272.5 650v-300v-2.5h2.5h150h2.5v2.5v300v2.5h-2.5h-150h-2.5v-2.5zM577.5 647.5h145v-295h-145v295zM572.5 650v-300v-2.5h2.5h150h2.5v2.5v300v2.5h-2.5h-150h-2.5v-2.5zM277.5 197.5h145v-295h-145v295zM272.5 200v-300v-2.5h2.5h150
h2.5v2.5v300v2.5h-2.5h-150h-2.5v-2.5zM577.5 647.5h145v-295h-145v295zM572.5 650v-300v-2.5h2.5h150h2.5v2.5v300v2.5h-2.5h-150h-2.5v-2.5zM277.5 197.5h145v-295h-145v295zM272.5 200v-300v-2.5h2.5h150h2.5v2.5v300v2.5h-2.5h-150h-2.5v-2.5zM277.5 197.5h145v-295
h-145v295zM272.5 200v-300v-2.5h2.5h150h2.5v2.5v300v2.5h-2.5h-150h-2.5v-2.5z" />
    <glyph glyph-name="a" unicode="a" 
d="M425 500h150v-150h-150v150zM425 200h150v-300h-150v300z" />
    <glyph glyph-name="s" unicode="s" 
d="M275 503h150v-150h-150v150zM575 503h150v-150h-150v150zM275 203h150v-150h-150v150z" />
    <glyph glyph-name="d" unicode="d" 
d="M275 503h150v-300h-150v300zM575 503h150v-150h-150v150zM275 53h150v-150h-150v150z" />
    <glyph glyph-name="f" unicode="f" 
d="M575 653h150v-300h-150v300zM275 503h150v-150h-150v150zM275 203h150v-150h-150v150zM575 203h150v-150h-150v150z" />
    <glyph glyph-name="g" unicode="g" 
d="M575 653h150v-300h-150v300zM275 353h150v-300h-150v300zM575 203h150v-150h-150v150z" />
    <glyph glyph-name="h" unicode="h" 
d="M275 503h150v-150h-150v150zM575 503h150v-150h-150v150zM275 203h150v-150h-150v150zM575 203h150v-150h-150v150z" />
    <glyph glyph-name="j" unicode="j" 
d="M575 650h150v-300h-150v300zM275 500h150v-150h-150v150zM275 200h150v-300h-150v300zM575 200h150v-300h-150v300z" />
    <glyph glyph-name="k" unicode="k" 
d="M275 500h150v-300h-150v300zM575 500h150v-300h-150v300zM275 50h150v-150h-150v150z" />
    <glyph glyph-name="l" unicode="l" 
d="M275 500h150v-150h-150v150zM575 500h150v-150h-150v150zM275 200h150v-300h-150v300zM575 200h150v-150h-150v150z" />
    <glyph glyph-name="odieresis" unicode="&#xf6;" 
d="M275 650h150v-300h-150v300zM575 650h150v-300h-150v300zM275 200h150v-300h-150v300zM575 200h150v-150h-150v150z" />
    <glyph glyph-name="adieresis" unicode="&#xe4;" 
d="M275 503h150v-150h-150v150zM575 503h150v-150h-150v150zM275 203h150v-300h-150v300zM575 203h150v-300h-150v300z" />
    <glyph glyph-name="A" unicode="A" 
d="M427.5 497.5h145v-145h-145v145zM422.5 500v-150v-2.5h2.5h150h2.5v2.5v150v2.5h-2.5h-150h-2.5v-2.5zM427.5 197.5h145v-295h-145v295zM422.5 200v-300v-2.5h2.5h150h2.5v2.5v300v2.5h-2.5h-150h-2.5v-2.5zM427.5 197.5h145v-295h-145v295zM422.5 200v-300v-2.5h2.5h150
h2.5v2.5v300v2.5h-2.5h-150h-2.5v-2.5z" />
    <glyph glyph-name="S" unicode="S" 
d="M277.5 500.5h145v-145h-145v145zM272.5 503v-150v-2.5h2.5h150h2.5v2.5v150v2.5h-2.5h-150h-2.5v-2.5zM577.5 500.5h145v-145h-145v145zM572.5 503v-150v-2.5h2.5h150h2.5v2.5v150v2.5h-2.5h-150h-2.5v-2.5zM277.5 200.5h145v-145h-145v145zM272.5 203v-150v-2.5h2.5h150
h2.5v2.5v150v2.5h-2.5h-150h-2.5v-2.5zM577.5 500.5h145v-145h-145v145zM572.5 503v-150v-2.5h2.5h150h2.5v2.5v150v2.5h-2.5h-150h-2.5v-2.5zM277.5 200.5h145v-145h-145v145zM272.5 203v-150v-2.5h2.5h150h2.5v2.5v150v2.5h-2.5h-150h-2.5v-2.5zM277.5 200.5h145v-145
h-145v145zM272.5 203v-150v-2.5h2.5h150h2.5v2.5v150v2.5h-2.5h-150h-2.5v-2.5z" />
    <glyph glyph-name="D" unicode="D" 
d="M277.5 500.5h145v-295h-145v295zM272.5 503v-300v-2.5h2.5h150h2.5v2.5v300v2.5h-2.5h-150h-2.5v-2.5zM577.5 500.5h145v-145h-145v145zM572.5 503v-150v-2.5h2.5h150h2.5v2.5v150v2.5h-2.5h-150h-2.5v-2.5zM277.5 50.5h145v-145h-145v145zM272.5 53v-150v-2.5h2.5h150
h2.5v2.5v150v2.5h-2.5h-150h-2.5v-2.5zM577.5 500.5h145v-145h-145v145zM572.5 503v-150v-2.5h2.5h150h2.5v2.5v150v2.5h-2.5h-150h-2.5v-2.5zM277.5 50.5h145v-145h-145v145zM272.5 53v-150v-2.5h2.5h150h2.5v2.5v150v2.5h-2.5h-150h-2.5v-2.5zM277.5 50.5h145v-145h-145
v145zM272.5 53v-150v-2.5h2.5h150h2.5v2.5v150v2.5h-2.5h-150h-2.5v-2.5z" />
    <glyph glyph-name="F" unicode="F" 
d="M577.5 650.5h145v-295h-145v295zM572.5 653v-300v-2.5h2.5h150h2.5v2.5v300v2.5h-2.5h-150h-2.5v-2.5zM277.5 500.5h145v-145h-145v145zM272.5 503v-150v-2.5h2.5h150h2.5v2.5v150v2.5h-2.5h-150h-2.5v-2.5zM277.5 200.5h145v-145h-145v145zM272.5 203v-150v-2.5h2.5h150
h2.5v2.5v150v2.5h-2.5h-150h-2.5v-2.5zM577.5 200.5h145v-145h-145v145zM572.5 203v-150v-2.5h2.5h150h2.5v2.5v150v2.5h-2.5h-150h-2.5v-2.5zM277.5 500.5h145v-145h-145v145zM272.5 503v-150v-2.5h2.5h150h2.5v2.5v150v2.5h-2.5h-150h-2.5v-2.5zM277.5 200.5h145v-145
h-145v145zM272.5 203v-150v-2.5h2.5h150h2.5v2.5v150v2.5h-2.5h-150h-2.5v-2.5zM577.5 200.5h145v-145h-145v145zM572.5 203v-150v-2.5h2.5h150h2.5v2.5v150v2.5h-2.5h-150h-2.5v-2.5zM277.5 200.5h145v-145h-145v145zM272.5 203v-150v-2.5h2.5h150h2.5v2.5v150v2.5h-2.5
h-150h-2.5v-2.5zM577.5 200.5h145v-145h-145v145zM572.5 203v-150v-2.5h2.5h150h2.5v2.5v150v2.5h-2.5h-150h-2.5v-2.5zM577.5 200.5h145v-145h-145v145zM572.5 203v-150v-2.5h2.5h150h2.5v2.5v150v2.5h-2.5h-150h-2.5v-2.5z" />
    <glyph glyph-name="G" unicode="G" 
d="M577.5 650.5h145v-295h-145v295zM572.5 653v-300v-2.5h2.5h150h2.5v2.5v300v2.5h-2.5h-150h-2.5v-2.5zM277.5 350.5h145v-295h-145v295zM272.5 353v-300v-2.5h2.5h150h2.5v2.5v300v2.5h-2.5h-150h-2.5v-2.5zM577.5 200.5h145v-145h-145v145zM572.5 203v-150v-2.5h2.5h150
h2.5v2.5v150v2.5h-2.5h-150h-2.5v-2.5zM277.5 350.5h145v-295h-145v295zM272.5 353v-300v-2.5h2.5h150h2.5v2.5v300v2.5h-2.5h-150h-2.5v-2.5zM577.5 200.5h145v-145h-145v145zM572.5 203v-150v-2.5h2.5h150h2.5v2.5v150v2.5h-2.5h-150h-2.5v-2.5zM577.5 200.5h145v-145
h-145v145zM572.5 203v-150v-2.5h2.5h150h2.5v2.5v150v2.5h-2.5h-150h-2.5v-2.5z" />
    <glyph glyph-name="H" unicode="H" 
d="M277.5 500.5h145v-145h-145v145zM272.5 503v-150v-2.5h2.5h150h2.5v2.5v150v2.5h-2.5h-150h-2.5v-2.5zM577.5 500.5h145v-145h-145v145zM572.5 503v-150v-2.5h2.5h150h2.5v2.5v150v2.5h-2.5h-150h-2.5v-2.5zM277.5 200.5h145v-145h-145v145zM272.5 203v-150v-2.5h2.5h150
h2.5v2.5v150v2.5h-2.5h-150h-2.5v-2.5zM577.5 200.5h145v-145h-145v145zM572.5 203v-150v-2.5h2.5h150h2.5v2.5v150v2.5h-2.5h-150h-2.5v-2.5zM577.5 500.5h145v-145h-145v145zM572.5 503v-150v-2.5h2.5h150h2.5v2.5v150v2.5h-2.5h-150h-2.5v-2.5zM277.5 200.5h145v-145
h-145v145zM272.5 203v-150v-2.5h2.5h150h2.5v2.5v150v2.5h-2.5h-150h-2.5v-2.5zM577.5 200.5h145v-145h-145v145zM572.5 203v-150v-2.5h2.5h150h2.5v2.5v150v2.5h-2.5h-150h-2.5v-2.5zM277.5 200.5h145v-145h-145v145zM272.5 203v-150v-2.5h2.5h150h2.5v2.5v150v2.5h-2.5
h-150h-2.5v-2.5zM577.5 200.5h145v-145h-145v145zM572.5 203v-150v-2.5h2.5h150h2.5v2.5v150v2.5h-2.5h-150h-2.5v-2.5zM577.5 200.5h145v-145h-145v145zM572.5 203v-150v-2.5h2.5h150h2.5v2.5v150v2.5h-2.5h-150h-2.5v-2.5z" />
    <glyph glyph-name="J" unicode="J" 
d="M577.5 647.5h145v-295h-145v295zM572.5 650v-300v-2.5h2.5h150h2.5v2.5v300v2.5h-2.5h-150h-2.5v-2.5zM277.5 497.5h145v-145h-145v145zM272.5 500v-150v-2.5h2.5h150h2.5v2.5v150v2.5h-2.5h-150h-2.5v-2.5zM277.5 197.5h145v-295h-145v295zM272.5 200v-300v-2.5h2.5h150
h2.5v2.5v300v2.5h-2.5h-150h-2.5v-2.5zM577.5 197.5h145v-295h-145v295zM572.5 200v-300v-2.5h2.5h150h2.5v2.5v300v2.5h-2.5h-150h-2.5v-2.5zM277.5 497.5h145v-145h-145v145zM272.5 500v-150v-2.5h2.5h150h2.5v2.5v150v2.5h-2.5h-150h-2.5v-2.5zM277.5 197.5h145v-295
h-145v295zM272.5 200v-300v-2.5h2.5h150h2.5v2.5v300v2.5h-2.5h-150h-2.5v-2.5zM577.5 197.5h145v-295h-145v295zM572.5 200v-300v-2.5h2.5h150h2.5v2.5v300v2.5h-2.5h-150h-2.5v-2.5zM277.5 197.5h145v-295h-145v295zM272.5 200v-300v-2.5h2.5h150h2.5v2.5v300v2.5h-2.5
h-150h-2.5v-2.5zM577.5 197.5h145v-295h-145v295zM572.5 200v-300v-2.5h2.5h150h2.5v2.5v300v2.5h-2.5h-150h-2.5v-2.5zM577.5 197.5h145v-295h-145v295zM572.5 200v-300v-2.5h2.5h150h2.5v2.5v300v2.5h-2.5h-150h-2.5v-2.5z" />
    <glyph glyph-name="K" unicode="K" 
d="M277.5 497.5h145v-295h-145v295zM272.5 500v-300v-2.5h2.5h150h2.5v2.5v300v2.5h-2.5h-150h-2.5v-2.5zM577.5 497.5h145v-295h-145v295zM572.5 500v-300v-2.5h2.5h150h2.5v2.5v300v2.5h-2.5h-150h-2.5v-2.5zM277.5 47.5h145v-145h-145v145zM272.5 50v-150v-2.5h2.5h150
h2.5v2.5v150v2.5h-2.5h-150h-2.5v-2.5zM577.5 497.5h145v-295h-145v295zM572.5 500v-300v-2.5h2.5h150h2.5v2.5v300v2.5h-2.5h-150h-2.5v-2.5zM277.5 47.5h145v-145h-145v145zM272.5 50v-150v-2.5h2.5h150h2.5v2.5v150v2.5h-2.5h-150h-2.5v-2.5zM277.5 47.5h145v-145h-145
v145zM272.5 50v-150v-2.5h2.5h150h2.5v2.5v150v2.5h-2.5h-150h-2.5v-2.5z" />
    <glyph glyph-name="L" unicode="L" 
d="M277.5 497.5h145v-145h-145v145zM272.5 500v-150v-2.5h2.5h150h2.5v2.5v150v2.5h-2.5h-150h-2.5v-2.5zM577.5 497.5h145v-145h-145v145zM572.5 500v-150v-2.5h2.5h150h2.5v2.5v150v2.5h-2.5h-150h-2.5v-2.5zM277.5 197.5h145v-295h-145v295zM272.5 200v-300v-2.5h2.5h150
h2.5v2.5v300v2.5h-2.5h-150h-2.5v-2.5zM577.5 197.5h145v-145h-145v145zM572.5 200v-150v-2.5h2.5h150h2.5v2.5v150v2.5h-2.5h-150h-2.5v-2.5zM577.5 497.5h145v-145h-145v145zM572.5 500v-150v-2.5h2.5h150h2.5v2.5v150v2.5h-2.5h-150h-2.5v-2.5zM277.5 197.5h145v-295
h-145v295zM272.5 200v-300v-2.5h2.5h150h2.5v2.5v300v2.5h-2.5h-150h-2.5v-2.5zM577.5 197.5h145v-145h-145v145zM572.5 200v-150v-2.5h2.5h150h2.5v2.5v150v2.5h-2.5h-150h-2.5v-2.5zM277.5 197.5h145v-295h-145v295zM272.5 200v-300v-2.5h2.5h150h2.5v2.5v300v2.5h-2.5
h-150h-2.5v-2.5zM577.5 197.5h145v-145h-145v145zM572.5 200v-150v-2.5h2.5h150h2.5v2.5v150v2.5h-2.5h-150h-2.5v-2.5zM577.5 197.5h145v-145h-145v145zM572.5 200v-150v-2.5h2.5h150h2.5v2.5v150v2.5h-2.5h-150h-2.5v-2.5z" />
    <glyph glyph-name="Odieresis" unicode="&#xd6;" 
d="M277.5 647.5h145v-295h-145v295zM272.5 650v-300v-2.5h2.5h150h2.5v2.5v300v2.5h-2.5h-150h-2.5v-2.5zM577.5 647.5h145v-295h-145v295zM572.5 650v-300v-2.5h2.5h150h2.5v2.5v300v2.5h-2.5h-150h-2.5v-2.5zM277.5 197.5h145v-295h-145v295zM272.5 200v-300v-2.5h2.5h150
h2.5v2.5v300v2.5h-2.5h-150h-2.5v-2.5zM577.5 197.5h145v-145h-145v145zM572.5 200v-150v-2.5h2.5h150h2.5v2.5v150v2.5h-2.5h-150h-2.5v-2.5zM577.5 647.5h145v-295h-145v295zM572.5 650v-300v-2.5h2.5h150h2.5v2.5v300v2.5h-2.5h-150h-2.5v-2.5zM277.5 197.5h145v-295
h-145v295zM272.5 200v-300v-2.5h2.5h150h2.5v2.5v300v2.5h-2.5h-150h-2.5v-2.5zM577.5 197.5h145v-145h-145v145zM572.5 200v-150v-2.5h2.5h150h2.5v2.5v150v2.5h-2.5h-150h-2.5v-2.5zM277.5 197.5h145v-295h-145v295zM272.5 200v-300v-2.5h2.5h150h2.5v2.5v300v2.5h-2.5
h-150h-2.5v-2.5zM577.5 197.5h145v-145h-145v145zM572.5 200v-150v-2.5h2.5h150h2.5v2.5v150v2.5h-2.5h-150h-2.5v-2.5zM577.5 197.5h145v-145h-145v145zM572.5 200v-150v-2.5h2.5h150h2.5v2.5v150v2.5h-2.5h-150h-2.5v-2.5z" />
    <glyph glyph-name="Adieresis" unicode="&#xc4;" 
d="M277.5 500.5h145v-145h-145v145zM272.5 503v-150v-2.5h2.5h150h2.5v2.5v150v2.5h-2.5h-150h-2.5v-2.5zM577.5 500.5h145v-145h-145v145zM572.5 503v-150v-2.5h2.5h150h2.5v2.5v150v2.5h-2.5h-150h-2.5v-2.5zM277.5 200.5h145v-295h-145v295zM272.5 203v-300v-2.5h2.5h150
h2.5v2.5v300v2.5h-2.5h-150h-2.5v-2.5zM577.5 200.5h145v-295h-145v295zM572.5 203v-300v-2.5h2.5h150h2.5v2.5v300v2.5h-2.5h-150h-2.5v-2.5zM577.5 500.5h145v-145h-145v145zM572.5 503v-150v-2.5h2.5h150h2.5v2.5v150v2.5h-2.5h-150h-2.5v-2.5zM277.5 200.5h145v-295
h-145v295zM272.5 203v-300v-2.5h2.5h150h2.5v2.5v300v2.5h-2.5h-150h-2.5v-2.5zM577.5 200.5h145v-295h-145v295zM572.5 203v-300v-2.5h2.5h150h2.5v2.5v300v2.5h-2.5h-150h-2.5v-2.5zM277.5 200.5h145v-295h-145v295zM272.5 203v-300v-2.5h2.5h150h2.5v2.5v300v2.5h-2.5
h-150h-2.5v-2.5zM577.5 200.5h145v-295h-145v295zM572.5 203v-300v-2.5h2.5h150h2.5v2.5v300v2.5h-2.5h-150h-2.5v-2.5zM577.5 200.5h145v-295h-145v295zM572.5 203v-300v-2.5h2.5h150h2.5v2.5v300v2.5h-2.5h-150h-2.5v-2.5z" />
    <glyph glyph-name="Aring" unicode="&#xc5;" 
d="M427.5 497.5h145v-145h-145v145zM422.5 500v-150v-2.5h2.5h150h2.5v2.5v150v2.5h-2.5h-150h-2.5v-2.5zM427.5 197.5h145v-295h-145v295zM422.5 200v-300v-2.5h2.5h150h2.5v2.5v300v2.5h-2.5h-150h-2.5v-2.5zM427.5 197.5h145v-295h-145v295zM422.5 200v-300v-2.5h2.5h150
h2.5v2.5v300v2.5h-2.5h-150h-2.5v-2.5z" />
    <glyph glyph-name="AE" unicode="&#xc6;" 
d="M277.5 500.5h145v-145h-145v145zM272.5 503v-150v-2.5h2.5h150h2.5v2.5v150v2.5h-2.5h-150h-2.5v-2.5zM577.5 500.5h145v-145h-145v145zM572.5 503v-150v-2.5h2.5h150h2.5v2.5v150v2.5h-2.5h-150h-2.5v-2.5zM277.5 200.5h145v-295h-145v295zM272.5 203v-300v-2.5h2.5h150
h2.5v2.5v300v2.5h-2.5h-150h-2.5v-2.5zM577.5 200.5h145v-295h-145v295zM572.5 203v-300v-2.5h2.5h150h2.5v2.5v300v2.5h-2.5h-150h-2.5v-2.5zM577.5 500.5h145v-145h-145v145zM572.5 503v-150v-2.5h2.5h150h2.5v2.5v150v2.5h-2.5h-150h-2.5v-2.5zM277.5 200.5h145v-295
h-145v295zM272.5 203v-300v-2.5h2.5h150h2.5v2.5v300v2.5h-2.5h-150h-2.5v-2.5zM577.5 200.5h145v-295h-145v295zM572.5 203v-300v-2.5h2.5h150h2.5v2.5v300v2.5h-2.5h-150h-2.5v-2.5zM277.5 200.5h145v-295h-145v295zM272.5 203v-300v-2.5h2.5h150h2.5v2.5v300v2.5h-2.5
h-150h-2.5v-2.5zM577.5 200.5h145v-295h-145v295zM572.5 203v-300v-2.5h2.5h150h2.5v2.5v300v2.5h-2.5h-150h-2.5v-2.5zM577.5 200.5h145v-295h-145v295zM572.5 203v-300v-2.5h2.5h150h2.5v2.5v300v2.5h-2.5h-150h-2.5v-2.5z" />
    <glyph glyph-name="ae" unicode="&#xe6;" 
d="M275 503h150v-150h-150v150zM575 503h150v-150h-150v150zM275 203h150v-300h-150v300zM575 203h150v-300h-150v300z" />
    <glyph glyph-name="aring" unicode="&#xe5;" 
d="M425 500h150v-150h-150v150zM425 200h150v-300h-150v300z" />
    <glyph glyph-name="ordmasculine" unicode="&#xba;" 
d="M125 653h150v-150h-150v150zM425 653h150v-150h-150v150zM725 653h150v-150h-150v150zM125 353h150v-150h-150v150zM425 353h150v-150h-150v150zM725 353h150v-150h-150v150zM125 53h150v-150h-150v150zM425 53h150v-150h-150v150zM725 53h150v-150h-150v150z" />
    <glyph glyph-name="ordfeminine" unicode="&#xaa;" 
d="M125 650h150v-300h-150v300zM425 650h150v-300h-150v300zM725 650h150v-300h-150v300zM125 200h150v-300h-150v300zM425 200h150v-300h-150v300zM725 200h150v-300h-150v300z" />
    <glyph glyph-name="at" unicode="@" 
d="M125 500h150v-150h-150v150zM425 500h150v-300h-150v300zM725 500h150v-300h-150v300zM125 200h150v-300h-150v300zM425 50h150v-150h-150v150zM725 50h150v-150h-150v150z" />
    <glyph glyph-name="less" unicode="&#x3c;" 
d="M125 500h150v-300h-150v300zM425 500h150v-300h-150v300zM725 500h150v-300h-150v300zM125 50h150v-150h-150v150zM425 50h150v-150h-150v150z" />
    <glyph glyph-name="greater" unicode="&#x3e;" 
d="M125 500h150v-150h-150v150zM425 500h150v-150h-150v150zM725 500h150v-150h-150v150zM125 200h150v-300h-150v300zM425 200h150v-300h-150v300z" />
    <glyph glyph-name="y" unicode="y" 
d="M575 650h150v-300h-150v300zM275 500h150v-300h-150v300zM575 200h150v-300h-150v300zM275 50h150v-150h-150v150z" />
    <glyph glyph-name="x" unicode="x" 
d="M275 500h150v-300h-150v300zM575 500h150v-150h-150v150zM575 200h150v-300h-150v300zM275 50h150v-150h-150v150z" />
    <glyph glyph-name="c" unicode="c" 
d="M275 653h150v-300h-150v300zM575 653h150v-300h-150v300zM275 203h150v-150h-150v150zM575 203h150v-150h-150v150z" />
    <glyph glyph-name="v" unicode="v" 
d="M575 500h150v-150h-150v150zM275 350h150v-150h-150v150zM575 200h150v-300h-150v300zM275 50h150v-150h-150v150z" />
    <glyph glyph-name="b" unicode="b" 
d="M275 653h150v-300h-150v300zM575 653h150v-150h-150v150zM575 353h150v-150h-150v150zM275 203h150v-150h-150v150z" />
    <glyph glyph-name="n" unicode="n" 
d="M425 500h150v-300h-150v300zM425 50h150v-150h-150v150z" />
    <glyph glyph-name="m" unicode="m" 
d="M275 200h150v-300h-150v300zM575 200h150v-300h-150v300z" />
    <glyph glyph-name="ccedilla" unicode="&#xe7;" 
d="M275 653h150v-300h-150v300zM575 653h150v-300h-150v300zM275 203h150v-150h-150v150zM575 203h150v-150h-150v150z" />
    <glyph glyph-name="Y" unicode="Y" 
d="M577.5 647.5h145v-295h-145v295zM572.5 650v-300v-2.5h2.5h150h2.5v2.5v300v2.5h-2.5h-150h-2.5v-2.5zM277.5 497.5h145v-295h-145v295zM272.5 500v-300v-2.5h2.5h150h2.5v2.5v300v2.5h-2.5h-150h-2.5v-2.5zM577.5 197.5h145v-295h-145v295zM572.5 200v-300v-2.5h2.5h150
h2.5v2.5v300v2.5h-2.5h-150h-2.5v-2.5zM277.5 47.5h145v-145h-145v145zM272.5 50v-150v-2.5h2.5h150h2.5v2.5v150v2.5h-2.5h-150h-2.5v-2.5zM277.5 497.5h145v-295h-145v295zM272.5 500v-300v-2.5h2.5h150h2.5v2.5v300v2.5h-2.5h-150h-2.5v-2.5zM577.5 197.5h145v-295h-145
v295zM572.5 200v-300v-2.5h2.5h150h2.5v2.5v300v2.5h-2.5h-150h-2.5v-2.5zM277.5 47.5h145v-145h-145v145zM272.5 50v-150v-2.5h2.5h150h2.5v2.5v150v2.5h-2.5h-150h-2.5v-2.5zM577.5 197.5h145v-295h-145v295zM572.5 200v-300v-2.5h2.5h150h2.5v2.5v300v2.5h-2.5h-150h-2.5
v-2.5zM277.5 47.5h145v-145h-145v145zM272.5 50v-150v-2.5h2.5h150h2.5v2.5v150v2.5h-2.5h-150h-2.5v-2.5zM277.5 47.5h145v-145h-145v145zM272.5 50v-150v-2.5h2.5h150h2.5v2.5v150v2.5h-2.5h-150h-2.5v-2.5z" />
    <glyph glyph-name="X" unicode="X" 
d="M277.5 497.5h145v-295h-145v295zM272.5 500v-300v-2.5h2.5h150h2.5v2.5v300v2.5h-2.5h-150h-2.5v-2.5zM577.5 497.5h145v-145h-145v145zM572.5 500v-150v-2.5h2.5h150h2.5v2.5v150v2.5h-2.5h-150h-2.5v-2.5zM577.5 197.5h145v-295h-145v295zM572.5 200v-300v-2.5h2.5h150
h2.5v2.5v300v2.5h-2.5h-150h-2.5v-2.5zM277.5 47.5h145v-145h-145v145zM272.5 50v-150v-2.5h2.5h150h2.5v2.5v150v2.5h-2.5h-150h-2.5v-2.5zM577.5 497.5h145v-145h-145v145zM572.5 500v-150v-2.5h2.5h150h2.5v2.5v150v2.5h-2.5h-150h-2.5v-2.5zM577.5 197.5h145v-295h-145
v295zM572.5 200v-300v-2.5h2.5h150h2.5v2.5v300v2.5h-2.5h-150h-2.5v-2.5zM277.5 47.5h145v-145h-145v145zM272.5 50v-150v-2.5h2.5h150h2.5v2.5v150v2.5h-2.5h-150h-2.5v-2.5zM577.5 197.5h145v-295h-145v295zM572.5 200v-300v-2.5h2.5h150h2.5v2.5v300v2.5h-2.5h-150h-2.5
v-2.5zM277.5 47.5h145v-145h-145v145zM272.5 50v-150v-2.5h2.5h150h2.5v2.5v150v2.5h-2.5h-150h-2.5v-2.5zM277.5 47.5h145v-145h-145v145zM272.5 50v-150v-2.5h2.5h150h2.5v2.5v150v2.5h-2.5h-150h-2.5v-2.5z" />
    <glyph glyph-name="C" unicode="C" 
d="M277.5 650.5h145v-295h-145v295zM272.5 653v-300v-2.5h2.5h150h2.5v2.5v300v2.5h-2.5h-150h-2.5v-2.5zM577.5 650.5h145v-295h-145v295zM572.5 653v-300v-2.5h2.5h150h2.5v2.5v300v2.5h-2.5h-150h-2.5v-2.5zM277.5 200.5h145v-145h-145v145zM272.5 203v-150v-2.5h2.5h150
h2.5v2.5v150v2.5h-2.5h-150h-2.5v-2.5zM577.5 200.5h145v-145h-145v145zM572.5 203v-150v-2.5h2.5h150h2.5v2.5v150v2.5h-2.5h-150h-2.5v-2.5zM577.5 650.5h145v-295h-145v295zM572.5 653v-300v-2.5h2.5h150h2.5v2.5v300v2.5h-2.5h-150h-2.5v-2.5zM277.5 200.5h145v-145
h-145v145zM272.5 203v-150v-2.5h2.5h150h2.5v2.5v150v2.5h-2.5h-150h-2.5v-2.5zM577.5 200.5h145v-145h-145v145zM572.5 203v-150v-2.5h2.5h150h2.5v2.5v150v2.5h-2.5h-150h-2.5v-2.5zM277.5 200.5h145v-145h-145v145zM272.5 203v-150v-2.5h2.5h150h2.5v2.5v150v2.5h-2.5
h-150h-2.5v-2.5zM577.5 200.5h145v-145h-145v145zM572.5 203v-150v-2.5h2.5h150h2.5v2.5v150v2.5h-2.5h-150h-2.5v-2.5zM577.5 200.5h145v-145h-145v145zM572.5 203v-150v-2.5h2.5h150h2.5v2.5v150v2.5h-2.5h-150h-2.5v-2.5z" />
    <glyph glyph-name="Ccedilla" unicode="&#xc7;" 
d="M277.5 650.5h145v-295h-145v295zM272.5 653v-300v-2.5h2.5h150h2.5v2.5v300v2.5h-2.5h-150h-2.5v-2.5zM577.5 650.5h145v-295h-145v295zM572.5 653v-300v-2.5h2.5h150h2.5v2.5v300v2.5h-2.5h-150h-2.5v-2.5zM277.5 200.5h145v-145h-145v145zM272.5 203v-150v-2.5h2.5h150
h2.5v2.5v150v2.5h-2.5h-150h-2.5v-2.5zM577.5 200.5h145v-145h-145v145zM572.5 203v-150v-2.5h2.5h150h2.5v2.5v150v2.5h-2.5h-150h-2.5v-2.5zM577.5 650.5h145v-295h-145v295zM572.5 653v-300v-2.5h2.5h150h2.5v2.5v300v2.5h-2.5h-150h-2.5v-2.5zM277.5 200.5h145v-145
h-145v145zM272.5 203v-150v-2.5h2.5h150h2.5v2.5v150v2.5h-2.5h-150h-2.5v-2.5zM577.5 200.5h145v-145h-145v145zM572.5 203v-150v-2.5h2.5h150h2.5v2.5v150v2.5h-2.5h-150h-2.5v-2.5zM277.5 200.5h145v-145h-145v145zM272.5 203v-150v-2.5h2.5h150h2.5v2.5v150v2.5h-2.5
h-150h-2.5v-2.5zM577.5 200.5h145v-145h-145v145zM572.5 203v-150v-2.5h2.5h150h2.5v2.5v150v2.5h-2.5h-150h-2.5v-2.5zM577.5 200.5h145v-145h-145v145zM572.5 203v-150v-2.5h2.5h150h2.5v2.5v150v2.5h-2.5h-150h-2.5v-2.5z" />
    <glyph glyph-name="V" unicode="V" 
d="M577.5 497.5h145v-145h-145v145zM572.5 500v-150v-2.5h2.5h150h2.5v2.5v150v2.5h-2.5h-150h-2.5v-2.5zM277.5 347.5h145v-145h-145v145zM272.5 350v-150v-2.5h2.5h150h2.5v2.5v150v2.5h-2.5h-150h-2.5v-2.5zM577.5 197.5h145v-295h-145v295zM572.5 200v-300v-2.5h2.5h150
h2.5v2.5v300v2.5h-2.5h-150h-2.5v-2.5zM277.5 47.5h145v-145h-145v145zM272.5 50v-150v-2.5h2.5h150h2.5v2.5v150v2.5h-2.5h-150h-2.5v-2.5zM277.5 347.5h145v-145h-145v145zM272.5 350v-150v-2.5h2.5h150h2.5v2.5v150v2.5h-2.5h-150h-2.5v-2.5zM577.5 197.5h145v-295h-145
v295zM572.5 200v-300v-2.5h2.5h150h2.5v2.5v300v2.5h-2.5h-150h-2.5v-2.5zM277.5 47.5h145v-145h-145v145zM272.5 50v-150v-2.5h2.5h150h2.5v2.5v150v2.5h-2.5h-150h-2.5v-2.5zM577.5 197.5h145v-295h-145v295zM572.5 200v-300v-2.5h2.5h150h2.5v2.5v300v2.5h-2.5h-150h-2.5
v-2.5zM277.5 47.5h145v-145h-145v145zM272.5 50v-150v-2.5h2.5h150h2.5v2.5v150v2.5h-2.5h-150h-2.5v-2.5zM277.5 47.5h145v-145h-145v145zM272.5 50v-150v-2.5h2.5h150h2.5v2.5v150v2.5h-2.5h-150h-2.5v-2.5z" />
    <glyph glyph-name="B" unicode="B" 
d="M277.5 650.5h145v-295h-145v295zM272.5 653v-300v-2.5h2.5h150h2.5v2.5v300v2.5h-2.5h-150h-2.5v-2.5zM577.5 650.5h145v-145h-145v145zM572.5 653v-150v-2.5h2.5h150h2.5v2.5v150v2.5h-2.5h-150h-2.5v-2.5zM577.5 350.5h145v-145h-145v145zM572.5 353v-150v-2.5h2.5h150
h2.5v2.5v150v2.5h-2.5h-150h-2.5v-2.5zM277.5 200.5h145v-145h-145v145zM272.5 203v-150v-2.5h2.5h150h2.5v2.5v150v2.5h-2.5h-150h-2.5v-2.5zM577.5 650.5h145v-145h-145v145zM572.5 653v-150v-2.5h2.5h150h2.5v2.5v150v2.5h-2.5h-150h-2.5v-2.5zM577.5 350.5h145v-145
h-145v145zM572.5 353v-150v-2.5h2.5h150h2.5v2.5v150v2.5h-2.5h-150h-2.5v-2.5zM277.5 200.5h145v-145h-145v145zM272.5 203v-150v-2.5h2.5h150h2.5v2.5v150v2.5h-2.5h-150h-2.5v-2.5zM577.5 350.5h145v-145h-145v145zM572.5 353v-150v-2.5h2.5h150h2.5v2.5v150v2.5h-2.5
h-150h-2.5v-2.5zM277.5 200.5h145v-145h-145v145zM272.5 203v-150v-2.5h2.5h150h2.5v2.5v150v2.5h-2.5h-150h-2.5v-2.5zM277.5 200.5h145v-145h-145v145zM272.5 203v-150v-2.5h2.5h150h2.5v2.5v150v2.5h-2.5h-150h-2.5v-2.5z" />
    <glyph glyph-name="N" unicode="N" 
d="M427.5 497.5h145v-295h-145v295zM422.5 500v-300v-2.5h2.5h150h2.5v2.5v300v2.5h-2.5h-150h-2.5v-2.5zM427.5 47.5h145v-145h-145v145zM422.5 50v-150v-2.5h2.5h150h2.5v2.5v150v2.5h-2.5h-150h-2.5v-2.5zM427.5 47.5h145v-145h-145v145zM422.5 50v-150v-2.5h2.5h150h2.5
v2.5v150v2.5h-2.5h-150h-2.5v-2.5z" />
    <glyph glyph-name="M" unicode="M" 
d="M277.5 197.5h145v-295h-145v295zM272.5 200v-300v-2.5h2.5h150h2.5v2.5v300v2.5h-2.5h-150h-2.5v-2.5zM577.5 197.5h145v-295h-145v295zM572.5 200v-300v-2.5h2.5h150h2.5v2.5v300v2.5h-2.5h-150h-2.5v-2.5zM577.5 197.5h145v-295h-145v295zM572.5 200v-300v-2.5h2.5h150
h2.5v2.5v300v2.5h-2.5h-150h-2.5v-2.5z" />
    <glyph glyph-name="comma" unicode="," 
d="M125 728h300v-150h-300v150zM575 728h150v-150h-150v150zM275 428h150v-300h-150v300zM575 428h150v-300h-150v300zM275 -22h150v-150h-150v150zM575 -22h300v-150h-300v150z" />
    <glyph glyph-name="period" unicode="." 
d="M125 500h150v-150h-150v150zM425 500h150v-150h-150v150zM725 500h150v-150h-150v150zM125 200h150v-300h-150v300zM425 200h150v-300h-150v300zM725 200h150v-300h-150v300z" />
    <glyph glyph-name="hyphen" unicode="-" 
d="M125 653h300v-150h-300v150zM575 653h150v-150h-150v150zM275 353h150v-150h-150v150zM575 353h150v-150h-150v150zM275 53h150v-150h-150v150zM575 53h300v-150h-300v150z" />
    <glyph glyph-name="semicolon" unicode=";" 
d="M125 500h150v-300h-150v300zM425 500h150v-300h-150v300zM725 500h150v-300h-150v300zM125 50h150v-150h-150v150zM425 50h150v-150h-150v150zM725 50h150v-150h-150v150z" />
    <glyph glyph-name="colon" unicode=":" 
d="M425 728h150v-300h-150v300zM725 728h150v-150h-150v150zM125 578h150v-300h-150v300zM425 278h150v-150h-150v150zM125 128h150v-300h-150v300zM425 -22h150v-150h-150v150z" />
    <glyph glyph-name="quotesingle" unicode="'" 
d="M425 650h150v-300h-150v300zM725 650h150v-300h-150v300zM125 500h150v-150h-150v150zM125 200h150v-300h-150v300zM425 200h150v-300h-150v300zM725 200h150v-150h-150v150z" />
    <glyph glyph-name="quotedblleft" unicode="&#x201c;" 
d="M275.5 725.5h145v-145h-145v145zM270.5 728v-150v-2.5h2.5h150h2.5v2.5v150v2.5h-2.5h-150h-2.5v-2.5zM575.5 725.5h145v-145h-145v145zM570.5 728v-150v-2.5h2.5h150h2.5v2.5v150v2.5h-2.5h-150h-2.5v-2.5zM275.5 425.5h145v-295h-145v295zM270.5 428v-300v-2.5h2.5h150
h2.5v2.5v300v2.5h-2.5h-150h-2.5v-2.5zM575.5 425.5h145v-295h-145v295zM570.5 428v-300v-2.5h2.5h150h2.5v2.5v300v2.5h-2.5h-150h-2.5v-2.5zM275.5 -24.5h145v-145h-145v145zM270.5 -22v-150v-2.5h2.5h150h2.5v2.5v150v2.5h-2.5h-150h-2.5v-2.5zM575.5 -24.5h145v-145
h-145v145zM570.5 -22v-150v-2.5h2.5h150h2.5v2.5v150v2.5h-2.5h-150h-2.5v-2.5zM575.5 725.5h145v-145h-145v145zM570.5 728v-150v-2.5h2.5h150h2.5v2.5v150v2.5h-2.5h-150h-2.5v-2.5zM275.5 425.5h145v-295h-145v295zM270.5 428v-300v-2.5h2.5h150h2.5v2.5v300v2.5h-2.5
h-150h-2.5v-2.5zM575.5 425.5h145v-295h-145v295zM570.5 428v-300v-2.5h2.5h150h2.5v2.5v300v2.5h-2.5h-150h-2.5v-2.5zM275.5 -24.5h145v-145h-145v145zM270.5 -22v-150v-2.5h2.5h150h2.5v2.5v150v2.5h-2.5h-150h-2.5v-2.5zM575.5 -24.5h145v-145h-145v145zM570.5 -22v-150
v-2.5h2.5h150h2.5v2.5v150v2.5h-2.5h-150h-2.5v-2.5zM275.5 425.5h145v-295h-145v295zM270.5 428v-300v-2.5h2.5h150h2.5v2.5v300v2.5h-2.5h-150h-2.5v-2.5zM575.5 425.5h145v-295h-145v295zM570.5 428v-300v-2.5h2.5h150h2.5v2.5v300v2.5h-2.5h-150h-2.5v-2.5zM275.5 -24.5
h145v-145h-145v145zM270.5 -22v-150v-2.5h2.5h150h2.5v2.5v150v2.5h-2.5h-150h-2.5v-2.5zM575.5 -24.5h145v-145h-145v145zM570.5 -22v-150v-2.5h2.5h150h2.5v2.5v150v2.5h-2.5h-150h-2.5v-2.5zM575.5 425.5h145v-295h-145v295zM570.5 428v-300v-2.5h2.5h150h2.5v2.5v300
v2.5h-2.5h-150h-2.5v-2.5zM275.5 -24.5h145v-145h-145v145zM270.5 -22v-150v-2.5h2.5h150h2.5v2.5v150v2.5h-2.5h-150h-2.5v-2.5zM575.5 -24.5h145v-145h-145v145zM570.5 -22v-150v-2.5h2.5h150h2.5v2.5v150v2.5h-2.5h-150h-2.5v-2.5zM275.5 -24.5h145v-145h-145v145z
M270.5 -22v-150v-2.5h2.5h150h2.5v2.5v150v2.5h-2.5h-150h-2.5v-2.5zM575.5 -24.5h145v-145h-145v145zM570.5 -22v-150v-2.5h2.5h150h2.5v2.5v150v2.5h-2.5h-150h-2.5v-2.5zM575.5 -24.5h145v-145h-145v145zM570.5 -22v-150v-2.5h2.5h150h2.5v2.5v150v2.5h-2.5h-150h-2.5
v-2.5z" />
    <glyph glyph-name="quotedblright" unicode="&#x201d;" 
d="M275.5 725.5h145v-145h-145v145zM270.5 728v-150v-2.5h2.5h150h2.5v2.5v150v2.5h-2.5h-150h-2.5v-2.5zM575.5 725.5h145v-145h-145v145zM570.5 728v-150v-2.5h2.5h150h2.5v2.5v150v2.5h-2.5h-150h-2.5v-2.5zM275.5 425.5h145v-295h-145v295zM270.5 428v-300v-2.5h2.5h150
h2.5v2.5v300v2.5h-2.5h-150h-2.5v-2.5zM575.5 425.5h145v-295h-145v295zM570.5 428v-300v-2.5h2.5h150h2.5v2.5v300v2.5h-2.5h-150h-2.5v-2.5zM275.5 -24.5h145v-145h-145v145zM270.5 -22v-150v-2.5h2.5h150h2.5v2.5v150v2.5h-2.5h-150h-2.5v-2.5zM575.5 -24.5h145v-145
h-145v145zM570.5 -22v-150v-2.5h2.5h150h2.5v2.5v150v2.5h-2.5h-150h-2.5v-2.5zM575.5 725.5h145v-145h-145v145zM570.5 728v-150v-2.5h2.5h150h2.5v2.5v150v2.5h-2.5h-150h-2.5v-2.5zM275.5 425.5h145v-295h-145v295zM270.5 428v-300v-2.5h2.5h150h2.5v2.5v300v2.5h-2.5
h-150h-2.5v-2.5zM575.5 425.5h145v-295h-145v295zM570.5 428v-300v-2.5h2.5h150h2.5v2.5v300v2.5h-2.5h-150h-2.5v-2.5zM275.5 -24.5h145v-145h-145v145zM270.5 -22v-150v-2.5h2.5h150h2.5v2.5v150v2.5h-2.5h-150h-2.5v-2.5zM575.5 -24.5h145v-145h-145v145zM570.5 -22v-150
v-2.5h2.5h150h2.5v2.5v150v2.5h-2.5h-150h-2.5v-2.5zM275.5 425.5h145v-295h-145v295zM270.5 428v-300v-2.5h2.5h150h2.5v2.5v300v2.5h-2.5h-150h-2.5v-2.5zM575.5 425.5h145v-295h-145v295zM570.5 428v-300v-2.5h2.5h150h2.5v2.5v300v2.5h-2.5h-150h-2.5v-2.5zM275.5 -24.5
h145v-145h-145v145zM270.5 -22v-150v-2.5h2.5h150h2.5v2.5v150v2.5h-2.5h-150h-2.5v-2.5zM575.5 -24.5h145v-145h-145v145zM570.5 -22v-150v-2.5h2.5h150h2.5v2.5v150v2.5h-2.5h-150h-2.5v-2.5zM575.5 425.5h145v-295h-145v295zM570.5 428v-300v-2.5h2.5h150h2.5v2.5v300
v2.5h-2.5h-150h-2.5v-2.5zM275.5 -24.5h145v-145h-145v145zM270.5 -22v-150v-2.5h2.5h150h2.5v2.5v150v2.5h-2.5h-150h-2.5v-2.5zM575.5 -24.5h145v-145h-145v145zM570.5 -22v-150v-2.5h2.5h150h2.5v2.5v150v2.5h-2.5h-150h-2.5v-2.5zM275.5 -24.5h145v-145h-145v145z
M270.5 -22v-150v-2.5h2.5h150h2.5v2.5v150v2.5h-2.5h-150h-2.5v-2.5zM575.5 -24.5h145v-145h-145v145zM570.5 -22v-150v-2.5h2.5h150h2.5v2.5v150v2.5h-2.5h-150h-2.5v-2.5zM575.5 -24.5h145v-145h-145v145zM570.5 -22v-150v-2.5h2.5h150h2.5v2.5v150v2.5h-2.5h-150h-2.5
v-2.5z" />
    <glyph glyph-name="circumflex" unicode="&#x2c6;" 
d="M127.5 497.5h145v-145h-145v145zM122.5 500v-150v-2.5h2.5h150h2.5v2.5v150v2.5h-2.5h-150h-2.5v-2.5zM427.5 497.5h145v-145h-145v145zM422.5 500v-150v-2.5h2.5h150h2.5v2.5v150v2.5h-2.5h-150h-2.5v-2.5zM727.5 497.5h145v-145h-145v145zM722.5 500v-150v-2.5h2.5h150
h2.5v2.5v150v2.5h-2.5h-150h-2.5v-2.5zM127.5 197.5h145v-295h-145v295zM122.5 200v-300v-2.5h2.5h150h2.5v2.5v300v2.5h-2.5h-150h-2.5v-2.5zM427.5 197.5h145v-295h-145v295zM422.5 200v-300v-2.5h2.5h150h2.5v2.5v300v2.5h-2.5h-150h-2.5v-2.5zM427.5 497.5h145v-145
h-145v145zM422.5 500v-150v-2.5h2.5h150h2.5v2.5v150v2.5h-2.5h-150h-2.5v-2.5zM727.5 497.5h145v-145h-145v145zM722.5 500v-150v-2.5h2.5h150h2.5v2.5v150v2.5h-2.5h-150h-2.5v-2.5zM127.5 197.5h145v-295h-145v295zM122.5 200v-300v-2.5h2.5h150h2.5v2.5v300v2.5h-2.5
h-150h-2.5v-2.5zM427.5 197.5h145v-295h-145v295zM422.5 200v-300v-2.5h2.5h150h2.5v2.5v300v2.5h-2.5h-150h-2.5v-2.5zM727.5 497.5h145v-145h-145v145zM722.5 500v-150v-2.5h2.5h150h2.5v2.5v150v2.5h-2.5h-150h-2.5v-2.5zM127.5 197.5h145v-295h-145v295zM122.5 200v-300
v-2.5h2.5h150h2.5v2.5v300v2.5h-2.5h-150h-2.5v-2.5zM427.5 197.5h145v-295h-145v295zM422.5 200v-300v-2.5h2.5h150h2.5v2.5v300v2.5h-2.5h-150h-2.5v-2.5zM127.5 197.5h145v-295h-145v295zM122.5 200v-300v-2.5h2.5h150h2.5v2.5v300v2.5h-2.5h-150h-2.5v-2.5zM427.5 197.5
h145v-295h-145v295zM422.5 200v-300v-2.5h2.5h150h2.5v2.5v300v2.5h-2.5h-150h-2.5v-2.5zM427.5 197.5h145v-295h-145v295zM422.5 200v-300v-2.5h2.5h150h2.5v2.5v300v2.5h-2.5h-150h-2.5v-2.5z" />
    <glyph glyph-name="notequal" unicode="&#x2260;" 
d="M502.5 650.5h145v-145h-145v145zM497.5 653v-150v-2.5h2.5h150h2.5v2.5v150v2.5h-2.5h-150h-2.5v-2.5zM802.5 650.5h145v-295h-145v295zM797.5 653v-300v-2.5h2.5h150h2.5v2.5v300v2.5h-2.5h-150h-2.5v-2.5zM502.5 350.5h145v-145h-145v145zM497.5 353v-150v-2.5h2.5h150
h2.5v2.5v150v2.5h-2.5h-150h-2.5v-2.5zM52.5 50.5h295v-145h-295v145zM47.5 53v-150v-2.5h2.5h300h2.5v2.5v150v2.5h-2.5h-300h-2.5v-2.5zM502.5 50.5h145v-145h-145v145zM497.5 53v-150v-2.5h2.5h150h2.5v2.5v150v2.5h-2.5h-150h-2.5v-2.5zM802.5 650.5h145v-295h-145v295z
M797.5 653v-300v-2.5h2.5h150h2.5v2.5v300v2.5h-2.5h-150h-2.5v-2.5zM502.5 350.5h145v-145h-145v145zM497.5 353v-150v-2.5h2.5h150h2.5v2.5v150v2.5h-2.5h-150h-2.5v-2.5zM52.5 50.5h295v-145h-295v145zM47.5 53v-150v-2.5h2.5h300h2.5v2.5v150v2.5h-2.5h-300h-2.5v-2.5z
M502.5 50.5h145v-145h-145v145zM497.5 53v-150v-2.5h2.5h150h2.5v2.5v150v2.5h-2.5h-150h-2.5v-2.5zM502.5 350.5h145v-145h-145v145zM497.5 353v-150v-2.5h2.5h150h2.5v2.5v150v2.5h-2.5h-150h-2.5v-2.5zM52.5 50.5h295v-145h-295v145zM47.5 53v-150v-2.5h2.5h300h2.5v2.5
v150v2.5h-2.5h-300h-2.5v-2.5zM502.5 50.5h145v-145h-145v145zM497.5 53v-150v-2.5h2.5h150h2.5v2.5v150v2.5h-2.5h-150h-2.5v-2.5zM52.5 50.5h295v-145h-295v145zM47.5 53v-150v-2.5h2.5h300h2.5v2.5v150v2.5h-2.5h-300h-2.5v-2.5zM502.5 50.5h145v-145h-145v145zM497.5 53
v-150v-2.5h2.5h150h2.5v2.5v150v2.5h-2.5h-150h-2.5v-2.5zM502.5 50.5h145v-145h-145v145zM497.5 53v-150v-2.5h2.5h150h2.5v2.5v150v2.5h-2.5h-150h-2.5v-2.5z" />
    <glyph glyph-name="ring" unicode="&#x2da;" 
d="M427.5 647.5h145v-295h-145v295zM422.5 650v-300v-2.5h2.5h150h2.5v2.5v300v2.5h-2.5h-150h-2.5v-2.5zM727.5 647.5h145v-295h-145v295zM722.5 650v-300v-2.5h2.5h150h2.5v2.5v300v2.5h-2.5h-150h-2.5v-2.5zM127.5 197.5h145v-295h-145v295zM122.5 200v-300v-2.5h2.5h150
h2.5v2.5v300v2.5h-2.5h-150h-2.5v-2.5zM427.5 197.5h145v-295h-145v295zM422.5 200v-300v-2.5h2.5h150h2.5v2.5v300v2.5h-2.5h-150h-2.5v-2.5zM727.5 197.5h145v-295h-145v295zM722.5 200v-300v-2.5h2.5h150h2.5v2.5v300v2.5h-2.5h-150h-2.5v-2.5zM727.5 647.5h145v-295
h-145v295zM722.5 650v-300v-2.5h2.5h150h2.5v2.5v300v2.5h-2.5h-150h-2.5v-2.5zM127.5 197.5h145v-295h-145v295zM122.5 200v-300v-2.5h2.5h150h2.5v2.5v300v2.5h-2.5h-150h-2.5v-2.5zM427.5 197.5h145v-295h-145v295zM422.5 200v-300v-2.5h2.5h150h2.5v2.5v300v2.5h-2.5
h-150h-2.5v-2.5zM727.5 197.5h145v-295h-145v295zM722.5 200v-300v-2.5h2.5h150h2.5v2.5v300v2.5h-2.5h-150h-2.5v-2.5zM127.5 197.5h145v-295h-145v295zM122.5 200v-300v-2.5h2.5h150h2.5v2.5v300v2.5h-2.5h-150h-2.5v-2.5zM427.5 197.5h145v-295h-145v295zM422.5 200v-300
v-2.5h2.5h150h2.5v2.5v300v2.5h-2.5h-150h-2.5v-2.5zM727.5 197.5h145v-295h-145v295zM722.5 200v-300v-2.5h2.5h150h2.5v2.5v300v2.5h-2.5h-150h-2.5v-2.5zM427.5 197.5h145v-295h-145v295zM422.5 200v-300v-2.5h2.5h150h2.5v2.5v300v2.5h-2.5h-150h-2.5v-2.5zM727.5 197.5
h145v-295h-145v295zM722.5 200v-300v-2.5h2.5h150h2.5v2.5v300v2.5h-2.5h-150h-2.5v-2.5zM727.5 197.5h145v-295h-145v295zM722.5 200v-300v-2.5h2.5h150h2.5v2.5v300v2.5h-2.5h-150h-2.5v-2.5z" />
    <glyph glyph-name="quoteleft" unicode="&#x2018;" 
d="M427.5 647.5h145v-295h-145v295zM422.5 650v-300v-2.5h2.5h150h2.5v2.5v300v2.5h-2.5h-150h-2.5v-2.5zM727.5 647.5h145v-295h-145v295zM722.5 650v-300v-2.5h2.5h150h2.5v2.5v300v2.5h-2.5h-150h-2.5v-2.5zM127.5 497.5h145v-145h-145v145zM122.5 500v-150v-2.5h2.5h150
h2.5v2.5v150v2.5h-2.5h-150h-2.5v-2.5zM127.5 197.5h145v-295h-145v295zM122.5 200v-300v-2.5h2.5h150h2.5v2.5v300v2.5h-2.5h-150h-2.5v-2.5zM427.5 197.5h145v-295h-145v295zM422.5 200v-300v-2.5h2.5h150h2.5v2.5v300v2.5h-2.5h-150h-2.5v-2.5zM727.5 197.5h145v-145
h-145v145zM722.5 200v-150v-2.5h2.5h150h2.5v2.5v150v2.5h-2.5h-150h-2.5v-2.5zM727.5 647.5h145v-295h-145v295zM722.5 650v-300v-2.5h2.5h150h2.5v2.5v300v2.5h-2.5h-150h-2.5v-2.5zM127.5 497.5h145v-145h-145v145zM122.5 500v-150v-2.5h2.5h150h2.5v2.5v150v2.5h-2.5
h-150h-2.5v-2.5zM127.5 197.5h145v-295h-145v295zM122.5 200v-300v-2.5h2.5h150h2.5v2.5v300v2.5h-2.5h-150h-2.5v-2.5zM427.5 197.5h145v-295h-145v295zM422.5 200v-300v-2.5h2.5h150h2.5v2.5v300v2.5h-2.5h-150h-2.5v-2.5zM727.5 197.5h145v-145h-145v145zM722.5 200v-150
v-2.5h2.5h150h2.5v2.5v150v2.5h-2.5h-150h-2.5v-2.5zM127.5 497.5h145v-145h-145v145zM122.5 500v-150v-2.5h2.5h150h2.5v2.5v150v2.5h-2.5h-150h-2.5v-2.5zM127.5 197.5h145v-295h-145v295zM122.5 200v-300v-2.5h2.5h150h2.5v2.5v300v2.5h-2.5h-150h-2.5v-2.5zM427.5 197.5
h145v-295h-145v295zM422.5 200v-300v-2.5h2.5h150h2.5v2.5v300v2.5h-2.5h-150h-2.5v-2.5zM727.5 197.5h145v-145h-145v145zM722.5 200v-150v-2.5h2.5h150h2.5v2.5v150v2.5h-2.5h-150h-2.5v-2.5zM127.5 197.5h145v-295h-145v295zM122.5 200v-300v-2.5h2.5h150h2.5v2.5v300
v2.5h-2.5h-150h-2.5v-2.5zM427.5 197.5h145v-295h-145v295zM422.5 200v-300v-2.5h2.5h150h2.5v2.5v300v2.5h-2.5h-150h-2.5v-2.5zM727.5 197.5h145v-145h-145v145zM722.5 200v-150v-2.5h2.5h150h2.5v2.5v150v2.5h-2.5h-150h-2.5v-2.5zM427.5 197.5h145v-295h-145v295z
M422.5 200v-300v-2.5h2.5h150h2.5v2.5v300v2.5h-2.5h-150h-2.5v-2.5zM727.5 197.5h145v-145h-145v145zM722.5 200v-150v-2.5h2.5h150h2.5v2.5v150v2.5h-2.5h-150h-2.5v-2.5zM727.5 197.5h145v-145h-145v145zM722.5 200v-150v-2.5h2.5h150h2.5v2.5v150v2.5h-2.5h-150h-2.5
v-2.5z" />
    <glyph glyph-name="quoteright" unicode="&#x2019;" 
d="M427.5 647.5h145v-295h-145v295zM422.5 650v-300v-2.5h2.5h150h2.5v2.5v300v2.5h-2.5h-150h-2.5v-2.5zM727.5 647.5h145v-295h-145v295zM722.5 650v-300v-2.5h2.5h150h2.5v2.5v300v2.5h-2.5h-150h-2.5v-2.5zM127.5 497.5h145v-145h-145v145zM122.5 500v-150v-2.5h2.5h150
h2.5v2.5v150v2.5h-2.5h-150h-2.5v-2.5zM127.5 197.5h145v-295h-145v295zM122.5 200v-300v-2.5h2.5h150h2.5v2.5v300v2.5h-2.5h-150h-2.5v-2.5zM427.5 197.5h145v-295h-145v295zM422.5 200v-300v-2.5h2.5h150h2.5v2.5v300v2.5h-2.5h-150h-2.5v-2.5zM727.5 197.5h145v-145
h-145v145zM722.5 200v-150v-2.5h2.5h150h2.5v2.5v150v2.5h-2.5h-150h-2.5v-2.5zM727.5 647.5h145v-295h-145v295zM722.5 650v-300v-2.5h2.5h150h2.5v2.5v300v2.5h-2.5h-150h-2.5v-2.5zM127.5 497.5h145v-145h-145v145zM122.5 500v-150v-2.5h2.5h150h2.5v2.5v150v2.5h-2.5
h-150h-2.5v-2.5zM127.5 197.5h145v-295h-145v295zM122.5 200v-300v-2.5h2.5h150h2.5v2.5v300v2.5h-2.5h-150h-2.5v-2.5zM427.5 197.5h145v-295h-145v295zM422.5 200v-300v-2.5h2.5h150h2.5v2.5v300v2.5h-2.5h-150h-2.5v-2.5zM727.5 197.5h145v-145h-145v145zM722.5 200v-150
v-2.5h2.5h150h2.5v2.5v150v2.5h-2.5h-150h-2.5v-2.5zM127.5 497.5h145v-145h-145v145zM122.5 500v-150v-2.5h2.5h150h2.5v2.5v150v2.5h-2.5h-150h-2.5v-2.5zM127.5 197.5h145v-295h-145v295zM122.5 200v-300v-2.5h2.5h150h2.5v2.5v300v2.5h-2.5h-150h-2.5v-2.5zM427.5 197.5
h145v-295h-145v295zM422.5 200v-300v-2.5h2.5h150h2.5v2.5v300v2.5h-2.5h-150h-2.5v-2.5zM727.5 197.5h145v-145h-145v145zM722.5 200v-150v-2.5h2.5h150h2.5v2.5v150v2.5h-2.5h-150h-2.5v-2.5zM127.5 197.5h145v-295h-145v295zM122.5 200v-300v-2.5h2.5h150h2.5v2.5v300
v2.5h-2.5h-150h-2.5v-2.5zM427.5 197.5h145v-295h-145v295zM422.5 200v-300v-2.5h2.5h150h2.5v2.5v300v2.5h-2.5h-150h-2.5v-2.5zM727.5 197.5h145v-145h-145v145zM722.5 200v-150v-2.5h2.5h150h2.5v2.5v150v2.5h-2.5h-150h-2.5v-2.5zM427.5 197.5h145v-295h-145v295z
M422.5 200v-300v-2.5h2.5h150h2.5v2.5v300v2.5h-2.5h-150h-2.5v-2.5zM727.5 197.5h145v-145h-145v145zM722.5 200v-150v-2.5h2.5h150h2.5v2.5v150v2.5h-2.5h-150h-2.5v-2.5zM727.5 197.5h145v-145h-145v145zM722.5 200v-150v-2.5h2.5h150h2.5v2.5v150v2.5h-2.5h-150h-2.5
v-2.5z" />
    <glyph glyph-name="quotesinglbase" unicode="&#x201a;" 
d="M425 650h150v-300h-150v300zM725 650h150v-300h-150v300zM125 500h150v-150h-150v150zM125 200h150v-300h-150v300zM425 200h150v-300h-150v300zM725 200h150v-150h-150v150z" />
    <glyph glyph-name="quotedblbase" unicode="&#x201e;" 
d="M273 728h150v-150h-150v150zM573 728h150v-150h-150v150zM273 428h150v-300h-150v300zM573 428h150v-300h-150v300zM273 -22h150v-150h-150v150zM573 -22h150v-150h-150v150z" />
    <glyph glyph-name="perthousand" unicode="&#x2030;" 
d="M277.5 650.5h145v-145h-145v145zM272.5 653v-150v-2.5h2.5h150h2.5v2.5v150v2.5h-2.5h-150h-2.5v-2.5zM577.5 650.5h145v-295h-145v295zM572.5 653v-300v-2.5h2.5h150h2.5v2.5v300v2.5h-2.5h-150h-2.5v-2.5zM277.5 350.5h145v-145h-145v145zM272.5 353v-150v-2.5h2.5h150
h2.5v2.5v150v2.5h-2.5h-150h-2.5v-2.5zM577.5 200.5h145v-145h-145v145zM572.5 203v-150v-2.5h2.5h150h2.5v2.5v150v2.5h-2.5h-150h-2.5v-2.5zM277.5 50.5h145v-145h-145v145zM272.5 53v-150v-2.5h2.5h150h2.5v2.5v150v2.5h-2.5h-150h-2.5v-2.5zM577.5 650.5h145v-295h-145
v295zM572.5 653v-300v-2.5h2.5h150h2.5v2.5v300v2.5h-2.5h-150h-2.5v-2.5zM277.5 350.5h145v-145h-145v145zM272.5 353v-150v-2.5h2.5h150h2.5v2.5v150v2.5h-2.5h-150h-2.5v-2.5zM577.5 200.5h145v-145h-145v145zM572.5 203v-150v-2.5h2.5h150h2.5v2.5v150v2.5h-2.5h-150
h-2.5v-2.5zM277.5 50.5h145v-145h-145v145zM272.5 53v-150v-2.5h2.5h150h2.5v2.5v150v2.5h-2.5h-150h-2.5v-2.5zM277.5 350.5h145v-145h-145v145zM272.5 353v-150v-2.5h2.5h150h2.5v2.5v150v2.5h-2.5h-150h-2.5v-2.5zM577.5 200.5h145v-145h-145v145zM572.5 203v-150v-2.5
h2.5h150h2.5v2.5v150v2.5h-2.5h-150h-2.5v-2.5zM277.5 50.5h145v-145h-145v145zM272.5 53v-150v-2.5h2.5h150h2.5v2.5v150v2.5h-2.5h-150h-2.5v-2.5zM577.5 200.5h145v-145h-145v145zM572.5 203v-150v-2.5h2.5h150h2.5v2.5v150v2.5h-2.5h-150h-2.5v-2.5zM277.5 50.5h145
v-145h-145v145zM272.5 53v-150v-2.5h2.5h150h2.5v2.5v150v2.5h-2.5h-150h-2.5v-2.5zM277.5 50.5h145v-145h-145v145zM272.5 53v-150v-2.5h2.5h150h2.5v2.5v150v2.5h-2.5h-150h-2.5v-2.5z" />
    <glyph glyph-name="dagger" unicode="&#x2020;" 
d="M275 500h150v-300h-150v300zM575 500h300v-150h-300v150zM275 50h150v-150h-150v150z" />
    <glyph glyph-name="fraction" unicode="&#x2044;" 
d="M350 653h150v-150h-150v150zM650 653h300v-150h-300v150zM350 353h150v-150h-150v150zM50 202h150v-300h-150v300zM350 53h150v-150h-150v150z" />
    <glyph glyph-name="dotlessi" unicode="&#x131;" 
d="M275 353h150v-150h-150v150zM575 353h150v-150h-150v150z" />
    <glyph glyph-name="OE" unicode="&#x152;" 
d="M277.5 647.5h145v-295h-145v295zM272.5 650v-300v-2.5h2.5h150h2.5v2.5v300v2.5h-2.5h-150h-2.5v-2.5zM577.5 647.5h145v-295h-145v295zM572.5 650v-300v-2.5h2.5h150h2.5v2.5v300v2.5h-2.5h-150h-2.5v-2.5zM277.5 197.5h145v-295h-145v295zM272.5 200v-300v-2.5h2.5h150
h2.5v2.5v300v2.5h-2.5h-150h-2.5v-2.5zM577.5 197.5h145v-145h-145v145zM572.5 200v-150v-2.5h2.5h150h2.5v2.5v150v2.5h-2.5h-150h-2.5v-2.5zM577.5 647.5h145v-295h-145v295zM572.5 650v-300v-2.5h2.5h150h2.5v2.5v300v2.5h-2.5h-150h-2.5v-2.5zM277.5 197.5h145v-295
h-145v295zM272.5 200v-300v-2.5h2.5h150h2.5v2.5v300v2.5h-2.5h-150h-2.5v-2.5zM577.5 197.5h145v-145h-145v145zM572.5 200v-150v-2.5h2.5h150h2.5v2.5v150v2.5h-2.5h-150h-2.5v-2.5zM277.5 197.5h145v-295h-145v295zM272.5 200v-300v-2.5h2.5h150h2.5v2.5v300v2.5h-2.5
h-150h-2.5v-2.5zM577.5 197.5h145v-145h-145v145zM572.5 200v-150v-2.5h2.5h150h2.5v2.5v150v2.5h-2.5h-150h-2.5v-2.5zM577.5 197.5h145v-145h-145v145zM572.5 200v-150v-2.5h2.5h150h2.5v2.5v150v2.5h-2.5h-150h-2.5v-2.5z" />
    <glyph glyph-name="oe" unicode="&#x153;" 
d="M275 650h150v-300h-150v300zM575 650h150v-300h-150v300zM275 200h150v-300h-150v300zM575 200h150v-150h-150v150z" />
    <glyph glyph-name="daggerdbl" unicode="&#x2021;" 
d="M425 650h150v-300h-150v300zM725 650h150v-150h-150v150zM125 500h150v-300h-150v300zM425 200h150v-300h-150v300zM125 50h150v-150h-150v150z" />
    <glyph glyph-name="radical" unicode="&#x221a;" 
d="M575 745h150v-300h-150v300zM275 595h150v-150h-150v150zM275 295h150v-150h-150v150zM575 295h150v-150h-150v150zM275 -5h150v-150h-150v150zM575 -5h300v-150h-300v150z" />
    <glyph glyph-name="lozenge" unicode="&#x25ca;" 
d="M127.5 742.5h145v-295h-145v295zM122.5 745v-300v-2.5h2.5h150h2.5v2.5v300v2.5h-2.5h-150h-2.5v-2.5zM427.5 742.5h145v-145h-145v145zM422.5 745v-150v-2.5h2.5h150h2.5v2.5v150v2.5h-2.5h-150h-2.5v-2.5zM727.5 742.5h145v-295h-145v295zM722.5 745v-300v-2.5h2.5h150
h2.5v2.5v300v2.5h-2.5h-150h-2.5v-2.5zM427.5 442.5h145v-295h-145v295zM422.5 445v-300v-2.5h2.5h150h2.5v2.5v300v2.5h-2.5h-150h-2.5v-2.5zM127.5 292.5h145v-145h-145v145zM122.5 295v-150v-2.5h2.5h150h2.5v2.5v150v2.5h-2.5h-150h-2.5v-2.5zM127.5 -7.5h145v-145h-145
v145zM122.5 -5v-150v-2.5h2.5h150h2.5v2.5v150v2.5h-2.5h-150h-2.5v-2.5zM427.5 -7.5h145v-145h-145v145zM422.5 -5v-150v-2.5h2.5h150h2.5v2.5v150v2.5h-2.5h-150h-2.5v-2.5zM427.5 742.5h145v-145h-145v145zM422.5 745v-150v-2.5h2.5h150h2.5v2.5v150v2.5h-2.5h-150h-2.5
v-2.5zM727.5 742.5h145v-295h-145v295zM722.5 745v-300v-2.5h2.5h150h2.5v2.5v300v2.5h-2.5h-150h-2.5v-2.5zM427.5 442.5h145v-295h-145v295zM422.5 445v-300v-2.5h2.5h150h2.5v2.5v300v2.5h-2.5h-150h-2.5v-2.5zM127.5 292.5h145v-145h-145v145zM122.5 295v-150v-2.5h2.5
h150h2.5v2.5v150v2.5h-2.5h-150h-2.5v-2.5zM127.5 -7.5h145v-145h-145v145zM122.5 -5v-150v-2.5h2.5h150h2.5v2.5v150v2.5h-2.5h-150h-2.5v-2.5zM427.5 -7.5h145v-145h-145v145zM422.5 -5v-150v-2.5h2.5h150h2.5v2.5v150v2.5h-2.5h-150h-2.5v-2.5zM727.5 742.5h145v-295
h-145v295zM722.5 745v-300v-2.5h2.5h150h2.5v2.5v300v2.5h-2.5h-150h-2.5v-2.5zM427.5 442.5h145v-295h-145v295zM422.5 445v-300v-2.5h2.5h150h2.5v2.5v300v2.5h-2.5h-150h-2.5v-2.5zM127.5 292.5h145v-145h-145v145zM122.5 295v-150v-2.5h2.5h150h2.5v2.5v150v2.5h-2.5
h-150h-2.5v-2.5zM127.5 -7.5h145v-145h-145v145zM122.5 -5v-150v-2.5h2.5h150h2.5v2.5v150v2.5h-2.5h-150h-2.5v-2.5zM427.5 -7.5h145v-145h-145v145zM422.5 -5v-150v-2.5h2.5h150h2.5v2.5v150v2.5h-2.5h-150h-2.5v-2.5zM427.5 442.5h145v-295h-145v295zM422.5 445v-300
v-2.5h2.5h150h2.5v2.5v300v2.5h-2.5h-150h-2.5v-2.5zM127.5 292.5h145v-145h-145v145zM122.5 295v-150v-2.5h2.5h150h2.5v2.5v150v2.5h-2.5h-150h-2.5v-2.5zM127.5 -7.5h145v-145h-145v145zM122.5 -5v-150v-2.5h2.5h150h2.5v2.5v150v2.5h-2.5h-150h-2.5v-2.5zM427.5 -7.5
h145v-145h-145v145zM422.5 -5v-150v-2.5h2.5h150h2.5v2.5v150v2.5h-2.5h-150h-2.5v-2.5zM127.5 292.5h145v-145h-145v145zM122.5 295v-150v-2.5h2.5h150h2.5v2.5v150v2.5h-2.5h-150h-2.5v-2.5zM127.5 -7.5h145v-145h-145v145zM122.5 -5v-150v-2.5h2.5h150h2.5v2.5v150v2.5
h-2.5h-150h-2.5v-2.5zM427.5 -7.5h145v-145h-145v145zM422.5 -5v-150v-2.5h2.5h150h2.5v2.5v150v2.5h-2.5h-150h-2.5v-2.5zM127.5 -7.5h145v-145h-145v145zM122.5 -5v-150v-2.5h2.5h150h2.5v2.5v150v2.5h-2.5h-150h-2.5v-2.5zM427.5 -7.5h145v-145h-145v145zM422.5 -5v-150
v-2.5h2.5h150h2.5v2.5v150v2.5h-2.5h-150h-2.5v-2.5zM427.5 -7.5h145v-145h-145v145zM422.5 -5v-150v-2.5h2.5h150h2.5v2.5v150v2.5h-2.5h-150h-2.5v-2.5z" />
    <glyph glyph-name="guilsinglleft" unicode="&#x2039;" 
d="M273 728h150v-150h-150v150zM573 728h150v-150h-150v150zM273 428h150v-300h-150v300zM573 428h150v-300h-150v300zM273 -22h150v-150h-150v150zM573 -22h150v-150h-150v150z" />
    <glyph glyph-name="guilsinglright" unicode="&#x203a;" 
d="M275.5 725.5h145v-145h-145v145zM270.5 728v-150v-2.5h2.5h150h2.5v2.5v150v2.5h-2.5h-150h-2.5v-2.5zM575.5 725.5h145v-145h-145v145zM570.5 728v-150v-2.5h2.5h150h2.5v2.5v150v2.5h-2.5h-150h-2.5v-2.5zM275.5 425.5h145v-295h-145v295zM270.5 428v-300v-2.5h2.5h150
h2.5v2.5v300v2.5h-2.5h-150h-2.5v-2.5zM575.5 425.5h145v-295h-145v295zM570.5 428v-300v-2.5h2.5h150h2.5v2.5v300v2.5h-2.5h-150h-2.5v-2.5zM275.5 -24.5h145v-145h-145v145zM270.5 -22v-150v-2.5h2.5h150h2.5v2.5v150v2.5h-2.5h-150h-2.5v-2.5zM575.5 -24.5h145v-145
h-145v145zM570.5 -22v-150v-2.5h2.5h150h2.5v2.5v150v2.5h-2.5h-150h-2.5v-2.5zM575.5 725.5h145v-145h-145v145zM570.5 728v-150v-2.5h2.5h150h2.5v2.5v150v2.5h-2.5h-150h-2.5v-2.5zM275.5 425.5h145v-295h-145v295zM270.5 428v-300v-2.5h2.5h150h2.5v2.5v300v2.5h-2.5
h-150h-2.5v-2.5zM575.5 425.5h145v-295h-145v295zM570.5 428v-300v-2.5h2.5h150h2.5v2.5v300v2.5h-2.5h-150h-2.5v-2.5zM275.5 -24.5h145v-145h-145v145zM270.5 -22v-150v-2.5h2.5h150h2.5v2.5v150v2.5h-2.5h-150h-2.5v-2.5zM575.5 -24.5h145v-145h-145v145zM570.5 -22v-150
v-2.5h2.5h150h2.5v2.5v150v2.5h-2.5h-150h-2.5v-2.5zM275.5 425.5h145v-295h-145v295zM270.5 428v-300v-2.5h2.5h150h2.5v2.5v300v2.5h-2.5h-150h-2.5v-2.5zM575.5 425.5h145v-295h-145v295zM570.5 428v-300v-2.5h2.5h150h2.5v2.5v300v2.5h-2.5h-150h-2.5v-2.5zM275.5 -24.5
h145v-145h-145v145zM270.5 -22v-150v-2.5h2.5h150h2.5v2.5v150v2.5h-2.5h-150h-2.5v-2.5zM575.5 -24.5h145v-145h-145v145zM570.5 -22v-150v-2.5h2.5h150h2.5v2.5v150v2.5h-2.5h-150h-2.5v-2.5zM575.5 425.5h145v-295h-145v295zM570.5 428v-300v-2.5h2.5h150h2.5v2.5v300
v2.5h-2.5h-150h-2.5v-2.5zM275.5 -24.5h145v-145h-145v145zM270.5 -22v-150v-2.5h2.5h150h2.5v2.5v150v2.5h-2.5h-150h-2.5v-2.5zM575.5 -24.5h145v-145h-145v145zM570.5 -22v-150v-2.5h2.5h150h2.5v2.5v150v2.5h-2.5h-150h-2.5v-2.5zM275.5 -24.5h145v-145h-145v145z
M270.5 -22v-150v-2.5h2.5h150h2.5v2.5v150v2.5h-2.5h-150h-2.5v-2.5zM575.5 -24.5h145v-145h-145v145zM570.5 -22v-150v-2.5h2.5h150h2.5v2.5v150v2.5h-2.5h-150h-2.5v-2.5zM575.5 -24.5h145v-145h-145v145zM570.5 -22v-150v-2.5h2.5h150h2.5v2.5v150v2.5h-2.5h-150h-2.5
v-2.5z" />
    <glyph glyph-name="infinity" unicode="&#x221e;" 
d="M200 529h150v-150h-150v150zM650 529h150v-150h-150v150zM200 229h150v-150h-150v150zM650 229h150v-150h-150v150z" />
    <glyph glyph-name="ellipsis" unicode="&#x2026;" 
d="M575 650h150v-150h-150v150zM275 500h150v-150h-150v150zM575 350h150v-150h-150v150zM275 200h150v-300h-150v300zM575 50h150v-150h-150v150z" />
    <glyph glyph-name="underscore" unicode="_" 
d="M425 650h150v-300h-150v300zM725 650h150v-150h-150v150zM125 350h150v-150h-150v150zM725 350h150v-300h-150v300zM425 200h150v-300h-150v300zM125 50h150v-150h-150v150z" />
    <glyph glyph-name="endash" unicode="&#x2013;" 
d="M127.5 650.5h295v-145h-295v145zM122.5 653v-150v-2.5h2.5h300h2.5v2.5v150v2.5h-2.5h-300h-2.5v-2.5zM577.5 650.5h145v-145h-145v145zM572.5 653v-150v-2.5h2.5h150h2.5v2.5v150v2.5h-2.5h-150h-2.5v-2.5zM277.5 350.5h145v-145h-145v145zM272.5 353v-150v-2.5h2.5h150
h2.5v2.5v150v2.5h-2.5h-150h-2.5v-2.5zM577.5 350.5h145v-145h-145v145zM572.5 353v-150v-2.5h2.5h150h2.5v2.5v150v2.5h-2.5h-150h-2.5v-2.5zM277.5 50.5h145v-145h-145v145zM272.5 53v-150v-2.5h2.5h150h2.5v2.5v150v2.5h-2.5h-150h-2.5v-2.5zM577.5 50.5h295v-145h-295
v145zM572.5 53v-150v-2.5h2.5h300h2.5v2.5v150v2.5h-2.5h-300h-2.5v-2.5zM577.5 650.5h145v-145h-145v145zM572.5 653v-150v-2.5h2.5h150h2.5v2.5v150v2.5h-2.5h-150h-2.5v-2.5zM277.5 350.5h145v-145h-145v145zM272.5 353v-150v-2.5h2.5h150h2.5v2.5v150v2.5h-2.5h-150
h-2.5v-2.5zM577.5 350.5h145v-145h-145v145zM572.5 353v-150v-2.5h2.5h150h2.5v2.5v150v2.5h-2.5h-150h-2.5v-2.5zM277.5 50.5h145v-145h-145v145zM272.5 53v-150v-2.5h2.5h150h2.5v2.5v150v2.5h-2.5h-150h-2.5v-2.5zM577.5 50.5h295v-145h-295v145zM572.5 53v-150v-2.5h2.5
h300h2.5v2.5v150v2.5h-2.5h-300h-2.5v-2.5zM277.5 350.5h145v-145h-145v145zM272.5 353v-150v-2.5h2.5h150h2.5v2.5v150v2.5h-2.5h-150h-2.5v-2.5zM577.5 350.5h145v-145h-145v145zM572.5 353v-150v-2.5h2.5h150h2.5v2.5v150v2.5h-2.5h-150h-2.5v-2.5zM277.5 50.5h145v-145
h-145v145zM272.5 53v-150v-2.5h2.5h150h2.5v2.5v150v2.5h-2.5h-150h-2.5v-2.5zM577.5 50.5h295v-145h-295v145zM572.5 53v-150v-2.5h2.5h300h2.5v2.5v150v2.5h-2.5h-300h-2.5v-2.5zM577.5 350.5h145v-145h-145v145zM572.5 353v-150v-2.5h2.5h150h2.5v2.5v150v2.5h-2.5h-150
h-2.5v-2.5zM277.5 50.5h145v-145h-145v145zM272.5 53v-150v-2.5h2.5h150h2.5v2.5v150v2.5h-2.5h-150h-2.5v-2.5zM577.5 50.5h295v-145h-295v145zM572.5 53v-150v-2.5h2.5h300h2.5v2.5v150v2.5h-2.5h-300h-2.5v-2.5zM277.5 50.5h145v-145h-145v145zM272.5 53v-150v-2.5h2.5
h150h2.5v2.5v150v2.5h-2.5h-150h-2.5v-2.5zM577.5 50.5h295v-145h-295v145zM572.5 53v-150v-2.5h2.5h300h2.5v2.5v150v2.5h-2.5h-300h-2.5v-2.5zM577.5 50.5h295v-145h-295v145zM572.5 53v-150v-2.5h2.5h300h2.5v2.5v150v2.5h-2.5h-300h-2.5v-2.5z" />
    <glyph glyph-name="emdash" unicode="&#x2014;" 
d="M275 503h150v-150h-150v150zM425 353h150v-150h-150v150zM575 203h150v-150h-150v150z" />
    <glyph glyph-name="dotaccent" unicode="&#x2d9;" 
d="M125 653h150v-150h-150v150zM425 653h150v-150h-150v150zM725 653h150v-150h-150v150zM125 353h150v-150h-150v150zM425 353h150v-150h-150v150zM725 353h150v-150h-150v150zM125 53h150v-150h-150v150zM425 53h150v-150h-150v150z" />
    <glyph glyph-name="periodcentered" unicode="&#xb7;" 
d="M127.5 650.5h145v-145h-145v145zM122.5 653v-150v-2.5h2.5h150h2.5v2.5v150v2.5h-2.5h-150h-2.5v-2.5zM427.5 650.5h145v-145h-145v145zM422.5 653v-150v-2.5h2.5h150h2.5v2.5v150v2.5h-2.5h-150h-2.5v-2.5zM727.5 650.5h145v-145h-145v145zM722.5 653v-150v-2.5h2.5h150
h2.5v2.5v150v2.5h-2.5h-150h-2.5v-2.5zM127.5 350.5h145v-145h-145v145zM122.5 353v-150v-2.5h2.5h150h2.5v2.5v150v2.5h-2.5h-150h-2.5v-2.5zM427.5 350.5h145v-145h-145v145zM422.5 353v-150v-2.5h2.5h150h2.5v2.5v150v2.5h-2.5h-150h-2.5v-2.5zM727.5 350.5h145v-145
h-145v145zM722.5 353v-150v-2.5h2.5h150h2.5v2.5v150v2.5h-2.5h-150h-2.5v-2.5zM127.5 50.5h145v-145h-145v145zM122.5 53v-150v-2.5h2.5h150h2.5v2.5v150v2.5h-2.5h-150h-2.5v-2.5zM427.5 50.5h145v-145h-145v145zM422.5 53v-150v-2.5h2.5h150h2.5v2.5v150v2.5h-2.5h-150
h-2.5v-2.5zM427.5 650.5h145v-145h-145v145zM422.5 653v-150v-2.5h2.5h150h2.5v2.5v150v2.5h-2.5h-150h-2.5v-2.5zM727.5 650.5h145v-145h-145v145zM722.5 653v-150v-2.5h2.5h150h2.5v2.5v150v2.5h-2.5h-150h-2.5v-2.5zM127.5 350.5h145v-145h-145v145zM122.5 353v-150v-2.5
h2.5h150h2.5v2.5v150v2.5h-2.5h-150h-2.5v-2.5zM427.5 350.5h145v-145h-145v145zM422.5 353v-150v-2.5h2.5h150h2.5v2.5v150v2.5h-2.5h-150h-2.5v-2.5zM727.5 350.5h145v-145h-145v145zM722.5 353v-150v-2.5h2.5h150h2.5v2.5v150v2.5h-2.5h-150h-2.5v-2.5zM127.5 50.5h145
v-145h-145v145zM122.5 53v-150v-2.5h2.5h150h2.5v2.5v150v2.5h-2.5h-150h-2.5v-2.5zM427.5 50.5h145v-145h-145v145zM422.5 53v-150v-2.5h2.5h150h2.5v2.5v150v2.5h-2.5h-150h-2.5v-2.5zM727.5 650.5h145v-145h-145v145zM722.5 653v-150v-2.5h2.5h150h2.5v2.5v150v2.5h-2.5
h-150h-2.5v-2.5zM127.5 350.5h145v-145h-145v145zM122.5 353v-150v-2.5h2.5h150h2.5v2.5v150v2.5h-2.5h-150h-2.5v-2.5zM427.5 350.5h145v-145h-145v145zM422.5 353v-150v-2.5h2.5h150h2.5v2.5v150v2.5h-2.5h-150h-2.5v-2.5zM727.5 350.5h145v-145h-145v145zM722.5 353v-150
v-2.5h2.5h150h2.5v2.5v150v2.5h-2.5h-150h-2.5v-2.5zM127.5 50.5h145v-145h-145v145zM122.5 53v-150v-2.5h2.5h150h2.5v2.5v150v2.5h-2.5h-150h-2.5v-2.5zM427.5 50.5h145v-145h-145v145zM422.5 53v-150v-2.5h2.5h150h2.5v2.5v150v2.5h-2.5h-150h-2.5v-2.5zM127.5 350.5h145
v-145h-145v145zM122.5 353v-150v-2.5h2.5h150h2.5v2.5v150v2.5h-2.5h-150h-2.5v-2.5zM427.5 350.5h145v-145h-145v145zM422.5 353v-150v-2.5h2.5h150h2.5v2.5v150v2.5h-2.5h-150h-2.5v-2.5zM727.5 350.5h145v-145h-145v145zM722.5 353v-150v-2.5h2.5h150h2.5v2.5v150v2.5
h-2.5h-150h-2.5v-2.5zM127.5 50.5h145v-145h-145v145zM122.5 53v-150v-2.5h2.5h150h2.5v2.5v150v2.5h-2.5h-150h-2.5v-2.5zM427.5 50.5h145v-145h-145v145zM422.5 53v-150v-2.5h2.5h150h2.5v2.5v150v2.5h-2.5h-150h-2.5v-2.5zM427.5 350.5h145v-145h-145v145zM422.5 353
v-150v-2.5h2.5h150h2.5v2.5v150v2.5h-2.5h-150h-2.5v-2.5zM727.5 350.5h145v-145h-145v145zM722.5 353v-150v-2.5h2.5h150h2.5v2.5v150v2.5h-2.5h-150h-2.5v-2.5zM127.5 50.5h145v-145h-145v145zM122.5 53v-150v-2.5h2.5h150h2.5v2.5v150v2.5h-2.5h-150h-2.5v-2.5z
M427.5 50.5h145v-145h-145v145zM422.5 53v-150v-2.5h2.5h150h2.5v2.5v150v2.5h-2.5h-150h-2.5v-2.5zM727.5 350.5h145v-145h-145v145zM722.5 353v-150v-2.5h2.5h150h2.5v2.5v150v2.5h-2.5h-150h-2.5v-2.5zM127.5 50.5h145v-145h-145v145zM122.5 53v-150v-2.5h2.5h150h2.5
v2.5v150v2.5h-2.5h-150h-2.5v-2.5zM427.5 50.5h145v-145h-145v145zM422.5 53v-150v-2.5h2.5h150h2.5v2.5v150v2.5h-2.5h-150h-2.5v-2.5zM127.5 50.5h145v-145h-145v145zM122.5 53v-150v-2.5h2.5h150h2.5v2.5v150v2.5h-2.5h-150h-2.5v-2.5zM427.5 50.5h145v-145h-145v145z
M422.5 53v-150v-2.5h2.5h150h2.5v2.5v150v2.5h-2.5h-150h-2.5v-2.5zM427.5 50.5h145v-145h-145v145zM422.5 53v-150v-2.5h2.5h150h2.5v2.5v150v2.5h-2.5h-150h-2.5v-2.5z" />
  </font>
</defs>
</svg>
