<svg xmlns="http://www.w3.org/2000/svg" style="display: none;">
  
    <symbol id="visualbraille-accent-circumflex" viewBox="0 0 512 512">
      <path d="m250 66c3-1 7-1 10 0 12 1 24 5 34 13 14 11 23 29 23 47 0 16-5 31-16 43-12 13-30 21-48 20-19-1-36-10-47-25-6-8-11-18-12-29-1-4 0-8 0-12 0-12 5-24 13-34 10-13 26-22 43-23z m-151 52c3-1 6 0 8 2 5 3 6 11 1 14-4 4-11 4-14-1-4-5-1-13 5-15z m307 0c3-1 5 0 8 1 2 2 5 5 5 8 0 5-5 10-10 10-5 0-10-4-10-9 0-4 3-9 7-10z m-312 102c8-1 17-1 24 1 13 4 24 11 32 22 10 12 15 28 13 44-1 16-9 31-21 41-12 10-28 15-43 15-10-1-20-4-29-9-10-6-18-15-23-25-8-15-9-34-3-49 5-13 14-25 26-32 7-4 16-7 24-8z m308 0c8-1 16-1 24 2 10 3 20 8 27 16 7 7 12 16 15 26 5 16 3 33-6 48-9 15-24 26-42 30-18 3-38-2-52-15-12-10-19-25-21-41 0-5 0-11 1-16 3-18 15-34 31-43 7-4 15-6 23-7z m-149 51c5-1 10 2 12 7 1 6-3 12-9 13-4 0-9-3-10-8-2-5 2-11 7-12z m-152 154c5-1 11 4 10 9 1 5-3 9-7 10-6 1-12-4-12-10 0-4 4-9 9-9z m153 0c5-1 10 3 11 7 1 6-4 12-10 12-5 0-10-5-9-10 0-5 3-9 8-9z m153 0c6-1 12 4 12 9 0 7-7 12-13 10-5-2-8-8-6-13 1-3 4-6 7-6z"/>
    </symbol>
  
    <symbol id="visualbraille-1-numeric-domino" viewBox="0 0 512 512">
      <path d="m101 90c5 0 9 2 12 6 1 2 1 4 1 6 1 5-3 10-8 12-7 2-15-3-16-10-1-6 4-13 11-14z m307 0c7 0 13 5 13 11 1 6-3 12-9 13-3 1-6 0-9-2-3-2-5-5-6-8 0-7 5-13 11-14z m-156 1c3-1 7-1 10 1 4 2 6 7 6 11 0 7-8 13-15 11-5-1-9-6-9-11 0-6 3-11 8-12z m-5 101c9-1 17 0 25 2 18 5 33 17 41 33 8 15 9 34 3 50-5 17-18 31-35 38-15 6-33 7-49 1-17-7-31-22-37-39-6-18-4-39 6-55 10-16 28-27 46-30z m-147 52c3-1 8 0 10 3 3 2 4 6 5 9-1 3-2 7-5 9-3 3-9 4-13 2-4-2-6-6-7-10 0-6 4-12 10-13z m307 0c4-1 8 0 11 3 3 3 4 7 3 11 0 3-2 6-5 8-4 2-9 3-12 0-4-2-6-5-7-9 0-6 4-12 10-13z m-306 153c3 0 6 1 8 2 3 2 5 6 6 10-1 4-2 8-6 10-4 3-9 3-13 0-4-2-6-7-6-12 1-5 6-9 11-10z m153 0c7-1 14 5 14 12 0 5-2 9-6 11-4 2-8 2-12 0-4-2-6-6-6-11 0-5 4-11 10-12z m154 0c4 0 7 1 9 3 3 3 5 7 4 11 0 4-2 7-5 9-4 2-10 2-14-1-4-3-6-10-3-15 2-4 5-6 9-7z"/>
    </symbol>
  
    <symbol id="visualbraille-2-numeric-domino" viewBox="0 0 512 512">
      <path d="m402 41c18-2 37 4 50 17 12 11 19 26 19 42 1 19-8 39-24 51-8 7-18 11-29 13-4 0-9 1-13 0-18-1-36-11-46-26-6-9-10-20-11-31-1-3 0-7 0-10 1-20 14-39 31-48 7-4 15-7 23-8z m-302 52c2 0 4 0 6 0 4 2 6 5 6 9 0 4-2 7-5 9-2 1-5 1-7 1-4-1-7-5-7-9-1-5 3-9 7-10z m153 0c3-1 5 0 8 1 3 1 4 5 5 8 0 5-4 10-9 10-5 1-9-2-10-7-2-5 1-11 6-12z m-152 153c5-1 11 4 11 10 0 5-5 10-11 10-2-1-5-2-7-5-2-3-2-7 0-11 2-2 4-3 7-4z m153 0c7-1 13 6 11 12 0 4-4 7-8 8-6 1-12-6-11-12 1-4 5-7 8-8z m154 0c5-1 11 4 11 10 0 6-7 12-13 9-5-2-7-7-6-12 1-4 4-6 8-7z m-311 102c5-1 10 0 15 1 19 3 37 15 45 32 4 8 6 16 7 24 0 3 0 7 0 10-2 21-15 40-34 50-18 9-40 8-58-2-18-10-30-29-31-49-2-17 5-35 17-48 10-10 25-17 39-18z m156 52c3-1 7 0 9 2 2 2 3 4 4 7 0 4-2 7-5 9-3 2-8 2-11-1-3-2-5-7-3-10 0-3 3-6 6-7z m154 0c2 0 5 0 7 1 3 2 5 5 5 8 0 5-5 11-10 10-5 0-10-5-9-10 0-4 3-8 7-9z"/>
    </symbol>
  
    <symbol id="visualbraille-3-numeric-domino" viewBox="0 0 512 512">
      <path d="m405 38c18-1 37 6 50 20 11 10 17 25 18 40 2 19-6 39-20 52-14 12-33 18-51 16-18-2-36-12-46-28-8-13-12-29-10-44 2-19 13-36 29-46 9-5 19-9 30-10z m-304 52c5 0 9 2 12 6 1 2 1 4 2 6 0 5-4 10-9 12-7 2-15-3-16-10-1-7 5-13 11-14z m151 1c3-1 7-1 10 1 4 2 6 7 6 11 0 7-8 13-15 11-5-1-9-6-9-11 0-6 3-11 8-12z m-5 101c14-1 28 1 40 8 19 10 32 31 33 53 1 15-4 30-13 42-10 13-25 22-41 24-15 3-31-1-44-9-18-11-30-31-30-51-1-16 4-31 13-43 11-13 26-21 42-24z m-147 52c3-1 8 0 10 3 3 2 4 6 5 9-1 3-2 7-5 9-2 3-7 4-11 3-5-2-8-6-9-11 0-6 4-12 10-13z m307 0c4-1 8 0 11 3 3 4 4 9 3 14-2 4-7 7-12 7-5 0-10-4-11-9-2-6 2-14 9-15z m-312 102c23-3 47 8 60 27 9 13 13 30 11 46-3 18-14 35-30 45-9 6-19 9-30 9-18 2-36-5-49-19-11-10-18-25-19-40-1-18 5-35 17-48 10-11 25-19 40-20z m159 51c7-1 14 5 14 12 0 5-2 9-6 11-4 2-8 2-12 0-4-2-6-6-6-11 0-5 4-11 10-12z m154 0c4 0 7 1 10 4 3 2 4 6 3 10 0 4-2 7-5 9-4 2-9 2-13-1-5-3-7-10-4-16 2-3 5-5 9-6z"/>
    </symbol>
  
    <symbol id="visualbraille-4-numeric-domino" viewBox="0 0 512 512">
      <path d="m95 41c8-1 16 0 24 2 15 4 27 13 35 26 6 9 9 19 10 29 1 4 0 8 0 12-2 12-7 23-15 32-10 12-24 20-39 22-4 0-8 1-12 0-12-1-24-5-33-13-10-7-18-18-21-30-5-14-4-29 1-42 5-13 15-23 26-30 7-4 15-7 24-8z m307 0c14-2 28 1 40 9 10 6 19 16 24 27 7 15 7 33 1 49-7 17-23 31-41 36-5 1-10 2-16 2-9 0-18-2-26-5-17-8-30-24-34-41-2-5-2-10-2-15 0-6 0-12 2-18 3-10 9-20 17-27 9-9 22-15 35-17z m-149 52c3 0 5 0 7 1 3 1 5 4 6 7 0 6-5 11-10 11-6 0-11-6-10-12 1-3 4-6 7-7z m-152 153c5-1 11 4 11 10 0 4-3 8-7 9-6 2-13-3-12-9-1-5 3-9 8-10z m153 0c6-1 12 5 12 11-1 3-3 7-7 8-5 2-11-1-12-6-2-6 2-12 7-13z m154 0c5-1 11 4 11 10 0 6-7 11-12 9-5-1-8-5-7-10 0-4 4-8 8-9z m-311 102c4-1 7-1 10 0 20 1 38 12 48 29 5 9 8 19 9 29 1 18-6 35-18 47-11 11-26 18-41 18-17 1-34-6-45-17-12-11-19-26-19-42-1-17 5-34 17-46 10-10 25-17 39-18z m308 0c3-1 6-1 9 0 17 1 34 10 44 24 9 11 14 26 13 40 0 12-5 25-12 35-7 9-16 16-27 20-14 5-30 6-44 0-15-5-27-16-34-30-3-7-6-15-6-23-1-3-1-6 0-9 1-19 12-37 27-47 9-6 19-9 30-10z m-152 52c2 0 4 0 5 0 4 1 7 4 7 7 2 6-3 12-9 12-6 0-11-6-10-12 1-3 4-6 7-7z"/>
    </symbol>
  
    <symbol id="visualbraille-5-numeric-domino" viewBox="0 0 512 512">
      <path d="m96 39c4-1 8-1 13 0 16 1 31 9 41 21 14 16 20 38 15 58-3 12-10 23-19 31-9 9-22 15-35 17-10 1-21 0-31-4-14-5-26-15-33-27-6-10-9-21-9-32 0-13 4-25 11-36 10-16 28-27 47-28z m309-1c18-1 37 6 50 19 14 14 21 36 18 56-4 18-15 35-30 44-13 8-28 11-43 9-20-3-38-16-48-34-8-17-9-36-2-53 6-17 21-31 39-37 5-2 10-3 16-4z m-153 53c4-1 7-1 10 1 4 2 6 7 6 11 0 7-8 13-15 11-3-1-6-3-7-5-3-4-3-10 0-13 1-3 4-4 6-5z m-5 101c9-1 17 0 25 2 18 5 33 17 41 34 9 18 9 40 0 57-9 18-26 31-46 34-11 2-24 1-35-3-17-7-31-22-37-40-6-18-3-39 7-56 11-15 27-25 45-28z m-147 52c3-1 8 0 10 3 3 2 4 6 5 9-1 3-2 7-5 9-3 3-8 4-12 2-4-1-7-5-8-10 0-6 4-12 10-13z m307 0c4-1 8 0 11 3 3 4 4 9 3 14-2 4-7 7-12 7-5 0-10-4-11-9-2-6 2-14 9-15z m-312 102c16-2 32 2 45 12 16 11 26 30 26 50 1 16-5 33-17 45-11 13-29 20-46 21-17 0-34-7-45-19-15-14-22-34-19-54 2-18 13-35 29-45 8-6 17-9 27-10z m307 0c15-2 30 2 42 10 13 8 22 20 27 34 1 6 2 12 3 18 0 11-3 22-8 31-6 11-15 21-26 27-9 5-20 7-30 8-16 0-32-6-43-17-13-11-21-29-22-46 0-16 6-33 17-45 10-11 25-19 40-20z m-148 51c7-1 14 5 14 12 0 7-6 13-13 12-6 0-12-6-11-12 0-6 4-11 10-12z"/>
    </symbol>
  
    <symbol id="visualbraille-6-numeric-domino" viewBox="0 0 512 512">
      <path d="m95 41c4 0 9 0 14 0 14 1 28 8 37 18 10 10 16 22 18 35 0 4 1 8 0 12-1 14-7 28-16 38-10 11-24 18-38 20-3 0-5 0-7 0-9 0-18-2-26-6-15-6-26-18-32-33-6-15-6-32 0-46 6-14 18-26 32-33 5-2 11-4 18-5z m307 0c16-2 33 3 46 13 13 11 22 28 23 45 1 12-2 24-8 34-9 16-26 28-44 30-5 1-9 2-14 1-18-1-34-10-45-24-8-12-13-26-12-40 0-10 3-19 7-27 10-17 27-30 47-32z m-149 52c3 0 5 0 7 1 4 1 6 5 6 9-1 2-2 5-4 7-2 2-6 2-9 2-3-1-6-4-6-7-2-5 1-11 6-12z m-157 101c18-1 37 5 50 18 9 9 16 22 18 36 0 4 1 8 0 12-1 17-10 34-24 45-11 8-25 13-40 13-18-1-35-10-46-24-8-10-13-23-13-35-1-19 7-37 20-49 10-9 22-14 35-16z m307 0c16-1 32 3 44 13 14 11 23 28 24 46 1 16-5 32-16 44-12 13-30 21-47 21-20-1-39-11-49-27-8-11-11-24-11-36 0-8 2-16 5-24 5-11 12-20 22-26 8-6 18-9 28-11z m-149 52c5-1 10 3 11 8 2 6-4 13-11 12-3-1-6-4-7-7-2-6 2-12 7-13z m-157 102c2 0 3 0 4 0 12 0 24 3 34 9 16 10 28 28 29 48 0 3 0 6 0 10-2 21-15 40-34 50-18 9-40 8-58-2-18-10-30-29-31-49-1-15 3-30 12-42 11-14 27-23 44-24z m308 0c3-1 6-1 9 0 18 1 35 11 45 25 9 12 13 27 12 42-1 14-7 27-17 37-6 7-14 12-22 15-14 5-30 6-44 0-12-4-23-13-30-23-6-9-9-19-10-30-1-3-1-6 0-9 1-20 13-39 31-49 8-5 17-7 26-8z m-152 52c3-1 7 0 9 2 2 2 3 4 4 7 0 4-3 8-6 9-5 3-12 0-13-5-2-5 1-11 6-13z"/>
    </symbol>
  
    <symbol id="visualbraille-7-numeric-domino" viewBox="0 0 512 512">
      <path d="m96 39c7-1 14 0 21 1 15 3 29 13 38 25 8 11 12 25 11 39 0 21-11 41-29 52-17 11-38 13-56 7-14-5-26-15-33-27-7-11-10-23-10-35 1-8 2-15 5-22 6-15 17-28 32-35 7-3 14-5 21-5z m309-1c18-1 37 6 50 20 15 14 22 37 17 57-4 19-16 36-34 45-13 6-28 8-42 5-16-3-31-13-40-27-8-13-12-29-10-44 2-18 13-35 28-45 10-6 20-10 31-11z m-153 53c3-1 7-1 10 1 4 2 6 7 6 11 0 7-8 13-15 11-5-1-9-6-9-11 0-6 3-11 8-12z m-157 101c6 0 12 0 19 1 13 2 25 9 35 19 12 13 19 32 17 50-1 11-5 22-12 31-11 16-30 26-49 27-16 1-31-5-43-15-16-12-25-33-24-54 1-13 6-26 15-36 10-12 25-21 42-23z m152 0c9-1 17 0 25 2 18 4 34 18 42 35 9 20 8 43-4 61-10 15-26 26-44 29-14 3-30 0-43-8-17-10-30-30-31-50-1-9 0-18 3-26 6-17 20-32 37-39 5-2 10-3 15-4z m155 0c8-1 16 0 24 2 17 5 33 17 41 33 4 9 6 18 7 28 0 10-3 21-8 31-8 15-23 27-40 32-16 4-35 2-49-7-17-10-29-27-31-46-2-17 2-34 12-47 10-14 26-24 44-26z m-307 154c20-3 41 5 55 20 11 13 17 29 16 45 0 18-8 35-21 46-10 10-24 15-39 16-18 2-36-5-49-18-13-13-20-31-19-49 1-11 4-22 10-31 10-16 28-27 47-29z m307 0c18-2 37 4 50 16 11 9 18 23 21 37 2 14 0 28-7 40-10 19-29 32-50 34-6 1-12 0-18 0-14-3-27-10-36-21-13-14-19-33-16-52 2-17 13-34 28-44 8-5 18-9 28-10z m-148 52c4-1 8 0 11 4 3 2 3 6 3 10-1 4-4 7-7 8-4 2-8 2-11 0-4-2-6-7-6-11 0-5 4-11 10-11z"/>
    </symbol>
  
    <symbol id="visualbraille-8-numeric-domino" viewBox="0 0 512 512">
      <path d="m95 41c8-1 16 0 24 2 16 5 30 16 38 30 6 12 9 26 6 39-2 14-9 27-19 36-9 8-21 14-34 16-3 0-6 0-10 0-3 0-7 0-11-1-16-4-30-14-39-28-6-9-9-19-9-30-1-17 6-35 18-47 10-9 22-15 36-17z m152 0c8-1 15-1 22 1 13 3 24 10 33 19 10 12 16 27 16 43-1 18-10 36-24 47-11 9-25 13-40 13-7 0-14-2-21-4-14-6-26-17-33-31-8-17-8-38 1-55 9-18 27-30 46-33z m155 0c18-2 37 4 51 17 12 12 19 30 18 47 0 16-8 31-19 42-8 8-19 13-30 16-4 1-8 1-12 1-8 0-17-1-25-5-16-7-29-21-34-38-6-16-4-33 4-48 9-17 27-30 47-32z m-306 153c7 0 13 0 20 2 14 3 26 11 35 22 7 8 11 19 13 30 0 4 1 8 0 12-1 17-10 34-24 45-11 8-25 13-40 13-12-1-24-5-33-12-16-11-26-29-26-47-1-10 1-19 5-28 6-13 16-24 28-30 7-4 14-6 22-7z m307 1c15-2 30 2 42 11 16 10 25 28 26 47 1 16-5 32-15 44-12 13-30 21-48 21-19-1-37-10-48-25-7-9-11-21-12-33-1-3-1-6 0-9 1-19 12-37 29-47 8-5 17-8 26-9z m-149 51c7-1 13 6 11 12-1 6-7 9-12 7-4-1-7-5-7-9 0-5 4-9 8-10z m-157 102c4-1 7-1 10 0 20 1 39 13 49 30 5 10 8 21 8 32 0 8-1 15-4 22-6 16-20 29-36 35-14 5-29 5-43 0-17-6-31-20-37-37-6-18-4-37 6-53 10-16 28-28 47-29z m154 0c3-1 7-1 10 0 21 1 41 15 50 34 9 17 9 38 0 55-9 18-26 30-45 33-17 3-34-1-48-12-14-11-23-28-24-47 0-17 7-34 19-46 10-10 24-16 38-17z m154 0c3-1 6-1 9 0 18 1 35 11 45 25 9 12 13 27 12 42-1 12-6 24-14 33-6 8-14 14-23 18-14 6-31 7-45 2-13-5-24-13-31-24-6-9-9-19-10-30-1-3-1-6 0-9 1-19 12-37 28-47 8-6 18-9 29-10z"/>
    </symbol>
  
    <symbol id="visualbraille-9-numeric-domino-basic-sign-9-dot" viewBox="0 0 512 512">
      <path d="m96 39c4-1 8-1 13 0 15 1 30 8 40 20 10 10 16 23 17 36 2 21-6 42-21 55-10 9-22 15-36 16-10 1-21 0-31-4-14-6-27-18-34-32-4-10-6-21-6-32 1-13 6-25 14-35 11-14 27-23 44-24z m156-1c21-1 43 9 55 26 13 16 16 39 10 58-6 18-20 33-36 40-9 3-18 5-28 4-12 0-25-4-35-12-12-9-21-22-24-37-5-19 0-40 12-55 11-14 28-23 46-24z m153 0c18-1 37 6 50 19 14 14 21 36 18 56-4 20-17 37-34 46-14 8-31 9-47 5-9-3-18-8-26-14-13-13-21-30-21-48 0-20 10-39 25-50 10-8 22-13 35-14z m-310 154c10-1 21 0 31 4 14 6 26 17 33 31 8 15 10 33 4 49-6 18-20 33-37 40-20 8-45 4-62-9-17-12-27-34-26-56 1-13 6-26 15-36 10-12 25-21 42-23z m152 0c11-1 22 0 32 4 17 7 31 21 37 38 7 18 5 38-5 55-11 18-31 30-52 31-10 0-20-2-29-6-18-7-31-23-36-41-6-21 0-44 14-60 10-11 24-19 39-21z m155 0c11-1 22 0 33 5 18 8 32 24 37 43 4 18 1 38-10 53-11 16-30 26-50 27-9 0-18-1-26-5-18-7-32-22-38-40-6-18-3-40 9-56 10-15 27-25 45-27z m-307 154c16-2 32 2 45 12 14 10 23 25 26 42 2 16-2 33-11 46-10 14-26 25-44 27-20 3-40-4-54-18-14-14-21-35-18-54 2-19 13-36 29-46 8-5 18-8 27-9z m154 0c17-2 34 3 47 14 16 12 25 32 24 52-1 19-10 37-26 49-15 11-36 16-55 10-18-5-34-18-42-36-8-17-7-38 2-55 9-19 29-32 50-34z m153 0c16-2 33 2 46 12 13 10 22 25 25 41 2 14 0 28-7 41-10 18-28 31-49 33-16 2-33-2-46-12-14-11-23-26-25-43-2-15 1-30 9-42 10-17 28-28 47-30z"/>
    </symbol>
  
    <symbol id="visualbraille-0-numeric-domino-basic-sign-6-dot" viewBox="0 0 512 512">
      <path d="m96 39c4-1 8-1 12 0 14 1 28 7 38 16 13 13 21 31 20 49 0 20-11 40-28 52-9 5-19 9-29 10-12 1-24-1-35-6-14-7-25-19-31-33-3-8-4-15-5-23 0-12 3-24 9-34 10-18 29-30 49-31z m156-1c13 0 25 3 36 9 18 10 30 30 32 50 0 5 0 10-1 15-3 19-15 37-32 46-15 9-34 11-51 5-15-5-28-15-36-29-8-15-10-33-6-49 4-13 12-25 22-33 10-8 23-13 36-14z m156 52c7 0 13 5 13 11 1 6-3 12-9 13-3 1-6 0-9-2-3-2-5-5-6-8 0-7 5-13 11-14z m-313 102c6 0 12 0 18 1 11 2 21 6 30 13 15 13 24 32 23 52 0 16-7 33-19 44-13 12-30 19-47 18-21-1-41-12-52-30-5-8-9-18-9-28-1-4-1-8 0-12 1-13 6-26 15-36 10-12 25-20 41-22z m152 0c9-1 17 0 25 2 18 4 33 17 41 33 9 18 9 40 0 58-9 18-27 31-46 34-9 1-18 1-26-1-19-4-35-18-43-35-9-19-8-41 2-58 9-18 28-30 47-33z m160 52c4-1 8 0 11 3 3 4 4 9 3 14-2 4-7 7-12 7-6 0-10-4-11-9-2-7 2-14 9-15z m-312 102c18-2 37 4 50 15 9 8 15 19 19 30 5 18 2 37-7 52-10 17-29 28-48 30-5 1-9 1-13 0-19-2-37-13-48-29-4-7-7-15-9-24-3-17 2-35 12-48 10-15 27-24 44-26z m154 0c15-2 31 2 44 11 16 11 26 30 27 50 1 20-8 40-24 52-13 11-31 16-49 14-11-2-22-6-31-14-16-12-25-32-24-52 0-18 9-36 24-47 9-8 21-13 33-14z m159 51c4 0 7 1 9 3 3 3 5 7 4 11 0 4-2 7-5 9-4 2-10 2-14-1-4-3-6-10-3-15 2-4 5-6 9-7z"/>
    </symbol>
  
    <symbol id="visualbraille-sz-sharp-s" viewBox="0 0 512 512">
      <path d="m247 41c17-2 34 2 47 12 14 11 23 29 24 47 0 18-7 35-19 47-10 9-22 15-35 17-4 0-8 1-12 0-10-1-20-4-29-9-17-11-28-30-29-51 0-11 3-23 8-33 10-16 27-27 45-30z m-147 52c4-1 8 0 10 3 3 4 2 12-2 14-3 2-6 2-8 2-4-1-7-5-7-9-1-5 3-9 7-10z m307 0c2-1 5 0 7 1 3 2 5 5 5 8 1 5-4 10-10 10-5 0-9-4-9-9-1-5 3-9 7-10z m-311 101c7 0 13 0 19 2 14 2 26 10 34 20 9 10 14 23 15 36 0 3 0 6 0 9-1 20-14 40-32 49-15 8-33 10-48 5-11-4-20-10-28-18-10-12-16-28-15-44 0-14 6-28 15-38 11-12 25-19 40-21z m158 52c7-1 13 6 11 12-1 6-7 9-12 7-5-2-8-8-6-12 1-4 4-6 7-7z m154 0c5-1 11 4 11 10 0 6-6 11-12 9-4-1-7-5-7-9 0-5 3-9 8-10z m-311 102c4-1 7-1 10 0 19 1 37 12 47 28 5 7 8 16 10 25 0 4 1 9 0 13-1 18-11 35-25 45-13 10-30 14-46 11-11-1-21-6-29-12-13-10-22-27-23-43-2-15 3-31 12-43 11-14 27-23 44-24z m154 0c3-1 6-1 10 0 18 1 36 12 47 28 7 12 11 26 9 40-1 11-5 22-12 31-11 14-28 23-46 24-17 1-33-5-45-16-12-11-19-27-20-44 0-17 7-34 19-46 10-10 24-16 38-17z m156 52c2 0 5 0 7 1 3 2 5 5 5 8 1 5-4 11-10 10-5 0-10-5-9-10 0-4 3-8 7-9z"/>
    </symbol>
  
    <symbol id="visualbraille-degree" viewBox="0 0 512 512">
      <path d="m402 41c15-2 30 2 42 10 15 11 26 28 27 46 1 15-3 31-13 43-10 14-27 23-44 24-5 1-9 0-14-1-19-3-36-15-45-31-4-8-7-17-7-26-1-3 0-7 0-11 1-11 6-22 13-31 10-12 25-21 41-23z m-302 52c4-1 8 0 10 3 3 4 2 12-2 14-3 2-6 2-8 2-4-1-7-5-7-9-1-5 3-9 7-10z m153 0c3 0 5 0 7 1 4 1 5 5 6 8 0 4-3 8-7 10-5 1-11-2-12-6-2-5 1-12 6-13z m-152 153c4-1 10 3 11 7 0 3 0 7-2 9-2 2-5 3-7 4-4 0-8-2-9-6-1-2-1-4-1-6 0-4 4-7 8-8z m153 0c5-1 10 3 11 8 2 7-5 13-11 11-6-1-9-7-7-12 1-3 4-6 7-7z m154 0c5-1 11 4 11 10 0 6-7 11-12 9-5-1-8-6-7-11 0-4 4-7 8-8z m-309 154c3 0 6 0 8 1 3 2 5 5 5 9 0 4-3 7-6 9-2 0-4 0-6 0-4-1-8-5-7-10 0-4 3-8 6-9z m154 0c3-1 7 0 9 2 2 2 3 4 4 7 0 4-3 8-6 9-5 3-12 0-13-5-2-5 1-11 6-13z m153 0c3 0 6 0 8 1 3 2 5 5 5 8 1 5-5 11-10 10-5 0-10-5-9-10 0-4 3-8 6-9z"/>
    </symbol>
  
    <symbol id="visualbraille-exclamation-point" viewBox="0 0 512 512">
      <path d="m101 90c5 0 9 2 12 6 1 2 1 4 2 6 0 5-4 10-9 12-7 2-15-3-16-10-1-7 5-13 11-14z m307 0c7 0 13 5 13 11 1 6-3 12-9 13-3 1-6 0-9-2-3-2-5-5-6-8 0-7 5-13 11-14z m-156 1c4-1 7-1 10 1 4 2 6 7 6 11 0 7-8 13-15 11-3-1-6-3-7-5-3-4-3-10 0-13 1-3 4-4 6-5z m-157 101c11-1 23 0 33 5 13 6 24 16 31 29 9 16 10 35 3 52-7 19-23 34-43 40-19 5-40 1-55-11-17-13-27-34-26-56 1-13 6-25 15-35 10-13 25-22 42-24z m152 0c10-1 19 0 28 3 19 5 34 20 41 39 7 19 4 42-8 59-11 16-30 26-49 27-21 1-41-8-53-24-7-9-12-20-14-32-1-10 0-20 4-30 6-18 21-33 39-39 4-1 8-2 12-3z m160 52c4-1 8 0 11 3 3 4 4 9 3 14-2 4-7 7-12 7-6 0-10-4-11-9-2-7 2-14 9-15z m-312 102c16-2 33 2 46 12 13 10 23 26 25 42 2 15-1 30-9 43-5 9-13 17-23 22-10 6-21 8-32 9-9-1-18-2-26-6-18-8-32-25-36-45-4-18 0-38 12-53 10-13 26-22 43-24z m159 51c7-1 14 5 14 12 0 4-2 9-6 11-4 2-8 2-12 0-4-2-6-6-6-11 0-6 4-11 10-12z m154 0c4 0 7 1 9 3 3 3 5 7 4 11 0 4-2 7-5 9-4 2-9 2-13-1-4-2-6-6-6-10 0-3 2-6 4-8 2-2 5-3 7-4z"/>
    </symbol>
  
    <symbol id="visualbraille-doublequote-low" viewBox="0 0 512 512">
      <path d="m100 93c2 0 4 0 6 0 4 2 6 5 6 9 0 3-2 7-5 9-4 2-9 1-12-2-3-4-3-10 0-13 1-2 3-3 5-3z m153 0c3 0 5 0 7 1 3 1 5 5 6 8 0 4-3 8-7 10-5 1-11-2-12-6-2-5 1-12 6-13z m154 0c2-1 5 0 7 1 3 2 5 5 5 8 1 5-4 10-9 10-4 0-8-2-10-6-2-5 1-12 7-13z m-311 101c6 0 12 0 17 1 14 3 28 10 37 21 7 9 12 21 14 32 0 3 0 5 0 7 0 9-2 19-6 27-7 17-23 30-42 34-13 3-27 2-39-4-9-4-17-10-23-17-9-12-15-28-13-44 1-13 6-26 15-36 11-12 25-19 40-21z m158 52c5-1 10 3 11 8 2 6-4 13-11 12-3-1-6-4-7-7-2-6 2-12 7-13z m154 0c5-1 11 4 11 10 0 6-6 11-12 9-4-1-7-5-7-9 0-5 3-9 8-10z m-311 102c4-1 7-1 10 0 20 1 38 12 48 29 4 7 7 16 9 24 0 5 1 9 0 13-1 18-11 35-25 45-14 10-32 14-49 11-16-3-30-13-39-26-8-12-11-26-10-40 1-12 5-23 13-32 10-14 26-23 43-24z m154 0c3-1 6-1 10 0 20 1 39 14 49 32 6 11 9 24 7 36-2 18-11 34-26 44-16 11-37 14-55 8-11-4-21-11-28-20-10-13-15-29-13-46 1-10 5-21 12-30 10-14 26-23 44-24z m155 52c3 0 6 0 8 1 3 2 5 5 5 8 1 6-5 11-10 10-5 0-10-5-9-10 0-4 3-8 6-9z"/>
    </symbol>
  
    <symbol id="visualbraille-doublequote-high" viewBox="0 0 512 512">
      <path d="m101 90c5 0 9 2 12 6 1 2 1 4 1 6 1 5-3 10-8 12-7 2-15-3-16-10-1-6 4-13 11-14z m307 0c7 0 13 5 13 11 1 6-3 12-9 13-3 1-7 0-9-2-3-2-5-5-6-8 0-7 5-13 11-14z m-156 1c4-1 7-1 10 1 4 2 6 7 6 11 0 7-8 13-15 11-5-1-9-6-9-11 0-6 3-11 8-12z m-5 101c10-1 19 0 28 3 19 5 34 20 41 39 7 18 5 38-5 55-11 18-31 30-52 31-21 1-41-9-54-25-12-15-16-36-11-54 4-20 20-38 39-45 4-2 9-3 14-4z m-147 52c3-1 8 0 10 3 3 2 4 6 5 9-1 3-2 7-5 9-3 3-9 4-13 2-4-2-6-6-7-10 0-6 4-12 10-13z m307 0c4-1 8 0 11 3 3 4 4 9 3 14-2 4-7 7-12 7-6 0-10-4-11-9-2-7 2-14 9-15z m-312 102c16-2 31 2 44 11 9 6 16 14 21 24 8 16 9 34 3 51-7 18-23 33-42 39-8 2-17 3-26 2-20-2-38-14-48-32-6-10-9-21-9-33 1-8 2-15 5-23 4-10 12-20 21-27 9-7 20-11 31-12z m154 0c17-2 34 3 47 14 14 11 23 29 24 47 1 20-8 40-24 52-14 12-32 17-50 14-11-2-22-7-31-14-15-12-24-32-23-52 0-20 11-39 27-50 9-6 19-10 30-11z m159 51c4 0 7 1 9 3 3 3 5 7 4 11 0 3-2 7-5 8-4 3-9 3-13 0-5-3-7-10-4-16 2-3 5-5 9-6z"/>
    </symbol>
  
    <symbol id="visualbraille-paragraph" viewBox="0 0 512 512">
      <path d="m247 41c16-2 32 2 45 11 14 10 23 26 25 43 1 9 0 19-3 27-5 17-19 31-36 38-7 3-14 4-21 4-12 0-24-3-34-10-12-7-21-19-26-32-2-8-3-18-2-27 1-14 8-28 19-38 10-9 21-14 33-16z m155 0c10-1 20 0 30 4 16 6 30 20 36 37 5 14 4 31-2 45-7 17-22 30-40 35-5 1-10 2-16 2-10 0-20-2-28-7-17-8-30-25-33-44-4-16 1-35 12-48 9-13 25-22 41-24z m-302 52c4-1 8 0 10 3 3 4 2 12-2 14-3 2-6 2-8 2-4-1-7-5-7-9-1-5 3-9 7-10z m1 153c5-1 11 4 11 10 0 5-5 10-11 10-2-1-5-2-7-5-2-3-2-7 0-10 1-3 4-4 7-5z m153 0c6-1 12 5 12 11-1 4-3 7-7 8-5 2-11-1-12-6-2-6 2-12 7-13z m154 0c5-1 11 4 11 10 0 6-7 12-13 9-5-2-7-7-6-12 1-4 4-6 8-7z m-309 154c3-1 6 0 9 1 4 3 5 10 2 14-1 2-4 4-7 4-5 0-9-3-10-7-1-5 1-10 6-12z m154 0c3-1 7 0 9 2 2 2 3 4 4 7 0 3-2 6-4 8-3 3-8 3-12 0-3-2-5-6-3-10 0-3 3-6 6-7z m154 0c2 0 5 0 7 1 3 1 5 5 5 8 0 5-3 9-8 10-1 0-3 0-5 0-4-2-6-6-6-10 0-4 3-8 7-9z"/>
    </symbol>
  
    <symbol id="visualbraille-percent-with-slash" viewBox="0 0 512 512">
      <path d="m402 41c14-2 30 2 42 10 16 11 26 29 27 48 1 17-5 34-17 46-11 11-25 18-40 19-3 0-6 0-9 0-20-1-38-13-48-29-5-9-8-18-9-28-1-3-1-6 0-10 1-19 13-38 30-48 7-4 15-7 24-8z m-302 52c2 0 5 0 7 1 3 1 5 5 5 9 0 5-4 9-9 9-6 0-11-4-10-9-1-5 3-9 7-10z m153 0c3 0 5 0 7 1 4 1 5 5 6 8 0 4-2 7-5 9-2 1-5 1-8 1-3-1-5-4-6-7-2-5 1-11 6-12z m-157 101c16-1 32 4 45 13 12 10 20 24 22 39 2 12 0 25-5 36-8 17-23 30-41 34-14 3-29 2-42-5-8-4-15-9-21-16-9-12-15-28-13-44 1-15 8-30 20-41 10-9 22-14 35-16z m158 52c7-1 13 6 11 12-1 5-7 9-12 7-5-1-8-7-6-12 1-3 4-6 7-7z m154 0c5-1 11 4 11 10 0 6-7 11-12 9-5-1-8-6-7-10 0-4 4-8 8-9z m-157 102c3-1 6-1 10 0 20 1 40 14 49 32 7 12 9 25 7 39-3 18-15 35-31 44-18 11-41 11-59 1-17-9-29-26-32-45-3-16 1-32 10-44 10-16 27-26 46-27z m154 0c3-1 6-1 9 0 17 1 34 10 44 24 9 11 14 26 13 40 0 12-4 23-11 33-7 9-16 17-26 21-14 6-30 7-44 2-14-5-26-14-34-27-4-8-7-17-8-27-1-3-1-6 0-9 1-19 12-37 28-47 8-6 18-9 29-10z m-306 52c3-1 6 0 9 1 4 3 5 10 2 14-3 4-9 5-13 3-2-2-4-5-4-8-1-5 2-9 6-10z"/>
    </symbol>
  
    <symbol id="visualbraille-plus-ampersand" viewBox="0 0 512 512">
      <path d="m252 38c21-1 42 9 54 25 14 17 17 40 11 60-7 19-22 34-41 40-14 5-30 4-43-1-15-6-27-17-34-30-9-17-10-38-2-56 6-13 17-24 30-31 8-4 17-6 25-7z m-151 52c5 0 9 2 12 6 1 2 1 4 1 6 1 5-3 10-8 12-7 2-15-3-16-10-1-7 5-13 11-14z m307 0c8-1 15 7 13 14 0 7-8 12-15 10-4-1-7-4-8-9-2-6 3-14 10-15z m-313 102c11-1 23 0 33 5 15 7 27 19 33 34 6 14 7 30 2 45-6 19-21 34-40 40-19 7-41 4-58-8-14-10-24-27-26-45-2-9 0-19 3-28 5-14 14-26 27-34 8-5 17-8 26-9z m152 0c9-1 19 0 27 3 18 5 34 19 41 36 5 12 6 25 4 37-4 19-17 36-34 45-19 10-42 9-60-1-19-10-32-31-33-52-1-12 2-23 7-33 9-19 28-32 48-35z m155 0c11-1 22 0 32 5 19 7 33 24 38 43 4 19 0 39-11 54-11 15-29 25-47 26-10 1-20-1-29-5-18-7-32-23-37-41-4-14-3-30 3-44 7-18 24-32 43-36 3-1 5-1 8-2z m-153 154c17-2 34 3 47 14 16 12 25 32 24 52-1 19-10 37-25 48-13 10-31 15-47 13-20-2-37-14-47-31-11-18-12-42-2-62 9-19 29-32 50-34z m-148 51c3 0 6 1 8 2 3 2 5 6 6 10-1 4-2 8-6 10-2 2-6 3-9 2-4 0-7-3-9-7-1-4-1-8 2-12 1-2 5-4 8-5z m307 0c4 0 7 1 9 3 3 3 5 7 4 11 0 4-2 7-5 9-4 2-10 2-14-1-4-3-6-10-3-15 2-4 5-6 9-7z"/>
    </symbol>
  
    <symbol id="visualbraille-slash-normal" viewBox="0 0 512 512">
      <path d="m402 41c14-2 30 2 42 10 15 10 26 28 27 47 1 17-5 35-17 47-10 10-23 17-37 19-4 0-8 1-12 0-18-1-35-11-46-26-8-10-12-24-11-37 0-8 2-16 5-24 4-9 11-17 19-23 8-7 19-12 30-13z m-302 52c2 0 4 0 6 0 4 2 6 5 6 9 0 4-2 7-5 9-2 1-5 1-7 1-4-1-7-5-7-9-1-5 3-9 7-10z m153 0c3 0 5 0 7 1 3 1 5 4 6 7 0 6-5 11-10 11-6 0-11-6-10-12 1-3 4-6 7-7z m-152 153c5-1 11 4 11 10 0 5-5 10-11 10-2-1-5-2-7-5-2-3-2-7 0-10 1-3 4-4 7-5z m153 0c7-1 13 6 11 12-1 6-7 9-12 7-4-1-7-5-7-9 0-5 4-9 8-10z m154 0c5-1 11 4 11 10 0 6-6 11-12 9-3 0-5-3-7-5-1-4 0-8 3-11 1-2 3-2 5-3z m-156 102c3-1 6 0 9 0 20 1 39 14 49 32 6 11 9 25 7 38-3 19-14 36-30 45-15 9-34 11-50 5-11-3-20-9-27-17-10-11-15-25-16-40 0-17 6-34 19-46 10-10 25-16 39-17z m-153 52c3-1 6 0 9 1 4 3 5 10 2 14-1 2-4 4-7 4-6 1-11-5-10-10 0-4 3-8 6-9z m307 0c3 0 6 0 8 1 3 2 5 5 5 8 1 6-5 11-10 10-5 0-10-5-9-10 0-4 3-8 6-9z"/>
    </symbol>
  
    <symbol id="visualbraille-pilcrow-sign" viewBox="0 0 512 512">
      <path d="m100 93c4-1 8 0 10 4 4 4 2 11-3 14-2 1-5 1-7 1-4-1-7-5-7-9-1-5 3-9 7-10z m153 0c4-1 8 0 10 3 4 4 3 10 0 13-4 4-10 4-14 0-2-1-3-4-3-6 0-4 3-9 7-10z m154 0c4-1 9 1 11 4 2 5 1 11-3 13-5 4-12 2-14-3-3-6 0-13 6-14z m-306 153c4-1 10 3 11 7 0 3 0 7-2 9-2 2-4 3-7 4-5 0-11-5-10-10-1-5 3-9 8-10z m153 0c7-1 13 6 11 12-1 6-7 9-12 7-4-1-7-5-7-9 0-5 4-9 8-10z m154 0c5-1 11 4 11 10 0 6-6 11-12 9-4-1-7-5-7-9 0-5 3-9 8-10z m-309 154c3 0 6 0 8 1 3 2 5 5 5 9 0 5-5 10-10 9-4 0-8-3-9-7-1-5 1-10 6-12z m154 0c3-1 6 0 9 2 3 2 5 6 3 10-1 4-5 8-10 7-6 0-10-7-8-12 0-3 3-6 6-7z m154 0c2 0 5 0 7 1 3 1 5 5 5 9 0 4-3 8-7 9-3 0-6 0-9-2-3-3-4-9-2-13 2-2 4-3 6-4z"/>
    </symbol>
  
    <symbol id="visualbraille-number-sign-hash" viewBox="0 0 512 512">
      <path d="m252 38c21-1 42 9 54 25 14 17 17 40 11 60-7 19-23 34-42 40-17 6-37 4-53-6-13-8-22-21-27-35-3-9-4-19-3-28 2-12 7-23 15-33 11-13 28-22 45-23z m-151 52c5 0 9 2 12 6 1 2 1 4 1 6 1 5-3 10-8 12-7 2-15-3-16-10-1-6 4-13 11-14z m307 0c4 0 9 2 11 5 2 3 3 6 2 10-1 4-4 8-9 9-3 1-6 0-9-1-3-2-5-6-6-9 0-7 5-13 11-14z m-161 102c11-1 22 0 33 4 17 7 31 22 37 39 6 19 3 41-9 58-11 16-30 26-49 27-19 1-38-7-50-21-9-10-15-22-17-35-1-9 0-19 3-29 6-17 20-32 37-39 5-2 10-3 15-4z m-147 52c3-1 8 0 10 3 3 2 4 6 5 9-1 3-2 7-5 9-3 3-8 4-12 2-4-1-7-5-8-10 0-6 4-12 10-13z m307 0c4-1 8 0 11 3 3 4 4 9 3 14-2 4-7 7-12 7-6 0-10-4-11-9-2-7 2-14 9-15z m-312 102c16-2 32 2 44 11 15 10 25 27 27 45 2 15-2 31-10 43-6 8-13 15-22 20-10 6-21 8-32 9-9-1-17-2-25-6-18-7-32-24-37-42-3-14-2-28 3-41 6-16 20-29 37-36 5-1 10-3 15-3z m154 0c16-2 33 2 45 12 16 12 25 30 26 49 1 20-8 40-24 52-14 12-32 17-50 14-11-2-22-7-31-14-15-12-24-32-23-52 0-19 10-37 25-48 9-8 20-12 32-13z m159 51c4 0 7 1 9 3 3 3 5 7 4 11 0 4-2 7-5 9-4 2-10 2-14-1-4-3-6-10-3-15 2-4 5-6 9-7z"/>
    </symbol>
  
    <symbol id="visualbraille-square-brackets-opening" viewBox="0 0 512 512">
      <path d="m252 38c12 0 24 2 35 8 17 9 29 27 32 46 3 12 1 25-4 37-8 17-23 30-41 35-15 4-32 3-46-4-13-6-23-17-29-29-9-17-9-37-2-54 7-16 21-29 37-35 6-2 12-3 18-4z m152 1c16-2 33 3 46 14 14 11 23 28 24 46-1 4 0 8-1 12-2 20-15 38-33 48-16 8-35 10-52 4-18-7-32-21-39-39-2-5-3-11-3-17-1-3-1-6 0-10 1-19 12-38 29-48 8-6 19-10 29-10z m-305 52c3-1 7-1 10 1 4 2 6 7 6 11-1 7-8 13-15 11-5-1-10-6-9-11-1-6 3-11 8-12z m150 101c10-1 22 0 32 5 16 6 29 20 35 37 2 5 4 11 4 17 1 5 0 10-1 15-2 18-14 35-30 45-16 10-36 12-54 5-17-5-31-19-38-35-7-16-7-34 0-50 7-17 22-31 40-36 4-2 8-2 12-3z m-149 52c3 0 5 0 8 1 4 2 7 6 7 11 0 4-3 9-7 11-4 2-9 1-12-1-5-3-7-11-4-16 1-3 5-5 8-6z m307 0c3-1 7 0 10 2 3 3 5 6 5 10 0 4-2 7-5 10-4 3-11 3-15-1-5-3-6-11-3-16 2-2 5-4 8-5z m-158 102c15-2 32 2 44 11 14 10 24 25 26 42 1 5 2 11 1 16-1 18-11 34-25 45-14 11-34 16-52 12-19-4-36-16-44-34-8-15-9-33-4-49 6-16 18-31 35-38 6-3 12-5 19-5z m154 0c15-2 31 2 43 11 13 8 22 22 26 37 3 12 2 25-2 37-4 10-9 18-17 25-9 9-20 15-33 17-14 2-30-1-42-8-14-8-25-21-29-36-5-15-4-31 2-45 7-17 22-31 40-36 4-1 8-2 12-2z m-302 51c6-1 13 5 14 12 0 4-2 9-6 11-3 2-7 2-11 1-4-2-7-5-7-9-1-3-1-6 1-8 2-3 5-6 9-7z"/>
    </symbol>
  
    <symbol id="visualbraille-square-brackets-ending" viewBox="0 0 512 512">
      <path d="m252 38c12 0 25 2 35 8 17 10 29 27 32 46 1 5 2 11 1 16-1 17-11 34-25 45-11 9-26 14-41 13-18 0-36-9-48-24-11-13-16-31-13-48 2-15 9-30 21-40 10-9 24-15 38-16z m152 1c4-1 8-1 12 0 20 1 38 13 48 30 6 9 9 19 10 29 0 3 0 5 0 8-1 19-12 38-28 49-12 9-28 13-43 11-9-1-18-4-26-9-15-9-27-24-30-41-1-4-1-8-2-12 0-3 1-6 1-8 2-20 13-37 29-48 9-5 19-9 29-9z m-305 52c3-1 7-1 10 1 4 2 6 7 6 11-1 7-8 13-15 11-5-1-10-6-9-11-1-6 3-11 8-12z m302 101c8-1 17 0 25 2 17 4 33 17 41 33 8 15 9 34 3 51-6 15-18 29-33 36-16 8-36 8-53 1-16-7-29-21-35-37-2-6-3-12-3-18-1-4 0-8 0-12 2-12 6-23 13-32 11-13 26-22 42-24z m-301 52c3 0 5 0 8 1 4 2 7 6 7 11 0 4-3 9-7 11-4 2-9 1-12-1-5-3-7-11-4-16 2-3 5-5 8-6z m153 0c3 0 6 0 8 1 4 2 7 6 7 11 0 4-2 8-6 10-4 3-9 3-12 0-4-2-6-6-6-11 0-5 4-10 9-11z m-4 102c15-2 32 2 44 11 15 11 25 28 27 47 0 4 0 7 0 11-2 19-12 37-28 48-13 8-29 12-44 10-19-2-37-14-47-30-9-15-12-35-6-52 5-18 18-33 36-40 5-3 12-5 18-5z m154 0c15-2 31 2 43 11 14 9 24 25 27 42 2 13 0 26-5 38-5 10-12 18-21 25-10 7-22 11-33 11-16 1-32-4-44-13-14-11-23-28-24-46-1-3-1-6 0-9 1-20 12-39 29-50 9-5 18-8 28-9z m-302 51c6-1 13 5 14 12 0 4-2 9-6 11-3 2-7 2-11 1-4-2-7-5-7-9-1-3-1-6 1-8 2-3 5-6 9-7z"/>
    </symbol>
  
    <symbol id="visualbraille-verticle-line" viewBox="0 0 512 512">
      <path d="m252 38c21-1 41 8 54 24 14 17 18 41 11 61-6 17-19 31-36 38-15 7-33 7-48 1-15-6-28-17-35-31-8-17-8-36-1-53 5-14 17-26 30-33 8-4 17-6 25-7z m-151 52c3 0 6 1 8 3 4 2 5 6 6 10-1 4-3 8-7 10-5 3-13 1-16-4-2-4-2-10 1-14 2-2 5-4 8-5z m307 0c7 0 13 5 13 11 1 6-3 12-9 13-3 1-6 0-9-2-3-2-5-5-6-9 0-6 5-12 11-13z m-161 102c9-1 17 0 25 2 18 5 33 17 41 33 9 18 9 39 0 57-7 16-23 29-40 34-19 5-41 1-56-11-17-13-26-33-25-54 0-20 11-39 28-50 8-6 17-9 27-11z m-147 52c3-1 8 0 10 3 3 2 4 6 5 9-1 3-2 7-5 9-3 3-8 4-13 2-3-2-6-6-7-10 0-6 4-12 10-13z m307 0c4-1 8 0 11 3 3 4 4 9 3 14-2 4-7 7-12 7-6 0-10-4-11-9-2-7 2-14 9-15z m-158 102c16-2 33 3 46 12 15 12 24 30 25 49 1 20-8 40-24 52-13 11-32 16-49 14-11-2-22-6-30-13-17-12-26-33-25-53 0-18 10-36 24-48 10-7 21-12 33-13z m-148 51c3 0 5 1 8 2 3 2 5 6 6 10-1 4-2 8-6 10-2 2-6 3-9 2-5 0-9-5-10-9 0-4 1-7 3-10 1-2 5-4 8-5z m307 0c4 0 7 1 9 3 3 3 5 7 4 11 0 3-2 7-5 8-4 3-9 3-13 0-5-3-7-10-4-16 2-3 5-5 9-6z"/>
    </symbol>
  
    <symbol id="visualbraille-slash-reverse" viewBox="0 0 512 512">
      <path d="m247 41c17-2 34 2 47 12 14 11 23 29 24 47 0 18-7 35-19 47-10 9-22 15-35 17-4 0-8 1-12 0-11-1-21-4-30-10-17-11-27-30-28-50 0-10 2-21 7-30 9-18 27-30 46-33z m-147 52c4-1 8 0 10 3 3 4 2 12-2 14-3 2-6 2-8 2-4-1-7-5-7-9-1-5 3-9 7-10z m307 0c2-1 5 0 7 1 3 2 5 5 5 8 0 4-2 7-5 9-5 2-11 0-13-4-3-6 0-13 6-14z m-306 153c5-1 11 4 11 10 0 5-5 10-11 10-3-1-6-3-7-6-1-2-1-4-1-6 0-4 4-7 8-8z m153 0c7-1 13 5 12 11-1 4-4 8-8 8-7 2-13-5-12-11 1-4 4-7 8-8z m154 0c5-1 11 4 11 10 0 6-6 11-12 9-3-1-6-3-7-7 0-2 0-4 0-6 2-3 5-5 8-6z m-3 102c3-1 6-1 9 0 17 1 34 10 44 24 9 11 14 26 13 40 0 12-4 23-11 33-7 10-16 17-28 22-12 5-25 5-38 2-14-3-27-13-36-25-7-10-10-23-10-36 0-6 1-12 3-18 6-18 21-33 39-39 4-2 9-3 15-3z m-306 52c4-1 9 0 11 4 3 3 3 8 0 11-2 3-5 4-7 4-6 1-11-5-10-10 0-4 3-8 6-9z m154 0c2 0 4 0 5 0 4 1 6 4 7 7 2 6-3 12-9 12-6 0-11-6-10-12 1-3 4-6 7-7z"/>
    </symbol>
  
    <symbol id="visualbraille-equal-sign" viewBox="0 0 512 512">
      <path d="m100 93c4-1 8 0 10 3 4 5 2 12-3 15-2 1-5 1-7 1-4-1-7-5-7-9-1-5 3-9 7-10z m153 0c3 0 5 0 7 1 4 1 6 5 6 9-1 2-2 5-4 7-2 2-6 2-9 2-3-1-6-4-6-7-2-5 1-11 6-12z m154 0c2-1 5-1 7 1 3 2 5 5 5 8 0 4-3 9-7 10-2 0-5 0-7-1-3-2-5-5-5-9 0-4 3-8 7-9z m-158 102c14-2 28 1 40 9 15 9 25 25 28 42 2 15-1 30-8 42-6 9-14 17-24 22-11 6-23 9-36 7-11-1-22-5-31-13-7-5-12-11-16-18-6-11-9-24-7-37 1-10 4-19 10-27 10-15 26-26 44-27z m154 0c15-2 30 2 42 11 16 10 25 28 26 47 1 19-8 39-23 51-8 7-19 11-29 13-16 2-32-1-44-10-15-10-25-26-27-44 0-4-1-8 0-12 1-16 10-33 23-43 9-8 20-12 32-13z m-302 51c5-1 11 4 11 10 0 5-5 10-11 10-2-1-5-2-7-5-2-3-2-7 0-10 2-3 4-4 7-5z m-2 154c3 0 6 0 8 1 3 2 5 5 5 9 0 4-3 7-6 9-2 0-4 0-6 0-4-1-8-5-7-10 0-4 3-8 6-9z m154 0c3-1 7 0 9 2 2 2 3 4 4 7 0 4-3 8-6 9-5 3-12 0-13-5-2-5 1-11 6-13z m154 0c2 0 5 0 7 1 3 1 5 5 5 9 0 3-2 6-5 8-2 1-4 1-6 1-5-1-9-5-8-10 0-4 3-8 7-9z"/>
    </symbol>
  
    <symbol id="visualbraille-question-mark" viewBox="0 0 512 512">
      <path d="m100 93c4-1 8 0 10 3 3 4 2 12-2 14-3 2-6 2-8 2-4-1-7-5-7-9-1-5 3-9 7-10z m153 0c3 0 5 0 7 1 3 1 5 5 6 8 0 3-2 7-5 9-2 1-5 1-8 1-3-1-5-4-6-7-2-5 1-11 6-12z m154 0c3-1 7 0 9 2 3 3 4 7 3 10-1 4-5 7-10 7-5 0-9-4-9-9-1-5 3-9 7-10z m-311 101c6 0 12 0 18 1 14 3 28 11 37 23 9 11 14 26 13 40 0 11-3 21-9 30-9 16-26 26-44 29-15 2-32-2-45-11-15-11-25-29-25-47-1-19 7-37 20-49 10-9 22-14 35-16z m158 52c6-1 12 5 12 11-1 4-3 7-7 8-5 2-11-1-12-6-2-6 2-12 7-13z m154 0c5-1 11 4 11 10 0 6-6 11-12 9-4-1-7-5-7-9 0-5 3-9 8-10z m-156 102c3-1 6 0 9 0 21 2 40 14 50 33 7 14 9 31 4 46-3 9-7 17-13 24-13 13-31 21-49 20-16 0-31-8-42-19-7-7-12-16-14-25-6-18-2-37 8-52 10-16 28-26 47-27z m-153 52c3 0 6 0 8 1 3 2 5 5 5 9 0 4-3 7-6 9-2 0-4 0-6 0-4-1-8-5-7-10 0-4 3-8 6-9z m308 0c2 0 5 0 7 1 3 2 5 5 5 9 0 5-6 10-11 9-5 0-9-5-8-10 0-4 3-8 7-9z"/>
    </symbol>
  
    <symbol id="visualbraille-apostrophe" viewBox="0 0 512 512">
      <path d="m247 41c17-2 35 3 48 14 16 13 25 35 22 55-2 19-14 37-31 46-11 6-24 9-37 8-13-2-26-8-36-17-9-9-15-21-18-33-3-16 1-34 10-47 10-14 26-23 42-26z m-147 52c4-1 8 0 10 4 4 4 2 11-3 14-2 1-5 1-7 1-4-1-6-4-7-7 0-3 0-5 1-7 1-3 3-5 6-5z m307 0c2 0 5-1 7 1 3 1 5 4 5 8 1 5-4 10-10 10-5 0-9-4-9-9-1-5 3-9 7-10z m-306 153c5-1 11 4 11 10 0 5-5 10-11 10-2-1-5-2-7-5-2-3-2-7 0-10 2-3 4-4 7-5z m153 0c7-1 13 6 11 12-1 5-7 9-12 7-3-1-6-3-7-7-1-5 3-11 8-12z m154 0c5-1 11 4 11 10 0 6-7 11-12 9-5-1-8-5-7-10 0-4 4-8 8-9z m-309 154c3 0 6 0 8 1 3 2 5 5 5 9 0 4-3 7-6 9-2 0-4 0-6 0-4-1-8-5-7-10 0-4 3-8 6-9z m154 0c2 0 4 0 5 0 4 1 6 4 7 7 2 6-3 12-9 12-4 1-8-3-9-7-2-5 1-10 6-12z m153 0c3 0 6 0 8 1 3 2 5 5 5 8 1 5-5 11-10 10-5 0-10-5-9-10 0-4 3-8 6-9z"/>
    </symbol>
  
    <symbol id="visualbraille-q-lower-case" viewBox="0 0 512 512">
      <path d="m96 39c4-1 8-1 13 0 16 1 31 9 41 21 14 15 20 38 15 58-3 12-10 23-19 31-9 9-22 15-35 17-10 1-21 0-31-4-14-5-26-15-33-27-6-10-9-21-9-32 0-13 4-27 12-38 11-15 28-25 46-26z m156-1c13 0 26 3 36 9 17 10 28 27 31 45 2 12 1 25-5 36-7 18-23 32-42 36-13 4-27 3-39-2-11-4-21-11-28-21-11-13-15-31-12-48 2-16 10-31 23-40 10-9 23-14 36-15z m156 52c7 0 13 5 13 11 1 6-3 12-9 13-3 1-6 0-9-2-3-2-5-5-6-8 0-7 5-13 11-14z m-313 102c9-1 19 0 28 3 14 5 27 15 34 28 8 12 11 27 9 42-3 18-13 35-29 45-17 11-38 13-57 6-9-3-17-9-24-16-9-10-16-23-17-36-2-11 0-21 3-31 5-13 15-24 27-32 8-5 16-8 26-9z m152 0c9-1 17 0 25 2 17 4 32 16 40 32 6 10 9 22 8 33-1 22-15 44-35 54-17 9-40 9-58 0-16-8-29-24-33-42-5-20 0-42 14-58 10-11 24-19 39-21z m160 52c4-1 8 0 11 3 3 4 4 9 3 14-2 4-7 7-12 7-6 0-10-4-11-9-2-7 3-14 9-15z m-312 102c15-2 31 2 44 11 15 10 25 27 27 45 2 15-2 30-10 43-6 8-14 16-23 21-14 7-30 9-45 6-19-4-36-18-44-37-3-7-5-14-6-22-1-18 7-37 20-50 10-10 23-16 37-17z m159 51c7-1 14 5 14 12 0 5-2 9-6 11-4 2-8 2-12 0-4-2-6-6-6-11 0-5 4-11 10-12z m154 0c4 0 7 1 9 3 3 3 5 7 4 11 0 4-2 7-6 9-4 2-9 2-13-1-4-3-6-10-3-15 2-4 5-6 9-7z"/>
    </symbol>
  
    <symbol id="visualbraille-w-lower-case" viewBox="0 0 512 512">
      <path d="m252 38c21-1 41 8 54 24 14 17 18 41 11 61-7 19-22 34-41 40-15 5-31 4-45-1-12-5-22-14-29-25-7-11-11-24-10-37 0-14 5-27 14-38 11-14 29-23 46-24z m-151 52c5 0 9 2 12 6 1 2 1 4 2 6 0 5-4 11-10 12-6 2-14-3-15-10-1-7 5-13 11-14z m307 0c6 0 12 4 13 10 1 5-1 11-6 13-3 1-5 2-8 1-4-1-8-4-9-9-2-6 3-14 10-15z m-313 102c11-1 23 0 33 5 11 5 21 14 28 24 11 16 13 37 7 55-6 19-21 34-40 40-19 7-41 4-57-7-15-11-25-28-27-46-2-9 0-18 2-26 5-14 14-27 27-35 8-5 17-9 27-10z m152 0c9-1 18 0 26 2 17 5 33 17 40 34 9 18 9 40-1 58-10 20-31 33-53 34-13 1-27-3-38-11-17-11-29-30-29-50-1-21 8-41 24-54 9-7 20-11 31-13z m160 52c4-1 8 0 11 3 3 4 4 9 3 14-2 4-7 7-12 7-6 0-10-4-11-9-2-7 2-14 9-15z m-158 102c19-2 38 4 51 17 12 12 20 28 20 45 1 19-8 38-23 50-13 12-32 17-49 15-20-2-37-14-47-31-11-18-12-41-3-60 7-15 20-27 36-33 5-2 10-3 15-3z m-148 51c5 0 10 3 12 7 3 5 1 12-4 15-4 3-9 3-13 1-3-2-5-5-6-9 0-5 2-9 6-12 1-1 3-1 5-2z m307 0c4 0 7 1 9 3 3 3 5 7 4 11 0 4-2 7-5 9-4 2-9 2-13-1-4-2-6-6-6-10 0-3 2-6 4-8 2-2 5-3 7-4z"/>
    </symbol>
  
    <symbol id="visualbraille-e-lower-case" viewBox="0 0 512 512">
      <path d="m96 39c4-1 8-1 12 0 16 1 31 9 42 20 12 14 18 32 16 50-1 12-6 24-14 34-13 17-35 25-56 23-14-1-27-7-37-17-11-10-18-24-20-38-3-19 4-40 18-54 10-10 24-17 39-18z m312 51c8-1 15 7 13 14 0 7-8 12-15 10-4-1-7-5-8-9-2-7 3-14 10-15z m-156 1c3-1 7-1 10 1 4 2 6 7 6 11 0 7-8 13-15 11-5-1-9-6-9-11 0-6 3-11 8-12z m-5 101c15-1 29 1 42 9 15 9 27 26 30 44 1 5 1 10 1 16-2 22-15 42-35 52-18 10-42 9-60-1-19-10-32-31-33-53-1-15 4-31 13-43 11-13 26-21 42-24z m-147 52c3-1 8 0 10 3 3 2 4 6 5 9-1 3-2 7-5 9-3 3-7 4-11 3-5-2-8-6-9-11 0-6 4-12 10-13z m307 0c4-1 8 0 11 3 3 4 4 9 3 14-2 4-7 7-12 7-5 0-10-4-11-9-2-6 2-13 9-15z m-306 153c3 0 6 1 8 2 3 2 5 6 6 10-1 4-2 8-6 10-4 3-9 3-13 0-4-2-6-7-6-12 1-5 6-9 11-10z m153 1c7-2 14 4 14 11 0 4-2 9-6 11-3 2-8 2-12 0-4-2-6-6-6-11 0-5 4-11 10-11z m154-1c4 0 7 1 10 4 3 2 4 6 3 10 0 4-2 7-5 9-4 2-10 2-13-1-4-2-6-6-6-10 0-3 2-6 4-8 2-2 5-3 7-4z"/>
    </symbol>
  
    <symbol id="visualbraille-r-lower-case" viewBox="0 0 512 512">
      <path d="m96 39c4-1 8-1 13 0 16 1 31 9 42 21 13 15 18 37 14 56-3 14-11 27-23 36-13 11-30 16-46 14-14-1-28-8-38-17-15-15-23-38-19-58 3-13 9-25 18-34 10-10 24-17 39-18z m312 51c4 0 9 2 11 5 2 3 3 6 2 10-1 4-4 8-9 9-3 1-6 0-9-1-3-2-5-6-6-10 0-6 5-12 11-13z m-156 1c4-1 7-1 10 1 4 2 6 7 6 11 0 7-8 13-15 11-5-1-9-6-9-11 0-6 3-11 8-12z m-157 101c10-1 21 0 31 4 14 6 25 16 32 29 8 13 10 30 7 45-4 18-17 34-33 43-17 9-37 9-55 2-10-4-19-12-26-21-10-13-15-30-12-47 2-14 8-27 18-37 10-10 24-16 38-18z m152 0c9-1 19 0 28 3 19 5 35 21 41 39 7 20 4 42-8 59-11 16-30 26-49 27-19 1-39-7-51-22-14-15-19-37-14-57 4-20 19-37 37-44 5-2 11-4 16-5z m160 52c4-1 8 0 11 3 3 4 4 9 3 13-2 5-7 8-12 8-6 0-10-4-11-9-2-7 2-14 9-15z m-312 102c16-2 32 2 45 12 16 11 26 30 26 50 1 18-7 36-20 49-14 12-33 19-52 16-19-2-37-14-47-32-6-9-9-21-9-32 0-10 3-21 8-31 10-17 29-30 49-32z m159 51c7-1 14 5 14 12 0 4-2 9-6 11-3 2-8 2-12 0-4-2-6-6-6-11 0-5 4-11 10-12z m154 0c4 0 7 1 9 3 3 3 5 7 4 11 0 4-2 7-5 9-4 2-9 2-13 0-5-3-7-10-5-15 2-4 6-7 10-8z"/>
    </symbol>
  
    <symbol id="visualbraille-t-lower-case" viewBox="0 0 512 512">
      <path d="m252 38c13 0 26 3 36 9 17 10 28 27 31 45 2 12 1 24-4 35-7 17-22 31-40 36-17 6-38 4-53-6-14-9-24-23-28-39-2-8-3-16-2-24 2-14 9-27 19-37 11-11 26-18 41-19z m-151 52c5 0 9 2 12 6 1 2 1 4 2 6 0 5-4 10-9 12-7 2-15-3-16-10-1-7 5-13 11-14z m307 0c7 0 13 5 13 11 1 6-3 12-9 13-3 1-6 0-9-2-3-2-5-5-6-9 0-6 5-12 11-13z m-313 102c9-1 18 0 27 3 14 4 27 14 35 27 6 10 10 23 9 36 0 18-9 36-23 48-8 6-16 10-26 12-18 5-37 1-52-10-15-11-25-28-26-46-1-4-1-8 0-12 1-13 6-26 15-36 10-12 25-20 41-22z m152 0c9-1 17 0 25 2 18 5 33 17 41 33 9 17 9 37 2 54-7 16-21 29-37 35-17 6-36 5-52-3-17-9-30-26-33-45-2-12-1-25 3-36 7-18 23-32 41-37 4-1 7-2 10-3z m160 52c4-1 8 0 11 3 3 4 4 9 3 14-2 4-7 7-12 7-6 0-10-4-11-9-2-7 2-14 9-15z m-312 102c15-2 30 2 42 10 7 4 14 10 18 17 9 13 13 30 11 46-3 18-14 35-30 45-9 6-19 9-30 9-18 1-36-5-49-18-15-15-22-37-18-57 3-18 15-35 32-44 7-5 16-7 24-8z m159 51c7-1 14 5 14 12 0 4-2 9-6 11-3 2-8 2-12 0-4-2-6-6-6-11 0-5 4-11 10-12z m154 0c4 0 7 1 9 3 3 3 5 7 4 11 0 4-2 7-5 9-4 2-10 2-13 0-4-3-6-7-6-11 0-3 2-6 4-8 2-2 5-3 7-4z"/>
    </symbol>
  
    <symbol id="visualbraille-z-lower-case" viewBox="0 0 512 512">
      <path d="m96 39c4-1 8-1 12 0 17 1 32 9 42 21 14 15 20 38 15 58-3 12-10 23-20 32-12 11-28 17-45 16-15 0-30-6-41-17-11-10-18-23-20-38-3-19 4-40 18-54 10-10 25-17 39-18z m312 51c5 0 10 3 12 7 3 5 1 12-3 15-3 2-7 3-10 2-5-1-8-4-9-9-2-7 3-14 10-15z m-156 1c8-3 16 3 16 11 0 7-7 14-14 12-6-1-10-6-10-11 0-6 3-11 8-12z m-5 101c11-1 22 0 33 4 16 7 29 20 36 37 6 17 5 36-3 52-9 18-26 30-45 34-12 2-24 1-35-3-16-6-29-19-36-35-5-12-6-25-4-37 3-19 15-35 32-44 7-4 15-7 22-8z m-147 52c3-1 8 0 10 3 3 2 4 6 5 9-1 3-2 7-5 9-3 3-9 4-13 2-4-2-6-6-7-10 0-6 4-12 10-13z m307 0c4-1 8 0 11 3 3 3 4 9 3 13-2 5-8 9-13 8-5-1-9-5-10-9-2-7 2-14 9-15z m-312 102c15-2 31 2 44 11 15 10 25 26 27 44 2 18-4 38-16 52-13 14-32 22-51 20-8 0-15-2-22-5-19-8-33-25-37-45-3-12-2-26 3-38 7-17 21-30 38-36 5-2 9-3 14-3z m154 0c17-2 34 3 47 14 16 12 25 32 24 52-1 19-10 37-25 48-8 7-18 11-29 13-16 3-34-2-48-12-16-11-26-30-26-49-1-20 8-40 24-52 9-8 21-13 33-14z m159 51c4 0 7 1 9 3 3 3 5 7 4 11 0 4-2 7-5 9-4 2-9 2-13 0-5-3-7-10-5-15 2-4 6-7 10-8z"/>
    </symbol>
  
    <symbol id="visualbraille-u-lower-case" viewBox="0 0 512 512">
      <path d="m95 41c8-1 16 0 24 2 15 4 27 14 36 26 4 8 7 16 9 25 0 4 1 8 0 12-1 14-7 28-16 38-10 11-24 18-38 20-4 0-8 1-12 0-15-1-30-8-40-19-12-12-19-30-17-48 1-14 7-28 17-38 10-10 23-16 37-18z m158 52c3 0 5 0 7 1 4 1 5 5 6 8 0 5-4 9-8 10-5 1-10-2-11-6-2-5 1-12 6-13z m154 0c2-1 5 0 7 1 3 2 5 5 5 8 1 5-4 10-9 10-5 0-8-3-10-6-2-6 2-12 7-13z m-306 153c5-1 11 4 11 10 0 4-3 8-7 9-6 2-13-3-12-9-1-5 3-9 8-10z m153 0c7-1 13 6 11 12-1 5-7 9-12 7-3-1-6-3-7-7-1-5 3-11 8-12z m154 0c5-1 11 4 11 10 1 6-7 11-12 9-5-1-8-5-7-10 0-4 4-8 8-9z m-311 102c4-1 7-1 10 0 20 1 39 14 49 31 6 10 8 20 8 31 0 9-2 18-6 25-7 17-22 29-39 34-18 5-39 1-54-11-14-10-24-28-24-46-1-16 5-34 17-46 10-10 25-17 39-18z m154 0c3-1 6-1 10 0 20 1 40 14 49 32 7 12 9 25 7 38-3 19-14 36-30 45-13 7-27 10-41 7-18-3-35-14-44-31-7-12-9-25-7-39 2-18 14-35 30-44 8-5 17-7 26-8z m155 52c3 0 6 0 8 1 3 2 5 5 5 8 1 5-4 11-10 10-5 0-10-5-9-10 0-4 3-8 6-9z"/>
    </symbol>
  
    <symbol id="visualbraille-i-lower-case" viewBox="0 0 512 512">
      <path d="m247 41c16-2 33 2 46 12 15 11 24 29 25 47 0 18-7 35-19 47-9 8-20 14-31 16-4 1-7 1-11 1-9 0-17-1-25-5-13-5-24-16-31-28-6-12-8-25-6-38 2-14 9-27 19-36 10-9 21-14 33-16z m-147 52c4-1 8 0 10 3 3 4 2 11-2 14-3 3-8 3-12 0-2-2-3-5-3-7-1-5 3-9 7-10z m307 0c3-1 7 0 9 2 3 3 4 7 3 10-1 3-4 6-7 7-3 0-6 0-8-2-5-2-6-9-2-13 1-2 3-3 5-4z m-311 101c7 0 13 0 20 2 14 3 26 11 35 22 7 8 11 19 13 30 0 4 1 8 0 12-1 18-11 35-25 46-13 9-28 13-44 11-11-1-22-6-31-13-14-11-23-28-23-45-1-15 4-30 13-42 10-13 26-21 42-23z m158 52c5-1 10 3 11 8 2 6-4 13-11 12-3-1-6-4-7-7-2-6 2-12 7-13z m154 0c5-1 11 4 11 10 0 6-7 11-12 9-5-1-8-6-7-11 1-4 4-7 8-8z m-309 154c4-1 9 0 11 4 3 3 3 8 0 11-2 3-5 4-7 4-6 1-11-5-10-10 0-4 3-8 6-9z m154 0c3-1 6 0 9 2 3 2 5 7 3 10-1 4-5 7-9 7-4 0-8-3-9-7-2-5 1-10 6-12z m154 0c2 0 5 0 7 1 3 1 5 5 5 8 0 5-3 9-7 10-3 0-6 0-9-2-4-3-4-9-1-13 1-2 3-3 5-4z"/>
    </symbol>
  
    <symbol id="visualbraille-o-lower-case" viewBox="0 0 512 512">
      <path d="m96 39c4-1 8-1 12 0 16 1 31 8 41 20 10 10 16 23 17 36 3 21-6 43-23 57-14 12-35 17-54 13-15-3-28-12-38-24-10-14-15-32-12-50 3-15 12-29 24-39 9-8 21-12 33-13z m312 51c7 0 13 5 13 11 1 6-3 12-9 13-3 1-6 0-9-2-3-2-5-5-6-9 0-6 5-12 11-13z m-156 1c3-1 7-1 10 1 4 2 6 7 6 11 0 7-8 13-15 11-3-1-6-3-7-5-3-4-3-9 0-13 1-3 4-4 6-5z m-5 101c9-1 17 0 25 2 18 4 33 17 41 33 8 16 9 35 3 51-6 17-19 30-35 37-16 7-35 7-51-1-17-7-30-21-35-38-5-15-4-32 3-47 4-10 11-18 20-25 8-6 19-10 29-12z m-147 52c3-1 8 0 10 3 3 2 4 6 5 9-1 3-2 7-5 9-3 3-9 4-13 2-4-2-6-6-7-10 0-6 4-12 10-13z m307 0c4-1 8 0 11 3 3 4 4 9 3 14-2 4-7 7-12 7-6 0-10-4-11-9-2-7 2-13 9-15z m-312 102c16-2 32 2 44 11 8 6 15 13 20 22 6 12 9 26 7 40-3 18-14 35-30 45-10 6-22 10-35 10-8-1-17-2-25-6-18-8-32-25-36-45-4-16-1-32 7-46 10-17 28-29 48-31z m159 51c7-1 14 5 14 12 0 4-2 9-6 11-3 2-8 2-12 0-4-2-6-6-6-11 0-5 4-11 10-12z m154 0c4 0 7 1 9 3 3 3 5 7 4 11 0 4-2 7-5 9-4 2-10 2-13-1-4-2-6-6-6-10 1-4 2-7 6-10 1-1 3-1 5-2z"/>
    </symbol>
  
    <symbol id="visualbraille-p-lower-case" viewBox="0 0 512 512">
      <path d="m95 41c8-1 16 0 24 2 15 4 27 14 36 26 5 9 8 19 9 29 1 4 0 8 0 12-2 12-7 23-15 32-10 12-24 20-39 22-3 0-5 0-7 0-9 0-17-2-25-5-13-6-24-16-31-29-9-19-8-43 3-60 10-16 27-27 45-29z m152 0c17-2 34 3 47 13 15 12 24 31 24 50-1 18-10 35-23 46-9 8-20 12-31 14-4 0-9 1-13 0-21-1-41-15-50-33-9-18-9-40 0-57 9-18 27-30 46-33z m160 52c4-1 9 1 11 4 2 4 1 10-3 13-4 4-12 2-14-3-3-5 0-13 6-14z m-311 101c7 0 13 0 20 2 12 2 23 9 31 17 10 11 16 24 17 39 0 3 0 6 0 9-2 21-15 41-34 50-19 10-43 9-61-3-18-12-30-33-28-55 0-17 9-34 23-45 9-8 20-12 32-14z m158 52c7-1 13 6 11 12 0 4-4 7-8 8-6 1-12-6-11-12 1-4 5-7 8-8z m154 0c5-1 11 4 11 10 0 6-6 11-12 9-3-1-6-3-7-7 0-2 0-4 0-6 2-3 5-5 8-6z m-311 102c4-1 7-1 10 0 20 1 38 13 48 29 8 13 11 28 8 43-3 19-16 36-33 45-16 8-37 8-53 1-11-5-20-13-27-23-7-11-10-25-9-39 1-12 5-23 13-32 10-14 26-23 43-24z m156 52c2 0 4 0 5 0 4 1 6 4 7 7 2 6-3 12-9 12-6 0-11-6-10-12 1-3 4-6 7-7z m154 0c2 0 5 0 7 1 3 2 5 5 5 8 1 6-5 11-10 10-5 0-10-5-9-10 0-4 3-8 7-9z"/>
    </symbol>
  
    <symbol id="visualbraille-ue-lower-case" viewBox="0 0 512 512">
      <path d="m96 39c4-1 8-1 13 0 15 1 30 8 40 20 10 10 16 23 17 36 3 21-6 43-23 57-16 13-38 18-57 12-16-4-30-14-38-28-6-10-10-21-10-33 0-13 4-27 12-38 11-15 28-25 46-26z m312 51c4 0 9 2 11 5 2 3 3 6 2 10-1 4-4 8-9 9-3 1-6 0-9-1-3-2-5-6-6-9 0-7 5-13 11-14z m-156 1c3-1 7-1 10 1 4 2 6 7 6 11 0 7-8 13-15 11-5-1-9-6-9-11 0-6 3-11 8-12z m-157 101c10-1 21 0 32 5 13 5 25 15 32 28 8 16 10 34 4 51-5 16-17 30-32 37-17 8-36 9-53 2-8-3-16-8-22-15-10-10-16-23-17-38-1-7 0-15 1-22 4-16 14-30 28-38 8-5 17-9 27-10z m152 0c11-1 22 0 33 4 16 7 29 20 36 37 6 17 5 36-3 53-9 17-27 30-46 33-12 2-24 1-34-3-17-7-31-21-37-37-5-12-5-25-3-38 5-18 17-34 34-43 7-3 13-5 20-6z m160 52c4-1 8 0 11 3 3 3 4 9 3 13-2 5-7 8-12 8-6 0-10-4-11-9-2-7 2-14 9-15z m-158 102c15-2 31 2 44 11 16 11 26 30 27 50 1 17-6 35-19 48-14 14-34 21-53 18-20-2-38-14-47-31-11-18-12-42-2-62 9-19 29-32 50-34z m-148 51c3 0 5 1 8 2 3 2 5 6 6 10-1 4-2 8-6 10-4 3-9 3-13 0-4-2-6-7-6-12 1-5 6-9 11-10z m307 0c4 0 7 1 9 3 3 3 5 7 4 11 0 3-2 7-5 8-4 3-9 3-13 0-5-3-7-10-4-16 2-3 5-5 9-6z"/>
    </symbol>
  
    <symbol id="visualbraille-asterisk" viewBox="0 0 512 512">
      <path d="m101 90c5 0 9 2 12 6 1 2 1 4 2 6 0 5-4 10-9 12-7 2-15-3-16-10-1-6 5-13 11-14z m307 0c7 0 13 5 13 11 1 6-3 12-9 13-3 1-6 0-9-2-3-2-5-5-6-8 0-7 5-13 11-14z m-156 1c3-1 7-1 10 1 4 2 6 7 6 11 0 7-8 13-15 11-5-1-9-6-9-11 0-6 3-11 8-12z m-5 101c14-1 28 1 40 8 19 10 32 31 33 53 1 14-4 29-12 41-10 13-25 23-42 25-14 2-29 0-42-7-18-11-31-31-32-53-1-15 4-31 13-43 11-13 26-22 42-24z m-147 52c3-1 8 0 10 3 3 2 4 6 5 9-1 3-2 7-5 9-3 3-9 4-13 2-4-2-6-6-7-10 0-6 4-12 10-13z m307 0c4-1 8 0 11 3 3 4 4 9 3 14-2 4-7 7-12 7-5 0-10-4-11-9-2-6 2-13 9-15z m-312 102c18-2 37 4 50 16 12 10 20 25 21 41 2 15-2 31-11 43-11 15-28 26-46 27-7 1-14 0-20-1-20-4-37-18-45-37-7-14-8-30-3-45 6-18 20-34 38-40 5-2 11-4 16-4z m159 52c7-2 14 4 14 11 0 5-2 9-6 11-4 2-9 2-12 0-4-2-6-7-6-11 0-5 4-11 10-11z m154-1c4 0 7 1 10 4 2 2 4 6 3 10 0 4-2 7-5 9-4 2-10 2-14-1-5-3-6-10-3-16 2-3 5-5 9-6z"/>
    </symbol>
  
    <symbol id="visualbraille-dagger-basic-sign-alt-keying" viewBox="0 0 512 512">
      <path d="m101 93c5-1 11 4 11 10 0 5-5 10-10 9-3 0-6-2-8-4-2-3-2-8 0-11 2-2 4-4 7-4z m153 0c5-1 10 2 11 7 2 7-4 14-11 12-3 0-6-3-7-7-2-5 2-11 7-12z m154 0c5-1 11 4 11 10 0 6-6 11-12 9-4-1-8-5-7-10 0-4 3-8 8-9z m-309 154c6-2 13 2 13 8 1 6-4 11-9 11-5 0-9-3-10-7-1-5 1-11 6-12z m154 0c3-1 7-1 9 2 2 2 3 4 4 6 0 6-4 11-10 11-4 0-8-3-9-7-2-5 1-11 6-12z m154 0c2-1 5-1 7 1 3 1 5 4 5 8 1 5-5 10-10 10-5 0-10-5-9-10 0-4 3-8 7-9z m-5 101c7 0 14 0 21 1 15 4 29 13 38 26 7 11 11 24 10 37 0 12-5 24-12 34-10 14-26 24-44 25-5 1-11 0-16-1-17-2-33-13-42-28-5-7-8-16-9-24 0-4-1-9 0-13 1-18 11-36 27-46 8-6 17-9 27-11z m-302 52c6-1 12 4 12 10 0 6-6 11-12 9-5-1-8-7-7-12 1-3 4-6 7-7z m154 0c5-1 10 2 11 7 2 6-4 13-10 12-6 0-10-7-8-12 1-4 4-6 7-7z"/>
    </symbol>
  
    <symbol id="visualbraille-a-lower-case" viewBox="0 0 512 512">
      <path d="m95 41c7-1 15 0 22 1 12 3 22 10 31 18 8 10 14 22 16 35 0 2 0 4 0 6 0 10-2 19-6 28-6 12-16 23-29 29-8 4-17 6-26 6-10 0-20-2-28-6-14-7-24-19-30-33-6-14-6-31 0-46 5-12 14-23 26-30 7-4 15-7 24-8z m158 52c3 0 5 0 7 1 4 1 6 5 6 9-1 2-2 5-4 7-2 2-6 2-9 2-5-2-8-8-6-13 1-3 3-5 6-6z m154 0c2-1 5-1 7 1 3 2 5 5 5 8 1 5-4 10-10 10-5 0-9-4-9-9-1-5 3-9 7-10z m-306 153c4-1 10 3 11 7 0 3 0 7-2 9-2 2-5 3-7 4-4 0-7-2-9-5-2-3-2-7 0-10 2-3 4-4 7-5z m153 0c5-1 10 3 11 8 2 6-5 13-11 11-6-1-9-7-7-12 1-3 4-6 7-7z m154 0c5-1 11 4 11 10 0 6-7 11-12 9-5-1-8-5-7-10 0-4 3-8 8-9z m-309 154c3-1 6 0 8 1 5 3 7 10 3 14-3 4-8 5-12 3-3-2-5-5-5-8-1-5 2-9 6-10z m154 0c3-1 6 0 9 2 3 2 5 7 3 10-1 4-5 7-9 7-4 0-8-3-9-7-2-4 1-10 6-12z m154 0c2 0 5 0 7 1 3 2 5 5 5 9 0 3-2 7-6 8-1 1-4 1-5 1-5-1-9-5-8-10 0-4 3-8 7-9z"/>
    </symbol>
  
    <symbol id="visualbraille-s-lower-case" viewBox="0 0 512 512">
      <path d="m247 41c16-2 33 2 46 12 15 11 24 29 25 47 0 18-7 35-19 47-9 8-19 14-31 16-4 1-8 1-12 1-7 0-14-1-21-4-12-4-23-13-31-23-8-13-11-29-9-44 1-10 6-21 12-29 10-12 25-21 40-23z m-147 52c4-1 8 0 10 3 3 4 2 12-2 14-3 2-6 2-8 2-4-1-7-5-7-9-1-5 3-9 7-10z m307 0c4-1 9 1 11 4 2 4 1 10-2 13-3 2-8 3-12 1-3-2-4-6-4-9 0-4 3-8 7-9z m-311 101c16-1 32 4 45 13 11 10 19 23 22 37 1 4 1 7 1 11 0 9-1 18-5 26-7 16-21 28-37 34-12 4-26 4-38 0-10-3-20-10-28-18-10-12-16-28-15-44 0-10 3-20 9-29 10-17 27-28 46-30z m158 52c6-1 12 5 12 11-1 3-3 7-7 8-5 2-11-1-12-6-2-6 2-12 7-13z m154 0c5-1 11 4 11 10 0 6-7 11-12 9-5-1-8-6-7-11 0-4 4-7 8-8z m-311 102c4-1 7-1 10 0 19 1 37 12 47 28 5 8 8 17 10 26 0 4 1 8 0 12-1 15-8 30-19 40-13 12-30 18-47 17-19-1-38-12-48-28-7-12-10-25-9-39 1-12 5-23 13-32 10-14 26-23 43-24z m156 52c2 0 4 0 5 0 4 1 6 4 7 7 2 6-3 12-9 12-6 0-11-6-10-12 1-3 4-6 7-7z m153 0c6-2 13 3 13 9 1 5-4 11-10 10-5 0-10-5-9-10 0-4 3-8 6-9z"/>
    </symbol>
  
    <symbol id="visualbraille-d-lower-case" viewBox="0 0 512 512">
      <path d="m96 39c4-1 8-1 13 0 15 1 30 8 40 20 10 10 16 23 17 36 2 18-4 37-16 50-10 11-24 19-39 21-10 1-21 0-31-4-12-4-23-13-31-24-8-13-12-29-10-44 2-14 8-27 18-37 10-10 24-17 39-18z m156-1c20-1 41 8 54 24 12 15 17 37 12 56-4 18-17 34-34 42-14 7-31 8-47 4-14-5-26-14-34-26-8-11-12-25-11-38 0-16 7-32 19-43 11-11 26-18 41-19z m156 52c7 0 13 5 13 11 1 6-3 12-9 13-3 1-6 0-9-2-3-2-5-5-6-9 0-6 5-12 11-13z m-161 102c11-1 21 0 31 4 18 6 32 21 38 38 7 20 4 42-8 59-11 16-30 26-49 27-19 1-39-7-51-22-14-15-19-37-14-57 4-19 18-36 36-44 6-2 11-4 17-5z m-147 52c3-1 8 0 10 3 3 2 4 6 5 9-1 3-2 7-5 9-3 3-9 4-13 2-4-2-6-6-7-10 0-6 4-12 10-13z m307 0c4-1 8 0 11 3 3 4 4 9 3 14-2 4-7 7-12 7-5 0-10-4-11-9-2-6 2-13 9-15z m-306 153c5 0 10 3 12 8 3 5 1 12-4 15-4 2-10 2-14-1-4-3-5-8-4-12 0-5 5-9 10-10z m153 0c7-1 14 5 14 12 0 4-2 9-6 11-3 2-8 2-12 0-4-2-6-6-6-11 0-5 4-11 10-12z m154 0c4 0 7 1 9 3 3 3 5 7 4 11 0 4-2 7-5 9-4 2-10 2-13-1-4-2-6-6-6-10 0-3 2-6 4-8 2-2 5-3 7-4z"/>
    </symbol>
  
    <symbol id="visualbraille-f-lower-case" viewBox="0 0 512 512">
      <path d="m95 41c8-1 16 0 24 2 16 4 30 16 38 30 5 10 7 20 7 30 0 8-2 16-5 24-6 14-18 26-32 32-8 3-16 5-25 5-8 0-17-2-24-5-13-6-25-16-31-29-5-10-7-22-6-33 1-15 8-29 18-39 9-9 22-15 36-17z m152 0c17-2 34 2 47 12 14 11 23 29 24 47 0 18-7 35-19 47-10 9-22 15-35 17-4 0-8 1-12 0-13-1-25-6-35-14-15-11-23-30-23-49 0-17 8-33 20-44 10-9 21-14 33-16z m160 52c2-1 5-1 7 1 3 2 5 5 5 8 0 4-3 9-7 10-3 0-5 0-8-1-4-3-6-9-3-14 1-2 3-3 6-4z m-311 101c18-1 37 5 50 18 13 13 20 32 18 51-2 20-15 38-32 47-11 6-24 9-36 7-11-1-21-5-30-11-14-11-24-27-25-45-1-10 1-20 5-30 5-13 15-24 28-30 7-4 14-6 22-7z m158 52c7-1 13 6 11 12-1 6-7 9-12 7-4-1-7-5-7-9 0-5 4-9 8-10z m154 0c5-1 11 4 11 10 0 6-6 11-12 9-3-1-6-3-7-7 0-1 0-3 0-5 1-4 4-6 8-7z m-309 154c3-1 6 0 9 1 4 3 5 10 2 14-3 4-9 5-13 3-2-2-4-5-4-8-1-5 2-9 6-10z m154 0c3-1 7 0 9 2 2 2 3 4 4 7 0 4-2 7-5 9-3 2-7 2-11-1-3-2-5-7-3-10 0-3 3-6 6-7z m154 0c2 0 5 0 7 1 3 1 5 5 5 9 0 6-6 10-11 9-5-1-9-5-8-10 0-4 3-8 7-9z"/>
    </symbol>
  
    <symbol id="visualbraille-g-lower-case" viewBox="0 0 512 512">
      <path d="m96 39c4-1 9-1 13 0 15 1 30 9 41 21 13 13 19 33 16 51-3 17-12 33-26 43-9 7-20 11-31 12-13 2-26-1-37-7-12-7-22-17-28-30-5-11-7-23-5-35 1-11 6-22 13-31 11-14 27-23 44-24z m156-1c12 0 23 2 34 8 10 5 18 13 24 22 11 17 13 40 5 58-7 18-22 32-40 38-19 5-40 2-56-9-12-9-22-23-25-38-2-7-3-15-2-23 2-14 9-27 19-37 11-11 26-18 41-19z m156 52c5 0 10 3 12 7 3 5 1 11-3 15-3 2-7 3-11 2-4-1-7-4-8-9-2-7 3-14 10-15z m-313 102c11-1 22 0 32 5 13 5 25 16 32 28 8 16 10 34 4 51-5 16-17 30-32 37-17 9-37 9-54 2-10-4-18-11-25-19-11-14-16-33-13-50 3-16 11-31 24-41 9-7 20-11 32-13z m152 0c9-1 17 0 25 2 18 5 34 17 41 34 9 18 9 39 0 57-9 18-26 31-46 34-11 2-23 1-34-3-18-7-32-22-38-40-7-19-3-42 10-59 10-13 26-22 42-25z m160 52c4-1 8 0 11 3 3 4 4 9 3 13-2 5-7 8-12 8-6 0-10-4-11-9-2-7 2-14 9-15z m-306 153c3 0 6 1 8 2 3 2 5 6 6 10-1 4-2 8-6 10-4 3-9 3-13 1-4-3-6-8-6-13 1-5 6-9 11-10z m153 0c7-1 14 5 14 12 0 4-2 9-6 11-4 2-8 2-12 0-4-2-6-6-6-11 0-5 4-11 10-12z m154 0c4 0 7 1 9 3 3 3 5 7 4 11 0 4-2 7-5 9-4 2-10 2-14-1-5-3-6-10-3-16 2-3 5-5 9-6z"/>
    </symbol>
  
    <symbol id="visualbraille-h-lower-case" viewBox="0 0 512 512">
      <path d="m96 39c4-1 8-1 12 0 16 1 31 9 42 21 12 13 18 31 16 49-1 13-7 26-16 36-12 14-31 22-49 21-13 0-27-4-37-13-13-9-22-23-25-39-3-16 1-34 10-48 11-15 29-26 47-27z m312 51c8-1 15 7 13 14 0 7-8 12-15 10-4-1-7-5-8-9-2-7 3-14 10-15z m-156 1c3-1 7-1 10 1 4 2 6 7 6 11 0 7-8 13-15 11-5-1-9-5-9-10-1-6 3-12 8-13z m-157 101c6 0 12 0 19 1 10 2 20 6 29 13 11 9 20 23 22 38 3 15 0 31-8 45-10 18-31 30-52 31-15 1-30-4-41-13-15-11-24-28-25-45-1-4-1-8 0-12 1-15 8-29 18-40 10-10 24-16 38-18z m152 0c14-1 28 1 41 8 18 11 31 31 32 53 1 15-4 30-13 42-10 13-25 22-41 24-15 3-31-1-44-9-18-11-30-31-30-51-1-19 7-38 20-50 10-9 22-15 35-17z m160 52c4-1 8 0 11 3 3 4 4 9 3 14-2 4-7 7-12 7-6 0-10-4-11-9-2-7 2-14 9-15z m-306 153c3 0 6 1 8 2 3 2 5 6 6 10-1 4-2 8-6 10-4 3-9 3-13 0-4-2-6-7-6-11 1-6 6-10 11-11z m153 0c7-1 14 5 14 12 0 5-2 9-6 11-4 2-9 2-12 0-4-2-6-7-6-11 0-5 4-11 10-12z m154 0c4 0 7 1 10 4 2 2 4 6 3 10 0 4-2 7-5 9-4 2-10 2-14-1-5-3-6-10-3-16 2-3 6-5 9-6z"/>
    </symbol>
  
    <symbol id="visualbraille-j-lower-case" viewBox="0 0 512 512">
      <path d="m252 38c21-1 41 8 54 24 14 17 18 41 11 61-7 19-22 34-41 40-18 6-37 4-53-6-15-8-26-23-29-40-5-19 0-40 12-55 11-14 29-23 46-24z m-151 52c4 0 8 2 10 4 2 2 3 5 4 8-1 5-3 9-7 11-5 3-12 1-16-4-2-4-2-10 1-14 2-2 5-4 8-5z m307 0c8-1 15 7 13 14 0 7-8 12-15 10-4-1-7-4-8-9-2-6 3-14 10-15z m-313 102c10-1 21 0 31 4 11 5 21 12 28 22 11 16 15 36 10 54-4 18-17 33-33 41-19 10-43 9-61-2-11-6-20-16-25-27-4-9-6-18-7-27 0-15 5-30 15-42 10-12 25-21 42-23z m152 0c9-1 17 0 25 2 18 5 33 17 41 33 9 18 9 41 0 59-11 19-32 33-54 34-15 1-30-4-42-13-15-12-25-30-25-48-1-21 9-42 25-54 9-7 19-11 30-13z m160 52c4-1 8 0 11 3 3 4 4 9 3 14-2 4-7 7-12 7-5 0-10-4-11-9-2-6 2-14 9-15z m-306 153c5 0 10 2 12 7 3 5 1 12-4 15-4 3-10 3-14 0-4-3-5-8-4-12 0-5 5-9 10-10z m153 0c7-1 14 5 14 12 0 4-2 9-6 11-3 2-8 2-12 0-4-2-6-6-6-11 0-5 4-11 10-12z m154 0c4 0 7 1 9 3 3 3 5 7 4 11 0 3-2 7-5 8-4 3-9 3-13 0-5-3-7-10-4-16 2-3 5-5 9-6z"/>
    </symbol>
  
    <symbol id="visualbraille-k-lower-case" viewBox="0 0 512 512">
      <path d="m95 41c8-1 16 0 24 2 15 4 27 14 35 26 6 9 9 19 10 29 1 4 0 8 0 12-2 13-7 25-16 34-10 11-23 18-38 20-4 0-8 1-12 0-15-1-29-8-40-19-9-9-15-21-17-33-3-19 4-40 18-54 9-9 22-15 36-17z m158 52c3 0 5 0 7 1 4 1 6 5 6 9-1 2-2 5-4 7-2 2-6 2-9 2-5-2-8-8-6-13 1-3 3-5 6-6z m154 0c2-1 5-1 7 1 3 2 5 5 5 8 1 5-4 10-10 10-5 0-9-4-9-9-1-5 3-9 7-10z m-306 153c5-1 11 4 11 10 0 6-6 11-12 9-4-1-8-5-7-9-1-5 3-9 8-10z m153 0c7-1 13 6 11 12-1 5-7 9-12 7-5-1-8-7-6-12 1-3 4-6 7-7z m154 0c5-1 11 4 11 10 0 6-6 11-12 9-3 0-6-3-7-7 0-1 0-3 0-5 1-3 4-6 8-7z m-311 102c4-1 7-1 10 0 19 1 37 12 48 28 4 8 7 16 9 25 0 4 1 9 0 13-1 17-10 34-24 44-11 9-26 14-41 13-17-1-34-9-45-23-10-12-15-28-13-44 1-12 5-23 13-32 10-14 26-23 43-24z m156 52c3-1 7 0 9 2 2 2 3 4 4 7 0 4-2 7-5 9-3 2-7 2-10 0-4-2-6-7-4-11 1-3 3-6 6-7z m154 0c2 0 5 0 7 1 3 2 5 5 5 8 0 6-5 11-10 10-5 0-10-5-9-10 0-4 3-8 7-9z"/>
    </symbol>
  
    <symbol id="visualbraille-l-lower-case" viewBox="0 0 512 512">
      <path d="m95 41c8-1 16 0 24 2 15 4 27 14 35 26 6 9 9 19 10 29 1 4 0 8 0 12-2 14-9 28-20 38-9 8-21 14-34 16-4 0-8 1-12 0-15-1-29-8-39-18-10-9-16-22-18-35-1-9 0-17 2-25 3-11 9-21 17-28 9-9 22-15 35-17z m158 52c3 0 5 0 7 1 4 1 6 5 6 9-1 2-2 5-4 7-2 2-6 2-9 2-5-2-8-8-6-13 1-3 3-5 6-6z m154 0c2-1 5 0 7 1 3 2 5 5 5 8 0 4-2 8-6 9-4 2-10 0-12-4-3-5 0-13 6-14z m-311 101c6 0 12 0 18 1 13 3 26 10 36 21 8 10 13 23 14 35 0 3 0 7 0 10-1 20-14 39-32 49-11 6-24 9-36 7-11-1-22-5-31-12-14-10-23-27-24-44-1-10 1-20 5-30 5-13 15-24 28-30 7-4 14-6 22-7z m158 52c7-1 13 6 11 12-1 5-7 9-12 7-5-1-8-7-6-12 1-3 4-6 7-7z m154 0c5-1 11 4 11 10 0 6-6 11-12 9-4-1-7-5-7-9 0-5 3-9 8-10z m-311 102c4-1 7-1 10 0 20 1 39 13 49 31 6 10 8 20 8 31 0 8-1 15-4 22-6 16-21 30-37 36-14 4-28 4-42-1-17-6-31-20-37-37-5-14-4-30 1-44 9-21 30-37 52-38z m156 52c3-1 7 0 9 2 2 2 3 4 4 7 0 5-4 10-10 10-4 1-8-3-9-7-2-5 1-10 6-12z m154 0c2 0 5 0 7 1 3 1 5 5 5 9 0 3-2 7-6 8-2 1-4 1-6 1-4-1-8-5-7-10 0-4 3-8 7-9z"/>
    </symbol>
  
    <symbol id="visualbraille-oe-lower-case" viewBox="0 0 512 512">
      <path d="m247 41c16-2 33 2 46 12 15 11 24 29 25 47 0 17-7 35-19 46-12 12-29 19-45 18-8 0-15-2-22-5-13-5-24-16-31-28-6-13-8-27-6-40 3-13 10-25 19-34 10-9 21-14 33-16z m-147 52c2 0 4 0 6 0 4 2 6 6 6 10 0 5-4 9-10 9-5 0-9-4-9-9-1-5 3-9 7-10z m307 0c2-1 5 0 7 1 3 2 5 5 5 8 1 5-3 9-8 10-2 0-4 0-6-1-3-2-5-5-5-9 0-4 3-8 7-9z m-311 101c18-1 37 5 50 18 9 9 16 23 18 36 0 4 1 8 0 12-1 18-10 34-24 45-11 8-25 13-40 13-18-1-36-10-47-24-9-12-13-28-12-43 1-13 6-26 15-36 11-12 25-19 40-21z m158 52c7-1 13 6 11 12-1 5-7 9-12 7-4-1-7-5-7-9 0-5 4-9 8-10z m154 0c5-1 11 4 11 10 0 6-7 11-12 9-5-1-8-6-7-11 0-4 4-7 8-8z m-156 102c3-1 6 0 9 0 21 2 40 14 49 32 6 12 9 25 7 38-3 19-14 36-30 45-15 8-32 10-48 6-16-5-31-17-38-32-8-15-9-34-3-50 7-17 20-30 37-36 6-2 11-3 17-3z m-153 52c3 0 6 0 8 1 3 2 5 5 5 9 0 4-3 7-6 9-2 0-4 0-6 0-4-1-8-5-7-10 0-4 3-8 6-9z m306 0c3 0 6 0 8 1 3 2 5 5 5 9 0 4-3 7-6 9-4 1-9 0-11-4-4-5-2-13 4-15z"/>
    </symbol>
  
    <symbol id="visualbraille-ae-lower-case" viewBox="0 0 512 512">
      <path d="m252 38c16-1 32 4 44 14 14 11 23 28 24 46 0 9-1 18-4 27-7 18-23 33-41 39-19 5-40 2-56-9-14-10-24-25-26-43-3-17 2-37 14-51 11-13 28-22 45-23z m-151 52c5 0 9 2 12 6 1 2 1 4 2 6-1 4-3 9-7 11-2 1-5 2-8 1-5-1-9-5-10-11 0-6 5-12 11-13z m307 0c8-1 15 7 13 14 0 7-8 12-15 10-4-1-7-5-8-9-2-7 3-14 10-15z m-161 102c14-1 29 1 41 9 17 9 28 26 31 45 2 14 0 28-7 41-10 19-31 32-53 33-15 1-30-4-42-13-13-10-22-25-24-41-3-15 0-31 9-44 10-16 27-27 45-30z m-147 52c3-1 8 0 10 3 3 2 4 6 5 9-1 3-2 7-5 9-3 3-8 4-13 2-3-2-6-6-7-10 0-6 4-12 10-13z m307 0c4-1 8 0 11 3 3 4 4 9 3 14-2 4-7 7-12 7-6 0-10-4-11-9-2-7 2-14 9-15z m-312 102c18-2 37 4 50 15 14 13 22 32 21 50 0 18-8 34-21 46-12 12-30 18-47 16-16-1-31-8-42-19-12-13-19-31-18-48 1-11 4-21 10-30 10-17 28-28 47-30z m159 51c7-1 14 5 14 12 0 4-2 9-6 11-3 2-8 2-12 0-4-2-6-6-6-11 0-5 4-11 10-12z m154 0c4 0 7 1 10 4 2 2 4 6 3 10 0 4-2 7-5 9-4 2-10 2-14-1-5-3-6-10-3-16 2-3 5-5 9-6z"/>
    </symbol>
  
    <symbol id="visualbraille-hash" viewBox="0 0 512 512">
      <path d="m402 41c15-2 30 2 42 10 15 11 26 28 27 47 1 14-3 29-12 41-6 8-14 15-24 19-8 4-17 6-26 6-7 0-15-1-22-4-12-5-21-12-28-22-6-8-10-18-11-28 0-4-1-8 0-12 0-8 3-16 6-23 9-18 28-31 48-34z m-302 52c2 0 4 0 6 0 4 2 6 5 6 9 0 3-2 7-5 9-4 2-9 1-12-2-3-4-3-10 0-13 1-2 3-3 5-3z m153 0c3 0 5 0 7 1 3 1 5 5 6 8 0 5-4 9-8 10-5 1-10-2-11-6-2-5 1-12 6-13z m150 102c15-2 31 2 43 11 16 12 26 33 25 53 0 16-8 31-19 42-8 7-18 13-29 15-16 4-34 1-48-9-15-10-25-26-27-44 0-4-1-8 0-11 1-17 10-34 23-44 9-8 20-12 32-13z m-302 51c4-1 10 3 11 7 0 3 0 7-2 9-2 2-4 3-6 4-6 0-12-4-11-10-1-5 3-9 8-10z m153 0c6-1 12 5 12 11-1 4-3 7-7 8-5 2-11-1-12-6-2-6 2-12 7-13z m-3 102c3-1 6-1 10 0 20 1 40 14 49 32 7 12 9 25 7 38-3 19-14 36-30 45-14 8-31 10-47 6-10-3-20-8-28-16-7-7-13-17-16-27-4-17-1-36 9-51 10-15 27-26 46-27z m154 0c3-1 6-1 9 0 20 1 38 12 48 29 8 12 11 27 8 42-2 13-8 25-18 35-8 8-18 13-29 16-14 3-28 1-41-5-13-6-23-17-29-31-4-8-5-16-5-25 0-6 1-13 3-19 6-18 20-33 38-39 5-2 10-3 16-3z m-306 52c4-1 9 0 11 4 3 3 3 8 0 11-2 3-5 4-8 4-3 0-7-2-8-5-1-2-1-5-1-7 1-3 3-6 6-7z"/>
    </symbol>
  
    <symbol id="visualbraille-single-quote-ending" viewBox="0 0 512 512">
      <path d="m100 93c4-1 8 0 10 3 3 4 2 12-2 14-3 2-6 2-8 2-4-1-7-5-7-9-1-5 3-9 7-10z m153 0c3 0 5 0 7 1 3 1 5 5 6 8 0 3-2 7-5 9-2 1-5 1-8 1-3-1-5-4-6-7-2-5 1-11 6-12z m154 0c2-1 5 0 7 1 3 2 5 5 5 8 1 5-4 10-10 10-5 0-9-4-9-9-1-5 3-9 7-10z m-4 101c15-1 30 3 42 11 15 11 25 29 26 48 1 18-7 36-20 49-8 7-18 12-28 14-16 4-34 1-48-9-15-10-25-26-27-44 0-4-1-8 0-11 1-17 10-34 23-44 9-8 20-12 32-14z m-302 52c5-1 11 4 11 10 0 6-6 11-12 9-4-1-8-5-7-9-1-5 3-9 8-10z m153 0c6-1 12 5 12 11-1 4-3 7-7 8-5 2-11-1-12-6-2-6 2-12 7-13z m-3 102c3-1 6-1 10 0 18 1 36 12 47 28 10 15 12 34 7 52-3 9-8 17-14 24-11 11-26 18-42 19-20 1-40-8-52-24-10-12-14-29-12-45 1-10 5-21 11-29 11-14 27-24 45-25z m154 0c3-1 6-1 9 0 17 1 34 10 44 24 10 12 14 27 13 42-1 11-5 22-11 31-7 9-16 17-27 21-14 6-30 7-44 2-12-5-23-13-30-24-6-8-10-17-11-27 0-4-1-8 0-12 1-17 9-33 22-43 10-8 22-13 35-14z m-306 52c3-1 6 0 9 1 4 3 5 10 2 14-3 4-9 5-13 3-2-2-4-5-4-8-1-5 2-9 6-10z"/>
    </symbol>
  
    <symbol id="visualbraille-single-quote-opening" viewBox="0 0 512 512">
      <path d="m101 90c5 0 9 2 12 6 1 2 1 4 2 6 0 5-4 10-9 12-7 2-15-3-16-10-1-7 5-13 11-14z m307 0c7 0 13 5 13 11 1 6-3 12-9 13-3 1-6 0-9-2-3-2-5-5-6-9 0-6 5-12 11-13z m-156 1c4-1 7-1 10 1 4 2 6 7 6 11 0 7-8 13-15 11-5-1-9-6-9-11 0-6 3-11 8-12z m-5 101c9-1 17 0 25 2 18 5 33 17 41 33 9 17 9 38 1 55-7 17-23 31-41 36-19 5-40 1-56-11-15-11-25-30-25-48-1-13 2-25 9-36 10-16 27-28 46-31z m-147 52c3-1 8 0 10 3 3 2 4 6 5 9-1 3-2 7-5 9-3 3-9 4-13 2-4-2-6-6-7-10 0-6 4-12 10-13z m307 0c4-1 8 0 11 3 3 4 4 9 3 14-2 4-7 7-12 7-6 0-10-4-11-9-2-7 2-14 9-15z m-158 102c19-2 38 4 52 17 7 7 12 16 16 26 6 17 4 37-6 53-10 17-28 29-47 31-18 2-36-3-50-15-15-12-23-32-22-51 0-19 10-38 26-49 9-7 20-11 31-12z m153 0c15-2 30 2 42 10 13 8 22 20 27 34 1 6 2 12 3 18 0 11-3 22-8 32-5 9-13 18-22 23-11 8-25 11-38 10-15-1-29-6-39-16-11-10-19-24-21-38-2-16 1-32 10-45 10-16 28-26 46-28z m-301 51c3 0 6 1 8 2 3 2 5 6 6 10-1 4-2 8-6 10-4 3-10 3-14 0-3-2-5-7-5-12 1-5 6-9 11-10z"/>
    </symbol>
  
    <symbol id="visualbraille-capital-sign" viewBox="0 0 512 512">
      <path d="m100 93c2 0 4 0 6 0 4 2 6 5 6 9 0 4-2 8-6 9-6 3-13-1-13-8-1-4 3-9 7-10z m153 0c3 0 5 0 7 1 3 1 5 5 6 8 0 5-4 9-8 10-5 1-10-2-11-6-2-5 1-12 6-13z m154 0c2-1 5 0 7 1 3 2 5 5 5 8 1 5-4 10-10 10-5 0-9-4-9-9-1-5 3-9 7-10z m-306 153c5-1 11 4 11 10 0 5-5 10-11 10-2-1-5-2-7-5-2-3-2-7 0-10 1-3 4-4 7-5z m153 0c5-1 10 3 11 8 2 7-5 13-12 11-5-1-8-7-6-12 1-4 4-6 7-7z m154 0c5-1 11 4 11 10 0 6-6 11-12 9-3-1-6-3-7-7 0-2 0-4 1-6 1-3 4-5 7-6z m-156 102c3-1 6 0 9 0 19 1 37 12 47 28 8 12 11 28 9 42-3 19-14 36-30 45-11 6-24 9-37 8-11-1-23-6-32-13-13-10-22-25-23-42-2-15 2-30 11-43 10-15 28-24 46-25z m-153 52c4-1 10 1 12 4 2 4 1 10-3 13-2 2-5 2-8 2-4-1-8-5-7-10 0-4 3-8 6-9z m308 0c6-2 12 3 12 9 1 6-5 11-10 10-5 0-10-5-9-10 0-4 3-8 7-9z"/>
    </symbol>
  
    <symbol id="visualbraille-comma" viewBox="0 0 512 512">
      <path d="m100 93c3-1 6 0 8 1 4 3 5 9 3 13-2 3-6 5-9 5-5 0-9-4-9-9-1-5 3-9 7-10z m153 0c3 0 5 0 7 1 3 1 5 4 6 7 0 6-5 11-10 11-6 0-11-6-10-12 1-3 4-6 7-7z m154 0c2-1 5 0 7 1 3 2 5 5 5 8 1 5-4 10-9 10-4 0-7-2-9-5-1-2-1-5-1-7 1-3 4-6 7-7z m-311 101c16-1 32 4 45 13 13 11 22 27 23 44 0 3 0 6 0 9-1 19-11 36-27 47-15 10-35 13-52 8-9-3-18-7-24-14-12-11-20-26-20-42-1-19 7-37 20-49 10-9 22-14 35-16z m158 52c5-1 10 3 11 8 2 7-5 13-11 11-6-1-9-7-7-12 1-3 4-6 7-7z m154 0c5-1 11 4 11 10 0 6-6 11-12 9-3-1-6-3-7-7 0-2 0-4 0-6 2-3 5-5 8-6z m-309 154c3 0 6 0 8 1 3 2 5 5 5 9 0 4-3 7-6 9-2 0-4 0-6 0-4-1-8-5-7-10 0-4 3-8 6-9z m154 0c3-1 7 0 9 2 2 2 3 4 4 7 0 5-4 10-10 10-4 1-8-3-9-7-2-5 1-10 6-12z m153 0c6-2 13 3 13 9 1 5-5 11-10 10-5 0-10-5-9-10 0-4 3-8 6-9z"/>
    </symbol>
  
    <symbol id="visualbraille-verticle-line-small" viewBox="0 0 512 512">
      <path d="m98 67c4-1 7-1 10 1 4 2 7 8 6 13-2 6-9 11-15 9-4-1-8-5-9-9 0-3 0-5 1-7 1-3 4-6 7-7z m154 0c3-1 6-1 8 0 5 2 8 7 7 12 0 7-7 13-14 11-4-1-8-4-9-8-2-6 2-14 8-15z m154 0c3-1 7-1 10 1 3 2 5 6 5 10 0 4-2 9-6 11-3 1-6 2-9 1-5-1-9-5-9-10-1-6 3-12 9-13z m-159 101c12-1 23 0 33 5 17 7 30 21 36 38 6 16 4 34-3 48-7 17-23 30-40 35-18 5-37 2-52-8-17-11-29-30-30-51 1-2 0-5 1-7 0-13 5-26 13-36 11-13 26-22 42-24z m-148 52c6-1 13 3 15 8 1 6-2 13-7 15-2 1-5 1-7 1-5-1-9-5-10-9 0-3 0-6 1-9 2-3 5-5 8-6z m308 0c3-1 8 0 10 3 3 2 4 5 4 8 0 5-3 10-7 12-2 1-5 1-7 1-4-1-8-4-10-9 0-3 0-6 2-9 1-3 4-5 8-6z m-156 102c18-2 36 5 49 18 11 10 17 23 19 37 0 4 1 9 0 13-1 19-11 36-26 47-8 6-18 11-29 12-21 3-42-5-56-21-10-11-16-26-16-41-1-18 7-37 21-50 10-9 24-14 38-15z m-150 51c6 0 12 4 13 10 1 5-2 11-6 13-3 1-6 2-8 1-5 0-9-4-10-9 0-3 0-6 1-8 2-4 6-6 10-7z m306 1c3-1 7 0 9 2 3 2 5 6 5 9 0 4-2 8-5 10-3 2-7 3-10 2-5-1-10-7-9-12 0-6 5-11 10-11z"/>
    </symbol>
  
    <symbol id="visualbraille-masterspace" viewBox="0 0 512 512">
      <path d="m247 41c16-2 33 2 46 12 15 11 24 29 25 47 0 18-7 35-19 47-10 9-22 15-35 17-4 0-8 1-12 0-11-1-21-4-30-10-17-11-27-30-28-50 0-10 2-21 7-30 9-18 27-30 46-33z m155 0c14-2 30 2 42 10 15 10 26 28 27 47 1 13-3 28-10 39-6 8-14 15-22 20-12 6-27 9-40 6-19-3-35-15-44-32-4-7-7-16-7-24-1-3 0-7 0-10 1-20 14-39 32-49 7-4 14-6 22-7z m-302 52c4-1 8 0 10 3 3 4 2 12-2 14-3 2-6 2-8 2-4-1-7-5-7-9-1-5 3-9 7-10z m1 153c5-1 11 4 11 10 0 6-6 11-12 9-4-1-8-5-7-9-1-5 3-9 8-10z m153 0c7-1 13 6 11 12-1 6-7 9-12 7-4-1-7-5-7-9 0-5 4-9 8-10z m154 0c5-1 11 4 11 10 0 4-3 8-7 9-6 2-13-3-12-9 0-5 3-9 8-10z m-156 102c3-1 6 0 9 0 21 2 40 14 50 33 7 14 9 31 4 46-3 11-10 21-18 29-12 10-28 16-44 15-19-1-37-11-48-26-9-13-12-29-10-44 2-18 13-35 29-45 9-5 18-8 28-8z m-153 52c3-1 6 0 9 1 4 3 5 10 2 14-3 4-8 5-12 3-3-2-5-5-5-8-1-4 2-9 6-10z m308 0c2 0 5 0 7 1 3 2 5 5 5 8 1 5-5 11-10 10-5 0-10-5-9-10 0-4 3-8 7-9z"/>
    </symbol>
  
    <symbol id="visualbraille-smaller-than" viewBox="0 0 512 512">
      <path d="m405 38c15-1 31 4 43 13 14 11 24 28 25 47 2 19-6 39-21 52-13 12-31 18-49 16-10-1-19-4-28-10-16-10-27-28-29-47-2-16 3-33 13-46 11-14 28-23 46-25z m-304 52c5 0 9 2 12 6 1 2 1 4 2 6 0 5-4 10-9 12-7 2-15-3-16-10-1-7 5-13 11-14z m151 1c3-1 7-1 10 1 4 2 6 7 6 11 0 7-8 13-15 11-5-1-9-5-9-10-1-6 3-12 8-13z m-5 101c14-1 27 1 39 7 20 11 33 32 34 54 1 15-4 30-13 42-10 13-26 22-43 24-8 1-15 1-23-1-18-4-34-17-43-34-8-17-8-37-1-54 8-17 22-30 40-35 3-1 7-2 10-3z m-147 52c3-1 8 0 10 3 3 2 4 6 5 9-1 3-2 7-5 9-3 3-9 4-13 2-4-2-6-6-7-10 0-6 4-12 10-13z m307 0c4-1 8 0 11 3 3 4 4 9 3 14-2 4-7 7-12 7-6 0-10-4-11-9-2-7 2-14 9-15z m-5 102c17-2 34 3 46 13 14 10 23 26 25 43 2 12-1 26-7 37-9 19-29 32-50 34-7 1-13 0-20-1-15-3-28-12-38-24-10-13-15-31-12-48 2-16 11-31 24-41 9-7 20-12 32-13z m-301 51c3 0 6 1 8 2 3 2 5 6 6 10-1 4-2 8-6 10-4 3-9 3-13 0-4-2-6-7-6-12 1-5 6-9 11-10z m153 0c7-1 14 5 14 12 0 4-2 9-6 11-3 2-8 2-12 0-4-2-6-6-6-11 0-5 4-11 10-12z"/>
    </symbol>
  
    <symbol id="visualbraille-bigger-than" viewBox="0 0 512 512">
      <path d="m247 41c16-2 33 2 46 12 15 11 24 29 25 47 0 18-7 35-19 47-9 8-20 14-32 16-5 1-10 2-16 1-12-1-25-6-35-14-16-13-24-35-21-56 1-14 9-27 19-37 9-8 21-14 33-16z m-147 52c4-1 8 0 10 3 3 4 2 12-2 14-3 2-6 2-8 2-4-1-7-5-7-9-1-5 3-9 7-10z m307 0c2 0 5-1 7 1 3 1 5 5 5 9 0 5-5 9-10 9-5 0-9-4-9-9-1-5 3-9 7-10z m-4 102c15-2 30 2 42 10 15 11 25 29 26 48 1 16-5 32-16 44-12 13-30 21-47 21-19-1-37-10-48-26-7-9-11-20-12-32-1-3 0-6 0-9 1-19 13-38 29-48 8-5 17-8 26-8z m-302 51c5-1 11 4 11 10 0 6-6 11-12 9-4-1-8-5-7-9-1-5 3-9 8-10z m153 0c7-1 13 6 11 12-1 6-7 9-12 7-4-1-7-5-7-9 0-5 4-9 8-10z m-2 102c3-1 6 0 9 0 21 2 41 15 50 33 9 18 9 39 0 56-9 18-26 30-45 33-16 3-33-1-46-10-15-11-25-30-26-49 0-17 6-34 19-46 10-10 25-16 39-17z m-153 52c3-1 6 0 9 1 4 3 5 10 2 14-1 2-4 4-7 4-5 0-10-4-10-8-1-5 2-9 6-11z m308 0c2 0 5 0 7 1 3 1 5 5 5 9 0 3-2 7-6 8-2 1-4 1-6 1-4-1-8-5-7-10 0-4 3-8 7-9z"/>
    </symbol>
  
    <symbol id="visualbraille-double-dagger-basic-sign-alt-shift-keying" viewBox="0 0 512 512">
      <path d="m101 93c5-1 11 3 11 9 0 4-3 9-7 10-5 2-12-3-12-8-1-5 3-10 8-11z m153 0c6-1 12 4 11 10 1 6-6 11-12 9-4-1-7-5-7-9 0-5 3-9 8-10z m153 0c5-1 11 2 12 8 2 6-6 13-12 11-5-1-9-7-7-12 1-4 4-6 7-7z m-308 154c3-1 6-1 8 1 3 2 5 5 5 8 0 5-5 10-10 10-5 0-9-4-9-8-1-5 2-10 6-11z m154 0c4-1 9 0 11 4 2 3 2 8-1 11-2 2-4 4-7 4-5 0-10-5-10-10 0-4 3-8 7-9z m153 0c2-1 4-1 6 0 4 1 7 5 7 9 0 4-2 7-6 9-5 2-11 0-13-6-2-5 1-11 6-12z m-311 101c8 0 16 0 24 2 11 3 20 9 28 17 7 7 12 16 15 26 4 17 2 35-8 49-9 16-26 27-44 29-16 2-33-3-46-13-14-11-22-27-23-44-2-18 5-37 19-49 9-9 22-15 35-17z m158 52c6-1 13 4 12 10 1 6-5 10-11 9-5-1-9-6-8-11 1-4 4-7 7-8z m154 0c5-1 10 2 12 7 2 6-4 13-11 12-6 0-10-7-8-12 1-4 4-6 7-7z"/>
    </symbol>
  
    <symbol id="visualbraille-y-lower-case" viewBox="0 0 512 512">
      <path d="m96 39c4-1 8-1 13 0 15 1 30 8 40 20 10 10 16 23 17 37 1 12-1 25-7 36-6 12-16 22-28 28-9 5-20 7-31 6-15 0-30-6-41-17-10-9-18-22-20-36-3-20 3-41 18-56 10-10 24-17 39-18z m156-1c13 0 26 3 36 9 19 11 31 31 32 52 0 10-2 21-6 30-8 18-25 32-44 36-18 4-37 0-52-11-12-9-21-22-25-37-1-7-1-14-1-21 1-13 6-25 15-35 11-13 28-22 45-23z m156 52c7 0 13 5 13 11 1 6-3 12-9 13-3 1-6 0-9-2-3-2-5-5-6-8 0-7 5-13 11-14z m-161 102c9-1 17 0 25 2 18 5 33 17 41 33 9 17 9 38 1 55-7 17-22 30-40 35-15 5-33 3-48-4-16-9-28-24-32-42-3-12-3-25 2-37 6-18 21-32 39-39 4-1 8-2 12-3z m-147 52c3-1 8 0 10 3 3 2 4 6 5 9-1 3-2 7-5 9-3 3-9 4-13 2-4-2-6-6-7-10 0-6 4-12 10-13z m307 0c4-1 8 0 11 3 3 4 4 9 3 14-2 4-7 7-12 7-6 0-10-4-11-9-2-7 2-14 9-15z m-312 102c15-2 30 2 42 10 7 4 14 10 18 17 9 13 13 30 11 46-3 18-13 34-29 44-9 6-19 9-29 10-4 1-8 1-12 0-20-2-39-14-49-32-9-15-11-33-6-50 5-18 20-34 38-41 5-2 11-4 16-4z m154 0c16-2 33 2 45 12 14 10 23 25 25 41 2 12 1 25-4 36-8 18-24 31-42 36-8 2-16 3-24 2-20-2-38-14-48-31-10-17-12-38-5-56 7-17 21-30 37-37 5-1 11-3 16-3z m159 51c4 0 7 1 9 3 3 3 5 7 4 11 0 4-2 7-6 9-4 2-9 2-13-1-4-3-6-10-3-15 2-4 5-6 9-7z"/>
    </symbol>
  
    <symbol id="visualbraille-x-lower-case" viewBox="0 0 512 512">
      <path d="m95 41c8-1 16 0 24 2 15 4 27 14 36 26 5 9 8 19 9 29 1 4 0 8 0 12-2 13-8 25-16 34-9 9-20 16-32 19-4 1-9 1-13 1-8 0-15-1-23-4-14-6-27-17-34-31-8-19-7-42 4-59 10-16 27-27 45-29z m152 0c16-2 33 2 46 12 15 11 24 29 25 47 0 17-6 33-18 45-9 10-23 17-36 19-4 0-8 1-12 0-19-1-37-12-47-27-10-14-13-32-9-49 2-11 8-22 17-30 9-9 21-15 34-17z m160 52c2-1 5 0 7 1 3 2 5 5 5 8 1 5-4 10-9 10-4 0-8-3-10-6-2-6 2-12 7-13z m-306 153c4-1 10 3 11 7 0 3 0 6-1 8-2 4-7 6-11 4-4-1-8-5-7-9-1-5 3-9 8-10z m153 0c7-1 13 6 11 12-1 5-7 9-12 7-3-1-6-3-7-7-1-5 3-11 8-12z m154 0c5-1 11 4 11 10 0 6-7 11-12 9-5-1-8-5-7-10 0-4 4-8 8-9z m-311 102c4-1 7-1 10 0 20 1 38 13 48 30 5 8 8 17 9 27 0 3 0 6 0 9-1 20-13 38-30 48-12 8-27 11-41 8-10-1-20-5-28-12-14-10-23-26-24-43-2-15 3-31 12-43 11-14 27-23 44-24z m154 0c3-1 6-1 10 0 20 1 40 14 49 32 6 12 9 25 7 38-3 19-14 36-30 45-12 7-27 10-41 7-10-1-21-6-29-13-17-13-25-35-22-55 2-19 13-35 28-45 9-5 18-8 28-9z m155 52c3-1 6 0 8 1 3 2 5 5 5 8 1 6-5 11-10 10-5 0-10-5-9-10 0-4 3-8 6-9z"/>
    </symbol>
  
    <symbol id="visualbraille-c-lower-case" viewBox="0 0 512 512">
      <path d="m95 41c8-1 16 0 24 2 16 4 30 16 38 30 5 9 7 20 7 30 0 8-1 16-5 23-5 12-14 23-25 29-7 5-15 7-24 9-4 0-8 1-12 0-12-1-24-5-34-13-15-12-24-32-23-52 0-17 9-34 23-45 9-7 20-11 31-13z m152 0c16-2 33 2 46 12 15 11 24 29 25 47 0 18-7 35-19 47-8 7-18 13-29 15-5 2-9 2-14 2-7 0-14-1-21-4-12-4-23-12-30-23-7-9-11-21-11-33 0-12 3-23 9-34 9-15 26-26 44-29z m160 52c2 0 5-1 7 1 3 1 5 5 5 8 1 5-4 10-10 10-5 0-9-4-9-9-1-5 3-9 7-10z m-306 153c5-1 11 4 11 10 0 5-5 10-11 10-2-1-5-2-7-5-2-3-2-7 0-10 1-3 4-4 7-5z m153 0c7-1 13 6 11 12-1 5-7 9-12 7-4-1-7-5-7-9 0-5 4-9 8-10z m154 0c5-1 11 4 11 10 0 6-6 11-12 9-3-1-6-3-7-7 0-2 0-4 0-6 2-3 5-5 8-6z m-309 154c3 0 6 0 8 1 3 2 5 5 5 9 0 3-2 7-6 8-2 1-4 1-6 1-4-1-8-5-7-10 0-4 3-8 6-9z m154 0c3-1 7 0 9 2 2 2 3 4 4 7 0 5-4 10-10 10-4 1-8-3-9-7-2-5 1-10 6-12z m154 0c2 0 5 0 7 1 3 2 5 5 5 8 1 5-5 11-10 10-5 0-10-5-9-10 0-4 3-8 7-9z"/>
    </symbol>
  
    <symbol id="visualbraille-v-lower-case" viewBox="0 0 512 512">
      <path d="m95 41c8-1 16 0 24 2 16 4 30 16 38 30 6 12 9 26 6 39-2 15-10 28-21 37-10 9-22 14-36 15-4 1-8 0-12 0-14-2-27-9-37-20-9-9-14-21-16-33-1-9 0-19 3-28 4-13 13-25 26-33 7-5 16-8 25-9z m158 52c3 0 5 0 7 1 4 1 6 5 6 9-1 3-2 5-4 7-3 2-6 2-9 2-3-1-5-4-6-7-2-5 1-11 6-12z m154 0c2-1 5 0 7 1 3 2 5 5 5 8 0 4-3 9-7 10-3 0-6 0-8-2-5-2-6-9-2-13 1-2 3-3 5-4z m-311 101c7 0 13 0 20 2 13 3 25 10 33 20 9 10 14 23 15 36 0 3 0 6 0 9-2 20-14 39-32 49-12 7-27 9-41 7-17-4-33-15-42-30-9-15-11-34-5-51 4-11 11-21 20-28 9-8 20-12 32-14z m158 52c7-1 13 6 11 12-1 6-7 9-12 7-4-1-7-5-7-9 0-5 4-9 8-10z m154 0c5-1 11 4 11 10 0 6-7 12-13 9-5-2-7-7-6-12 1-4 4-6 8-7z m-311 102c2 0 3 0 4 0 12 0 24 3 34 9 16 10 27 27 29 46 0 2 0 4 0 6 0 10-2 19-7 28-8 18-25 30-45 33-10 2-20 1-30-2-17-6-32-21-38-38-5-14-4-31 2-45 8-21 29-36 51-37z m154 0c3-1 6-1 10 0 18 1 36 12 47 28 7 12 11 26 9 40-1 11-5 21-11 30-11 15-29 24-47 25-19 1-37-7-49-20-6-7-11-16-13-25-5-17-2-36 8-51 10-15 27-26 46-27z m156 52c2 0 5 0 7 1 3 2 5 5 5 8 0 5-4 10-10 10-5 0-10-5-9-10 0-4 3-8 7-9z"/>
    </symbol>
  
    <symbol id="visualbraille-b-lower-case" viewBox="0 0 512 512">
      <path d="m95 41c8-1 16 0 24 2 16 4 30 15 37 30 6 9 8 20 8 30 0 8-2 17-5 24-6 14-18 26-32 32-8 3-16 5-24 5-10 0-20-2-29-7-19-9-32-29-33-50-1-9 0-19 4-28 5-12 14-23 26-30 7-4 15-7 24-8z m158 52c3 0 5 0 7 1 3 1 5 4 6 7 0 6-5 11-10 11-6 0-11-6-10-12 1-3 4-6 7-7z m154 0c6-2 12 3 12 9 0 4-2 7-5 9-5 2-11 0-13-4-3-6 0-13 6-14z m-311 101c6 0 12 0 17 1 15 3 29 11 38 23 7 8 11 19 13 30 0 4 1 8 0 12-1 19-12 37-27 47-13 9-29 12-44 10-18-3-35-14-44-30-8-14-10-31-6-46 2-10 7-19 14-27 10-11 24-18 39-20z m158 52c7-1 13 6 11 12-1 5-7 9-12 7-4-1-7-5-7-9 0-5 4-9 8-10z m154 0c5-1 11 4 11 10 0 6-6 11-12 9-4-1-7-5-7-9 0-5 3-9 8-10z m-309 154c3 0 6 0 8 1 3 2 5 5 5 9 0 6-6 10-11 9-5-1-9-5-8-10 0-4 3-8 6-9z m154 0c2 0 4 0 5 0 4 1 6 4 7 7 2 6-3 12-9 12-6 0-11-6-10-12 1-3 4-6 7-7z m153 0c3 0 6 0 8 1 3 2 5 5 5 8 1 6-5 11-10 10-5 0-10-5-9-10 0-4 3-8 6-9z"/>
    </symbol>
  
    <symbol id="visualbraille-n-lower-case" viewBox="0 0 512 512">
      <path d="m96 39c4-1 8-1 12 0 16 1 31 8 42 20 9 10 15 23 16 37 1 12-1 24-6 35-7 13-17 23-30 29-18 9-40 8-58-1-18-10-31-29-33-50-1-4-1-8 0-12 1-15 7-29 18-40 10-10 25-17 39-18z m156-1c21-1 42 9 54 25 14 17 17 40 11 60-7 19-22 34-42 40-18 7-40 3-56-8-10-7-18-18-23-30-3-9-5-18-4-28 1-13 6-26 15-36 11-13 28-22 45-23z m156 52c8-1 15 7 13 14 0 7-8 12-15 10-4-1-7-5-8-9-2-7 3-14 10-15z m-161 102c9-1 17 0 25 2 17 4 32 16 40 31 6 11 9 22 8 34-1 22-14 43-34 53-16 9-36 10-53 4-17-7-31-21-37-38-4-10-5-20-4-31 2-11 6-22 13-31 11-13 26-21 42-24z m-147 52c3-1 8 0 10 3 3 2 4 6 5 9-1 3-2 7-5 9-3 3-9 4-13 2-4-2-6-6-7-10 0-6 4-12 10-13z m307 0c4-1 8 0 11 3 3 4 4 9 3 14-2 4-7 7-12 7-6 0-10-4-11-9-2-7 2-14 9-15z m-312 102c15-2 31 2 43 10 15 10 25 27 28 44 2 17-2 34-12 47-10 14-26 24-43 26-20 3-40-4-54-18-14-14-21-35-18-54 2-18 13-35 29-45 8-6 17-9 27-10z m159 51c7-1 14 5 14 12 0 4-2 9-6 11-3 2-8 2-12 0-4-2-6-6-6-11 0-5 4-11 10-12z m154 0c4 0 7 1 9 3 3 3 5 7 4 11 0 4-2 7-5 9-4 2-10 2-14-1-5-3-6-10-3-16 2-3 5-5 9-6z"/>
    </symbol>
  
    <symbol id="visualbraille-m-lower-case" viewBox="0 0 512 512">
      <path d="m95 41c8-1 16 0 24 2 15 4 27 14 35 26 5 8 9 17 10 26 0 2 0 5 0 7 0 9-2 17-5 25-6 14-18 26-32 32-8 3-16 5-24 5-9 0-18-2-26-6-15-6-28-20-33-36-6-17-4-38 7-53 9-15 26-26 44-28z m152 0c17-2 34 3 47 13 10 7 16 17 20 28 7 18 4 39-7 54-9 15-24 24-41 27-2 1-5 1-7 1-4 1-7 0-11 0-13-2-27-9-36-18-13-14-20-33-17-51 1-15 9-28 19-38 10-9 21-14 33-16z m160 52c2-1 5-1 7 1 3 2 5 5 5 8 1 5-4 10-10 10-5 0-9-4-9-9 0-5 3-9 7-10z m-306 153c5-1 11 4 11 10 0 5-5 10-11 10-2-1-5-2-7-5-2-3-2-7 0-10 2-3 4-4 7-5z m153 0c7-1 13 6 11 12-1 5-7 9-12 7-5-1-8-7-6-12 1-3 4-6 7-7z m154 0c5-1 11 4 11 10 0 6-6 11-12 9-3-1-6-3-7-7 0-2 0-4 0-6 2-3 5-5 8-6z m-311 102c4 0 7-1 10 0 19 1 36 11 47 27 5 8 8 17 10 26 0 4 1 9 0 13-1 17-10 34-24 44-12 9-26 14-41 13-17-1-34-9-45-23-10-12-15-28-13-44 1-12 5-23 13-32 10-14 26-23 43-24z m156 52c3-1 7 0 9 2 2 2 3 4 4 7 0 3-2 7-5 8-3 3-8 3-11 0-3-2-5-7-3-10 0-3 3-6 6-7z m154 0c2 0 5 0 7 1 3 2 5 5 5 8 1 5-4 10-10 10-5 0-10-5-9-10 0-4 3-8 7-9z"/>
    </symbol>
  
    <symbol id="visualbraille-radical-sign" viewBox="0 0 512 512">
      <path d="m95 41c8-1 16 0 24 2 15 4 27 13 35 26 5 8 8 16 10 25 0 4 1 8 0 12-1 14-7 28-16 38-10 11-23 18-38 20-4 0-8 1-12 0-15-1-29-8-40-18-9-9-15-21-17-34-3-19 4-39 17-53 10-10 23-16 37-18z m307 0c14-2 30 2 42 10 15 10 26 28 27 47 1 17-5 35-17 47-12 13-30 20-48 19-8 0-17-3-25-7-17-9-29-25-32-44-1-5-2-10-1-16 1-20 14-39 32-49 7-4 14-6 22-7z m-149 52c3 0 5 0 7 1 3 1 5 5 6 8 0 5-4 9-8 10-5 1-10-2-11-6-2-5 1-12 6-13z m-157 101c18-1 36 5 49 18 10 9 17 23 19 37 1 11-1 23-6 34-8 16-23 29-41 33-14 3-29 2-42-5-8-4-15-9-21-16-11-14-16-34-12-52 2-11 7-20 14-28 11-12 25-19 40-21z m158 52c6-1 12 5 12 11-1 4-3 7-7 8-5 2-11-1-12-6-2-6 2-12 7-13z m154 0c5-1 11 4 11 10 1 6-7 12-13 9-5-2-8-8-6-13 2-3 4-5 8-6z m-311 102c4-1 7-1 10 0 20 1 39 14 49 31 6 10 8 20 8 31 0 9-2 18-6 27-9 17-26 30-46 33-14 3-30 0-43-8-14-10-25-25-28-42-2-15 1-31 9-43 10-17 28-28 47-29z m154 0c3-1 7-1 10 0 20 1 40 14 49 32 7 12 9 25 7 38-3 19-14 36-30 45-16 9-35 11-51 5-9-3-17-8-23-14-9-9-15-19-17-31-4-16-1-34 9-48 10-16 27-26 46-27z m155 52c3 0 6 0 8 1 3 2 5 5 5 8 1 6-5 11-10 10-5 0-9-4-9-9-1-5 2-9 6-10z"/>
    </symbol>
  
    <symbol id="visualbraille-semicolon" viewBox="0 0 512 512">
      <path d="m100 93c4-1 8 0 10 3 4 5 2 12-3 15-2 1-5 1-7 1-4-1-7-5-7-9-1-5 3-9 7-10z m153 0c3 0 5 0 7 1 3 1 5 5 6 8 0 4-2 7-5 9-2 1-5 1-8 1-3-1-5-4-6-7-2-5 1-11 6-12z m154 0c2 0 5-1 7 1 3 1 5 5 5 9 0 5-5 9-10 9-5 0-9-4-9-9 0-5 3-9 7-10z m-311 101c7 0 14 0 21 2 13 3 24 10 33 20 7 9 12 20 14 32 0 4 1 8 0 12-1 17-10 34-24 45-11 8-25 13-40 13-18-1-36-10-47-25-10-14-14-31-12-47 3-14 10-27 20-36 10-9 22-14 35-16z m158 52c7-1 13 6 11 12-1 6-7 9-12 7-5-2-8-8-6-12 1-4 4-6 7-7z m154 0c5-1 11 4 11 9 1 5-3 9-7 10-6 2-13-3-12-9 0-5 3-9 8-10z m-311 102c4-1 7-1 10 0 20 1 39 13 49 31 5 9 8 20 8 31 0 8-2 16-5 23-6 16-20 29-37 35-13 4-27 4-41-1-17-6-31-20-37-37-5-14-4-30 1-44 7-16 21-29 38-35 4-2 9-3 14-3z m156 52c3-1 7 0 9 2 2 2 3 4 4 7 0 3-2 7-5 8-3 3-8 3-11 0-3-2-5-7-3-10 0-3 3-6 6-7z m154 0c2 0 5 0 7 1 3 2 5 5 5 8 1 5-5 11-10 10-5 0-10-5-9-10 0-4 3-8 7-9z"/>
    </symbol>
  
    <symbol id="visualbraille-pause-en-dash-infinity-sign" viewBox="0 0 512 512">
      <path d="m100 93c3-1 7 0 9 2 4 3 4 10 1 13-2 3-5 4-8 4-5 0-9-4-9-9-1-5 3-9 7-10z m153 0c3 0 5 0 7 1 3 1 5 5 6 8 0 5-4 9-8 10-5 1-10-2-11-6-2-5 1-12 6-13z m154 0c2-1 5 0 7 1 3 2 5 5 5 8 1 5-4 10-10 10-5 0-9-4-9-9-1-5 3-9 7-10z m-311 101c18-1 37 5 50 18 9 9 16 22 18 36 0 4 1 8 0 12-1 18-10 35-25 45-12 10-28 14-44 12-11-1-21-5-30-12-14-10-23-27-24-44-1-10 1-20 5-30 5-13 15-24 28-30 7-4 14-6 22-7z m307 1c15-2 31 2 44 12 16 11 25 32 24 52-1 17-9 34-23 45-9 7-19 11-29 13-16 2-32-1-44-10-16-11-26-28-27-47-1-3 0-6 0-9 1-19 13-38 29-48 8-5 17-8 26-8z m-149 51c7-1 13 6 11 12-1 5-7 9-12 7-5-1-8-6-7-11 1-4 5-7 8-8z m-155 154c3 0 6 0 8 1 3 2 5 5 5 9 0 6-6 10-12 9-4-1-8-5-7-10 0-4 3-8 6-9z m154 0c3-1 7 0 9 2 2 2 3 4 4 7 0 5-4 10-10 10-4 1-8-3-9-7-2-5 1-10 6-12z m154 0c2 0 5 0 7 1 3 1 5 5 5 8 1 5-4 11-10 10-5 0-10-5-9-10 0-4 3-8 7-9z"/>
    </symbol>
  
    <symbol id="visualbraille-single-dot" viewBox="0 0 512 512">
      <path d="m101 90c5 0 9 2 12 6 1 2 1 4 2 6 0 5-4 11-10 12-6 2-14-3-15-10-1-7 5-13 11-14z m307 0c6 0 12 4 13 10 1 5-1 11-6 13-3 1-5 2-8 1-5-1-8-4-9-9-2-7 3-14 10-15z m-156 1c4-1 7-1 10 1 4 2 6 7 6 11 0 7-8 13-15 11-3-1-6-3-7-5-3-4-3-10 0-13 1-3 4-4 6-5z m-157 101c11-1 22 0 32 5 13 5 24 15 31 28 8 13 10 30 7 45-4 18-17 35-34 43-19 10-44 9-62-2-17-11-29-29-30-49-2-12 1-24 6-34 5-11 14-20 24-27 8-5 17-8 26-9z m152 0c8-1 17 0 25 2 17 4 33 17 41 33 9 18 9 39 1 57-8 16-23 29-41 34-19 5-41 1-56-11-17-13-26-33-25-54 0-21 13-42 31-52 8-5 16-7 24-9z m160 52c4-1 8 0 11 3 3 3 4 7 3 11 0 3-2 6-5 8-4 2-9 3-12 0-4-2-6-5-7-9 0-6 4-12 10-13z m-158 102c19-2 38 4 52 17 12 13 20 31 19 49-1 19-10 37-25 48-13 11-31 15-48 13-11-2-23-7-32-14-15-12-24-32-23-52 0-19 10-38 26-49 9-7 20-11 31-12z m-148 51c5 0 10 3 12 7 3 5 1 12-4 15-4 3-10 3-14 0-3-2-5-7-4-12 0-5 5-9 10-10z m307 0c4 0 7 1 9 3 3 3 5 7 4 11 0 4-2 7-6 9-3 2-9 2-12-1-5-3-7-10-4-15 1-4 5-6 9-7z"/>
    </symbol>
  
    <symbol id="visualbraille-double-dot" viewBox="0 0 512 512">
      <path d="m101 90c5 0 9 2 12 6 1 2 1 4 2 6 0 5-4 10-9 12-7 2-15-3-16-10-1-6 5-13 11-14z m307 0c8-1 15 7 13 14 0 7-8 12-15 10-4-1-7-5-8-9-2-7 3-14 10-15z m-156 1c4-1 7-1 10 1 4 2 6 7 6 11 0 7-8 13-15 11-5-1-9-6-9-11 0-6 3-11 8-12z m-157 101c8-1 16 0 24 2 15 4 28 13 37 26 10 16 13 37 7 55-5 17-17 31-33 39-15 7-34 8-50 2-8-3-16-8-23-15-14-14-21-35-18-55 3-16 12-31 25-41 9-7 19-11 31-13z m152 0c9-1 17 0 25 2 18 5 33 17 41 33 9 17 9 38 1 55-7 16-21 29-38 35-13 4-29 4-43-1-16-6-30-19-36-35-7-17-7-36 1-53 8-17 24-30 43-34 2-1 4-1 6-2z m160 52c5-1 12 2 14 8 1 4 0 9-3 13-3 3-8 4-12 3-4-2-7-5-8-9-2-7 2-14 9-15z m-306 153c5 0 10 2 12 7 3 5 1 12-4 15-4 3-10 3-14 0-4-3-5-8-4-12 0-5 5-9 10-10z m153 0c7-1 14 5 14 12 0 7-6 13-13 12-6 0-12-6-11-12 0-5 4-11 10-12z m154 0c4 0 7 1 9 3 3 3 5 7 4 11 0 4-3 7-6 9-4 2-9 2-13-1-5-3-6-10-3-16 2-3 6-5 9-6z"/>
    </symbol>
  
    <symbol id="visualbraille-wait-to-be-continued" viewBox="0 0 512 512">
      <path d="m101 90c5 0 9 2 12 6 1 2 1 4 1 5 1 6-3 11-8 13-7 2-15-3-16-10-1-6 4-13 11-14z m307 0c8-1 14 6 13 13 0 8-8 13-15 11-4-1-7-4-8-9-2-7 3-14 10-15z m-156 1c3-1 7-1 10 1 4 2 6 7 6 11 0 7-8 13-15 11-5-1-9-6-9-11 0-6 3-11 8-12z m-157 101c10-1 21 0 31 4 14 6 25 16 33 29 8 15 10 34 4 51-5 16-17 30-32 37-16 8-36 9-53 2-8-3-16-8-22-15-9-10-16-23-17-36-2-10 0-21 3-30 5-13 14-25 26-32 8-5 17-9 27-10z m152 0c9-1 17 0 25 2 18 5 33 17 41 33 9 18 9 40 0 57-8 16-22 29-40 34-17 4-36 2-51-8-18-11-30-31-30-51-1-21 8-41 24-54 9-7 20-11 31-13z m155 0c9-1 18 0 27 3 12 4 23 11 31 21 8 10 13 23 13 36 2 18-5 36-18 49-8 8-18 14-30 17-17 5-37 1-52-9-15-11-25-27-27-44-2-16 2-33 11-46 11-15 27-25 45-27z m-301 205c4 0 8 2 11 5 2 3 3 7 2 11-2 6-8 9-14 8-6-1-11-7-10-13 1-6 6-10 11-11z m153 0c7-1 14 5 14 12 0 4-2 9-6 11-4 2-8 2-12 0-4-2-6-6-6-11 0-5 4-11 10-12z m154 0c4 0 7 1 9 3 3 3 5 7 4 11 0 4-2 7-5 9-4 2-10 2-14-1-4-3-6-10-3-15 2-4 5-6 9-7z"/>
    </symbol>
  
    <symbol id="visualbraille-minus-net-of-or-less" viewBox="0 0 512 512">
      <path d="m402 41c14-2 30 2 42 10 15 11 26 28 27 47 1 15-3 30-13 42-6 8-14 14-23 18-8 4-17 6-26 6-8 0-17-2-25-5-17-8-31-24-35-43-1-4-1-9-1-13 0-7 1-14 3-21 3-9 9-18 16-24 9-9 22-15 35-17z m-302 52c4-1 8 0 10 3 3 4 2 12-2 14-3 2-6 2-8 2-4-1-7-5-7-9-1-5 3-9 7-10z m153 0c3 0 5 0 7 1 3 1 5 5 6 8 0 4-3 9-8 10-5 1-10-2-11-6-2-5 1-12 6-13z m-152 153c5-1 11 4 11 10 0 6-6 11-12 9-4-1-8-5-7-9-1-5 3-9 8-10z m153 0c5-1 10 3 11 7 2 5-1 11-6 12-5 2-11-1-12-6-2-6 2-12 7-13z m154 0c5-1 11 4 11 10 0 6-6 11-12 9-3 0-6-3-7-7 0-2 0-5 1-7 1-2 4-4 7-5z m-311 102c4-1 7-1 10 0 20 1 39 13 49 31 6 10 8 20 8 31 0 9-2 17-6 25-7 16-21 28-37 33-11 4-24 4-35 1-18-5-33-18-40-35-8-17-7-36 1-52 10-19 29-33 50-34z m154 0c3-1 6-1 10 0 20 1 40 14 49 32 7 12 9 25 7 39-3 18-14 35-31 44-15 9-34 11-50 5-9-3-17-8-23-14-9-9-15-19-17-31-4-16-1-34 9-48 10-15 27-26 46-27z m154 0c3-1 6-1 9 0 17 1 34 10 44 24 10 12 14 28 13 43-1 13-7 27-17 37-6 7-14 12-23 15-14 5-29 5-43 0-14-5-27-16-34-30-3-7-6-15-6-23-1-3-1-6 0-9 1-19 12-37 28-48 9-5 18-8 29-9z"/>
    </symbol>
  
    <symbol id="visualbraille-em-dash" viewBox="0 0 512 512">
      <path d="m100 93c2 0 4 0 6 0 4 2 6 6 6 10 0 5-4 9-9 9-6 0-10-4-10-9-1-5 3-9 7-10z m153 0c3 0 5 0 7 1 3 1 5 4 6 7 0 6-5 11-10 11-6 0-11-6-10-12 1-3 4-6 7-7z m154 0c2 0 5-1 7 1 3 1 5 4 5 8 1 5-4 10-10 10-5 0-9-4-9-9-1-5 3-9 7-10z m-306 153c4-1 10 3 11 7 0 3 0 7-2 9-2 2-5 3-7 4-4 0-8-2-9-6-1-2-1-4-1-6 0-4 4-7 8-8z m153 0c7-1 13 6 11 12-1 5-7 9-12 7-3-1-6-3-7-7-1-5 3-11 8-12z m154 0c5-1 11 4 11 10 0 6-6 11-12 9-3-1-6-3-7-7 0-2 0-4 0-6 2-3 5-5 8-6z m-311 102c4-1 7-1 10 0 20 1 38 12 48 29 4 7 7 16 9 24 0 4 1 9 0 13-1 15-8 30-20 41-7 7-17 12-27 14-16 4-34 2-48-7-14-10-25-25-28-42-2-15 1-31 9-43 10-17 28-28 47-29z m154 0c3-1 6-1 10 0 18 1 36 12 47 28 9 15 12 34 7 51-3 10-8 19-15 26-8 8-18 14-29 16-17 5-36 1-51-9-14-10-24-26-25-43-2-15 2-30 10-42 10-16 27-26 46-27z m154 0c3-1 6-1 9 0 17 1 34 10 44 24 9 11 14 26 13 40 0 12-4 23-11 33-7 9-16 17-27 22-14 5-30 6-45 0-13-4-24-13-31-25-6-10-9-22-9-34 0-8 2-17 5-24 9-20 30-35 52-36z"/>
    </symbol>
  
    <symbol id="visualbraille-long-dash-pause" viewBox="0 0 512 512">
      <path d="m96 39c4-1 8-1 12 0 16 1 31 8 42 20 9 10 15 23 16 37 2 16-3 32-12 45-12 15-31 25-51 25-20 1-40-9-52-25-8-11-13-26-13-40 1-8 2-17 6-25 9-20 30-36 52-37z m312 51c4 0 9 2 11 5 2 3 3 6 2 9 0 5-4 9-9 10-3 1-6 0-9-1-3-2-5-6-6-9 0-7 5-13 11-14z m-156 1c3-1 7-1 10 1 4 2 6 7 6 11 0 7-8 13-15 11-5-1-9-6-9-11 0-6 3-11 8-12z m-5 101c14-1 27 1 39 7 11 6 21 16 27 27 5 10 7 21 7 32 0 13-5 25-12 36-10 13-26 23-42 25-15 3-31-1-44-9-18-11-30-31-30-51-1-15 4-30 13-42 10-13 26-22 42-25z m-147 52c3-1 8 0 10 3 3 2 4 6 5 9-1 3-2 7-5 9-3 3-7 4-11 3-5-2-8-6-9-11 0-6 4-12 10-13z m307 0c4-1 8 0 11 3 3 3 4 9 3 13-2 5-7 8-12 8-6 0-10-4-11-9-2-7 2-14 9-15z m-5 102c16-2 33 2 46 12 13 10 22 25 25 40 3 20-4 42-18 56-9 10-22 17-35 19-6 0-11 1-16 0-14-1-28-7-38-17-13-11-20-28-21-45 0-15 5-30 15-42 10-13 26-22 42-23z m-301 51c3 0 5 1 8 2 3 2 5 6 6 10-1 4-2 8-6 10-4 3-9 3-13 0-4-2-6-7-6-12 1-5 6-9 11-10z m153 0c7-1 14 5 14 12 0 5-2 9-6 11-4 2-8 2-12 0-4-2-6-6-6-11 0-5 4-11 10-12z"/>
    </symbol>
  
    <symbol id="visualbraille-accent-circumflex-reverse" viewBox="0 0 512 512">
      <path d="m96 66c5-1 11-1 17 0 14 2 27 9 37 20 9 10 16 24 17 38 0 4 0 7 0 11-1 14-8 28-18 38-9 11-23 18-36 20-11 1-22 0-32-3-12-5-22-13-30-23-11-15-15-36-10-54 3-13 11-25 22-34 9-7 21-12 33-13z m307 0c4-1 8-1 12-1 11 1 21 5 30 11 16 11 27 28 29 47 1 15-3 31-11 43-11 15-29 26-47 27-15 2-29-2-41-10-16-10-26-27-29-44 0-5 0-10 0-15 1-11 5-22 11-31 10-15 28-25 46-27z m-149 51c6-1 12 3 14 9 2 6-1 12-7 14-2 2-5 1-7 1-5-1-8-4-9-9-1-3-1-6 1-9 2-3 5-5 8-6z m-2 102c15-1 32 4 44 14 13 10 22 25 24 42 1 4 0 8 0 11-1 20-11 39-28 50-13 9-29 13-44 10-19-2-38-14-47-31-5-8-7-16-8-24-1-4-1-8-1-12 1-16 8-31 20-42 10-11 25-17 40-18z m-151 52c7-1 15 5 14 13 0 7-8 12-15 11-4-1-8-5-9-9-2-7 3-14 10-15z m307 0c7-1 14 5 14 12 0 7-8 14-15 12-4-1-8-5-9-9-2-7 4-14 10-15z m-308 154c4-1 8 0 11 3 4 3 5 8 3 13-2 5-8 9-14 7-4-1-8-4-9-8-2-7 3-14 9-15z m153 0c3-1 6-1 8 1 5 1 8 6 7 11 0 3-1 7-4 9-4 3-10 3-14 1-5-4-7-11-5-16 2-3 5-5 8-6z m154 0c3-1 5-1 7 0 5 2 8 7 8 11 0 7-5 12-12 13-5 0-11-4-12-10-2-6 3-13 9-14z"/>
    </symbol>
  
    <symbol id="visualbraille-brackets-open-close-6-dot" viewBox="0 0 512 512">
      <path d="m101 90c5 0 9 2 12 6 1 2 1 4 2 6 0 5-4 10-9 12-7 2-15-3-16-10-1-7 5-13 11-14z m307 0c7 0 13 5 13 11 1 6-3 12-9 13-3 1-6 0-9-2-3-2-5-5-6-9 0-6 5-12 11-13z m-156 1c3-1 7-1 10 1 4 2 6 7 6 11 0 7-8 13-15 11-3-1-6-3-7-5-3-4-3-9 0-13 1-3 4-4 6-5z m-157 101c11-1 22 0 33 5 14 6 26 18 32 32 8 15 8 34 2 49-6 18-21 32-39 38-15 6-32 5-46-1-10-5-19-11-25-20-8-9-12-21-13-33-1-4-1-8 0-12 1-15 8-29 18-40 10-10 24-16 38-18z m152 0c9-1 17 0 25 2 18 5 33 17 41 33 9 18 9 40 0 58-9 18-27 31-46 34-12 2-24 1-35-3-16-7-30-21-36-38-5-12-5-24-3-36 4-19 18-35 35-44 6-3 13-5 19-6z m160 52c4-1 8 0 11 3 3 4 4 9 3 14-2 4-7 7-12 7-5 0-10-4-11-9-2-6 2-13 9-15z m-312 102c16-2 33 2 46 12 13 10 23 26 25 42 2 16-2 33-11 46-6 8-13 15-22 20-13 7-29 9-44 6-20-4-37-18-45-37-7-15-8-32-2-47 6-19 23-34 42-40 4-1 7-2 11-2z m154 0c17-2 34 3 47 14 16 12 25 32 24 52-1 19-10 37-25 48-13 11-31 15-48 13-11-2-23-7-32-14-15-12-24-32-23-52 0-19 10-37 25-48 9-8 20-12 32-13z m159 51c4 0 7 1 9 3 3 3 5 7 4 11 0 4-2 7-5 9-4 2-9 2-13-1-4-2-6-6-6-10 0-3 2-6 4-8 2-2 5-3 7-4z"/>
    </symbol>
  
    <symbol id="visualbraille-curly-brackets-open-close-9-dot" viewBox="0 0 512 512">
      <path d="m255 90c7-1 14 6 13 14 0 7-8 12-15 10-4-1-8-4-9-9-2-7 4-14 11-15z m-156 1c3-1 7-1 10 1 4 2 6 7 6 11-1 7-8 13-15 11-5-1-10-6-9-11-1-6 3-11 8-12z m307 0c3-1 7-1 10 1 4 2 7 8 5 14-1 5-6 9-12 9-3-1-7-2-9-5-3-4-3-10 0-14 1-3 3-4 6-5z m-158 101c8 0 16 0 24 2 10 2 19 7 26 14 13 11 21 26 22 43 0 3 0 7 0 11-2 19-13 38-30 48-11 7-24 11-37 10-20-1-39-12-50-28-9-13-13-29-10-45 2-18 12-34 27-44 9-6 18-9 28-11z m153 0c8-1 17 0 25 2 17 4 32 16 40 31 8 15 10 33 5 49-5 17-17 32-33 39-17 9-37 9-54 2-17-8-30-22-35-39-2-4-2-8-3-12 0-4-1-8 0-12 1-17 9-33 21-44 9-8 22-14 34-16z m-301 52c3 0 5 0 8 1 4 2 7 6 7 11 0 4-3 8-6 10-4 3-9 2-13 0-5-3-7-11-4-16 1-3 5-5 8-6z m149 102c15-2 30 2 43 10 16 11 26 29 28 48 0 4 0 7 0 11-2 18-11 34-25 45-16 12-37 17-57 11-17-5-32-17-39-33-8-15-9-33-4-49 6-17 19-31 36-38 5-3 12-5 18-5z m154 0c13-2 26 1 37 7 14 8 25 21 30 36 2 5 3 10 4 15 0 3 0 6 0 10-1 12-6 25-14 35-14 18-37 27-58 24-15-2-29-9-39-19-12-12-18-30-17-47 0-8 2-15 5-23 7-16 21-30 39-35 4-2 8-3 13-3z m-302 51c6-1 13 5 14 12 0 4-2 9-6 11-3 2-7 2-11 1-4-2-7-5-7-10-2-6 3-13 10-14z"/>
    </symbol>
  
</svg>
