<?xml version="1.0" encoding="UTF-8" standalone="no"?>
<svg
   xmlns:dc="http://purl.org/dc/elements/1.1/"
   xmlns:cc="http://creativecommons.org/ns#"
   xmlns:rdf="http://www.w3.org/1999/02/22-rdf-syntax-ns#"
   xmlns:svg="http://www.w3.org/2000/svg"
   xmlns="http://www.w3.org/2000/svg"
   xmlns:sodipodi="http://sodipodi.sourceforge.net/DTD/sodipodi-0.dtd"
   xmlns:inkscape="http://www.inkscape.org/namespaces/inkscape"
   width="938pt"
   height="938pt"
   viewBox="0 0 938 938"
   version="1.1"
   id="svg29"
   sodipodi:docname="\ - preceded ALT-SHIFT with Solidus.svg"
   inkscape:version="1.0.1 (c497b03c, 2020-09-10)"
   inkscape:export-filename="/Users/hinj/my FontForge/T2Hue-Fontforge/\ - preceded ALT-SHIFT with Solidus.png"
   inkscape:export-xdpi="96"
   inkscape:export-ydpi="96">
  <metadata
     id="metadata35">
    <rdf:RDF>
      <cc:Work
         rdf:about="">
        <dc:format>image/svg+xml</dc:format>
        <dc:type
           rdf:resource="http://purl.org/dc/dcmitype/StillImage" />
        <dc:title />
      </cc:Work>
    </rdf:RDF>
  </metadata>
  <defs
     id="defs33" />
  <sodipodi:namedview
     pagecolor="#ffffff"
     bordercolor="#666666"
     borderopacity="1"
     objecttolerance="10"
     gridtolerance="10"
     guidetolerance="10"
     inkscape:pageopacity="0"
     inkscape:pageshadow="2"
     inkscape:window-width="1622"
     inkscape:window-height="874"
     id="namedview31"
     showgrid="false"
     inkscape:zoom="0.54115914"
     inkscape:cx="447.29853"
     inkscape:cy="625.33333"
     inkscape:window-x="254"
     inkscape:window-y="25"
     inkscape:window-maximized="0"
     inkscape:current-layer="svg29"
     inkscape:document-rotation="0" />
  <path
     fill="#000000"
     opacity="1"
     d="M 0.02505523,0.82463427 C 62.51969,-0.57493719 125.02766,0.15817358 187.53562,0.49139726 c 0.04,312.50288274 0.14664,625.00575274 -0.0533,937.50863274 -62.46798,-0.33322 -124.93595,0 -187.40392492,-0.19994 C -0.06826102,625.49715 0.03838536,313.12756 0.02505523,0.82463427 Z"
     id="path10"
     style="mix-blend-mode:color;fill:#ffffff;fill-opacity:1;stroke-width:2.98067" />
  <path
     fill="#000000"
     opacity="1"
     d="m 187.62516,0.8246337 c 62.49462,-1.39957 125.00257,-0.66646 187.51053,-0.33324 0.04,312.5028963 0.14664,625.0057763 -0.0534,937.5086763 -62.46796,-0.33323 -124.93593,0 -187.40389,-0.19995 -0.14664,-312.30295 -0.04,-624.67256 -0.0534,-936.9754863 z"
     id="path10-3"
     style="mix-blend-mode:color;fill:#000000;fill-opacity:1;stroke:none;stroke-width:2.98067" />
  <path
     fill="#000000"
     opacity="1"
     d="m 375.22516,0.8246337 c 62.49462,-1.39957 125.00257,-0.66646 187.51053,-0.33324 0.04,312.5028963 0.14664,625.0057763 -0.0534,937.5086563 -62.46797,-0.33323 -124.93593,0 -187.40389,-0.19995 -0.14664,-312.30293 -0.04,-624.67254 -0.0534,-936.9754663 z"
     id="path10-3-3"
     style="mix-blend-mode:color;fill:#ffffff;fill-opacity:1;stroke:none;stroke-width:2.98067" />
  <path
     fill="#000000"
     opacity="1"
     d="m 562.82517,0.8246337 c 62.49463,-1.39957 125.00257,-0.66646 187.51053,-0.33324 0.04,312.5028963 0.14664,625.0057863 -0.0534,937.5086663 -62.46798,-0.33323 -124.93593,0 -187.40389,-0.19995 -0.14664,-312.30293 -0.04,-624.67255 -0.0534,-936.9754763 z"
     id="path10-3-3-9"
     style="mix-blend-mode:color;fill:#000000;fill-opacity:1;stroke:none;stroke-width:2.98067" />
  <path
     fill="#000000"
     opacity="1"
     d="m 750.42517,0.8246337 c 62.49463,-1.39957 125.00257,-0.66646 187.51053,-0.33324 0.04,312.5028963 0.14664,625.0057963 -0.0534,937.5086663 -62.46798,-0.33323 -124.93593,0 -187.40389,-0.19995 -0.14664,-312.30292 -0.04,-624.67255 -0.0534,-936.9754763 z"
     id="path10-3-3-9-3"
     style="mix-blend-mode:color;fill:#ffff00;fill-opacity:1;stroke:none;stroke-width:2.98067" />
</svg>
