<?xml version="1.0" encoding="UTF-8" standalone="no"?>
<svg
   xmlns:dc="http://purl.org/dc/elements/1.1/"
   xmlns:cc="http://creativecommons.org/ns#"
   xmlns:rdf="http://www.w3.org/1999/02/22-rdf-syntax-ns#"
   xmlns:svg="http://www.w3.org/2000/svg"
   xmlns="http://www.w3.org/2000/svg"
   xmlns:sodipodi="http://sodipodi.sourceforge.net/DTD/sodipodi-0.dtd"
   xmlns:inkscape="http://www.inkscape.org/namespaces/inkscape"
   width="938pt"
   height="938pt"
   viewBox="0 0 938 938"
   version="1.1"
   id="svg29"
   sodipodi:docname="å - preceded ALT with Small Letter a.svg"
   inkscape:version="1.0.1 (c497b03c, 2020-09-10)"
   inkscape:export-filename="/Users/hinj/my FontForge/T2Hue-Fontforge/å - preceded ALT with Small Letter a.png"
   inkscape:export-xdpi="96"
   inkscape:export-ydpi="96">
  <metadata
     id="metadata35">
    <rdf:RDF>
      <cc:Work
         rdf:about="">
        <dc:format>image/svg+xml</dc:format>
        <dc:type
           rdf:resource="http://purl.org/dc/dcmitype/StillImage" />
        <dc:title />
      </cc:Work>
    </rdf:RDF>
  </metadata>
  <defs
     id="defs33" />
  <sodipodi:namedview
     pagecolor="#ffffff"
     bordercolor="#666666"
     borderopacity="1"
     objecttolerance="10"
     gridtolerance="10"
     guidetolerance="10"
     inkscape:pageopacity="0"
     inkscape:pageshadow="2"
     inkscape:window-width="1622"
     inkscape:window-height="874"
     id="namedview31"
     showgrid="false"
     inkscape:zoom="0.4153675"
     inkscape:cx="447.29853"
     inkscape:cy="625.33333"
     inkscape:window-x="209"
     inkscape:window-y="32"
     inkscape:window-maximized="0"
     inkscape:current-layer="svg29"
     inkscape:document-rotation="0" />
  <path
     fill="#000000"
     opacity="1"
     d="M 0.04176417,0.82463427 C 104.19949,-0.57493719 208.37944,0.15817358 312.55938,0.49139726 312.62605,312.99428 312.80378,625.49715 312.47051,938.00003 c -104.1133,-0.33322 -208.22658,0 -312.33987384,-0.19994 C -0.11376291,625.49715 0.06398106,313.12756 0.04176417,0.82463427 Z"
     id="path10"
     style="mix-blend-mode:color;fill:#000000;fill-opacity:1;stroke-width:3.84803" />
  <path
     fill="#000000"
     opacity="1"
     d="m 312.70849,0.8246337 c 104.15773,-1.39957 208.33767,-0.66646 312.51761,-0.33324 0.0667,312.5028963 0.2444,625.0057763 -0.0889,937.5086763 -104.11329,-0.33323 -208.22658,0 -312.33987,-0.19995 -0.2444,-312.30295 -0.0667,-624.67256 -0.0889,-936.9754863 z"
     id="path10-3"
     style="mix-blend-mode:color;fill:#ffffff;fill-opacity:1;stroke:none;stroke-width:3.84803" />
  <path
     fill="#000000"
     opacity="1"
     d="m 625.37516,0.8246337 c 104.15772,-1.39957 208.33766,-0.66646 312.51761,-0.33324 0.0667,312.5028963 0.24439,625.0057763 -0.0889,937.5086563 -104.11328,-0.33323 -208.22658,0 -312.33986,-0.19995 -0.2444,-312.30293 -0.0667,-624.67254 -0.0889,-936.9754663 z"
     id="path10-3-3"
     style="mix-blend-mode:color;fill:#7fffd4;fill-opacity:1;stroke:none;stroke-width:3.84803" />
</svg>
