<?xml version="1.0" encoding="UTF-8" standalone="no"?>
<svg
   xmlns:dc="http://purl.org/dc/elements/1.1/"
   xmlns:cc="http://creativecommons.org/ns#"
   xmlns:rdf="http://www.w3.org/1999/02/22-rdf-syntax-ns#"
   xmlns:svg="http://www.w3.org/2000/svg"
   xmlns="http://www.w3.org/2000/svg"
   xmlns:sodipodi="http://sodipodi.sourceforge.net/DTD/sodipodi-0.dtd"
   xmlns:inkscape="http://www.inkscape.org/namespaces/inkscape"
   width="938pt"
   height="938pt"
   viewBox="0 0 938 938"
   version="1.1"
   id="svg29"
   sodipodi:docname="… - preceded ALT with Full-stop.svg"
   inkscape:version="1.0.1 (c497b03c, 2020-09-10)"
   inkscape:export-filename="/Users/hinj/my FontForge/T2Hue-Fontforge/… - preceded ALT with Full-stop.png"
   inkscape:export-xdpi="96"
   inkscape:export-ydpi="96">
  <metadata
     id="metadata35">
    <rdf:RDF>
      <cc:Work
         rdf:about="">
        <dc:format>image/svg+xml</dc:format>
        <dc:type
           rdf:resource="http://purl.org/dc/dcmitype/StillImage" />
        <dc:title />
      </cc:Work>
    </rdf:RDF>
  </metadata>
  <defs
     id="defs33" />
  <sodipodi:namedview
     pagecolor="#ffffff"
     bordercolor="#666666"
     borderopacity="1"
     objecttolerance="10"
     gridtolerance="10"
     guidetolerance="10"
     inkscape:pageopacity="0"
     inkscape:pageshadow="2"
     inkscape:window-width="1648"
     inkscape:window-height="905"
     id="namedview31"
     showgrid="false"
     inkscape:zoom="0.82079239"
     inkscape:cx="447.29853"
     inkscape:cy="625.33333"
     inkscape:window-x="254"
     inkscape:window-y="25"
     inkscape:window-maximized="0"
     inkscape:current-layer="svg29"
     inkscape:document-rotation="0" />
  <path
     fill="#000000"
     opacity="1"
     d="M 0.03132313,0.82463427 C 78.149617,-0.57493719 156.28458,0.15817358 234.41953,0.49139726 c 0.05,312.50288274 0.1833,625.00575274 -0.0667,937.50863274 -78.08497,-0.33322 -156.169933,0 -234.25490288,-0.19994 C -0.08532218,625.49715 0.0479858,313.12756 0.03132313,0.82463427 Z"
     id="path10"
     style="mix-blend-mode:color;fill:#000000;fill-opacity:1;stroke-width:3.33249" />
  <path
     fill="#000000"
     opacity="1"
     d="m 234.53138,0.8246337 c 78.11828,-1.39957 156.25322,-0.66646 234.38817,-0.33324 0.05,312.5028963 0.1833,625.0057763 -0.0667,937.5086763 -78.08495,-0.33323 -156.16991,0 -234.25486,-0.19995 -0.1833,-312.30295 -0.05,-624.67256 -0.0667,-936.9754863 z"
     id="path10-3"
     style="mix-blend-mode:color;fill:#ffffff;fill-opacity:1;stroke:none;stroke-width:3.33249" />
  <path
     fill="#000000"
     opacity="1"
     d="m 469.03139,0.8246337 c 78.11828,-1.39957 156.25322,-0.66646 234.38817,-0.33324 0.05,312.5028963 0.18329,625.0057763 -0.0667,937.5086563 -78.08496,-0.33323 -156.16991,0 -234.25486,-0.19995 -0.1833,-312.30293 -0.05,-624.67254 -0.0667,-936.9754663 z"
     id="path10-3-3"
     style="mix-blend-mode:color;fill:#808080;fill-opacity:1;stroke:none;stroke-width:3.33249" />
  <path
     fill="#000000"
     opacity="1"
     d="m 703.53141,0.8246337 c 78.11828,-1.39957 156.25321,-0.66646 234.38816,-0.33324 0.05,312.5028963 0.1833,625.0057863 -0.0667,937.5086663 -78.08497,-0.33323 -156.16991,0 -234.25486,-0.19995 -0.1833,-312.30293 -0.05,-624.67255 -0.0667,-936.9754763 z"
     id="path10-3-3-9"
     style="mix-blend-mode:color;fill:#d3d3d3;fill-opacity:0.98039216;stroke:none;stroke-width:3.33249" />
</svg>
