<svg xmlns="http://www.w3.org/2000/svg" style="display: none;">
  
    <symbol id="newmorse-accent-circumflex-inverted-end-a-message-ar" viewBox="0 0 512 512">
      <path d="m0 0l512 0 0 512-512 0 0-512m65 155c0 25 0 49 0 74 25 0 50 0 74 0 0-25 0-49 0-74-24 0-49 0-74 0m154 0c0 25 0 49 0 74 25 0 49 0 74 0 0-25 0-49 0-74-25 0-49 0-74 0m153 0c0 25 0 49 0 74 25 0 50 0 75 0 0-25 0-49 0-74-25 0-50 0-75 0m-307 153c0 51 0 101 0 151 25 0 50 0 74 0 0-50 0-100 0-151-24 0-49 0-74 0m154 0c0 51 0 101 0 151 25 0 49 0 74 0 0-50 0-100 0-151-25 0-49 0-74 0z"/>
    </symbol>
  
    <symbol id="newmorse-accent-circumflex-inverted-start-a-message-ka" viewBox="0 0 512 512">
      <path d="m0 0l512 0 0 512-512 0 0-512m65 155c0 15 0 30 0 46 0 35 0 70 0 105 24 0 47 0 70 0 2 0 3 0 4 0 0-51 0-101 0-151-3 0-6 0-10 0-21 0-42 0-64 0m154 0c0 50 0 100 0 151 25 0 49 0 74 0 0-51 0-101 0-151-25 0-49 0-74 0m153 0c0 50 0 100 0 151 1 0 2 0 3 0 24 0 48 0 71 0 1-51 1-101 0-151-12 0-24 0-36 0-12 0-25 0-38 0m-307 230c0 25 0 50 0 74 25 0 50 0 74 0 0-24 0-49 0-74-9 0-18 0-27 0-15 0-31 0-47 0m154 0c0 25 0 50 0 74 25 0 49 0 74 0 0-24 0-49 0-74-25 0-49 0-74 0z"/>
    </symbol>
  
    <symbol id="newmorse-ampersand-same-as-plus" viewBox="0 0 512 512">
      <path d="m64 154c26 0 51 0 77 0 0 25 0 51 0 76-26 0-51 0-77 0 0-25 0-51 0-76z m154 0c25 0 51 0 76 0 0 25 0 51 0 76-25 0-51 0-76 0-1-16 0-32 0-48 0-10-1-19 0-28z m153 0c26 0 51 0 77 0 0 25 0 51 0 76-26 0-51 0-77 0 0-25 0-51 0-76z m-307 153c26 0 51 0 77 0 0 51 0 102 0 154-26 0-51 0-77 0 0-52 0-103 0-154z m154 0c25 0 51 0 76 0 0 51 0 102 0 154-25 0-51 0-76 0-1-52-1-103 0-154z"/>
    </symbol>
  
    <symbol id="newmorse-end-a-message-ar-bigger-than" viewBox="0 0 512 512">
      <path d="m64 154c26 0 51 0 77 0 0 25 0 51 0 76-26 0-51 0-77 0 0-25 0-51 0-76z m154 0c25 0 51 0 76 0 0 8 0 17 0 26 0 17 0 34 0 50-25 0-51 0-76 0-1-16 0-31 0-47 0-10-1-20 0-29z m153 0c26 0 51 0 77 0 0 25 0 51 0 76-26 0-51 0-77 0 0-25 0-51 0-76z m-307 153c26 0 51 0 77 0 0 51 0 102 0 154-26 0-51 0-77 0 0-52 0-103 0-154z m154 0c25 0 51 0 76 0 0 51 0 102 0 154-25 0-51 0-76 0-1-52-1-103 0-154z"/>
    </symbol>
  
    <symbol id="newmorse-plus-addition-same-as-end-message" viewBox="0 0 512 512">
      <path d="m64 154c26 0 51 0 77 0 0 25 0 51 0 76-26 0-51 0-77 0 0-25 0-51 0-76z m154 0c25 0 51 0 76 0 0 25 0 51 0 76-25 0-51 0-76 0 0-25-1-51 0-76z m153 0c26 0 51 0 77 0 0 25 0 51 0 76-26 0-51 0-77 0 0-25 0-51 0-76z m-307 153c26 0 51 0 77 0 0 51 0 102 0 154-26 0-51 0-77 0 0-52 0-103 0-154z m154 0c25 0 51 0 76 0 0 51 0 102 0 154-25 0-51 0-76 0-1-52-1-103 0-154z"/>
    </symbol>
  
    <symbol id="newmorse-start-a-message-ka-smaller-than" viewBox="0 0 512 512">
      <path d="m64 154c26 0 51 0 77 0 0 51 0 102 0 153-26 0-51 0-77 0 0-51 0-102 0-153z m154 0c25 0 51 0 76 0 0 28 0 56 0 85 0 23 0 45 0 68-25 0-51 0-76 0-1-30 0-61 0-91 0-21-1-42 0-62z m153 0c26 0 51 0 77 0 0 51 0 102 0 153-26 0-51 0-77 0 0-51 0-102 0-153z m-153 230c25 0 51 0 76 0 0 25 0 51 0 77-25 0-51 0-76 0-1-16 0-32 0-47 0-10-1-20 0-30z m-154 0c26 0 51 0 77 0 0 25 0 51 0 77-26 0-51 0-77 0 0-26 0-52 0-77z"/>
    </symbol>
  
    <symbol id="newmorse-degree-from-inverted-numeric-0-tot" viewBox="0 0 512 512">
      <path d="m0 0l512 0 0 512-512 0 0-512m219 78c0 50 0 101 0 151 25 0 49 0 74 0 0-50 0-101 0-151-25 0-49 0-74 0m153 0c0 50 0 101 0 151 25 0 50 0 74 0 1-19 0-38 1-57 0-31 0-63-1-94-24 0-49 0-74 0m-307 230c0 51 0 101 0 151 25 0 50 0 74 0 0-50 0-100 0-151-24 0-49 0-74 0m154 0c0 51 0 101 0 151 25 0 49 0 74 0 0-50 0-100 0-151-25 0-49 0-74 0m153 0c0 51 0 101 0 151 25 0 50 0 74 0 1-50 1-100 0-151-24 0-49 0-74 0z"/>
    </symbol>
  
    <symbol id="newmorse-1-amt" viewBox="0 0 512 512">
      <path d="m218 77c25 0 51 0 76 0 0 51 0 102 0 153-25 0-51 0-76 0-1-51-1-102 0-153z m153 0c26 0 51 0 77 0 0 51 0 102 0 153-26 0-51 0-77 0 0-51 0-102 0-153z m-307 77c26 0 51 0 77 0 0 25 0 51 0 76-26 0-51 0-77 0 0-25 0-51 0-76z m0 153c26 0 51 0 77 0 0 51 0 102 0 154-26 0-51 0-77 0 0-52 0-103 0-154z m154 0c25 0 51 0 76 0 0 51 0 102 0 154-25 0-51 0-76 0-1-52-1-103 0-154z"/>
    </symbol>
  
    <symbol id="newmorse-2-um" viewBox="0 0 512 512">
      <path d="m218 75c25 0 51 0 76 0 0 51 0 103 0 154-25 0-51 0-76 0-1-51-1-103 0-154z m153 0c26 0 51 0 77 0 0 51 0 103 0 154-26 0-51 0-77 0 0-51 0-103 0-154z m-307 154c26 0 51 0 77 0 0 25 0 51 0 77-26 0-51 0-77 0 0-26 0-52 0-77z m154 77c25 0 51 0 76 0 0 51 0 102 0 153-25 0-51 0-76 0-1-51-1-102 0-153z m-154 76c26 0 51 0 77 0 0 26 0 51 0 77-26 0-51 0-77 0 0-26 0-51 0-77z"/>
    </symbol>
  
    <symbol id="newmorse-3-sm" viewBox="0 0 512 512">
      <path d="m218 152c25 0 51 0 76 0 0 26 0 51 0 77-25 0-51 0-76 0-1-26-1-51 0-77z m153 0c16 0 33 0 49 0 9 0 19 0 28 0 0 51 0 102 0 154-26 0-51 0-77 0 0-52 0-103 0-154z m-307 77c26 0 51 0 77 0 0 25 0 51 0 77-26 0-51 0-77 0 0-26 0-52 0-77z m154 77c25 0 51 0 76 0 0 51 0 102 0 153-25 0-51 0-76 0-1-51-1-102 0-153z m-154 76c26 0 51 0 77 0 0 26 0 51 0 77-17 0-33 0-50 0-9 0-18 0-27 0 0-26 0-51 0-77z"/>
    </symbol>
  
    <symbol id="newmorse-4-set" viewBox="0 0 512 512">
      <path d="m64 229c26 0 51 0 77 0 0 25 0 51 0 77-26 0-51 0-77 0 0-26 0-52 0-77z m154 0c25 0 51 0 76 0 0 25 0 51 0 77-25 0-51 0-76 0 0-26-1-52 0-77z m153 0c26 0 51 0 77 0 0 51 0 102 0 153-26 0-51 0-77 0 0-51 0-102 0-153z m-307 153c26 0 51 0 77 0 0 26 0 51 0 77-26 0-51 0-77 0 0-26 0-51 0-77z m154 0c25 0 51 0 76 0 0 26 0 51 0 77-25 0-51 0-76 0-1-26-1-51 0-77z"/>
    </symbol>
  
    <symbol id="newmorse-5-is" viewBox="0 0 512 512">
      <path d="m64 152c26 0 51 0 77 0 0 26 0 51 0 77-26 0-51 0-77 0 0-26 0-51 0-77z m154 0c25 0 51 0 76 0 0 26 0 51 0 77-25 0-51 0-76 0-1-26-1-51 0-77z m153 0c26 0 51 0 77 0 0 26 0 51 0 77-26 0-51 0-77 0 0-26 0-51 0-77z m-307 154c26 0 51 0 77 0 0 25 0 51 0 76-26 0-51 0-77 0 0-25 0-51 0-76z m154 0c25 0 51 0 76 0 0 25 0 51 0 76-25 0-51 0-76 0-1-25 0-51 0-76z"/>
    </symbol>
  
    <symbol id="newmorse-6-nie" viewBox="0 0 512 512">
      <path d="m218 230c25 0 51 0 76 0 0 26 0 51 0 77-25 0-51 0-76 0-1-26-1-51 0-77z m153 0c26 0 51 0 77 0 0 26 0 51 0 77-26 0-51 0-77 0 0-26 0-51 0-77z m-307 77c26 0 51 0 77 0 0 51 0 102 0 154-26 0-51 0-77 0 0-52 0-103 0-154z m154 77c25 0 51 0 76 0 0 9 0 18 0 27 0 17 0 33 0 50-25 0-51 0-76 0-1-16 0-32 0-49 0-9-1-19 0-28z m153 0c22 0 43 0 65 0 4 0 8 0 12 0 0 25 0 51 0 77-26 0-51 0-77 0 0-26 0-52 0-77z"/>
    </symbol>
  
    <symbol id="newmorse-7-mit" viewBox="0 0 512 512">
      <path d="m218 154c25 0 51 0 76 0 0 51 0 102 0 153-25 0-51 0-76 0-1-51-1-102 0-153z m153 0c26 0 51 0 77 0 0 25 0 51 0 76-26 0-51 0-77 0 0-25 0-51 0-76z m-307 153c26 0 51 0 77 0 0 51 0 102 0 154-26 0-51 0-77 0 0-52 0-103 0-154z m307 0c26 0 51 0 77 0 0 26 0 51 0 77-26 0-51 0-77 0 0-26 0-51 0-77z m-153 77c25 0 51 0 76 0 0 25 0 51 0 77-25 0-51 0-76 0-1-26-1-52 0-77z"/>
    </symbol>
  
    <symbol id="newmorse-8-tz" viewBox="0 0 512 512">
      <path d="m218 77c25 0 51 0 76 0 0 51 0 102 0 153-25 0-51 0-76 0-1-51-1-102 0-153z m153 0c26 0 51 0 77 0 0 25 0 51 0 76-26 1-51 1-77 1 0-26 0-52 0-77z m0 153c26 0 51 0 77 0 0 26 0 51 0 77-26 0-51 0-77 0 0-26 0-51 0-77z m-307 77c26 0 51 0 77 0 0 51 0 102 0 154-26 0-51 0-77 0 0-52 0-103 0-154z m154 0c25 0 51 0 76 0 0 51 0 102 0 154-25 0-51 0-76 0-1-52-1-103 0-154z"/>
    </symbol>
  
    <symbol id="newmorse-9-on" viewBox="0 0 512 512">
      <path d="m64 77c26 0 51 0 77 0 0 51 0 102 0 153-26 0-51 0-77 0 0-51 0-102 0-153z m154 0c25 0 51 0 76 0 0 51 0 102 0 153-25 0-51 0-76 0-1-51-1-102 0-153z m153 0c26 0 51 0 77 0 0 25 0 51 0 76-26 1-51 1-77 1 0-26 0-52 0-77z m-307 230c26 0 51 0 77 0 0 51 0 102 0 154-26 0-51 0-77 0 0-52 0-103 0-154z m154 0c25 0 51 0 76 0 0 51 0 102 0 154-25 0-51 0-76 0-1-52-1-103 0-154z"/>
    </symbol>
  
    <symbol id="newmorse-0-tot" viewBox="0 0 512 512">
      <path d="m218 77c25 0 51 0 76 0 0 51 0 102 0 153-25 0-51 0-76 0-1-51-1-102 0-153z m153 0c26 0 51 0 77 0 0 51 0 102 0 153-26 0-51 0-77 0 0-51 0-102 0-153z m-307 230c26 0 51 0 77 0 0 51 0 102 0 154-26 0-51 0-77 0 0-52 0-103 0-154z m154 0c25 0 51 0 76 0 0 51 0 102 0 154-25 0-51 0-76 0-1-52-1-103 0-154z m153 0c26 0 51 0 77 0 0 51 0 102 0 154-26 0-51 0-77 0 0-52 0-103 0-154z"/>
    </symbol>
  
    <symbol id="newmorse-exclamation-mark-interrupt-bt-inverted" viewBox="0 0 512 512">
      <path d="m0 0l512 0 0 512-512 0 0-512m219 76c0 25 0 50 0 75 25 0 49 0 74 0 0-25 0-50 0-75-25 0-49 0-74 0m153 1c0 50 0 100 0 150 25 1 50 0 75 0 0-50 0-100-1-150-24 0-49-1-74 0m-153 153c0 25 0 50 0 74 25 0 49 0 74 0 0-24 0-49 0-74-25 0-49 0-74 0m-154 77c0 18 0 36 0 54 0 32 0 65 0 97 25 0 50 0 74 0 0-51 0-101 0-151-24 0-49 0-74 0m154 77c0 24 0 49 0 74 25 0 49 0 74 0 0-25 0-50 0-74-25 0-49 0-74 0z"/>
    </symbol>
  
    <symbol id="newmorse-interrupt-bt" viewBox="0 0 512 512">
      <path d="m218 75c25 0 51 0 76 0 0 17 0 34 0 52 0 8 0 17 0 25-25 0-51 0-76 0-1-11 0-23 0-34 0-14-1-29 0-43z m153 0c26 0 51 0 77 0 0 51 0 103 0 154-26 0-51 0-77 0 0-51 0-103 0-154z m-153 154c25 0 51 0 76 0 0 25 0 51 0 77-25 0-51 0-76 0 0-26-1-52 0-77z m-154 77c26-1 51 0 77 0 0 51 0 102 0 153-26 0-51 0-77 0 0-51 0-102 0-153z m154 76c25 0 51 0 76 0 0 26 0 51 0 77-25 0-51 0-76 0-1-26-1-51 0-77z"/>
    </symbol>
  
    <symbol id="newmorse-minus-negation-tht" viewBox="0 0 512 512">
      <path d="m64 75c47 0 94 0 141 0 4 0 8 0 13 0-1 26 0 51-1 77-51 0-102 0-153 0 0-26 0-51 0-77z m230 0c26 0 51 0 77 0 0 26 0 51 0 77-26 0-51 0-77 0 0-26 0-51 0-77z m-153 154c25 0 51 0 76 0 1 25 0 51 1 76-26 1-52 1-77 1 0-26 0-52 0-77z m153 0c26 0 51 0 77 0 0 25 0 51 0 77-26 0-51 0-77-1 0-25 0-51 0-76z m-153 153c16 0 32 0 48 0 10 0 19 0 29 0 0 26-1 51 0 77-10 0-19 0-28 0-16 0-33 0-49 0 0-26 0-51 0-77z m153 0c9 0 18 0 27 0 30 0 60 0 89 0 13 0 25 0 38 0 0 26 0 51 0 77-15 0-30 0-45 0-33 0-66 0-99 0-3 0-6 0-10 0 0-26 0-51 0-77z"/>
    </symbol>
  
    <symbol id="newmorse-paragraph" viewBox="0 0 512 512">
      <path d="m64 154c26 0 51 0 77 0 0 25 0 51 0 76-26 0-51 0-77 0 0-25 0-51 0-76z m154 0c25 0 51 0 76 0 0 25 0 51 0 76-25 0-51 0-76 0 0-25-1-51 0-76z m153 0c26 0 51 0 77 0 0 25 0 51 0 76-26 0-51 0-77 0 0-25 0-51 0-76z m-307 153c26 0 51 0 77 0 0 51 0 102 0 154-26 0-51 0-77 0 0-52 0-103 0-154z m154 0c25 0 51 0 76 0 0 51 0 102 0 154-25 0-51 0-76 0-1-52-1-103 0-154z m153 0c26 0 51 0 77 0 0 26 0 51 0 77-26 0-51 0-77 0 0-26 0-51 0-77z"/>
    </symbol>
  
    <symbol id="newmorse-pilcrow-sign-pause-inverted" viewBox="0 0 512 512">
      <path d="m0 0l512 0 0 512-512 0 0-512m142 153c0 25 0 50 0 74 25 1 49 0 74 0 0-24 0-49 0-74-25 0-49 0-74 0m77 77c0 25 0 50 0 74 25 0 49 0 74 0 0-24 0-49 0-74-25 0-49 0-74 0m77 77c0 25 0 49 0 74 24 0 49 0 74 0 0-25 0-49 0-74-25 0-50 0-74 0z"/>
    </symbol>
  
    <symbol id="newmorse-hash-number-sign-bk" viewBox="0 0 512 512">
      <path d="m64 28c26 0 51 0 77 0 0 51 0 103 0 154-26 0-51 0-77 0 0-51 0-103 0-154z m154 0c25 0 51 0 76 0 0 26 0 51 0 77-25 0-51 0-76 0-1-26-1-51 0-77z m153 0c26 0 51 0 77 0 0 51 0 103 0 154-26 0-51 0-77 0 0-51 0-103 0-154z m-153 154c25 0 51 0 76 0 0 51 0 102 0 153-25 0-51 0-76 0-1-51-1-102 0-153z m-154 76c26 0 51 0 77 0 0 26 0 52 0 77-26 0-51 0-77 0 0-25 0-51 0-77z m0 154c26 0 51 0 77 0 0 26 0 51 0 77-26 0-51 0-77 0 0-26 0-51 0-77z m154 0c25 0 51 0 76 0 0 26 0 51 0 77-25 0-51 0-76 0-1-26-1-51 0-77z"/>
    </symbol>
  
    <symbol id="newmorse-percent-roger" viewBox="0 0 512 512">
      <path d="m141 75c25 0 51 0 77 0 0 26 0 51-1 77-25 0-51 0-76 0 0-26 0-51 0-77z m153 0c26 0 51 0 77 0 0 51 0 103 0 154-26 0-51 0-77 0 0-51 0-103 0-154z m-153 154c25 0 51 0 76 0 1 25 1 51 1 77-26 0-52 0-77 0 0-26 0-52 0-77z m153 77c26-1 51 0 77 0 0 25 0 51 0 76-26 0-51 0-77 0 0-25 0-51 0-76z m-153 76c25 0 51 0 76 0 1 26 1 51 1 77-26 0-52 0-77 0 0-26 0-51 0-77z"/>
    </symbol>
  
    <symbol id="newmorse-square-bracket-open" viewBox="0 0 512 512">
      <path d="m255 154c26 0 52 0 77 0 0 25 0 51 0 76-25 0-51 0-77 0 0-25 0-51 0-76z m154 0c25 0 51 0 77 0 0 20 0 40 0 60 0 31 0 62 0 93-26 0-52 0-77 0 0-51 0-102 0-153z m-154 153c26 0 52 0 77 0 0 51 0 102 0 154-25 0-51 0-77 0 0-52 0-103 0-154z m154 77c25 0 51 0 77 0 0 14 0 27 0 41 0 12 0 24 0 36-16 0-32 0-48 0-10 0-19 0-29-1 0-25 0-51 0-76z m-383 0c51 0 102 0 153 0 0 10 0 19 0 28 0 16 0 33 0 49-51 0-102 0-153 0 0-16 0-32 0-48 0-10-1-19 0-29z"/>
    </symbol>
  
    <symbol id="newmorse-square-bracket-close" viewBox="0 0 512 512">
      <path d="m255 77c26 0 52 0 77 0 0 51 0 102 0 153-25 0-51 0-77 0 0-51 0-102 0-153z m154 0c9 0 18 0 27 0 17 0 33 0 50 0 0 25 0 51 0 76-23 1-46 1-69 1-2-1-5 0-8-1 0-25 0-51 0-76z m-384 153c51 0 102 0 154 0 0 26 0 51 0 77-52 0-103 0-154 0 0-26 0-51 0-77z m384 0c25 0 51 0 77 0 0 42 0 83 0 125 0 9 0 19 0 29-26 0-52 0-77 0 0-51 0-102 0-154z m-154 77c26 0 52 0 77 0 0 51 0 102 0 154-25 0-51 0-77 0 0-52 0-103 0-154z m-153 77c25 0 51 0 76 0 1 9 1 17 1 26 0 17 0 34 0 51-26 0-52 0-77 0 0-17 0-33 0-49 0-9 0-19 0-28z"/>
    </symbol>
  
    <symbol id="newmorse-slash-normal-xe" viewBox="0 0 512 512">
      <path d="m64 154c26 0 51 0 77 0 0 51 0 102 0 153-26 0-51 0-77 0 0-51 0-102 0-153z m154 0c25 0 51 0 76 0 0 10 0 20 0 30 0 15 0 31 0 46-25 0-51 0-76 0-1-17 0-34 0-50 0-9-1-18 0-26z m153 0c26 0 51 0 77 0 0 25 0 51 0 76-26 0-51 0-77 0 0-25 0-51 0-76z m-153 153c25 0 51 0 76 0 0 51 0 102 0 154-25 0-51 0-76 0-1-52-1-103 0-154z m-154 77c26 0 51 0 77 0 0 25 0 51 0 77-26 0-51 0-77 0 0-26 0-52 0-77z"/>
    </symbol>
  
    <symbol id="newmorse-slash-reverse-xe" viewBox="0 0 512 512">
      <path d="m0 0l512 0 0 512-512 0 0-512m65 155c0 50 0 100 0 151 23 0 47 0 70 0 1 0 3 0 5 0-1-51-1-101-1-151-3 0-7 0-10 0-21 0-43 0-64 0m154 0c0 25 0 49 0 74 25 0 49 0 74 0 0-25 0-49 0-74-25 0-49 0-74 0m153 0c0 25 0 49 0 74 25 0 50 0 74 0 1-8 0-16 1-24 0-17 0-34-1-50-15 0-31 0-47 0-9 0-18 0-27 0m-153 153c0 51 0 101 0 151 25 0 49 0 74 0 0-50 0-100 0-151-25 0-49 0-74 0m-154 77c0 25 0 50 0 74 25 0 50 0 74 0 0-24 0-49 0-74-8 0-16 0-24 0-17 0-33 0-50 0z"/>
    </symbol>
  
    <symbol id="newmorse-vertical-line-from-i-upper-case" viewBox="0 0 512 512">
      <path d="m0 0l512 0 0 512-512 0 0-512m142 230c0 25 0 50 0 74 25 0 49 0 74 0 0-24 0-49 0-74-25 0-49 0-74 0m154 0c0 25 0 50 0 74 24 0 49 0 74 0 0-24 0-49 0-74-25 0-50 0-74 0z"/>
    </symbol>
  
    <symbol id="newmorse-bracket-open" viewBox="0 0 512 512">
      <path d="m218 154c25 0 51 0 76 0 0 10 0 20 0 30 0 16 0 31 0 46-25 0-51 0-76 0-1-17 0-34 0-52 0-8-1-16 0-24z m153 0c26 0 51 0 77 0 0 51 0 102 0 153-26 0-51 0-77 0 0-51 0-102 0-153z m-307 153c26 0 51 0 77 0 0 51 0 102 0 154-26 0-51 0-77 0 0-52 0-103 0-154z m154 0c25 0 51 0 76 0 0 51 0 102 0 154-25 0-51 0-76 0-1-52-1-103 0-154z m153 77c21 0 43 0 64 0 5 0 9 0 13 0 0 25 0 51 0 77-26 0-51 0-77 0 0-26 0-52 0-77z"/>
    </symbol>
  
    <symbol id="newmorse-curly-bracket-open" viewBox="0 0 512 512">
      <path d="m0 0l512 0 0 512-512 0 0-512m219 155c0 25 0 49 0 74 25 0 49 0 74 0 0-25 0-49 0-74-25 0-49 0-74 0m153 0c0 50 0 100 0 151 2 0 3 0 5 0 23 0 46 0 69 0 1-51 1-101 0-151-24 0-49 0-74 0m-307 153c0 51 0 101 0 151 25 0 50 0 74 0 0-50 0-100 0-151-24 0-49 0-74 0m154 0c0 51 0 101 0 151 25 0 49 0 74 0 0-50 0-100 0-151-25 0-49 0-74 0m153 77c0 25 0 50 0 74 25 0 50 0 74 0 1-24 1-49 0-74-24 0-49 0-74 0z"/>
    </symbol>
  
    <symbol id="newmorse-curly-bracket-close" viewBox="0 0 512 512">
      <path d="m0 0l512 0 0 512-512 0 0-512m219 78c0 50 0 101 0 151 25 0 49 0 74 0 0-50 0-101 0-151-25 0-49 0-74 0m153 0c0 25 0 49 0 74 25 0 50 0 75 0 0-24 0-49-1-74-24 0-49 0-74 0m-307 77c0 50 0 100 0 151 17 0 34 0 50 0 8 0 16 0 24 0 0-51 0-101 0-151-24 0-49 0-74 0m307 77c0 50 0 100 0 150 4 1 8 1 12 1 21 0 42 0 62 0 1-41 1-82 1-123-1-10 0-19-1-28-24 0-49 0-74 0m-153 76c0 51 0 101 0 151 25 0 49 0 74 0 0-50 0-100 0-151-25 0-49 0-74 0m-154 77c0 25 0 50 0 74 25 0 50 0 74 0 0-24 0-49 0-74-24 0-49 0-74 0z"/>
    </symbol>
  
    <symbol id="newmorse-bracket-close" viewBox="0 0 512 512">
      <path d="m218 77c25 0 51 0 76 0 0 51 0 102 0 153-25 0-51 0-76 0-1-51-1-102 0-153z m153 0c26 0 51 0 77 0 0 25 0 51 0 76-26 1-51 1-77 1 0-26 0-52 0-77z m-307 77c26 0 51 0 77 0 0 51 0 102 0 153-26 0-51 0-77 0 0-51 0-102 0-153z m307 76c26 0 51 0 77 0 0 51 0 103 0 154-26 0-51 0-77 0 0-51 0-103 0-154z m-153 77c25 0 51 0 76 0 0 51 0 102 0 154-25 0-51 0-76 0-1-52-1-103 0-154z m-154 77c26 0 51 0 77 0 0 25 0 51 0 77-26 0-51 0-77 0 0-26 0-52 0-77z"/>
    </symbol>
  
    <symbol id="newmorse-errancy-hh" viewBox="0 0 512 512">
      <path d="m64 75c26 0 51 0 77 0 0 26 0 51 0 77-26 0-51 0-77 0 0-26 0-51 0-77z m154 0c25 0 51 0 76 0 0 26 0 51 0 77-25 0-51 0-76 0-1-26 0-51 0-77z m153 0c26 0 51 0 77 0 0 26 0 51 0 77-26 0-51 0-77 0 0-26 0-51 0-77z m-307 154c26 0 51 0 77 0 0 25 0 51 0 77-26 0-51 0-77 0 0-26 0-52 0-77z m154 0c25 0 51 0 76 0 0 25 0 51 0 77-25 0-51 0-76 0 0-26-1-52 0-77z m153 0c26 0 51 0 77 0 0 25 0 51 0 77-26 0-51 0-77 0 0-26 0-52 0-77z m-307 153c26 0 51 0 77 0 0 26 0 51 0 77-26 0-51 0-77 0 0-26 0-51 0-77z m154 0c25 0 51 0 76 0 0 26 0 51 0 77-25 0-51 0-76 0-1-26-1-51 0-77z"/>
    </symbol>
  
    <symbol id="newmorse-errancy-inverted-hh" viewBox="0 0 512 512">
      <path d="m0 0l512 0 0 512-512 0 0-512m65 76c0 2 0 4 0 5 0 23 0 47 0 70 11 0 22 0 32 0 14 0 28 0 42 0 0-25 0-50 0-74-24-1-49 0-74-1m154 0c0 25 0 50 0 75 25 0 49 0 74 0 0-25 0-50 0-75-25 0-49 0-74 0m153 1c0 24 0 49 0 74 8 0 16 0 24 0 17 0 34 0 50 0 1-25 1-50 0-75-24 1-49 0-74 1m-307 153c0 16 0 31 0 47 0 9 0 18 0 27 25 0 50 0 74 0 0-24 0-49 0-74-4 0-8 0-12 0-20 0-41 0-62 0m154 0c0 25 0 50 0 74 25 0 49 0 74 0 0-24 0-49 0-74-25 0-49 0-74 0m153 0c0 25 0 50 0 74 25 0 50 0 74 0 1-9 0-18 1-27 0-16 0-31-1-47-22 0-44 0-66 0-2 0-5 0-8 0m-307 154c0 24 0 49 0 74 25 0 50 0 74 0 0-25 0-50 0-74-24-1-49 0-74 0m154 0c0 24 0 49 0 74 25 0 49 0 74 0 0-25 0-50 0-74-25 0-49 0-74 0z"/>
    </symbol>
  
    <symbol id="newmorse-equal-sign-interrupt" viewBox="0 0 512 512">
      <path d="m256 75c25 0 51 0 77 0 0 26 0 51 0 77-26 0-51 0-77 0 0-26 0-51 0-77z m153 0c14 0 27 0 41 0 12 0 24 0 36 0 0 51 0 103 0 154-13 0-27 0-40 0-12 0-24 0-37 0 0-51 0-103 0-154z m-153 154c26 0 51 0 77 0 0 25 0 51 0 76-26 1-52 1-77 1 0-26 0-52 0-77z m-230 153c51 0 102 0 153 0 0 26 0 51 0 77-51 0-102 0-153 0 0-26 0-51 0-77z m230 0c25 0 51 0 77 0 0 26 0 51 0 77-26 0-52 0-77 0 0-26 0-51 0-77z"/>
    </symbol>
  
    <symbol id="newmorse-unequal-sign-interrupt" viewBox="0 0 512 512">
      <path d="m0 0l512 0 0 512-512 0 0-512m257 77c0 24 0 49 0 74 25 0 50 0 74 0 0-25 0-50 0-74-24-1-49-1-74 0m154 0c0 50 0 100 0 150 24 1 49 0 74 0 0-50 0-100 0-150-25-1-50-1-74 0m-154 153c0 25 0 50 0 74 25 0 50 0 74 0 0-24 0-49 0-74-24 0-49 0-74 0m-230 154c0 24 0 49 0 74 17 0 35 0 53 0 32 0 65 0 98 0 0-25 0-50 0-74-50 0-101 0-151 0m230 0c0 24 0 49 0 74 25 0 50 0 74 0 0-25 0-50 0-74-24 0-49 0-74 0z"/>
    </symbol>
  
    <symbol id="newmorse-sz-sharp-s" viewBox="0 0 512 512">
      <path d="m64 77c26 0 51 0 77 0 0 25 0 51 0 76-22 1-43 1-65 1-4 0-8 0-12-1 0-25 0-51 0-76z m154 0c25 0 51 0 76 0 0 51 0 102 0 153-25 0-51 0-76 0-1-51-1-102 0-153z m153 0c26 0 51 0 77 0 0 25 0 51 0 76-26 1-51 1-77 0 0-25 0-51 0-76z m-307 153c26 0 51 0 77 0 0 26 0 51 0 77-26 0-51 0-77 0 0-26 0-51 0-77z m307 0c26 0 51 0 77 0 0 26 0 51 0 77-26 0-51 0-77 0 0-26 0-51 0-77z m-153 77c25 0 51 0 76 0 0 51 0 102 0 154-25 0-51 0-76 0-1-52-1-103 0-154z m-154 77c26 0 51 0 77 0 0 25 0 51 0 77-26 0-51 0-77 0 0-26 0-52 0-77z"/>
    </symbol>
  
    <symbol id="newmorse-question-mark-normal" viewBox="0 0 512 512">
      <path d="m218 77c25 0 51 0 76 0 0 51 0 102 0 153-25 0-51 0-76 0-1-51-1-102 0-153z m153 0c26 0 51 0 77 0 0 25 0 51 0 77-26 0-51 0-77 0 0-26 0-52 0-77z m-307 153c26 0 51 0 77 0 0 26 0 51 0 77-26 0-51 0-77 0 0-26 0-51 0-77z m307 0c26 0 51 0 77 0 0 26 0 51 0 77-26 0-51 0-77 0 0-26 0-51 0-77z m-153 77c25 0 51 0 76 0 0 51 0 102 0 154-25 0-51 0-76 0-1-52-1-103 0-154z m-154 77c26 0 51 0 77 0 0 25 0 51 0 77-26 0-51 0-77 0 0-26 0-52 0-77z"/>
    </symbol>
  
    <symbol id="newmorse-question-mark-reverse-imi" viewBox="0 0 512 512">
      <path d="m0 0l512 0 0 512-512 0 0-512m219 78c0 50 0 101 0 151 25 0 49 0 74 0 0-50 0-101 0-151-25 0-49 0-74 0m153 0c0 25 0 49 0 74 25 0 50 0 75 0 0-24 0-49 0-74-25 0-50 0-75 0m-307 154c0 24 0 49 0 74 25 0 50 0 74 0 0-25 0-50 0-74-24 0-49 0-74 0m307 0c0 24 0 49 0 74 25 0 50 0 75 0 0-25 0-50-1-74-24 0-49 0-74 0m-153 76c0 51 0 101 0 151 25 0 49 0 74 0 0-50 0-100 0-151-25 0-49 0-74 0m-154 77c0 25 0 50 0 74 25 0 50 0 74 0 0-24 0-49 0-74-24 0-49 0-74 0z"/>
    </symbol>
  
    <symbol id="newmorse-apostrophe" viewBox="0 0 512 512">
      <path d="m218 77c25 0 51 0 76 0 0 51 0 102 0 153-25 0-51 0-76 0-1-51-1-102 0-153z m153 0c26 0 51 0 77 0 0 51 0 102 0 153-26 0-51 0-77 0 0-51 0-102 0-153z m-307 77c26 0 51 0 77 0 0 25 0 51 0 76-26 0-51 0-77 0 0-25 0-51 0-76z m0 153c26 0 51 0 77 0 0 51 0 102 0 154-26 0-51 0-77 0 0-52 0-103 0-154z m154 0c25 0 51 0 76 0 0 51 0 102 0 154-25 0-51 0-76 0-1-52-1-103 0-154z m153 0c26 0 51 0 77 0 0 26 0 51 0 77-26 0-51 0-77 0 0-26 0-51 0-77z"/>
    </symbol>
  
    <symbol id="newmorse-apostrophe-inverted" viewBox="0 0 512 512">
      <path d="m0 0l512 0 0 512-512 0 0-512m219 78c0 50 0 101 0 151 25 0 49 0 74 0 0-50 0-101 0-151-25 0-49 0-74 0m153 0c0 50 0 101 0 151 25 0 50 0 74 0 1-19 0-38 1-58 0-31 0-62 0-93-25 0-50 0-75 0m-307 77c0 25 0 49 0 74 25 0 50 0 74 0 0-25 0-49 0-74-24 0-49 0-74 0m0 153c0 51 0 101 0 151 25 0 50 0 74 0 0-50 0-100 0-151-24 0-49 0-74 0m154 0c0 51 0 101 0 151 25 0 49 0 74 0 0-50 0-100 0-151-25 0-49 0-74 0m153 0c0 25 0 50 0 74 4 1 7 1 11 1 21 0 42 0 64 0 0-25 0-50-1-75-24 0-49 0-74 0z"/>
    </symbol>
  
    <symbol id="newmorse-a-lower-case" viewBox="0 0 512 512">
      <path d="m218 154c25 0 51 0 76 0 0 25 0 51 0 76-25 0-51 0-76 0-1-16 0-32 0-49 0-9-1-18 0-27z m0 153c25 0 51 0 76 0 0 51 0 102 0 154-25 0-51 0-76 0-1-52-1-103 0-154z"/>
    </symbol>
  
    <symbol id="newmorse-a-upper-case" viewBox="0 0 512 512">
      <path d="m0 0l512 0 0 512-512 0 0-512m219 155c0 25 0 49 0 74 25 0 49 0 74 0 0-25 0-49 0-74-25 0-49 0-74 0m0 153c0 51 0 101 0 151 25 0 49 0 74 0 0-50 0-100 0-151-25 0-49 0-74 0z"/>
    </symbol>
  
    <symbol id="newmorse-ae-lower-case" viewBox="0 0 512 512">
      <path d="m141 152c22 0 44 0 66 0 4 0 7 0 11 0-1 26 0 51 0 77-26 0-52 0-77 0 0-26 0-51 0-77z m153 0c13 0 26 0 38 0 13 0 26 0 39 0 0 26 0 51 0 77-26 0-51 0-77 0 0-26 0-51 0-77z m-153 154c25 0 51-1 77 0-1 51 0 102 0 153-26 0-52 0-77 0 0-51 0-102 0-153z m153 0c26-1 51 0 77 0 0 51 0 102 0 153-22 0-44 0-66 0-4 0-7 0-11 0 0-51 0-102 0-153z"/>
    </symbol>
  
    <symbol id="newmorse-ae-upper-case" viewBox="0 0 512 512">
      <path d="m0 0l512 0 0 512-512 0 0-512m142 153c0 25 0 50 0 74 25 1 49 0 74 0 0-24 0-49 0-74-25 0-49 0-74 0m154 0c0 25 0 50 0 74 24 0 49 1 74 0 0-24 0-49 0-74-25 0-50 0-74 0m-154 154c0 50 0 100 0 151 25 0 49 0 74 0 0-23 0-45 0-67 0-28 0-56 0-84-25 0-49 0-74 0m154 0c-1 5 0 11 0 17 0 44 0 89 0 134 24 0 49 0 74 0 0-51 0-101 0-151-25 0-50 0-74 0z"/>
    </symbol>
  
    <symbol id="newmorse-alt-6-dah-traffic-sign-alpha" viewBox="0 0 512 512">
      <path d="m64 77c26 0 51 0 77 0 0 51 0 102 0 153-26 0-51 0-77 0 0-51 0-102 0-153z m154 0c25 0 51 0 76 0 0 51 0 102 0 153-25 0-51 0-76 0-1-51-1-102 0-153z m153 0c26 0 51 0 77 0 0 51 0 102 0 153-26 0-51 0-77 0 0-51 0-102 0-153z m-307 230c26 0 51 0 77 0 0 51 0 102 0 154-26 0-51 0-77 0 0-52 0-103 0-154z m154 0c25 0 51 0 76 0 0 51 0 102 0 154-25 0-51 0-76 0-1-52-1-103 0-154z m153 0c26 0 51 0 77 0 0 51 0 102 0 154-26 0-51 0-77 0 0-52 0-103 0-154z"/>
    </symbol>
  
    <symbol id="newmorse-alt-shift-9-dit-traffic-sign-omega" viewBox="0 0 512 512">
      <path d="m64 75c26 0 51 0 77 0 0 26 0 51 0 77-26 0-51 0-77 0 0-26 0-51 0-77z m154 0c25 0 51 0 76 0 0 17 0 34 0 50 0 9 0 18 0 27-25 0-51 0-76 0-1-11 0-22 0-33 0-15-1-29 0-44z m153 0c26 0 51 0 77 0 0 26 0 51 0 77-26 0-51 0-77 0 0-26 0-51 0-77z m-307 154c26 0 51 0 77 0 0 25 0 51 0 77-26 0-51 0-77 0 0-26 0-52 0-77z m154 0c25 0 51 0 76 0 0 25 0 51 0 77-25 0-51 0-76 0 0-26-1-52 0-77z m153 0c26 0 51 0 77 0 0 25 0 51 0 77-26 0-51 0-77 0 0-26 0-52 0-77z m-307 153c26 0 51 0 77 0 0 26 0 51 0 77-26 0-51 0-77 0 0-26 0-51 0-77z m154 0c25 0 51 0 76 0 0 26 0 51 0 77-25 0-51 0-76 0-1-26-1-51 0-77z m153 0c26 0 51 0 77 0 0 26 0 51 0 77-26 0-51 0-77 0 0-26 0-51 0-77z"/>
    </symbol>
  
    <symbol id="newmorse-asterisk-from-x-lower-case" viewBox="0 0 512 512">
      <path d="m294 154c26 0 51 0 77 0 0 25 0 51 0 76-26 0-51 0-77 0 0-25 0-51 0-76z m-230 76c51 0 102 0 154 0 0 26 0 51-1 77-51 0-102 0-153 0 0-26 0-51 0-77z m230 77c29 0 58 0 87 0 23 0 45 0 67 0 0 26 0 51 0 77-51 0-103 0-154 0 0-26 0-51 0-77z m-153 77c25 0 51 0 77 0-1 25 0 51-1 77-25 0-51 0-76 0 0-26 0-52 0-77z"/>
    </symbol>
  
    <symbol id="newmorse-b-lower-case" viewBox="0 0 512 512">
      <path d="m141 75c22 0 44 0 66 0 3 0 7 0 11 0 0 51 0 103-1 154-25 0-51 0-76 0 0-47 0-94 0-141 0-4 0-9 0-13z m153 0c26 0 51 0 77 0 0 26 0 51 0 77-26 0-51 0-77 0 0-26 0-51 0-77z m0 154c26 0 51 0 77 0 0 25 0 51 0 77-26 0-51 0-77-1 0-25 0-51 0-76z m-153 77c25 0 51-1 77 0-1 25 0 51-1 76-25 0-51 0-76 0 0-25 0-51 0-76z"/>
    </symbol>
  
    <symbol id="newmorse-b-upper-case" viewBox="0 0 512 512">
      <path d="m0 0l512 0 0 512-512 0 0-512m142 77c0 50 0 100 0 150 25 1 49 0 74 0 0-50 0-100 0-150-25-1-49-1-74 0m154 0c0 24 0 49 0 74 24 0 49 0 74 0 0-25 0-50 0-74-25-1-50-1-74 0m0 153c0 25 0 50 0 74 24 0 49 0 74 0 0-24 0-49 0-74-25 0-50 0-74 0m-154 77c0 25 0 49 0 74 25 0 49 0 74 0 0-25 0-49 0-74-25 0-49 0-74 0z"/>
    </symbol>
  
    <symbol id="newmorse-n-lower-case" viewBox="0 0 512 512">
      <path d="m218 154c25 0 51 0 76 0 0 51 0 102 0 153-25 0-51 0-76 0-1-51-1-102 0-153z m0 230c25 0 51 0 76 0 0 25 0 51 0 77-25 0-51 0-76 0 0-26-1-52 0-77z"/>
    </symbol>
  
    <symbol id="newmorse-n-upper-case" viewBox="0 0 512 512">
      <path d="m0 0l512 0 0 512-512 0 0-512m219 155c0 50 0 100 0 151 25 0 49 0 74 0 0-51 0-101 0-151-25 0-49 0-74 0m0 230c0 25 0 50 0 74 25 0 49 0 74 0 0-24 0-49 0-74-25 0-49 0-74 0z"/>
    </symbol>
  
    <symbol id="newmorse-q-lower-case" viewBox="0 0 512 512">
      <path d="m141 77c21 0 43 0 64 0 4 0 8 0 12 0 1 51 1 102 1 153-26 0-52 0-77 0 0-19 0-38 0-57 0-32 0-64 0-96z m153 0c26 0 51 0 77 0 0 25 0 51 0 77-17 0-35 0-52 0-8-1-17 0-25-1 0-25 0-51 0-76z m0 153c26 0 51 0 77 0 0 31 0 62 0 94 0 20 0 40 0 60-26 0-51 0-77 0 0-51 0-103 0-154z m-153 77c25 0 51 0 76 0 1 51 1 102 0 154-25 0-51 0-76 0 0-33 0-65 0-97 0-19 0-38 0-57z"/>
    </symbol>
  
    <symbol id="newmorse-q-upper-case" viewBox="0 0 512 512">
      <path d="m0 0l512 0 0 512-512 0 0-512m142 78c0 50 0 101 0 151 25 0 49 0 74 0 0-12 0-24 0-36 0-39 0-77 0-115-25 0-49 0-74 0m154 0c0 25 0 50 0 74 24 0 49 0 74 0 0-25 0-49 0-74-25 0-50 0-74 0m0 154c-1 3 0 7 0 10 0 47 0 94 0 141 24 0 49 0 74-1 0-50 0-100 0-150-25 0-50 0-74 0m-154 76c0 51 0 101 0 151 25 0 49 0 74 0 0-23 0-45 0-68 0-28 0-55 0-83-25 0-49 0-74 0z"/>
    </symbol>
  
    <symbol id="newmorse-w-lower-case" viewBox="0 0 512 512">
      <path d="m141 154c25 0 51 0 76 0 1 25 0 51 1 76-26 0-52 0-77 0 0-25 0-51 0-76z m153 0c26 0 51 0 77 0 0 27 0 54 0 81 0 24 0 48 0 72-26 0-51 0-77 0 0-51 0-102 0-153z m-153 153c25 0 51 0 76 0 1 51 1 102 0 154-25 0-51 0-76 0 0-31 0-61 0-92 0-20 0-41 0-62z"/>
    </symbol>
  
    <symbol id="newmorse-w-upper-case" viewBox="0 0 512 512">
      <path d="m0 0l512 0 0 512-512 0 0-512m142 155c0 25 0 49 0 74 25 0 49 0 74 0 0-25 0-49 0-74-25 0-49 0-74 0m154 0c0 50 0 100 0 151 12 0 24 0 37 0 12 0 24 0 37 0 0-51 0-101 0-151-25 0-50 0-74 0m-154 153c0 51 0 101 0 151 25 0 49 0 74 0 0-19 0-39 0-59 0-31 0-61 0-92-25 0-49 0-74 0z"/>
    </symbol>
  
    <symbol id="newmorse-e-lower-case" viewBox="0 0 512 512">
      <path d="m218 229c25 0 51 0 76 0 0 25 0 51 0 77-25 0-51 0-76 0 0-26-1-52 0-77z"/>
    </symbol>
  
    <symbol id="newmorse-e-upper-case" viewBox="0 0 512 512">
      <path d="m0 0l512 0 0 512-512 0 0-512m219 230c0 25 0 50 0 74 25 0 49 0 74 0 0-24 0-49 0-74-25 0-49 0-74 0z"/>
    </symbol>
  
    <symbol id="newmorse-promille-roger" viewBox="0 0 512 512">
      <path d="m0 0l512 0 0 512-512 0 0-512m142 77c0 24 0 49 0 74 25 0 49 0 74 0 0-25 0-50 0-74-25 0-49-1-74 0m154 0c0 50 0 100 0 150 24 0 49 1 74 0 0-50 0-100 0-150-25-1-50 0-74 0m-154 153c0 25 0 50 0 74 25 0 49 0 74 0 0-8 0-17 0-25 0-16 0-33 0-49-25 0-49 0-74 0m154 77c-1 8 0 16 0 25 0 16 0 33 0 49 24 0 49 0 74 0 0-25 0-49 0-74-25 0-50 0-74 0m-154 77c0 24 0 49 0 74 25 0 49 0 74 0 0-25 0-50 0-74-25 0-49 0-74 0z"/>
    </symbol>
  
    <symbol id="newmorse-r-lower-case" viewBox="0 0 512 512">
      <path d="m141 154c25 0 51 0 76 0 1 25 1 51 1 76-26 0-52 0-77 0 0-25 0-51 0-76z m153 0c26 0 51 0 77 0 0 25 0 51 0 76-26 0-51 0-77 0 0-25 0-51 0-76z m-153 153c25 0 51 0 76 0 1 51 1 102 0 154-25 0-51 0-76 0 0-52 0-103 0-154z"/>
    </symbol>
  
    <symbol id="newmorse-r-upper-case" viewBox="0 0 512 512">
      <path d="m0 0l512 0 0 512-512 0 0-512m142 155c0 25 0 49 0 74 25 0 49 0 74 0 0-25 0-49 0-74-25 0-49 0-74 0m154 0c0 25-1 49 0 74 24 0 49 0 74 0 0-25 0-49 0-74-25 0-50 0-74 0m-154 153c0 51 0 101 0 151 25 0 49 0 74 0 0-22 0-45 0-68 0-27 0-55 0-83-25 0-49 0-74 0z"/>
    </symbol>
  
    <symbol id="newmorse-t-lower-case" viewBox="0 0 512 512">
      <path d="m218 154c25 0 51 0 76 0 0 8 0 17 0 26 0 32 0 64 0 97 0 10 0 20 0 30-25 0-51 0-76 0-1-46 0-93 0-139 0-5-1-10 0-14z"/>
    </symbol>
  
    <symbol id="newmorse-t-upper-case" viewBox="0 0 512 512">
      <path d="m0 0l512 0 0 512-512 0 0-512m219 155c0 50 0 100 0 151 25 0 49 0 74 0 0-51 0-101 0-151-25 0-49 0-74 0z"/>
    </symbol>
  
    <symbol id="newmorse-request-to-send-k-dagger" viewBox="0 0 512 512">
      <path d="m141 154c25 0 51 0 76 0 1 51 1 102 0 153-25 0-51 0-76 0 0-31 0-62 0-93 0-20 0-40 0-60z m153 0c51 0 103 0 154 0 0 25 0 51 0 76-31 0-62 0-93 0-20 0-41 0-61 0 0-25 0-51 0-76z m-153 230c25 0 51 0 77 0-1 25 0 51-1 77-25 0-51 0-76 0 0-26 0-52 0-77z"/>
    </symbol>
  
    <symbol id="newmorse-z-lower-case" viewBox="0 0 512 512">
      <path d="m141 77c22 0 43 0 65 0 4 0 8 0 12 0 0 51-1 102 0 153-26 0-52 0-77 0 0-51 0-102 0-153z m153 0c13 0 27 0 40 0 12 0 25 0 37 0 0 25 0 51 0 76-16 1-32 1-49 1-9-1-18 0-28-1 0-25 0-51 0-76z m0 153c26 0 51 0 77 0 0 26 0 51 0 77-26 0-51 0-77 0 0-26 0-51 0-77z m-153 77c16 0 33 0 49 0 9 0 18 0 28 0 0 51 0 102 0 154-26 0-52 0-77 0 0-52 0-103 0-154z"/>
    </symbol>
  
    <symbol id="newmorse-z-upper-case" viewBox="0 0 512 512">
      <path d="m0 0l512 0 0 512-512 0 0-512m142 78c0 50 0 101 0 151 25 0 49 0 74 0 0-50 0-101 0-151-25 0-49 0-74 0m154 0c0 25 0 50 0 74 24 0 49 0 74 0 0-25 0-49 0-74-25 0-50 0-74 0m0 154c-1 24 0 49 0 74 24 0 49 0 74 0 0-25 0-50 0-74-25 0-50 0-74 0m-154 76c0 51 0 101 0 151 25 0 49 0 74 0 0-50 0-100 0-151-25 0-49 0-74 0z"/>
    </symbol>
  
    <symbol id="newmorse-u-lower-case" viewBox="0 0 512 512">
      <path d="m141 152c22 0 44 0 66 0 4 0 7 0 11 0-1 26 0 51 0 77-13 0-26 0-38 0-13 0-26 0-39 0 0-26 0-51 0-77z m153 0c10 0 20 0 30 0 15 0 31 0 47 0 0 51 0 102 0 154-26 0-51 0-77-1 0-51 0-102 0-153z m-153 154c25 0 51-1 77 0-1 25 0 51-1 76-25 0-51 0-76 0 0-25 0-51 0-76z"/>
    </symbol>
  
    <symbol id="newmorse-u-upper-case" viewBox="0 0 512 512">
      <path d="m0 0l512 0 0 512-512 0 0-512m142 153c0 25 0 50 0 74 25 1 49 0 74 0 0-24 0-49 0-74-25 0-49 0-74 0m154 0c0 22 0 44 0 66 0 29-1 57 0 85 24 0 49 0 74 0 0-50 0-100 0-151-25 0-50 0-74 0m-154 154c0 25 0 49 0 74 25 0 49 0 74 0 0-25 0-49 0-74-25 0-49 0-74 0z"/>
    </symbol>
  
    <symbol id="newmorse-i-lower-case" viewBox="0 0 512 512">
      <path d="m218 152c25 0 51 0 76 0 0 26 0 51 0 77-25 0-51 0-76 0-1-26-1-51 0-77z m0 154c25 0 51 0 76 0 0 25 0 51 0 76-25 0-51 0-76 0-1-25 0-51 0-76z"/>
    </symbol>
  
    <symbol id="newmorse-i-upper-case" viewBox="0 0 512 512">
      <path d="m0 0l512 0 0 512-512 0 0-512m219 153c0 25 0 50 0 74 25 0 49 0 74 0 0-24 0-49 0-74-25 0-49 0-74 0m0 154c0 25 0 49 0 74 25 0 49 0 74 0 0-25 0-49 0-74-25 0-49 0-74 0z"/>
    </symbol>
  
    <symbol id="newmorse-o-lower-case" viewBox="0 0 512 512">
      <path d="m141 77c25 0 51 0 76 0 1 51 1 102 1 153-26 0-52 0-77 0 0-51 0-102 0-153z m153 0c26 0 51 0 77 0 0 51 0 102 0 153-26 0-51 0-77 0 0-51 0-102 0-153z m-153 230c25 0 51 0 76 0 1 51 1 102 0 154-25 0-51 0-76 0 0-30 0-59 0-88 0-22 0-44 0-66z"/>
    </symbol>
  
    <symbol id="newmorse-o-upper-case" viewBox="0 0 512 512">
      <path d="m0 0l512 0 0 512-512 0 0-512m142 78c0 50 0 101 0 151 25 0 49 0 74 0 0-11 0-23 0-34 0-39 0-78 0-117-25 0-49 0-74 0m154 0c-1 23 0 45 0 68 0 27-1 55 0 83 24 0 49 0 74 0 0-50 0-101 0-151-25 0-50 0-74 0m-154 230c0 51 0 101 0 151 25 0 49 0 74 0 0-22 0-45 0-68 0-27 0-55 0-83-25 0-49 0-74 0z"/>
    </symbol>
  
    <symbol id="newmorse-p-lower-case" viewBox="0 0 512 512">
      <path d="m141 154c25 0 51 0 76 0 1 25 0 51 1 76-26 0-52 0-77 0 0-25 0-51 0-76z m153 0c26 0 51 0 77 0 0 28 0 56 0 85 0 23 0 45 0 68-26 0-51 0-77 0 0-51 0-102 0-153z m-153 153c25 0 51 0 77 0 0 51 0 102 0 154-26 0-52 0-77 0 0-30 0-59 0-89 0-22 0-43 0-65z m153 77c8 0 15 0 22 0 19 0 37 0 55 0 0 25 0 51 0 77-21 0-41 0-62 0-5 0-10 0-15 0 0-26 0-51 0-77z"/>
    </symbol>
  
    <symbol id="newmorse-p-upper-case" viewBox="0 0 512 512">
      <path d="m0 0l512 0 0 512-512 0 0-512m142 155c0 25 0 49 0 74 25 0 49 0 74 0 0-25 0-49 0-74-25 0-49 0-74 0m154 0c0 50 0 100 0 151 24 0 49 0 74 0 0-51 0-101 0-151-25 0-50 0-74 0m-154 153c0 51 0 101 0 151 25 0 49 0 74 0 0-50 0-100 0-151-25 0-49 0-74 0m154 77c0 25 0 50 0 74 24 0 49 0 74 0 0-24 0-49 0-74-25 0-50 0-74 0z"/>
    </symbol>
  
    <symbol id="newmorse-ue-lower-case" viewBox="0 0 512 512">
      <path d="m141 152c25 0 51 0 76 0 1 26 1 51 0 77-25 0-51 0-76 0 0-26 0-51 0-77z m153 0c26 0 51 0 77 0 0 51 0 102 0 154-26 0-51 0-77 0 0-52 0-103 0-154z m-153 154c25 0 51-1 76 0 1 25 1 51 0 76-25 0-51 0-76 0 0-25 0-51 0-76z m153 76c51 0 103 0 154 0 0 26 0 51 0 77-51 0-103 0-154 0 0-26 0-51 0-77z"/>
    </symbol>
  
    <symbol id="newmorse-ue-upper-case" viewBox="0 0 512 512">
      <path d="m0 0l512 0 0 512-512 0 0-512m142 153c0 25 0 50 0 74 25 1 49 0 74 0 0-24 0-49 0-74-25 0-49 0-74 0m154 0c0 21 0 43 0 64 0 29-1 58 0 87 24 0 49 0 74 0 0-50 0-100 0-151-25 0-50 0-74 0m-154 154c0 25 0 49 0 74 25 0 49 0 74 0 0-25 0-49 0-74-25 0-49 0-74 0m154 77c0 24 0 49 0 74 50 0 100 0 151 0 0-25 0-50 0-74-51 0-101 0-151 0z"/>
    </symbol>
  
    <symbol id="newmorse-division-slash-interrupt" viewBox="0 0 512 512">
      <path d="m179 75c26 0 51 0 77 0 0 26 0 51 0 77-26 0-51 0-77 0 0-26 0-51 0-77z m154 0c51 0 102 0 153 0 0 17 0 33 0 49 0 10 0 19 0 28-51 0-102 0-153 0-1-10 0-20 0-30 0-15 0-31 0-47z m-154 154c26 0 51 0 77 0 0 25 0 51 0 77-26 0-51 0-77-1 0-25 0-51 0-76z m-153 77c16 0 32 0 49 0 9 0 18 0 27 0 0 51 0 102 0 153-9 1-19 0-29 1-16 0-32 0-47 0 0-52 0-103 0-154z m153 76c14 0 27 0 40 0 13 0 25 0 37 0 0 26 0 51 0 77-16 0-32 0-48 0-10 0-19 0-29 0 0-26 0-51 0-77z"/>
    </symbol>
  
    <symbol id="newmorse-s-lower-case" viewBox="0 0 512 512">
      <path d="m141 152c24 0 49 0 73 0 1 0 2 0 4 0 0 26 0 51-1 77-25 0-51 0-76 0 0-26 0-51 0-77z m153 0c14 0 28 0 42 0 11 0 23 0 35 0 0 26 0 51 0 77-26 0-51 0-77 0 0-26 0-51 0-77z m-153 154c25 0 51-1 77 0-1 25 0 51-1 76-25 0-51 0-76 0 0-25 0-51 0-76z"/>
    </symbol>
  
    <symbol id="newmorse-s-upper-case" viewBox="0 0 512 512">
      <path d="m0 0l512 0 0 512-512 0 0-512m142 153c0 25 0 50 0 74 25 1 49 0 74 0 0-24 0-49 0-74-25 0-49 0-74 0m154 0c0 25 0 50 0 74 24 0 49 1 74 0 0-24 0-49 0-74-25 0-50 0-74 0m-154 154c0 25 0 49 0 74 25 0 49 0 74 0 0-25 0-49 0-74-25 0-49 0-74 0z"/>
    </symbol>
  
    <symbol id="newmorse-d-lower-case" viewBox="0 0 512 512">
      <path d="m141 152c25 0 51 0 77 0 0 51 0 102 0 154-26 0-52 0-77 0 0-52 0-103 0-154z m153 0c26 0 51 0 77 0 0 26 0 51 0 77-26 0-51 0-77 0 0-26 0-51 0-77z m-153 230c25 0 51 0 76 0 1 26 1 51 1 77-26 0-52 0-77 0 0-26 0-51 0-77z"/>
    </symbol>
  
    <symbol id="newmorse-d-upper-case" viewBox="0 0 512 512">
      <path d="m0 0l512 0 0 512-512 0 0-512m142 153c0 51 0 101 0 151 25 0 49 0 74 0 0-17 0-34 0-51 0-33 0-66 0-100-25 0-49 0-74 0m154 0c0 25 0 50 0 74 24 0 49 1 74 0 0-24 0-49 0-74-25 0-50 0-74 0m-154 231c0 24 0 49 0 74 25 0 49 0 74 0 0-25 0-50 0-74-25 0-49 0-74 0z"/>
    </symbol>
  
    <symbol id="newmorse-f-lower-case" viewBox="0 0 512 512">
      <path d="m294 75c26 0 51 0 77 0 0 31 0 62 0 94 0 20 0 40 0 60-26 0-51 0-77 0 0-51 0-103 0-154z m-153 77c25 0 51 0 76 0 1 26 1 51 0 77-25 0-51 0-76 0 0-26 0-51 0-77z m0 154c25 0 51-1 77 0 0 25 0 51-1 76-25 0-51 0-76 0 0-25 0-51 0-76z m153 0c26-1 51 0 77 0 0 25 0 51 0 76-26 0-51 0-77 0 0-25 0-51 0-76z"/>
    </symbol>
  
    <symbol id="newmorse-f-upper-case" viewBox="0 0 512 512">
      <path d="m0 0l512 0 0 512-512 0 0-512m296 77c0 50 0 100 0 150 24 0 49 1 74 0 0-50 0-100 0-150-25-1-50-1-74 0m-154 76c0 25 0 50 0 74 25 1 49 0 74 0 0-24 0-49 0-74-25 0-49 0-74 0m0 154c0 25 0 49 0 74 25 0 49 0 74 0 0-25 0-49 0-74-25 0-49 0-74 0m154 0c0 25 0 49 0 74 24 0 49 0 74 0 0-25 0-49 0-74-25 0-50 0-74 0z"/>
    </symbol>
  
    <symbol id="newmorse-g-lower-case" viewBox="0 0 512 512">
      <path d="m294 75c26 0 51 0 77 0 0 51 0 103 0 154-26 0-51 0-77 0 0-51 0-103 0-154z m-153 154c25 0 51 0 77 0 0 51 0 102 0 153-26 0-52 0-77 0 0-29 0-58 0-87 0-22 0-44 0-66z m153 77c26-1 51 0 77 0 0 25 0 51 0 76-26 0-51 0-77 0 0-25 0-51 0-76z"/>
    </symbol>
  
    <symbol id="newmorse-g-upper-case" viewBox="0 0 512 512">
      <path d="m0 0l512 0 0 512-512 0 0-512m296 77c0 50 0 100 0 150 24 0 49 1 74 0 0-50 0-100 0-150-25-1-50-1-74 0m-154 153c0 50 0 101 0 151 25 0 49 0 74 0 0-50 0-101 0-151-25 0-49 0-74 0m154 77c-1 25 0 49 0 74 24 0 49 0 74 0 0-25 0-49 0-74-25 0-50 0-74 0z"/>
    </symbol>
  
    <symbol id="newmorse-h-lower-case" viewBox="0 0 512 512">
      <path d="m141 152c25 0 51 0 76 0 1 26 1 51 0 77-25 0-51 0-76 0 0-26 0-51 0-77z m153 0c26 0 51 0 77 0 0 26 0 51 0 77-26 0-51 0-77 0 0-26 0-51 0-77z m-153 154c25 0 51-1 77 0 0 25 0 51-1 76-25 0-51 0-76 0 0-25 0-51 0-76z m153 0c26-1 51 0 77 0 0 25 0 51 0 76-26 0-51 0-77 0 0-25 0-51 0-76z"/>
    </symbol>
  
    <symbol id="newmorse-h-upper-case" viewBox="0 0 512 512">
      <path d="m0 0l512 0 0 512-512 0 0-512m142 153c0 25 0 50 0 74 25 1 49 0 74 0 0-24 0-49 0-74-25 0-49 0-74 0m154 0c0 25 0 50 0 74 24 0 49 1 74 0 0-24 0-49 0-74-25 0-50 0-74 0m-154 154c0 25 0 49 0 74 25 0 49 0 74 0 0-25 0-49 0-74-25 0-49 0-74 0m154 0c-1 8 0 16 0 25 0 16 0 33 0 49 24 0 49 0 74 0 0-25 0-49 0-74-25 0-50 0-74 0z"/>
    </symbol>
  
    <symbol id="newmorse-j-lower-case" viewBox="0 0 512 512">
      <path d="m294 77c26 0 51 0 77 0 0 51 0 102 0 153-26 0-51 0-77 0 0-51 0-102 0-153z m-153 77c25 0 51 0 76 0 1 25 0 51 1 76-26 0-52 0-77 0 0-25 0-51 0-76z m0 153c25 0 51 0 77 0 0 51 0 102 0 154-26 0-52 0-77 0 0-52 0-103 0-154z m153 0c26 0 51 0 77 0 0 51 0 102 0 154-26 0-51 0-77 0 0-52 0-103 0-154z"/>
    </symbol>
  
    <symbol id="newmorse-j-upper-case" viewBox="0 0 512 512">
      <path d="m0 0l512 0 0 512-512 0 0-512m296 78c-1 20 0 41 0 61 0 30-1 60 0 90 24 0 49 0 74 0 0-50 0-101 0-151-25 0-50 0-74 0m-154 77c0 25 0 49 0 74 25 0 49 0 74 0 0-8 0-17 0-25 0-16 0-33 0-49-25 0-49 0-74 0m0 153c0 51 0 101 0 151 25 0 49 0 74 0 0-21 0-42 0-63 0-29 0-58 0-88-25 0-49 0-74 0m154 0c-1 24 0 48 0 72 0 27-1 53 0 79 24 0 49 0 74 0 0-50 0-100 0-151-25 0-50 0-74 0z"/>
    </symbol>
  
    <symbol id="newmorse-k-lower-case" viewBox="0 0 512 512">
      <path d="m141 154c25 0 51 0 76 0 1 51 1 102 0 153-25 0-51 0-76 0 0-32 0-64 0-96 0-19 0-38 0-57z m153 0c26 0 51 0 77 0 0 28 0 57 0 86 0 22 0 45 0 67-26 0-51 0-77 0 0-51 0-102 0-153z m-153 230c22 0 45 0 67 0 3 0 6 0 10 0-1 26 0 51-1 77-25 0-51 0-76 0 0-26 0-52 0-77z"/>
    </symbol>
  
    <symbol id="newmorse-k-upper-case" viewBox="0 0 512 512">
      <path d="m0 0l512 0 0 512-512 0 0-512m142 155c0 50 0 100 0 151 25 0 49 0 74 0 0-51 0-101 0-151-25 0-49 0-74 0m154 0c0 50 0 100 0 151 24 0 49 0 74 0 0-51 0-101 0-151-25 0-50 0-74 0m-154 230c0 25 0 50 0 74 25 0 49 0 74 0 0-24 0-49 0-74-25 0-49 0-74 0z"/>
    </symbol>
  
    <symbol id="newmorse-l-lower-case" viewBox="0 0 512 512">
      <path d="m141 154c25 0 51 0 76 0 1 25 0 51 1 76-26 0-52 0-77 0 0-25 0-51 0-76z m153 0c26 0 51 0 77 0 0 25 0 51 0 76-26 0-51 0-77 0 0-25 0-51 0-76z m-153 153c25 0 51 0 77 0 0 51 0 102 0 154-26 0-52 0-77 0 0-52 0-103 0-154z m153 0c26 0 51 0 77 0 0 26 0 51 0 77-26 0-51 0-77 0 0-26 0-51 0-77z"/>
    </symbol>
  
    <symbol id="newmorse-l-upper-case" viewBox="0 0 512 512">
      <path d="m0 0l512 0 0 512-512 0 0-512m142 155c0 25 0 49 0 74 25 0 49 0 74 0 0-25 0-49 0-74-25 0-49 0-74 0m154 0c0 25 0 49 0 74 24 0 49 0 74 0 0-25 0-49 0-74-25 0-50 0-74 0m-154 153c0 51 0 101 0 151 25 0 49 0 74 0 0-50 0-100 0-151-25 0-49 0-74 0m154 0c0 25 0 50 0 75 24 0 49 0 74-1 0-24 0-49 0-74-25 0-50 0-74 0z"/>
    </symbol>
  
    <symbol id="newmorse-oe-lower-case" viewBox="0 0 512 512">
      <path d="m141 77c23 0 47 0 71 0 2 0 4 0 6 0 0 51-1 102 0 153-26 0-52 0-77 0 0-51 0-102 0-153z m153 0c26 0 51 0 77 0 0 51 0 102 0 153-26 0-51 0-77 0 0-51 0-102 0-153z m-153 230c25 0 51 0 77 0 0 51 0 102 0 154-26 0-52 0-77 0 0-52 0-103 0-154z m153 0c26 0 51 0 77 0 0 26 0 51 0 77-26 0-51 0-77 0 0-26 0-51 0-77z"/>
    </symbol>
  
    <symbol id="newmorse-oe-upper-case" viewBox="0 0 512 512">
      <path d="m0 0l512 0 0 512-512 0 0-512m142 78c0 50 0 101 0 151 25 0 49 0 74 0 0-12 0-23 0-35 0-38 0-77 0-116-25 0-49 0-74 0m154 0c-1 21 0 42 0 62 0 30-1 59 0 89 24 0 49 0 74 0 0-50 0-101 0-151-25 0-50 0-74 0m-154 230c0 51 0 101 0 151 25 0 49 0 74 0 0-18 0-36 0-54 0-32 0-64 0-97-25 0-49 0-74 0m154 0c0 25 0 50 0 75 24 0 49 0 74-1 0-24 0-49 0-74-25 0-50 0-74 0z"/>
    </symbol>
  
    <symbol id="newmorse-masterspace-at-ac" viewBox="0 0 512 512">
      <path d="m64 154c26 0 51 0 77 0 0 25 0 51 0 76-26 0-51 0-77 0 0-25 0-51 0-76z m154 0c25 0 51 0 76 0 0 9 0 19 0 28 0 42 0 83 0 125-25 0-51 0-76 0-1-47 0-94 0-142 0-4-1-8 0-11z m153 0c26 0 51 0 77 0 0 51 0 102 0 153-26 0-51 0-77 0 0-51 0-102 0-153z m-307 153c26 0 51 0 77 0 0 51 0 102 0 154-26 0-51 0-77 0 0-52 0-103 0-154z m154 77c25 0 51 0 76 0 0 10 0 19 0 29 0 16 0 32 0 48-25 0-51 0-76 0-1-16 0-32 0-48 0-10-1-19 0-29z m153 0c21 0 42 0 63 0 5 0 9 0 14 0 0 25 0 51 0 77-26 0-51 0-77 0 0-26 0-52 0-77z"/>
    </symbol>
  
    <symbol id="newmorse-vertical-line-from-i-lower-case" viewBox="0 0 512 512">
      <path d="m141 229c25 0 51 0 76 0 1 25 0 51 1 76-26 1-52 1-77 1 0-26 0-52 0-77z m153 0c26 0 51 0 77 0 0 25 0 51 0 77-26 0-51 0-77-1 0-25 0-51 0-76z"/>
    </symbol>
  
    <symbol id="newmorse-x-lower-case" viewBox="0 0 512 512">
      <path d="m141 154c25 0 51 0 76 0 1 51 1 102 0 153-25 0-51 0-76 0 0-34 0-68 0-101 0-18 0-35 0-52z m153 0c26 0 51 0 77 0 0 25 0 51 0 76-26 0-51 0-77 0 0-25 0-51 0-76z m0 153c26 0 51 0 77 0 0 51 0 102 0 154-26 0-51 0-77 0 0-52 0-103 0-154z m-153 77c17 0 33 0 50 0 9 0 18 0 27 0-1 25 0 51-1 77-25 0-51 0-76 0 0-26 0-52 0-77z"/>
    </symbol>
  
    <symbol id="newmorse-x-upper-case" viewBox="0 0 512 512">
      <path d="m0 0l512 0 0 512-512 0 0-512m142 155c0 50 0 100 0 151 8 0 17 0 25 0 16 0 33 0 49 0 0-51 0-101 0-151-25 0-49 0-74 0m154 0c0 25-1 49 0 74 24 0 49 0 74 0 0-25 0-49 0-74-25 0-50 0-74 0m0 153c-1 22 0 44 0 66 0 29-1 57 0 85 24 0 49 0 74 0 0-50 0-100 0-151-25 0-50 0-74 0m-154 77c0 25 0 50 0 74 25 0 49 0 74 0 0-24 0-49 0-74-25 0-49 0-74 0z"/>
    </symbol>
  
    <symbol id="newmorse-y-lower-case" viewBox="0 0 512 512">
      <path d="m294 77c9 0 17 0 26 0 17 0 34 0 51 0 0 51 0 102 0 153-16 0-32 0-48 0-10 0-19 0-29 0 0-51 0-102 0-153z m-153 77c25 0 51 0 76 0 1 51 0 102 1 153-26 0-52 0-77 0 0-32 0-65 0-97 0-19 0-38 0-56z m153 153c9 0 18 0 27 0 17 0 33 0 50 0 0 51 0 102 0 154-21 0-41 0-62 0-5 0-10 0-15-1 0-51 0-102 0-153z m-153 77c24 0 48 0 72 0 2 0 3 0 5 0-1 26 0 51 0 76-10 1-19 1-28 1-16 0-33 0-49 0 0-26 0-52 0-77z"/>
    </symbol>
  
    <symbol id="newmorse-y-upper-case" viewBox="0 0 512 512">
      <path d="m0 0l512 0 0 512-512 0 0-512m296 78c0 21 0 42 0 63 0 30-1 59 0 88 24 0 49 0 74 0 0-50 0-101 0-151-25 0-50 0-74 0m-154 77c0 50 0 100 0 151 7 0 15 0 22 0 18 0 35 0 52 0 0-51 0-101 0-151-25 0-49 0-74 0m154 153c0 51 0 101 0 151 24 0 49 0 74 0 0-50 0-100 0-151-25 0-50 0-74 0m-154 77c0 25 0 50 0 74 25 0 49 0 74 0 0-24 0-49 0-74-25 0-49 0-74 0z"/>
    </symbol>
  
    <symbol id="newmorse-c-lower-case" viewBox="0 0 512 512">
      <path d="m141 75c25 0 51 0 77 0 0 51 0 103 0 154-26 0-52 0-77 0 0-51 0-103 0-154z m153 0c26 0 51 0 77 0 0 51 0 103 0 154-26 0-51 0-77 0 0-51 0-103 0-154z m-153 231c25 0 51-1 77 0-1 25 0 51-1 76-25 0-51 0-76 0 0-25 0-51 0-76z m153 0c26-1 51 0 77 0 0 25 0 51 0 76-26 0-51 0-77 0 0-25 0-51 0-76z"/>
    </symbol>
  
    <symbol id="newmorse-c-upper-case" viewBox="0 0 512 512">
      <path d="m0 0l512 0 0 512-512 0 0-512m142 77c0 50 0 100 0 150 25 1 49 0 74 0 0-50 0-100 0-151-25 1-49 0-74 1m154-1c-1 19 0 37 0 55 0 32 0 64 0 96 24 0 49 1 74 0 0-50 0-100 0-150-25-1-50 0-74-1m-154 231c0 25 0 49 0 74 25 0 49 0 74 0 0-25 0-49 0-74-25 0-49 0-74 0m154 0c-1 8 0 16 0 25 0 16 0 33 0 49 24 0 49 0 74 0 0-25 0-49 0-74-25 0-50 0-74 0z"/>
    </symbol>
  
    <symbol id="newmorse-v-lower-case" viewBox="0 0 512 512">
      <path d="m294 154c26 0 51 0 77 0 0 25 0 51 0 76-17 0-34 0-51 0-8 0-17 0-26 0 0-25 0-51 0-76z m-153 76c25 0 51 0 77 0 0 26 0 51-1 77-25 0-51 0-76 0 0-26 0-51 0-77z m153 77c26 0 51 0 77 0 0 47 0 94 0 141 0 5 0 9 0 13-22 0-43 0-65 0-4 0-8 0-12 0 0-52 0-103 0-154z m-153 77c23 0 46 0 69 0 3 0 5 0 8 0-1 26 0 51-1 77-25 0-51 0-76 0 0-26 0-52 0-77z"/>
    </symbol>
  
    <symbol id="newmorse-v-upper-case" viewBox="0 0 512 512">
      <path d="m0 0l512 0 0 512-512 0 0-512m296 155c0 25 0 49 0 74 24 0 49 0 74 0 0-25 0-49 0-74-25 0-50 0-74 0m-154 77c0 24 0 49 0 74 25 0 49 0 74 0 0-25 0-50 0-74-25 0-49 0-74 0m154 76c0 51 0 101 0 151 24 0 49 0 74 0 0-50 0-100 0-151-25 0-50 0-74 0m-154 77c0 25 0 50 0 74 25 0 49 0 74 0 0-24 0-49 0-74-25 0-49 0-74 0z"/>
    </symbol>
  
    <symbol id="newmorse-m-lower-case" viewBox="0 0 512 512">
      <path d="m141 307c16 0 33 0 49 0 9 0 18 0 28 0 0 51 0 102 0 154-26 0-52 0-77 0 0-52 0-103 0-154z m153 0c26 0 51 0 77 0 0 51 0 102 0 154-22 0-43 0-65 0-4 0-8 0-12 0 0-52 0-103 0-154z"/>
    </symbol>
  
    <symbol id="newmorse-m-upper-case" viewBox="0 0 512 512">
      <path d="m0 0l512 0 0 512-512 0 0-512m142 308c0 51 0 101 0 151 25 0 49 0 74 0 0-19 0-39 0-59 0-30 0-61 0-92-25 0-49 0-74 0m154 0c0 51 0 101 0 151 24 0 49 0 74 0 0-50 0-100 0-151-25 0-50 0-74 0z"/>
    </symbol>
  
    <symbol id="newmorse-request-to-send-by-a-station-kn-double-dagger" viewBox="0 0 512 512">
      <path d="m218 77c25 0 51 0 76 0 0 51 0 102 0 153-25 0-51 0-76 0-1-51-1-102 0-153z m153 0c26 0 51 0 77 0 0 25 0 51 0 76-26 1-51 1-77 1 0-26 0-52 0-77z m-307 77c26 0 51 0 77 0 0 51 0 102 0 153-26 0-51 0-77 0 0-51 0-102 0-153z m154 153c25 0 51 0 76 0 0 51 0 102 0 154-25 0-51 0-76 0-1-52-1-103 0-154z m-154 77c26 0 51 0 77 0 0 25 0 51 0 77-26 0-51 0-77 0 0-26 0-52 0-77z"/>
    </symbol>
  
    <symbol id="newmorse-hash-diamond-capital-sign-bk" viewBox="0 0 512 512">
      <path d="m0 0l512 0 0 512-512 0 0-512m65 29c0 51 0 101 0 151 25 0 50 0 74 0 0-50 0-100 0-151-24 0-49 0-74 0m154 0c0 25 0 50 0 75 25 0 49 0 74 0 0-25 0-50 0-75-25 0-49 0-74 0m153 0c0 51 0 101 0 151 25 0 50 0 74 0 1-50 1-100 1-151-25 0-50 0-75 0m-153 154c0 50 0 101 0 151 25 0 49 0 74 0 0-50 0-101 0-151-25 0-49 0-74 0m-154 77c0 24 0 49 0 74 25 0 50 0 74 0 0-25 0-50 0-74-24 0-49 0-74 0m0 153c0 8 0 16 0 25 0 16 0 33 0 49 16 1 32 0 48 0 9 0 18 1 26 0 0-24 1-49 0-74-24 0-49 0-74 0m154 0c0 25 0 50 0 74 25 1 49 1 74 0 0-24 0-49 0-74-25 0-49 0-74 0z"/>
    </symbol>
  
    <symbol id="newmorse-validation-radical-traffic-sign" viewBox="0 0 512 512">
      <path d="m294 28c26 0 51 0 77 0 0 51 0 103 0 154-26 0-51 0-77 0 0-51 0-103 0-154z m-153 77c25 0 51 0 76 0 1 26 1 51 1 77-26 0-52 0-77 0 0-26 0-51 0-77z m0 153c25 0 51 0 76 0 1 26 1 52 0 77-25 0-51 0-76 0 0-25 0-51 0-77z m153 0c26 0 51 0 77 0 0 26 0 52 0 77-26 0-51 0-77 0 0-25 0-51 0-77z m-153 154c25 0 51 0 76 0 1 26 1 51 0 77-25 0-51 0-76 0 0-26 0-51 0-77z m153 0c51 0 103 0 154 0 0 26 0 51 0 77-51 0-103 0-154 0 0-26 0-51 0-77z"/>
    </symbol>
  
    <symbol id="newmorse-comma-mim-txt" viewBox="0 0 512 512">
      <path d="m64 37c31 0 62 0 93 0 20 0 40 0 61 0 0 25 0 51-1 77-51 0-102 0-153 0 0-26 0-52 0-77z m230 0c26 0 51 0 77 0 0 25 0 51 0 77-26 0-51 0-77 0 0-26 0-52 0-77z m-153 153c25 0 51 0 77 0 0 52 0 103-1 154-25 0-51 0-76 0 0-51 0-102 0-154z m153 0c26 0 51 0 77 0 0 52 0 103 0 154-26 0-51 0-77 0 0-51 0-102 0-154z m-153 231c25 0 51 0 77 0 0 25 0 51-1 76-25 0-51 0-76 0 0-25 0-51 0-76z m153 0c51 0 103 0 154 0 0 25 0 51 0 76-51 0-103 0-154 0 0-25 0-51 0-76z"/>
    </symbol>
  
    <symbol id="newmorse-dot-aaa" viewBox="0 0 512 512">
      <path d="m64 154c26 0 51 0 77 0 0 25 0 51 0 76-26 0-51 0-77 0 0-25 0-51 0-76z m154 0c25 0 51 0 76 0 0 10 0 20 0 30 0 16 0 31 0 46-25 0-51 0-76 0-1-16 0-33 0-49 0-9-1-18 0-27z m153 0c26 0 51 0 77 0 0 25 0 51 0 76-26 0-51 0-77 0 0-25 0-51 0-76z m-307 153c26 0 51 0 77 0 0 51 0 102 0 154-26 0-51 0-77 0 0-52 0-103 0-154z m154 0c25 0 51 0 76 0 0 51 0 102 0 154-25 0-51 0-76 0-1-52-1-103 0-154z m153 0c26 0 51 0 77 0 0 51 0 102 0 154-26 0-51 0-77 0 0-52 0-103 0-154z"/>
    </symbol>
  
    <symbol id="newmorse-semicolon-nnn" viewBox="0 0 512 512">
      <path d="m64 154c26 0 51 0 77 0 0 51 0 102 0 153-26 0-51 0-77 0 0-51 0-102 0-153z m154 0c25 0 51 0 76 0 0 9 0 19 0 28 0 42 0 83 0 125-25 0-51 0-76 0-1-47 0-94 0-141 0-4-1-8 0-12z m153 0c26 0 51 0 77 0 0 51 0 102 0 153-26 0-51 0-77 0 0-51 0-102 0-153z m-153 230c25 0 51 0 76 0 0 13 0 27 0 40 0 12 0 24 0 37-25 0-51 0-76 0-1-17 0-33 0-49 0-9-1-19 0-28z m-154 0c26 0 51 0 77 0 0 25 0 51 0 77-26 0-51 0-77 0 0-26 0-52 0-77z m307 0c21 0 42 0 63 0 4 0 9 0 14 0 0 25 0 51 0 77-26 0-51 0-77 0 0-26 0-52 0-77z"/>
    </symbol>
  
    <symbol id="newmorse-double-dot-mb" viewBox="0 0 512 512">
      <path d="m218 37c25 0 51 0 76 0 0 51 0 102 0 153-25 0-51 0-76 0-1-51-1-102 0-153z m153 0c26 0 51 0 77 0 0 25 0 51 0 77-26 0-51 0-77 0 0-26 0-52 0-77z m-307 77c26 0 51 0 77 0 0 51 0 102 0 153-26 0-51 0-77 0 0-51 0-102 0-153z m154 153c25 0 51 0 76 0 0 26 0 51 0 77-25 0-51 0-76 0-1-26-1-51 0-77z m-154 77c26 0 51 0 77 0 0 51 0 102 0 153-26 0-51 0-77 0 0-51 0-102 0-153z m154 77c25 0 51 0 76 0 0 25 0 51 0 76-25 0-51 0-76 0-1-25 0-51 0-76z"/>
    </symbol>
  
    <symbol id="newmorse-repeat-ii-infinity" viewBox="0 0 512 512">
      <path d="m102 139c26 0 52 0 77 0 0 25 0 51 0 76-25 0-51 0-77 0 0-25 0-51 0-76z m231 0c25 0 51 0 76 0 0 25 0 51 0 76-25 0-51 0-76 0 0-25 0-51 0-76z m-231 153c26 0 52 0 77 0 0 26 0 51 0 77-25 0-51 0-77 0 0-26 0-51 0-77z m231 0c25 0 51 0 76 0 0 26 0 51 0 77-25 0-51 0-76 0 0-26 0-51 0-77z"/>
    </symbol>
  
    <symbol id="newmorse-pause-traffic-sign" viewBox="0 0 512 512">
      <path d="m141 152c21 0 43 0 65 0 4 0 8 0 12 0-1 26 0 51-1 77-25 0-51 0-76 0 0-26 0-51 0-77z m77 77c25 0 51 0 76 0 0 25 0 51 0 76 26 1 51 0 77 1 0 25 0 51 0 76-26 0-51 0-77 0 0-25 0-51 0-76-25-1-51 0-76 0-1-26-1-52 0-77z"/>
    </symbol>
  
    <symbol id="newmorse-wait-as-horizontal-ellipse" viewBox="0 0 512 512">
      <path d="m294 77c26 0 51 0 77 0 0 25 0 51 0 77-26 0-51 0-77-1 0-25 0-51 0-76z m-153 77c25 0 51 0 76 0 1 25 0 51 1 76-26 0-52 0-77 0 0-25 0-51 0-76z m153 76c26 0 51 0 77 0 0 26 0 51 0 77-26 0-51 0-77 0 0-26 0-51 0-77z m-153 77c25 0 51 0 77 0 0 51 0 102 0 154-26 0-52 0-77 0 0-52 0-103 0-154z m153 77c13 0 25 0 37 0 13 0 27 0 40 0 0 25 0 51 0 77-26 0-51 0-77 0 0-26 0-52 0-77z"/>
    </symbol>
  
    <symbol id="newmorse-low-line-uk" viewBox="0 0 512 512">
      <path d="m218 77c25 0 51 0 76 0 0 51 0 102 0 153-25 0-51 0-76 0-1-51-1-102 0-153z m153 0c26 0 51 0 77 0 0 25 0 51 0 76-26 1-51 1-77 1 0-26 0-52 0-77z m-307 153c26 0 51 0 77 0 0 26 0 51 0 77-26 0-51 0-77 0 0-26 0-51 0-77z m307 0c26 0 51 0 77 0 0 51 0 103 0 154-26 0-51 0-77 0 0-51 0-103 0-154z m-153 77c25 0 51 0 76 0 0 51 0 102 0 154-25 0-51 0-76 0-1-52-1-103 0-154z m-154 77c26 0 51 0 77 0 0 25 0 51 0 77-26 0-51 0-77 0 0-26 0-52 0-77z"/>
    </symbol>
  
    <symbol id="newmorse-en-dash-from-inverted-minus-tht" viewBox="0 0 512 512">
      <path d="m0 0l512 0 0 512-512 0 0-512m65 76c0 25 0 50 0 75 51 0 101 0 151 0 0-25 0-50 0-74-50-1-100 0-151-1m231 1c0 24 0 49 0 74 24 0 49 0 74 0 0-25 0-50 0-74-25-1-50 0-74 0m-154 153c0 25 0 50 0 74 25 0 49 0 74 0 0-24 0-49 0-74-25 0-49 0-74 0m154 0c0 25-1 50 0 74 24 0 49 0 74 0 0-24 0-49 0-74-25 0-50 0-74 0m-154 154c0 24 0 49 0 74 25 0 49 0 74 0 0-25 0-50 0-74-25 0-49 0-74 0m154 0c0 24 0 49 0 74 50 0 100 0 151 0 0-25 0-50 0-74-51 0-101 0-151 0z"/>
    </symbol>
  
    <symbol id="newmorse-quote-double-open-alt-q" viewBox="0 0 512 512">
      <path d="m140 37c25 0 51 0 76 0 0 25 1 51 0 77-25 0-51 0-76 0 0-26 0-52 0-77z m153 0c1 0 1 0 1 0 25 0 51 0 76 0 0 25 0 51 0 77-17 0-35 0-52 0-8 0-16 0-25 0 0-26 0-51 0-77z m-153 153c25 0 51 0 76 0 0 52 1 103 0 154-25 0-51 0-76 0 0-51 0-102 0-154z m153 0c26 0 51 0 77 0 0 52 0 103 0 154-16 0-32 0-48 0-9 0-19 0-29 0 0-51 0-102 0-154z m-153 231c25 0 51 0 76 0 0 25 1 51 0 76-25 0-51 0-76 0 0-25 0-51 0-76z m153 0c26 0 51 0 77 0 0 25 0 51 0 76-26 0-51 0-77 0 0-25 0-51 0-76z"/>
    </symbol>
  
    <symbol id="newmorse-quotation-shift-2" viewBox="0 0 512 512">
      <path d="m0 0l512 0 0 512-512 0 0-512m65 38c0 25 0 50 0 74 51 0 101 0 151 0 0-24 0-49 0-74-50 0-100 0-151 0m231 0c0 25 0 50 0 74 24 0 49 0 74 0 0-24 0-49 0-74-25 0-50 0-74 0m-154 154c0 50 0 100 0 151 25 0 49 0 74 0 0-51 0-101 0-151-25 0-49 0-74 0m154 0c0 50 0 100 0 151 24 0 49 0 74 0 0-51 0-101 0-151-25 0-50 0-74 0m-154 230c0 25 0 49 0 74 25 0 49 0 74 0 0-25 0-49 0-74-25 0-49 0-74 0m154 0c-1 25 0 49 0 74 50 0 100 0 151 0 0-25 0-49-1-74-50 0-100 0-150 0z"/>
    </symbol>
  
    <symbol id="newmorse-quote-double-close-alt-shift-q" viewBox="0 0 512 512">
      <path d="m0 0l512 0 0 512-512 0 0-512m141 38c0 25 0 50 0 74 25 0 49 0 74 0 0-24 0-49 0-74-25 0-49 0-74 0m154 0c0 25 0 50 0 74 24 0 49 0 74 0 0-24 0-49 0-74-25 0-50 0-74 0m-154 154c0 50 0 100 0 151 25 0 49 0 74 0 0-51 0-101 0-151-25 0-49 0-74 0m154 0c-1 50 0 100 0 151 24 0 49 0 74 0 0-51 0-101 0-151-25 0-50 0-74 0m-154 230c0 25 0 49 0 74 10 0 21 0 31 0 14 0 29 0 43 0 0-11 0-23 0-34 0-14 0-27 0-40-25 0-49 0-74 0m154 0c-1 25 0 49 0 74 24 0 49 0 74 0 0-25 0-49 0-74-25 0-50 0-74 0z"/>
    </symbol>
  
</svg>
